<svg width="70" height="47" viewBox="0 0 70 47" fill="none" xmlns="http://www.w3.org/2000/svg">
<path d="M29.2527 10.4798C29.488 10.3301 29.488 10.159 29.3169 9.90235C29.0603 9.4746 28.8036 9.04686 28.547 8.6405C28.2903 8.21275 28.055 7.74223 27.7342 7.35726C27.7342 7.33587 27.7129 7.33587 27.7129 7.31448C27.5204 6.99367 27.3279 6.67286 27.114 6.35205C27.1782 7.29309 27.0712 8.25553 26.9643 9.19657C26.8574 10.0948 26.9643 10.9289 27.2851 11.6989C27.3279 11.6775 27.3707 11.6561 27.4348 11.6133C28.0551 11.2498 28.6539 10.8648 29.2527 10.4798Z" fill="url(#paint0_linear_69_2)"/>
<path d="M29.8088 11.6561C29.7232 11.1856 29.5094 11.0573 29.1458 11.2497C28.6539 11.5278 28.162 11.8486 27.67 12.148C27.6487 12.1694 27.6273 12.1694 27.6059 12.1908C27.5845 12.1908 27.5631 12.2122 27.5631 12.2122C27.67 12.4047 27.7984 12.5971 27.9267 12.7682C28.3972 13.3885 29.0174 13.7948 29.766 13.9873C29.8729 14.0087 29.9799 14.0301 30.0868 14.0729C30.0868 14.0087 30.0654 13.9659 30.0654 13.9018C30.0013 13.1746 29.9371 12.4261 29.8088 11.6561Z" fill="url(#paint1_linear_69_2)"/>
<path d="M33.2307 5.41092C32.8885 5.60341 32.8244 5.86006 33.0596 6.26642C33.2521 6.63 33.4874 6.99359 33.7013 7.33578C33.851 7.57104 34.0221 7.63521 34.2359 7.4855C34.5354 7.29301 34.8562 7.10052 35.1556 6.92942C35.1556 6.92942 35.1556 6.95081 35.177 6.95081C35.3909 6.82249 35.6047 6.69416 35.8186 6.56584C35.3909 5.96699 34.792 5.47509 34.0221 5.15428C33.9365 5.13289 33.8724 5.09011 33.7868 5.06873C33.5729 5.19705 33.4018 5.30399 33.2307 5.41092Z" fill="url(#paint2_linear_69_2)"/>
<path d="M39.0696 10.2657C38.4279 10.116 37.7649 10.0732 37.1019 10.0091C36.9522 9.98768 36.8453 10.0091 36.7811 9.83797C36.7597 9.77381 36.6528 9.75242 36.5672 9.70965C36.5245 9.68826 36.4603 9.68826 36.3961 9.68826C36.4175 9.55994 36.4175 9.47439 36.4389 9.36745C36.5459 8.51196 36.3962 7.72062 36.054 7.05762C35.5834 7.33565 35.1343 7.63507 34.6638 7.95589C34.4285 8.1056 34.2788 8.34086 34.3216 8.70444C34.4499 9.49577 34.5568 10.2871 34.7066 11.0571C34.7921 11.5703 35.0701 11.7201 35.4551 11.5062C35.9042 11.2495 36.2892 10.9501 36.332 10.2871C36.332 10.1588 36.5459 10.0732 36.6742 9.94491C36.7383 10.116 36.8881 10.2871 36.8881 10.4368C36.8881 10.8432 36.8025 11.2281 36.7597 11.6345C36.717 12.1478 36.6528 12.6611 36.6314 13.1958C36.6314 13.3455 36.717 13.5808 36.8239 13.6449C36.9308 13.7091 37.1233 13.6235 37.2516 13.5594C37.5724 13.3883 37.8933 13.1744 38.1927 12.9819C38.1927 12.9819 38.1927 12.9605 38.1713 12.9605C38.4493 12.7894 38.7274 12.6183 39.0054 12.4472C39.1765 12.3403 39.3048 12.2761 39.3476 12.212C39.5829 12.0836 39.8181 11.9553 40.0534 11.8056C40.2031 11.9339 40.3528 12.0836 40.5025 12.2334C40.4384 12.2761 40.3528 12.3189 40.2886 12.3617C40.0748 12.49 39.8609 12.5756 39.6898 12.7253C39.6684 12.7467 39.647 12.768 39.647 12.7894C38.8343 13.3027 38.0216 13.816 37.1875 14.3293C36.9522 14.479 36.717 14.6287 36.4389 14.7357C36.1609 14.8426 36.0112 14.6929 35.9898 14.3721C35.9898 14.1582 35.9898 13.923 36.0112 13.7091C36.0326 13.3027 36.0967 12.8964 36.1181 12.4686C36.1181 12.3403 36.0326 12.1264 35.9256 12.0409C35.8401 11.9767 35.6476 11.9981 35.562 12.0623C35.3482 12.1906 35.1557 12.4045 34.9418 12.5328C34.621 12.7467 34.343 12.5969 34.236 12.1692C34.1933 12.0409 34.1719 11.8912 34.1505 11.7628C34.0435 10.9501 33.9366 10.1374 33.8083 9.32468C33.7227 8.7686 33.4661 8.61889 33.0383 8.87554C32.247 9.34606 31.4557 9.83797 30.6643 10.3085C30.4291 10.4582 30.258 10.6721 30.3008 10.9929C30.4077 11.8484 30.536 12.7253 30.6643 13.5808C30.7285 14.0299 30.9424 14.1582 31.306 14.0085C31.862 13.7519 32.2684 13.3669 32.2898 12.5969C32.2898 12.3831 32.2898 12.0409 32.5892 12.1264C32.91 12.212 32.8031 12.5328 32.7817 12.768C32.6961 13.7519 32.5892 14.7143 32.525 15.6981C32.525 15.8264 32.5678 16.0617 32.6534 16.1045C32.7603 16.1686 32.9314 16.1472 33.0597 16.0831C33.2736 15.9975 33.4661 15.8478 33.6799 15.7195C34.1719 15.4415 34.1933 15.3131 33.7655 14.7784C33.68 14.6929 33.7013 14.5218 33.6586 14.3721C33.7869 14.3721 33.9366 14.3293 34.0222 14.3935C34.3216 14.586 34.5782 14.8212 34.8563 15.0351C35.1129 15.2276 35.1343 15.4415 34.9204 15.6126C34.7066 15.7623 34.4927 15.8906 34.2574 16.0403C34.0863 16.1472 34.0222 16.2756 34.1719 16.5108C34.8349 17.6016 35.4979 18.6923 36.1823 19.7831C36.5459 20.3392 36.995 20.5103 37.4869 20.2322C38.2782 19.7831 39.0482 19.2698 39.8609 18.7993C40.1389 18.6282 40.1817 18.3715 39.9892 18.0507C39.6898 17.516 39.3476 16.9813 39.0054 16.4467C38.8343 16.19 38.599 16.0831 38.3638 16.2114C37.9788 16.4253 37.5938 16.6391 37.2089 16.8958C36.9522 17.0669 36.8025 17.3235 37.0164 17.7299C37.0592 17.7941 37.0378 17.9438 36.995 17.9865C36.9522 18.0293 36.8025 18.0507 36.7597 18.0079C36.5672 17.7727 36.3106 17.516 36.2037 17.2594C36.1395 17.1097 36.2678 16.7889 36.3961 16.7033C37.0592 16.2542 37.7435 15.8264 38.4279 15.4201C38.6632 15.2704 38.9412 15.3559 39.1337 15.6767C39.6684 16.5536 40.2031 17.4305 40.7378 18.3287C40.9516 18.6923 40.8875 18.9704 40.5667 19.1415C40.3742 19.2484 40.1817 19.334 39.9892 19.4623C39.1123 19.997 38.2355 20.553 37.3586 21.0877C36.8453 21.3871 36.5245 21.2802 36.1609 20.6814C35.3909 19.4409 34.6424 18.179 33.8938 16.9172C33.6586 16.5108 33.5516 16.468 33.2308 16.6605C32.9528 16.8316 32.6747 17.0669 32.3753 17.2166C32.0545 17.3877 31.862 17.238 31.8193 16.8316C31.7979 16.6178 31.8193 16.4039 31.862 16.19C31.9048 15.805 32.0117 15.4415 32.0117 15.0565C32.0331 14.6073 31.8192 14.4363 31.4343 14.6287C31.199 14.7357 31.0065 14.9282 30.7713 15.0565C30.4932 15.2062 30.258 15.0993 30.1297 14.7998C30.1083 14.8854 30.0655 14.9709 30.0227 15.0565C29.4239 15.912 28.9106 16.8316 28.5684 17.8155C28.269 18.6709 28.0765 19.5478 28.1834 20.4675C28.3117 21.7507 29.0603 22.5207 30.3435 22.6704C30.9638 22.7559 31.584 22.6918 32.1828 22.5634C32.3325 22.5421 32.4823 22.4779 32.6534 22.4351C32.6747 22.4351 32.7175 22.4779 32.7603 22.4993C33.6586 23.034 34.621 23.3548 35.6476 23.4403C35.5193 23.2051 35.3482 22.9698 35.1985 22.7132C35.1771 22.6276 35.1343 22.5634 35.0915 22.4993C34.5782 21.6866 34.0863 20.8525 33.573 20.0397C33.0383 19.1842 33.0383 19.1842 32.0973 19.6975C32.0331 19.7403 31.9904 19.7617 31.9262 19.8045C31.9048 19.8045 31.9048 19.8045 31.8834 19.8259C31.6268 19.9542 31.3915 20.1253 31.1562 20.2536C31.0493 20.3178 30.9424 20.3819 30.8354 20.4461C31.0921 20.9808 31.4557 21.4513 31.8834 21.8577C31.9262 21.879 31.9476 21.9218 32.0117 21.986C31.9262 22.0074 31.862 22.0074 31.7979 22.0288C31.4129 22.0501 31.0493 22.0929 30.6643 22.0715C29.6164 22.0074 29.0389 21.4513 28.8892 20.4033C28.8036 19.7831 28.8892 19.1842 29.0603 18.6068C29.2955 17.7299 29.7019 16.9172 30.1724 16.1472C30.1938 16.1259 30.2152 16.1045 30.258 16.0403C30.2366 16.4894 30.1938 16.8744 30.1938 17.2808C30.1724 18.2004 30.3008 19.0773 30.6216 19.9328L31.5626 19.3553C31.6482 19.334 31.7123 19.2912 31.7979 19.2484C32.0545 19.0987 32.3112 18.9276 32.5678 18.7565C33.2094 18.3287 33.3378 18.3715 33.7227 19.0131C34.3857 20.1039 35.0915 21.1733 35.6904 22.3068C35.7118 22.371 35.7545 22.4137 35.7973 22.4779C35.7973 22.5207 35.8187 22.5421 35.8401 22.5848C36.0326 22.8629 36.2037 23.1623 36.3748 23.4617C38.5563 23.4189 40.417 22.5634 41.9996 21.0236C42.5343 20.5103 42.9407 19.9114 43.2615 19.2698C43.1973 19.1629 43.1118 19.0345 43.0476 18.9276C42.8979 18.6923 42.7696 18.4357 42.5985 18.2218C42.5771 18.2004 42.5557 18.1577 42.5557 18.1363C42.5343 18.1149 42.5343 18.0935 42.5129 18.0721C42.4915 18.0293 42.4701 17.9866 42.4488 17.9652C41.7644 16.8744 41.1014 15.7623 40.4384 14.6501C40.3314 14.479 40.2459 14.1154 40.3314 14.0727C40.5453 13.923 40.7378 14.1368 40.9089 14.3721C40.9517 14.4363 41.0158 14.5004 41.0372 14.586C41.4436 15.2704 41.8499 15.9761 42.2349 16.6605C42.3418 16.8316 42.4488 17.0027 42.5557 17.1738C42.5557 17.1952 42.5771 17.2166 42.5985 17.238C42.8979 17.7513 43.2401 18.2432 43.5181 18.7565C43.7534 18.179 43.8603 17.5588 43.9031 16.9172C44.117 13.7946 42.0424 10.9715 39.0696 10.2657Z" fill="url(#paint3_linear_69_2)"/>
<path d="M27.6914 6.18094C27.7342 6.24511 27.7556 6.33065 27.8198 6.39482C28.2047 7.01505 28.5897 7.63528 28.9747 8.2769C29.2313 8.70465 29.488 9.15378 29.7446 9.60292C29.8943 9.83818 30.0868 10.0734 30.3435 9.90234C31.2845 9.32488 32.2256 8.74743 33.1666 8.16997C33.4232 8.02026 33.4232 7.80638 33.2308 7.52835C32.9955 7.20754 32.7816 6.88673 32.5891 6.54453C31.9047 5.411 31.9261 5.34684 32.91 4.83354C32.91 4.83354 32.9313 4.83354 32.9313 4.81215C32.7816 4.76938 32.6105 4.70522 32.4608 4.66244C31.0493 4.23469 29.7874 3.48614 28.6325 2.56648C28.5683 2.52371 28.5042 2.48093 28.5469 2.374C28.6539 2.05319 28.5469 1.79654 28.3117 1.56128C28.2475 1.49711 28.2047 1.41156 28.2047 1.32602C28.162 0.855494 27.9481 0.491909 27.5203 0.278035C27.3279 0.171098 27.0926 0.106937 26.9001 0.0213876C26.7718 -0.0213871 26.6648 -7.26628e-07 26.5579 0.0855487C26.0446 0.427746 25.5313 0.769944 25.0394 1.13353C24.9966 1.1763 24.9325 1.24047 24.9325 1.30463C24.9325 1.62544 24.9111 1.94625 24.9539 2.26706C24.9966 2.63064 25.2319 2.8659 25.5741 2.95145C25.6596 2.97284 25.7238 2.99423 25.8093 3.01562C25.788 3.59307 26.0232 3.82834 26.6221 3.8925C26.6435 3.97805 26.6649 4.04221 26.6862 4.12776C26.7718 4.53412 26.9001 4.96187 26.9857 5.36822C27.0284 5.32545 27.0498 5.26129 27.0926 5.21851L27.6914 6.18094Z" fill="url(#paint4_linear_69_2)"/>
<path d="M1.29995 28.8046V27.3714H15.4161V28.8046H9.83294V32.6045H15.0994V34.0211H9.83294V39.6709H15.8494V41.1042H0.799968V39.6709H2.51657V32.1712H4.54982V39.6709H7.56636V28.8046H1.29995ZM31.1488 36.3543L30.9821 35.7377C29.8821 35.8266 29.0155 35.8821 28.3822 35.9044V37.0377V37.1376H33.2153V38.3709H28.7155C29.0044 38.8265 29.5044 39.2209 30.2155 39.5542C30.9265 39.8875 31.9709 40.2042 33.3487 40.5042V41.7041C31.7932 41.5041 30.5821 41.243 29.7155 40.9208C28.8822 40.6097 28.1155 40.132 27.4156 39.4876C26.76 40.132 26.0212 40.6097 25.199 40.9208C24.3768 41.2319 23.1657 41.493 21.5658 41.7041V40.5042C24.0546 40.0486 25.5656 39.3376 26.099 38.3709H21.8991V37.1376H26.4489V37.021V35.971C25.6712 35.9933 24.3157 36.0044 22.3824 36.0044V34.8211C23.7379 34.4322 25.0212 33.9544 26.2323 33.3878C25.2657 33.4322 24.099 33.4545 22.7324 33.4545V32.3045C23.8324 31.9601 24.8435 31.5101 25.7656 30.9546H28.2155C27.3711 31.5212 26.4045 31.9767 25.3157 32.3212C26.56 32.3434 27.5878 32.3101 28.3989 32.2212C28.9544 31.8879 29.4155 31.599 29.7821 31.3545H32.2654C30.2432 32.8989 28.0433 34.0544 25.6656 34.8211C27.51 34.8211 29.1488 34.76 30.5821 34.6377C30.4488 34.3155 30.221 33.8656 29.8988 33.2878H31.3654C31.9876 34.21 32.4543 35.2322 32.7654 36.3543H31.1488ZM22.1324 28.7213V27.4714H28.7322C29.621 27.4714 30.3543 27.4325 30.9321 27.3547C31.4987 27.2769 32.1487 27.1325 32.882 26.9214V28.238C31.771 28.5602 30.5154 28.7213 29.1155 28.7213H22.1324ZM18.2659 41.4875C19.1548 39.3098 19.6937 37.071 19.8825 34.7711H21.5158C21.3825 37.0821 20.9492 39.3209 20.2159 41.4875H18.2659ZM19.7492 34.0211C19.4492 32.8212 19.0881 31.7768 18.6659 30.8879H20.3659C20.8769 31.8656 21.2658 32.91 21.5325 34.0211H19.7492ZM19.5826 30.1379C19.3714 29.0935 19.0215 28.038 18.5326 26.9714H20.2159C20.7047 27.9158 21.088 28.9713 21.3658 30.1379H19.5826ZM29.5655 30.7212C30.0321 30.199 30.3655 29.6713 30.5654 29.138H32.4154C32.1487 29.7713 31.7654 30.299 31.2654 30.7212H29.5655ZM23.3657 30.7046C23.288 30.2268 23.088 29.6991 22.7658 29.1213H24.399C24.7323 29.6324 24.9712 30.1601 25.1157 30.7046H23.3657ZM26.9156 30.7046C26.7934 30.1268 26.5878 29.6046 26.2989 29.138H27.9489C28.2822 29.5935 28.5211 30.1157 28.6655 30.7046H26.9156ZM50.1647 37.4376V39.6542C50.1647 40.3653 50.0147 40.8653 49.7147 41.1542C49.4147 41.443 48.9092 41.5875 48.1981 41.5875H46.0315V40.4542H47.4981C47.7648 40.4542 47.9536 40.3986 48.0647 40.2875C48.1759 40.1764 48.2314 39.9931 48.2314 39.7375V38.4709H39.3818C38.7151 38.4709 38.2429 38.332 37.9651 38.0543C37.6874 37.7765 37.5485 37.3154 37.5485 36.671V34.3711H40.715C40.815 34.1155 40.915 33.7711 41.015 33.3378H42.9983C42.8983 33.7822 42.7983 34.1267 42.6983 34.3711H48.7147V35.3711C48.7147 35.9599 48.5869 36.3766 48.3314 36.621C48.0759 36.8654 47.6592 36.9877 47.0815 36.9877H45.0815V36.1044H46.3648C46.5426 36.1044 46.6759 36.0655 46.7648 35.9877C46.8426 35.921 46.8815 35.7988 46.8815 35.621V35.4044H39.4818V36.5877C39.4818 36.9099 39.5484 37.1321 39.6817 37.2543C39.8151 37.3765 40.0484 37.4376 40.3817 37.4376H50.1647ZM42.1816 32.8878C40.4817 33.31 38.3762 33.6156 35.8652 33.8044V32.5712C36.0319 32.5712 36.2819 32.5601 36.6152 32.5378V30.1046H37.9985V32.4545L38.7651 32.4045V29.6213H36.7652V26.9881H41.865V28.2713C41.865 28.738 41.7539 29.0824 41.5317 29.3046C41.3206 29.5157 40.9761 29.6213 40.4984 29.6213H40.3151V30.3213H41.8983V31.2046H40.3151V32.2212L42.1816 31.9212V32.8878ZM50.6813 30.9712C48.9258 30.7712 47.5259 30.5101 46.4815 30.1879C45.4037 30.5324 43.9649 30.7935 42.165 30.9712V30.1213C43.3316 29.9657 44.276 29.7879 44.9982 29.588C44.5982 29.388 44.1482 29.1213 43.6483 28.788C43.2372 28.9546 42.7816 29.1046 42.2816 29.238V28.3547C43.1705 27.9991 43.8205 27.4214 44.2316 26.6214H45.9482C45.9371 26.6436 45.8315 26.8214 45.6315 27.1547H50.048V28.0213C49.3702 28.6991 48.6647 29.2213 47.9314 29.588C48.6203 29.7879 49.5369 29.9657 50.6813 30.1213V30.9712ZM43.1316 33.7211V30.9712H49.698V32.3378C49.698 32.8378 49.5869 33.1934 49.3647 33.4045C49.1425 33.6156 48.7758 33.7211 48.2647 33.7211H43.1316ZM46.8315 40.2875H35.9819V39.2042H46.8315V40.2875ZM48.1481 32.2878V31.8379H44.6649V32.8545H47.5981C47.9647 32.8545 48.1481 32.6656 48.1481 32.2878ZM43.2816 35.771C43.626 36.1821 43.8649 36.6154 43.9982 37.071H41.8983C41.7872 36.6154 41.5983 36.1821 41.3317 35.771H43.2816ZM44.8649 28.0213C44.7093 28.1547 44.5871 28.2491 44.4982 28.3047H45.1315C45.5093 28.5713 45.9371 28.8158 46.4148 29.038C46.9259 28.7824 47.4425 28.4436 47.9647 28.0213H44.8649ZM40.2651 28.2713V27.8047H38.3485V28.7713H39.7317C39.9206 28.7713 40.0595 28.7324 40.1484 28.6547C40.2262 28.588 40.2651 28.4602 40.2651 28.2713ZM59.2476 30.7379L60.0976 26.6881H61.9309L61.7642 27.4047H67.0307L66.414 31.5879H68.2639V32.8878H64.3308C64.0308 33.1989 63.6752 33.4989 63.2641 33.7878C64.3419 34.4433 64.8807 35.4211 64.8807 36.721V39.4376C64.8807 40.2042 64.7196 40.7542 64.3974 41.0875C64.0752 41.4208 63.553 41.5875 62.8308 41.5875H61.3642V40.3375H62.2642C62.5642 40.3375 62.7808 40.2709 62.9142 40.1375C63.0475 40.0042 63.1141 39.7764 63.1141 39.4542V38.3709C61.9697 39.3931 60.3365 40.1931 58.2143 40.7708V39.5876C60.2587 38.8876 61.8864 37.8765 63.0975 36.5543C63.0753 36.2766 63.053 36.071 63.0308 35.9377C61.9753 36.8599 60.3643 37.5932 58.1977 38.1376V36.9877C59.8976 36.4988 61.3087 35.7433 62.4308 34.7211C62.3308 34.6211 62.2197 34.5322 62.0975 34.4544C61.1309 34.8877 59.8309 35.2766 58.1977 35.621V34.4878C59.7754 34.11 61.0364 33.5767 61.9809 32.8878H58.381V31.5879H64.5808L64.7141 30.7379H59.2476ZM53.5979 37.171V35.7377C54.4645 34.76 55.1589 33.7767 55.6811 32.7878C54.9256 32.8545 54.1201 32.8823 53.2645 32.8712V31.4712C54.2312 30.0935 54.9256 28.5158 55.3478 26.7381L57.1977 26.7214C56.5644 28.6435 55.7644 30.2268 54.7978 31.4712C55.4311 31.4712 55.9422 31.4379 56.3311 31.3712C56.5422 30.7823 56.72 30.2435 56.8644 29.7546H58.5977C58.2199 31.0212 57.7644 32.1323 57.231 33.0878C56.7311 33.9767 56.0922 34.8489 55.3145 35.7044C56.3255 35.6822 57.1977 35.5933 57.931 35.4377V36.7377C56.6422 37.071 55.1978 37.2154 53.5979 37.171ZM68.5473 41.0875C67.4251 40.2986 66.6251 39.5264 66.1474 38.7709C65.6363 37.9598 65.3029 36.871 65.1474 35.5044V34.2378H66.6807C67.3029 34.2378 67.8862 34.11 68.4306 33.8544V35.1877C68.0195 35.3988 67.5751 35.5044 67.0973 35.5044H66.6973C66.7862 36.4043 66.9695 37.1599 67.2473 37.771C67.514 38.3598 67.9473 38.9987 68.5473 39.6875V41.0875ZM53.2812 40.3875V38.8709C55.0367 38.9154 56.6144 38.7487 58.0143 38.3709V39.6709C57.1699 39.9486 56.4144 40.1375 55.7478 40.2375C55.0922 40.3375 54.2701 40.3875 53.2812 40.3875ZM65.0474 28.5547H61.5142L61.2976 29.6046H64.8807L65.0474 28.5547Z" fill="url(#paint5_linear_69_2)"/>
<path d="M53.3771 44.0289V46.2755C53.448 46.3032 53.5205 46.326 53.5873 46.3594C53.6337 46.383 53.672 46.4213 53.7877 46.5084C53.5384 46.5133 53.3812 46.5182 53.2232 46.5198C53.0627 46.5215 52.9014 46.5198 52.7336 46.5198C52.7255 46.4685 52.7206 46.4319 52.7133 46.3862C52.8363 46.308 53.0301 46.4351 53.1165 46.2022V43.7006C53.0611 43.6493 52.9918 43.5646 52.9047 43.5108C52.8403 43.4717 52.6962 43.5621 52.723 43.3577C52.9658 43.3218 53.2191 43.3585 53.5123 43.3357C53.6753 43.5744 53.8414 43.8318 54.0223 44.0786C54.3049 44.4655 54.5998 44.8426 54.8849 45.2279C55.0209 45.4112 55.1472 45.6026 55.306 45.8307V43.642C55.3313 43.409 54.994 43.6118 54.9949 43.3634H55.9821C55.9666 43.4139 55.965 43.4864 55.9389 43.4962C55.6359 43.6094 55.5699 43.6851 55.5691 43.9833C55.5667 44.6618 55.5683 45.3395 55.5683 46.0181V46.5907H55.2417C54.9281 46.1883 54.5672 45.7859 54.278 45.3379C54.0011 44.9078 53.6533 44.529 53.3779 44.0281L53.3771 44.0289Z" fill="url(#paint6_linear_69_2)"/>
<path d="M22.6728 46.2341C22.6883 46.4605 23.0174 46.2365 22.9783 46.5045H22.0537C22.1083 46.4361 22.1319 46.3815 22.1727 46.3611C22.2492 46.322 22.3364 46.3025 22.4105 46.2772V43.7716C22.3665 43.5061 22.0725 43.5786 21.9821 43.3611H22.817C23.3693 44.1594 23.9427 44.9927 24.6001 45.8455V43.6731C24.5895 43.4417 24.2889 43.5989 24.2857 43.3586H25.2843C25.2558 43.423 25.2477 43.4914 25.2175 43.5028C24.9748 43.5932 24.9715 43.5884 24.8575 43.7122V46.59L24.5618 46.6096C23.8849 45.848 23.3293 44.9756 22.6728 44.1089V46.2341Z" fill="url(#paint7_linear_69_2)"/>
<path d="M18.5047 44.9811H17.0385C17.0385 45.2972 17.0311 45.6059 17.0425 45.9146C17.0466 46.0254 17.0833 46.1411 17.1321 46.2421C17.1729 46.3252 17.2527 46.3805 17.3659 46.3634C17.3944 46.3594 17.4319 46.4139 17.5166 46.484C17.0816 46.5557 16.7102 46.5027 16.3436 46.5239C16.2883 46.4367 16.2703 46.3757 16.3999 46.3561C16.4723 46.3447 16.5416 46.3097 16.6182 46.2836V43.6803L16.1946 43.3675C16.6239 43.3202 17.0189 43.3569 17.458 43.3406C17.4278 43.4123 17.4189 43.4896 17.3863 43.5019C17.1827 43.5735 17.1786 43.5662 17.0385 43.7112C17.0385 43.8782 17.0605 44.0696 17.032 44.2529C17.0067 44.4117 17.137 44.5527 17.0515 44.718H18.3931C18.4273 44.6838 18.4656 44.6455 18.5039 44.6072C18.5039 44.3091 18.5039 44.011 18.5039 43.712C18.3988 43.6167 18.3287 43.4628 18.1414 43.501C18.1316 43.5027 18.1056 43.4237 18.0754 43.3577H19.3103C19.2973 43.4041 19.2736 43.501 19.2712 43.5002C19.0814 43.4587 19.0203 43.6273 18.9112 43.7039V46.2779L19.3087 46.3919L19.3144 46.5052H18.077C18.1047 46.4416 18.121 46.3643 18.1406 46.3634C18.2367 46.3594 18.3369 46.3691 18.3866 46.2673C18.4412 46.1541 18.5153 46.0531 18.508 45.9089C18.4925 45.6116 18.5031 45.3126 18.5031 44.9803L18.5047 44.9811Z" fill="url(#paint8_linear_69_2)"/>
<path d="M27.6808 46.2519C27.8339 46.0442 27.7802 45.8145 27.7932 45.5783C27.7199 45.5156 27.6482 45.4308 27.5578 45.3852C27.4877 45.3502 27.3517 45.4194 27.3949 45.2337H28.3919C28.3251 45.3404 28.2738 45.4219 28.194 45.5489V46.3317C27.9569 46.5362 27.6727 46.5672 27.3957 46.5973C27.1945 46.6193 26.9892 46.5924 26.7864 46.6038C26.507 46.6193 26.2952 46.4824 26.0883 46.3236C25.7861 46.0931 25.5906 45.7673 25.5312 45.4194C25.4652 45.0382 25.4733 44.6342 25.6199 44.2481C25.8138 43.7357 26.1242 43.4506 26.6715 43.3016C26.9664 43.2209 27.3037 43.273 27.6197 43.2983C27.8054 43.313 27.9854 43.3936 28.2078 43.4555L28.0954 44.1471L27.9789 44.1609C27.9683 44.0355 27.9577 43.9092 27.9463 43.7765C27.6164 43.4905 27.201 43.4384 26.8076 43.5215C26.4565 43.5956 26.204 43.8864 26.0956 44.2375C26.0598 44.3532 26.006 44.4778 26.0028 44.6065C25.9995 44.7556 25.9881 44.9063 26.0052 45.0529C26.0272 45.2313 26.1103 45.3991 26.0916 45.5872C26.0875 45.628 26.1388 45.6736 26.1641 45.7176C26.4361 46.1843 26.8336 46.4051 27.3395 46.3529C27.4503 46.3415 27.557 46.2894 27.6832 46.2503L27.6808 46.2519Z" fill="url(#paint9_linear_69_2)"/>
<path d="M49.1324 43.6226L48.8017 43.3579H49.7776C49.7645 43.4051 49.7409 43.5012 49.7369 43.5004C49.5495 43.4637 49.4803 43.6177 49.3768 43.7154C49.3768 44.2856 49.363 44.8567 49.3825 45.426C49.3939 45.7535 49.2742 46.037 49.1227 46.2968C49.0078 46.4939 48.7732 46.5941 48.5321 46.5998C48.2291 46.6072 47.922 46.6389 47.5815 46.4817C47.2826 46.2463 47.1661 45.8773 47.175 45.448C47.1856 44.9593 47.1824 44.4706 47.175 43.9818C47.1726 43.8303 47.1327 43.6796 47.1074 43.5183H46.8036L46.7539 43.3684C47.1644 43.3114 47.5636 43.3652 48.0092 43.3342C47.9741 43.4132 47.953 43.5004 47.9334 43.5004C47.7501 43.4963 47.7004 43.5802 47.6581 43.7578C47.5212 44.3296 47.5831 44.9063 47.6002 45.4774C47.6084 45.7633 47.7012 46.0769 48.0499 46.2194C48.4417 46.3799 49.0086 46.1934 49.13 45.8235C49.1504 45.7625 49.1324 45.6883 49.1324 45.6207V43.6226Z" fill="url(#paint10_linear_69_2)"/>
<path d="M15.0835 43.5902H14.0685C13.9236 43.7108 13.7843 43.8379 13.8853 44.0651L13.7142 44.0733V43.3687C13.7069 43.3752 13.7167 43.3646 13.7281 43.3573C13.7386 43.3508 13.7517 43.3442 13.7631 43.3442C14.44 43.3442 15.1161 43.3442 15.8394 43.3442C15.7946 43.4371 15.7669 43.4998 15.7351 43.5601C15.6179 43.7833 15.5022 44.0073 15.38 44.2272C15.3002 44.3714 15.222 44.5205 15.1185 44.6467C15.0077 44.7819 14.9149 44.9139 14.9206 45.0956C14.7023 45.3033 14.5996 45.5884 14.431 45.8295C14.3276 45.9777 14.2958 46.0624 14.2771 46.2824C14.7267 46.2482 15.1772 46.3451 15.6252 46.1781C15.7099 46.038 15.6423 45.7985 15.885 45.6829V46.5015H13.6116C13.6254 46.4257 13.6238 46.3459 13.6547 46.284C13.8022 45.9916 13.9366 45.6886 14.1215 45.4206C14.2241 45.2723 14.3292 45.1249 14.396 44.962C14.5369 44.6174 14.7756 44.3339 14.9475 44.0089C14.9947 43.9201 15.042 43.8313 15.0811 43.7385C15.0949 43.7051 15.0835 43.6603 15.0835 43.5902Z" fill="url(#paint11_linear_69_2)"/>
<path d="M42.0457 43.6299C42.0172 43.4035 41.6856 43.6291 41.7296 43.3391C42.0497 43.3929 42.3837 43.2454 42.7633 43.476L42.4033 43.5175C42.3006 43.6592 42.2851 43.8221 42.2876 43.9957C42.2941 44.4974 42.2811 45 42.2933 45.5018C42.3006 45.813 42.1638 46.0777 42.022 46.3253C41.9031 46.533 41.6286 46.5363 41.4111 46.5998C41.3614 46.6145 41.3028 46.5966 41.249 46.6031C40.8051 46.6568 40.4255 46.5567 40.1624 46.0826C40.0109 45.602 40.1192 45.0367 40.0931 44.4779C40.0817 44.2213 40.0915 43.9631 40.0915 43.6983C39.9767 43.6063 39.861 43.5134 39.6948 43.379C40.1314 43.313 40.5037 43.3603 40.9175 43.3399C40.8882 43.4116 40.8605 43.502 40.8507 43.5004C40.6804 43.4662 40.6161 43.6071 40.4996 43.7073C40.4996 44.2718 40.485 44.8534 40.5078 45.4334C40.5159 45.6272 40.5933 45.8325 40.6878 46.006C40.8206 46.2504 41.2881 46.353 41.5675 46.2243C41.7345 46.1469 41.9251 46.1127 42.0009 45.8887C42.0318 45.7967 42.0457 45.7128 42.0465 45.624C42.0497 44.9593 42.0481 44.2938 42.0481 43.6291L42.0457 43.6299Z" fill="url(#paint12_linear_69_2)"/>
<path d="M31.4897 45.2606C31.2332 45.6996 30.9969 46.1045 30.7615 46.5085H30.2817C30.3363 46.4368 30.3616 46.3912 30.3974 46.3586C30.465 46.2967 30.5587 46.256 30.6068 46.1835C30.8674 45.7909 31.1167 45.3909 31.379 44.9796C31.1916 44.6228 31.0034 44.2522 30.8014 43.8897C30.7232 43.7496 30.6092 43.6331 30.4096 43.6697V43.4555L31.0165 43.3398C31.2315 43.7072 31.4482 44.0778 31.6771 44.4688C31.9703 44.1626 32.0958 43.7251 32.3711 43.361H32.8704C32.8207 43.427 32.7988 43.4848 32.758 43.5036C32.6334 43.5622 32.5283 43.6217 32.4591 43.7577C32.3613 43.95 32.2286 44.1243 32.1064 44.3043C32.0331 44.4118 31.9524 44.5153 31.8644 44.635C31.8376 44.8452 31.919 45.0293 32.0583 45.2256C32.2229 45.4577 32.3133 45.742 32.4436 45.9994C32.5316 46.1737 32.6334 46.3399 32.8403 46.3985C32.8403 46.4531 32.8403 46.5069 32.8403 46.5598C32.6415 46.5419 32.442 46.5248 32.2017 46.5036C31.954 46.1387 31.8042 45.672 31.4897 45.2614V45.2606Z" fill="url(#paint13_linear_69_2)"/>
<path d="M51.216 43.3423C51.3431 43.7031 51.4408 44.0428 51.5818 44.3629C51.7227 44.6839 51.8237 45.0195 51.9662 45.342C52.1055 45.6589 52.209 45.9994 52.3369 46.3269C52.376 46.4181 52.5682 46.265 52.5519 46.4979C52.2163 46.5484 51.8726 46.5053 51.5239 46.5232C51.5117 46.4833 51.5003 46.4474 51.4791 46.3823L51.7414 46.3407C51.6714 46.0409 51.6054 45.7404 51.4905 45.4634H50.4601C50.3656 45.7428 50.2442 46.0222 50.2793 46.3489L50.5766 46.3651L50.6035 46.4694C50.5904 46.4857 50.5823 46.5044 50.5733 46.5044C50.2654 46.5061 49.9583 46.5061 49.6089 46.5061C49.6382 46.449 49.6618 46.3643 49.6838 46.3651C49.8695 46.37 49.9233 46.2861 49.9567 46.1053C49.9925 45.9139 50.1278 45.7436 50.1864 45.553C50.298 45.1922 50.4528 44.8509 50.5953 44.503C50.6898 44.2717 50.7477 44.0241 50.8495 43.796C50.8812 43.7251 50.9171 43.6649 50.926 43.5826C50.9488 43.383 50.957 43.3822 51.2144 43.3423H51.216ZM51.3268 45.206C51.37 44.8248 51.1052 44.5617 51.049 44.1845C50.9594 44.2603 50.8869 44.2921 50.8682 44.3426C50.7672 44.6212 50.6792 44.9038 50.5798 45.206H51.326H51.3268Z" fill="url(#paint14_linear_69_2)"/>
<path d="M21.473 43.3439C21.6302 43.48 21.6237 43.5736 21.53 43.7145C21.4754 43.7976 21.5202 43.9451 21.4925 44.0705C21.4298 43.8905 21.4298 43.6852 21.2034 43.5883H20.4043C20.2349 43.9614 20.2495 44.3369 20.3945 44.7214H21.0022C21.2555 44.679 21.1187 44.424 21.3247 44.376C21.3761 44.5527 21.35 44.7124 21.3541 44.8688C21.3581 45.0301 21.3549 45.1914 21.3549 45.3616L21.2026 45.3917L21.1871 45.1026C20.9582 44.9014 20.6747 44.9942 20.3758 44.9674C20.3481 45.0553 20.3016 45.1384 20.3 45.2215C20.2911 45.5604 20.2968 45.8992 20.2968 46.2568H21.3663L21.561 45.707L21.6889 45.8349C21.552 46.032 21.6115 46.2617 21.5968 46.5004H19.7086L19.8862 46.3228V43.6787L19.5074 43.4433C19.5408 43.3814 19.6101 43.3398 19.7266 43.3415C20.3098 43.3472 20.8938 43.3439 21.473 43.3439Z" fill="url(#paint15_linear_69_2)"/>
<path d="M45.5484 46.1827C45.6396 46.4311 45.8294 46.3163 45.9475 46.3766L45.9589 46.4987C45.5614 46.5452 45.1631 46.5077 44.7582 46.5224C44.7468 46.4784 44.737 46.4425 44.7248 46.3937L45.1411 46.2951C45.1411 45.9383 45.1574 45.6141 45.1337 45.294C45.1232 45.1506 45.0645 44.9861 44.9716 44.8786C44.7582 44.6309 44.7118 44.2994 44.5082 44.0501C44.4218 43.9443 44.3892 43.7927 44.298 43.6942C44.2271 43.6176 44.1025 43.5899 43.9746 43.5272C44.1595 43.3513 44.3778 43.3366 44.6165 43.3447C44.9602 43.7789 45.1517 44.3059 45.4368 44.8215C45.708 44.3515 45.9524 43.8807 46.1585 43.3594H46.547C46.4892 43.4808 46.4558 43.5883 46.3931 43.6754C46.2139 43.9231 46.0534 44.1789 45.932 44.4607C45.8677 44.6106 45.7496 44.7368 45.6811 44.8859C45.6184 45.0219 45.5622 45.1718 45.5532 45.3184C45.5337 45.6272 45.5475 45.9383 45.5475 46.1835L45.5484 46.1827Z" fill="url(#paint16_linear_69_2)"/>
<path d="M39.3576 45.7143H39.5083V46.502H37.5403C37.6014 46.4002 37.6503 46.3195 37.7228 46.1998V43.7032C37.6633 43.6486 37.5941 43.5622 37.5053 43.5117C37.4385 43.4743 37.2992 43.5549 37.3244 43.3578C37.515 43.326 37.7154 43.348 37.9134 43.3447C38.1146 43.3407 38.3158 43.3439 38.552 43.3439C38.5341 43.4107 38.5186 43.493 38.5104 43.493C38.1732 43.4661 38.2278 43.7667 38.1382 43.941C38.1162 43.9842 38.1349 44.0477 38.1349 44.1023V46.2772C38.4176 46.2772 38.6856 46.2821 38.9536 46.2756C39.1776 46.2699 39.3209 46.1354 39.356 45.9106C39.3657 45.8479 39.3576 45.7827 39.3576 45.7151V45.7143Z" fill="url(#paint17_linear_69_2)"/>
<path d="M34.4099 43.3578C34.3798 43.4238 34.3529 43.5028 34.3431 43.5012C34.155 43.4604 34.0906 43.625 33.9815 43.7048C33.9815 44.4436 33.9798 45.1751 33.9823 45.9066C33.9831 46.168 34.0621 46.2601 34.3391 46.3595C34.3594 46.3668 34.3806 46.3937 34.3863 46.4149C34.3928 46.4377 34.3814 46.4654 34.3757 46.5061H33.1816L33.1645 46.4588L33.5587 46.2739V43.6844L33.1302 43.3578H34.4099Z" fill="url(#paint18_linear_69_2)"/>
<path d="M1.33777 45.0189H12.735" stroke="url(#paint19_linear_69_2)" stroke-width="0.266915"/>
<path d="M56.5503 45.0189H67.9475" stroke="url(#paint20_linear_69_2)" stroke-width="0.266915"/>
<defs>
<linearGradient id="paint0_linear_69_2" x1="26.9276" y1="6.34608" x2="31.0519" y2="8.28528" gradientUnits="userSpaceOnUse">
<stop stop-color="#F5D95F"/>
<stop offset="0.35" stop-color="#D3A100"/>
<stop offset="0.5623" stop-color="#E9C541"/>
<stop offset="0.6978" stop-color="#F5D95F"/>
<stop offset="1" stop-color="#D3A100"/>
</linearGradient>
<linearGradient id="paint1_linear_69_2" x1="27.5665" y1="11.1604" x2="30.4512" y2="13.6629" gradientUnits="userSpaceOnUse">
<stop stop-color="#F5D95F"/>
<stop offset="0.35" stop-color="#D3A100"/>
<stop offset="0.5623" stop-color="#E9C541"/>
<stop offset="0.6978" stop-color="#F5D95F"/>
<stop offset="1" stop-color="#D3A100"/>
</linearGradient>
<linearGradient id="paint2_linear_69_2" x1="32.9236" y1="5.06594" x2="35.3974" y2="7.9376" gradientUnits="userSpaceOnUse">
<stop stop-color="#F5D95F"/>
<stop offset="0.35" stop-color="#D3A100"/>
<stop offset="0.5623" stop-color="#E9C541"/>
<stop offset="0.6978" stop-color="#F5D95F"/>
<stop offset="1" stop-color="#D3A100"/>
</linearGradient>
<linearGradient id="paint3_linear_69_2" x1="28.1747" y1="7.0393" x2="44.5926" y2="22.8172" gradientUnits="userSpaceOnUse">
<stop stop-color="#F5D95F"/>
<stop offset="0.35" stop-color="#D3A100"/>
<stop offset="0.5623" stop-color="#E9C541"/>
<stop offset="0.6978" stop-color="#F5D95F"/>
<stop offset="1" stop-color="#D3A100"/>
</linearGradient>
<linearGradient id="paint4_linear_69_2" x1="24.9385" y1="-0.0111224" x2="34.7804" y2="8.32891" gradientUnits="userSpaceOnUse">
<stop stop-color="#F5D95F"/>
<stop offset="0.35" stop-color="#D3A100"/>
<stop offset="0.5623" stop-color="#E9C541"/>
<stop offset="0.6978" stop-color="#F5D95F"/>
<stop offset="1" stop-color="#D3A100"/>
</linearGradient>
<linearGradient id="paint5_linear_69_2" x1="0.0939927" y1="25.0319" x2="10.6772" y2="62.0733" gradientUnits="userSpaceOnUse">
<stop stop-color="#F5D95F"/>
<stop offset="0.35" stop-color="#D3A100"/>
<stop offset="0.5623" stop-color="#E9C541"/>
<stop offset="0.6978" stop-color="#F5D95F"/>
<stop offset="1" stop-color="#D3A100"/>
</linearGradient>
<linearGradient id="paint6_linear_69_2" x1="52.7176" y1="43.3321" x2="55.9779" y2="46.6062" gradientUnits="userSpaceOnUse">
<stop stop-color="#F5D95F"/>
<stop offset="0.35" stop-color="#D3A100"/>
<stop offset="0.5623" stop-color="#E9C541"/>
<stop offset="0.6978" stop-color="#F5D95F"/>
<stop offset="1" stop-color="#D3A100"/>
</linearGradient>
<linearGradient id="paint7_linear_69_2" x1="21.9865" y1="43.355" x2="25.2423" y2="46.6623" gradientUnits="userSpaceOnUse">
<stop stop-color="#F5D95F"/>
<stop offset="0.35" stop-color="#D3A100"/>
<stop offset="0.5623" stop-color="#E9C541"/>
<stop offset="0.6978" stop-color="#F5D95F"/>
<stop offset="1" stop-color="#D3A100"/>
</linearGradient>
<linearGradient id="paint8_linear_69_2" x1="16.1988" y1="43.337" x2="19.3866" y2="46.4613" gradientUnits="userSpaceOnUse">
<stop stop-color="#F5D95F"/>
<stop offset="0.35" stop-color="#D3A100"/>
<stop offset="0.5623" stop-color="#E9C541"/>
<stop offset="0.6978" stop-color="#F5D95F"/>
<stop offset="1" stop-color="#D3A100"/>
</linearGradient>
<linearGradient id="paint9_linear_69_2" x1="25.4955" y1="43.2546" x2="28.8146" y2="46.13" gradientUnits="userSpaceOnUse">
<stop stop-color="#F5D95F"/>
<stop offset="0.35" stop-color="#D3A100"/>
<stop offset="0.5623" stop-color="#E9C541"/>
<stop offset="0.6978" stop-color="#F5D95F"/>
<stop offset="1" stop-color="#D3A100"/>
</linearGradient>
<linearGradient id="paint10_linear_69_2" x1="46.758" y1="43.3306" x2="50.0262" y2="46.3497" gradientUnits="userSpaceOnUse">
<stop stop-color="#F5D95F"/>
<stop offset="0.35" stop-color="#D3A100"/>
<stop offset="0.5623" stop-color="#E9C541"/>
<stop offset="0.6978" stop-color="#F5D95F"/>
<stop offset="1" stop-color="#D3A100"/>
</linearGradient>
<linearGradient id="paint11_linear_69_2" x1="13.6146" y1="43.3407" x2="16.6138" y2="45.5004" gradientUnits="userSpaceOnUse">
<stop stop-color="#F5D95F"/>
<stop offset="0.35" stop-color="#D3A100"/>
<stop offset="0.5623" stop-color="#E9C541"/>
<stop offset="0.6978" stop-color="#F5D95F"/>
<stop offset="1" stop-color="#D3A100"/>
</linearGradient>
<linearGradient id="paint12_linear_69_2" x1="39.6989" y1="43.3355" x2="42.9743" y2="46.4023" gradientUnits="userSpaceOnUse">
<stop stop-color="#F5D95F"/>
<stop offset="0.35" stop-color="#D3A100"/>
<stop offset="0.5623" stop-color="#E9C541"/>
<stop offset="0.6978" stop-color="#F5D95F"/>
<stop offset="1" stop-color="#D3A100"/>
</linearGradient>
<linearGradient id="paint13_linear_69_2" x1="30.2852" y1="43.3362" x2="33.4351" y2="45.8686" gradientUnits="userSpaceOnUse">
<stop stop-color="#F5D95F"/>
<stop offset="0.35" stop-color="#D3A100"/>
<stop offset="0.5623" stop-color="#E9C541"/>
<stop offset="0.6978" stop-color="#F5D95F"/>
<stop offset="1" stop-color="#D3A100"/>
</linearGradient>
<linearGradient id="paint14_linear_69_2" x1="49.6128" y1="43.3387" x2="52.7897" y2="46.2787" gradientUnits="userSpaceOnUse">
<stop stop-color="#F5D95F"/>
<stop offset="0.35" stop-color="#D3A100"/>
<stop offset="0.5623" stop-color="#E9C541"/>
<stop offset="0.6978" stop-color="#F5D95F"/>
<stop offset="1" stop-color="#D3A100"/>
</linearGradient>
<linearGradient id="paint15_linear_69_2" x1="19.5104" y1="43.3379" x2="22.4693" y2="45.3812" gradientUnits="userSpaceOnUse">
<stop stop-color="#F5D95F"/>
<stop offset="0.35" stop-color="#D3A100"/>
<stop offset="0.5623" stop-color="#E9C541"/>
<stop offset="0.6978" stop-color="#F5D95F"/>
<stop offset="1" stop-color="#D3A100"/>
</linearGradient>
<linearGradient id="paint16_linear_69_2" x1="43.9781" y1="43.3395" x2="47.0929" y2="45.8592" gradientUnits="userSpaceOnUse">
<stop stop-color="#F5D95F"/>
<stop offset="0.35" stop-color="#D3A100"/>
<stop offset="0.5623" stop-color="#E9C541"/>
<stop offset="0.6978" stop-color="#F5D95F"/>
<stop offset="1" stop-color="#D3A100"/>
</linearGradient>
<linearGradient id="paint17_linear_69_2" x1="37.3243" y1="43.3368" x2="40.2876" y2="45.3864" gradientUnits="userSpaceOnUse">
<stop stop-color="#F5D95F"/>
<stop offset="0.35" stop-color="#D3A100"/>
<stop offset="0.5623" stop-color="#E9C541"/>
<stop offset="0.6978" stop-color="#F5D95F"/>
<stop offset="1" stop-color="#D3A100"/>
</linearGradient>
<linearGradient id="paint18_linear_69_2" x1="33.132" y1="43.3543" x2="35.332" y2="44.2485" gradientUnits="userSpaceOnUse">
<stop stop-color="#F5D95F"/>
<stop offset="0.35" stop-color="#D3A100"/>
<stop offset="0.5623" stop-color="#E9C541"/>
<stop offset="0.6978" stop-color="#F5D95F"/>
<stop offset="1" stop-color="#D3A100"/>
</linearGradient>
<linearGradient id="paint19_linear_69_2" x1="1.35307" y1="45.0178" x2="1.5275" y2="47.0058" gradientUnits="userSpaceOnUse">
<stop stop-color="#F5D95F"/>
<stop offset="0.35" stop-color="#D3A100"/>
<stop offset="0.5623" stop-color="#E9C541"/>
<stop offset="0.6978" stop-color="#F5D95F"/>
<stop offset="1" stop-color="#D3A100"/>
</linearGradient>
<linearGradient id="paint20_linear_69_2" x1="56.5656" y1="45.0178" x2="56.74" y2="47.0058" gradientUnits="userSpaceOnUse">
<stop stop-color="#F5D95F"/>
<stop offset="0.35" stop-color="#D3A100"/>
<stop offset="0.5623" stop-color="#E9C541"/>
<stop offset="0.6978" stop-color="#F5D95F"/>
<stop offset="1" stop-color="#D3A100"/>
</linearGradient>
</defs>
</svg>
