<?xml version="1.0" encoding="UTF-8"?><svg id="_层_2" xmlns="http://www.w3.org/2000/svg" viewBox="0 0 393.28 53.01"><defs><style>.cls-1{fill:#4e5f67;}.cls-2{fill:#2cd2c1;}</style></defs><g id="_层_1-2"><g><g><path class="cls-2" d="M29.78,28.85c-.78,.94-1.56,1.89-2.34,2.84,.85,1.09,1.79,2.28,2.79,3.36,.8-.94,1.6-1.87,2.4-2.81-.96-1.11-1.92-2.25-2.86-3.39Zm-.44,7.08s-.07-.07-.1-.1c.03,.04,.06,.07,.09,.11,.02,.03,.05,.06,.07,.08h0s-.05-.06-.08-.09ZM50.61,4.03C49.03,1.82,46.6,0,43.82,0c-2.65,0-5.09,1.53-6.78,3.53-1.44,1.71-2.86,3.45-4.25,5.2,1.16,.89,2.12,2.03,2.81,3.33,1.72-2.01,3.48-3.99,5.32-5.91,.78-.78,1.81-1.25,2.91-1.23,1.1,.02,2.13,.54,2.91,1.4,.78,.86,1.2,1.93,1.2,2.93s-.43,1.8-1.2,2.34c-4.71,3.51-8.76,7.68-12.59,12.08,.98,1.17,1.93,2.26,3.02,3.44,3.89-4.27,8.22-8.36,13.45-10.61,1.81-.76,2.83-2.22,2.81-4.58-.03-2.8-1.19-5.61-2.81-7.89ZM23,36.99c-3.26,3.79-6.67,7.43-10.5,10.65-1.85,1.36-4.35,.7-5.81-.9-.78-.85-1.21-1.84-1.21-2.7s.43-1.47,1.21-1.84c4.59-2.14,8.47-5.78,11.96-9.67-1.05-1.02-2.12-2.02-3.2-2.98-3.6,3.68-7.79,7.05-12.64,7.98C1,37.9-.03,38.87,0,40.78c.04,2.55,1.33,5.11,2.81,7.17,1.63,2.27,3.96,4.22,6.78,4.75,2.49,.42,4.98-.48,6.78-2.2,3.32-3.26,6.41-6.73,9.43-10.26-.85-1.06-1.79-2.14-2.8-3.25Z"/><path class="cls-2" d="M34.6,16.69c0,2.44-1.12,4.63-2.87,6.08-.39,.32-.8,.6-1.24,.84-.81,.45-1.7,.75-2.65,.89-.37,.05-.74,.08-1.13,.08-.44,0-.86-.04-1.28-.1-1.45-.24-2.77-.88-3.84-1.79-1.69-1.45-2.77-3.6-2.77-5.99,0-.8,.12-1.57,.34-2.29,.04-.13,.09-.27,.13-.4,.51-1.41,1.41-2.62,2.56-3.53,1.34-1.05,3.03-1.67,4.85-1.67s3.43,.6,4.75,1.59c1.17,.88,2.08,2.08,2.61,3.46,.34,.88,.53,1.83,.53,2.83Z"/><path class="cls-2" d="M53.42,40.99c-.04,2.55-1.33,5.11-2.81,7.17-1.63,2.27-3.96,4.22-6.78,4.75-2.49,.42-4.98-.48-6.78-2.2-3.36-3.3-6.47-6.8-9.52-10.37-.06-.07-.12-.14-.18-.21-.24-.28-.48-.56-.72-.84,0,0-.01-.01-.01-.02-.87-1.02-1.73-2.04-2.6-3.05l-.17-.2s-.01-.01-.02-.02c-.24-.28-.48-.57-.72-.85-.76-.9-1.53-1.79-2.3-2.68-.29-.34-.58-.67-.87-1-.05-.06-.11-.13-.17-.19-.93-1.07-1.89-2.16-2.86-3.25-.44-.49-.88-.97-1.33-1.45-3.71-3.99-7.84-7.75-12.76-9.87C1,15.95-.02,14.48,0,12.13c.03-2.8,1.19-5.61,2.81-7.89C4.38,2.03,6.82,.21,9.59,.21c2.65,0,5.09,1.53,6.78,3.53,1.41,1.67,2.79,3.36,4.15,5.07-1.15,.9-2.11,2.06-2.77,3.38-1.7-1.99-3.44-3.94-5.26-5.83-.78-.78-1.81-1.25-2.91-1.23-1.1,.02-2.13,.54-2.91,1.4-.78,.86-1.21,1.93-1.21,2.93,0,.22,.02,.42,.06,.62,.14,.72,.54,1.3,1.14,1.72,4.98,3.7,9.22,8.15,13.24,12.83,.92,1.07,1.82,2.14,2.72,3.23,.66,.79,1.31,1.59,1.96,2.38,.35,.42,.69,.84,1.04,1.26,.32,.39,.64,.78,.96,1.16h0s0,.02,.01,.02h0c.8,1.02,1.67,2.13,2.62,3.14,.03,.04,.06,.07,.09,.11,.02,.03,.05,.06,.07,.08,.28,.33,.56,.66,.84,.98,3.31,3.86,6.77,7.58,10.68,10.85,1.86,1.36,4.35,.7,5.82-.9,.78-.85,1.2-1.84,1.2-2.7s-.43-1.47-1.2-1.84c-4.76-2.22-8.76-6.05-12.35-10.1-.2-.23-.4-.46-.6-.69-.1-.12-.21-.23-.31-.35-.01-.01-.03-.03-.04-.05h0c-.05-.06-.11-.12-.16-.18-.9-1.04-1.8-2.12-2.68-3.19h0c-.33-.4-.66-.8-.98-1.19-.09-.11-.17-.21-.26-.31,1.39-.38,2.67-1.05,3.75-1.95,.07,.08,.13,.16,.2,.24h.01c.06,.06,.12,.13,.18,.19,.88,1.01,1.81,2.07,2.79,3.14,.01,.02,.03,.04,.05,.05,.28,.3,.56,.61,.84,.91,.35,.37,.7,.73,1.06,1.09,1.2,1.21,2.46,2.38,3.79,3.44,.06,.05,.12,.11,.19,.17h.01c2.55,1.97,5.34,3.53,8.38,4.11,1.81,.37,2.84,1.34,2.81,3.25Z"/></g><g><path class="cls-1" d="M62.84,47.42v-10.53h2.07l4.31,7.03v-7.03h1.97v10.53h-2.13l-4.24-6.87v6.87h-1.98Z"/><path class="cls-1" d="M73.38,47.42v-10.53h2.13v10.53h-2.13Z"/><path class="cls-1" d="M77.55,47.42v-10.53h2.07l4.31,7.03v-7.03h1.97v10.53h-2.13l-4.24-6.87v6.87h-1.98Z"/><path class="cls-1" d="M93.05,43.55v-1.77h4.58v4.19c-.45,.43-1.09,.81-1.94,1.14-.85,.33-1.7,.49-2.57,.49-1.1,0-2.06-.23-2.88-.69-.82-.46-1.43-1.12-1.85-1.98-.41-.86-.62-1.79-.62-2.8,0-1.1,.23-2.07,.69-2.92,.46-.85,1.13-1.51,2.02-1.96,.68-.35,1.52-.52,2.52-.52,1.31,0,2.33,.27,3.06,.82,.73,.55,1.21,1.31,1.42,2.27l-2.11,.4c-.15-.52-.43-.92-.84-1.22-.41-.3-.92-.45-1.53-.45-.93,0-1.67,.29-2.22,.88-.55,.59-.82,1.46-.82,2.62,0,1.25,.28,2.19,.83,2.81,.56,.62,1.28,.94,2.18,.94,.45,0,.89-.09,1.34-.26,.45-.17,.83-.39,1.15-.64v-1.34h-2.43Z"/><path class="cls-1" d="M99.6,36.89h4.21c.83,0,1.45,.03,1.86,.1,.41,.07,.78,.21,1.1,.43,.32,.22,.59,.51,.81,.88,.22,.37,.32,.78,.32,1.23,0,.49-.13,.95-.4,1.36s-.63,.72-1.08,.93c.64,.19,1.13,.51,1.48,.96s.52,.98,.52,1.59c0,.48-.11,.94-.33,1.4-.22,.45-.53,.81-.91,1.08s-.86,.44-1.43,.5c-.35,.04-1.21,.06-2.56,.07h-3.58v-10.53Zm2.13,1.75v2.43h1.39c.83,0,1.34-.01,1.54-.04,.36-.04,.65-.17,.86-.38,.21-.21,.31-.48,.31-.82s-.09-.59-.27-.79c-.18-.2-.45-.33-.8-.37-.21-.02-.82-.04-1.82-.04h-1.22Zm0,4.19v2.82h1.97c.77,0,1.25-.02,1.46-.06,.32-.06,.57-.2,.77-.42s.3-.52,.3-.89c0-.32-.08-.58-.23-.8-.15-.22-.37-.38-.66-.48s-.92-.15-1.89-.15h-1.72Z"/><path class="cls-1" d="M109.78,42.22c0-1.07,.16-1.97,.48-2.7,.24-.54,.57-1.02,.98-1.44,.41-.43,.87-.74,1.36-.95,.66-.28,1.41-.42,2.27-.42,1.55,0,2.79,.48,3.72,1.44,.93,.96,1.4,2.3,1.4,4.01s-.46,3.03-1.39,3.99c-.92,.96-2.16,1.44-3.71,1.44s-2.81-.48-3.73-1.43c-.92-.95-1.39-2.27-1.39-3.95Zm2.19-.07c0,1.19,.28,2.1,.83,2.71,.55,.62,1.25,.92,2.1,.92s1.54-.31,2.09-.92c.54-.61,.82-1.53,.82-2.75s-.26-2.11-.79-2.7-1.23-.89-2.11-.89-1.58,.3-2.12,.9c-.54,.6-.8,1.51-.8,2.72Z"/><path class="cls-1" d="M125.74,36.89h4.21c.83,0,1.45,.03,1.86,.1,.41,.07,.78,.21,1.1,.43,.32,.22,.59,.51,.81,.88,.22,.37,.32,.78,.32,1.23,0,.49-.13,.95-.4,1.36-.27,.41-.63,.72-1.08,.93,.64,.19,1.13,.51,1.48,.96s.52,.98,.52,1.59c0,.48-.11,.94-.33,1.4-.22,.45-.53,.81-.91,1.08-.39,.27-.86,.44-1.43,.5-.35,.04-1.21,.06-2.56,.07h-3.58v-10.53Zm2.13,1.75v2.43h1.39c.83,0,1.34-.01,1.54-.04,.36-.04,.65-.17,.86-.38,.21-.21,.31-.48,.31-.82s-.09-.59-.27-.79c-.18-.2-.45-.33-.8-.37-.21-.02-.82-.04-1.82-.04h-1.22Zm0,4.19v2.82h1.97c.77,0,1.25-.02,1.46-.06,.32-.06,.57-.2,.77-.42,.2-.22,.3-.52,.3-.89,0-.32-.08-.58-.23-.8-.15-.22-.37-.38-.66-.48s-.92-.15-1.89-.15h-1.72Z"/><path class="cls-1" d="M145.85,47.42h-2.31l-.92-2.39h-4.21l-.87,2.39h-2.25l4.1-10.53h2.25l4.22,10.53Zm-3.91-4.17l-1.45-3.91-1.42,3.91h2.87Z"/><path class="cls-1" d="M146.99,36.89h4.21c.83,0,1.45,.03,1.86,.1,.41,.07,.78,.21,1.1,.43,.32,.22,.59,.51,.81,.88,.22,.37,.32,.78,.32,1.23,0,.49-.13,.95-.4,1.36-.27,.41-.63,.72-1.08,.93,.64,.19,1.13,.51,1.48,.96,.34,.45,.52,.98,.52,1.59,0,.48-.11,.94-.33,1.4-.22,.45-.53,.81-.91,1.08s-.86,.44-1.43,.5c-.35,.04-1.21,.06-2.56,.07h-3.58v-10.53Zm2.13,1.75v2.43h1.39c.83,0,1.34-.01,1.54-.04,.36-.04,.65-.17,.86-.38,.21-.21,.31-.48,.31-.82s-.09-.59-.27-.79c-.18-.2-.45-.33-.8-.37-.21-.02-.82-.04-1.82-.04h-1.22Zm0,4.19v2.82h1.97c.77,0,1.25-.02,1.46-.06,.32-.06,.57-.2,.77-.42,.2-.22,.3-.52,.3-.89,0-.32-.08-.58-.23-.8-.15-.22-.37-.38-.66-.48s-.92-.15-1.89-.15h-1.72Z"/><path class="cls-1" d="M160.36,47.42v-4.43l-3.86-6.1h2.49l2.48,4.17,2.43-4.17h2.45l-3.87,6.11v4.42h-2.12Z"/><path class="cls-1" d="M167.42,47.42v-10.53h7.22v1.78h-5.09v2.49h4.39v1.78h-4.39v4.47h-2.13Z"/><path class="cls-1" d="M176.33,47.42v-10.53h2.13v10.53h-2.13Z"/><path class="cls-1" d="M180.49,47.42v-10.53h4.47c1.12,0,1.94,.09,2.45,.28,.51,.19,.92,.53,1.22,1.01,.31,.48,.46,1.04,.46,1.66,0,.79-.23,1.44-.7,1.96-.46,.51-1.16,.84-2.08,.97,.46,.27,.84,.56,1.14,.88,.3,.32,.7,.89,1.21,1.71l1.29,2.05h-2.54l-1.54-2.29c-.55-.82-.92-1.33-1.12-1.55-.2-.21-.41-.36-.64-.44-.23-.08-.58-.12-1.07-.12h-.43v4.39h-2.13Zm2.13-6.08h1.57c1.02,0,1.66-.04,1.91-.13,.25-.09,.45-.23,.6-.45,.14-.21,.22-.47,.22-.79,0-.35-.09-.64-.28-.86-.19-.22-.46-.36-.8-.41-.17-.02-.69-.04-1.55-.04h-1.66v2.67Z"/><path class="cls-1" d="M190.56,43.99l2.07-.2c.12,.69,.38,1.2,.76,1.53,.38,.33,.89,.49,1.54,.49,.68,0,1.2-.14,1.55-.43,.35-.29,.52-.63,.52-1.02,0-.25-.07-.46-.22-.64-.15-.17-.4-.33-.77-.46-.25-.09-.82-.24-1.7-.46-1.14-.28-1.94-.63-2.4-1.04-.65-.58-.97-1.29-.97-2.12,0-.54,.15-1.04,.46-1.5,.3-.47,.74-.82,1.31-1.07,.57-.24,1.26-.37,2.07-.37,1.32,0,2.32,.29,2.98,.87,.67,.58,1.02,1.35,1.05,2.32l-2.13,.09c-.09-.54-.29-.93-.59-1.17-.3-.24-.75-.36-1.35-.36s-1.1,.13-1.45,.38c-.23,.16-.34,.38-.34,.65,0,.25,.11,.46,.32,.64,.27,.23,.92,.46,1.95,.7,1.03,.24,1.8,.5,2.29,.76,.5,.26,.88,.62,1.16,1.07,.28,.45,.42,1.01,.42,1.68,0,.6-.17,1.17-.5,1.69-.33,.53-.81,.92-1.42,1.17s-1.38,.38-2.29,.38c-1.33,0-2.35-.31-3.07-.92-.71-.62-1.14-1.51-1.28-2.69Z"/><path class="cls-1" d="M203.28,47.42v-8.75h-3.12v-1.78h8.37v1.78h-3.12v8.75h-2.13Z"/><path class="cls-1" d="M213.99,36.89h4.21c.83,0,1.45,.03,1.86,.1,.41,.07,.78,.21,1.1,.43,.32,.22,.59,.51,.81,.88,.22,.37,.32,.78,.32,1.23,0,.49-.13,.95-.4,1.36-.27,.41-.63,.72-1.08,.93,.64,.19,1.13,.51,1.48,.96s.52,.98,.52,1.59c0,.48-.11,.94-.33,1.4-.22,.45-.53,.81-.91,1.08s-.86,.44-1.43,.5c-.35,.04-1.21,.06-2.56,.07h-3.58v-10.53Zm2.13,1.75v2.43h1.39c.83,0,1.34-.01,1.54-.04,.36-.04,.65-.17,.86-.38,.21-.21,.31-.48,.31-.82s-.09-.59-.27-.79c-.18-.2-.45-.33-.8-.37-.21-.02-.82-.04-1.82-.04h-1.22Zm0,4.19v2.82h1.97c.77,0,1.25-.02,1.46-.06,.32-.06,.57-.2,.77-.42s.3-.52,.3-.89c0-.32-.08-.58-.23-.8-.15-.22-.37-.38-.66-.48s-.92-.15-1.89-.15h-1.72Z"/><path class="cls-1" d="M234.09,47.42h-2.31l-.92-2.39h-4.21l-.87,2.39h-2.25l4.1-10.53h2.25l4.22,10.53Zm-3.91-4.17l-1.45-3.91-1.42,3.91h2.87Z"/><path class="cls-1" d="M235.23,36.89h4.21c.83,0,1.45,.03,1.86,.1,.41,.07,.78,.21,1.1,.43,.32,.22,.59,.51,.81,.88,.22,.37,.32,.78,.32,1.23,0,.49-.13,.95-.4,1.36-.27,.41-.63,.72-1.08,.93,.64,.19,1.13,.51,1.48,.96s.52,.98,.52,1.59c0,.48-.11,.94-.33,1.4-.22,.45-.53,.81-.91,1.08-.39,.27-.86,.44-1.43,.5-.35,.04-1.21,.06-2.56,.07h-3.58v-10.53Zm2.13,1.75v2.43h1.39c.83,0,1.34-.01,1.54-.04,.36-.04,.65-.17,.86-.38,.21-.21,.31-.48,.31-.82s-.09-.59-.27-.79c-.18-.2-.45-.33-.8-.37-.21-.02-.82-.04-1.82-.04h-1.22Zm0,4.19v2.82h1.97c.77,0,1.25-.02,1.46-.06,.32-.06,.57-.2,.77-.42,.2-.22,.3-.52,.3-.89,0-.32-.08-.58-.23-.8-.15-.22-.37-.38-.66-.48s-.92-.15-1.89-.15h-1.72Z"/><path class="cls-1" d="M248.61,47.42v-4.43l-3.86-6.1h2.49l2.48,4.17,2.43-4.17h2.45l-3.87,6.11v4.42h-2.12Z"/><path class="cls-1" d="M255.65,47.42v-10.53h3.41c1.29,0,2.13,.05,2.53,.16,.6,.16,1.11,.5,1.52,1.03s.61,1.21,.61,2.05c0,.65-.12,1.19-.35,1.63s-.53,.79-.89,1.04c-.36,.25-.73,.42-1.1,.5-.51,.1-1.24,.15-2.2,.15h-1.39v3.97h-2.13Zm2.13-8.75v2.99h1.16c.84,0,1.4-.06,1.68-.17,.28-.11,.5-.28,.66-.52,.16-.23,.24-.51,.24-.82,0-.38-.11-.7-.34-.95-.23-.25-.51-.4-.85-.47-.25-.05-.76-.07-1.53-.07h-1.03Z"/><path class="cls-1" d="M265.47,47.42v-10.53h4.47c1.12,0,1.94,.09,2.45,.28,.51,.19,.92,.53,1.22,1.01,.31,.48,.46,1.04,.46,1.66,0,.79-.23,1.44-.7,1.96-.46,.51-1.16,.84-2.08,.97,.46,.27,.84,.56,1.14,.88,.3,.32,.7,.89,1.21,1.71l1.29,2.05h-2.54l-1.54-2.29c-.55-.82-.92-1.33-1.12-1.55-.2-.21-.41-.36-.64-.44-.23-.08-.58-.12-1.07-.12h-.43v4.39h-2.13Zm2.13-6.08h1.57c1.02,0,1.66-.04,1.91-.13,.25-.09,.45-.23,.6-.45,.14-.21,.22-.47,.22-.79,0-.35-.09-.64-.28-.86-.19-.22-.46-.36-.8-.41-.17-.02-.69-.04-1.55-.04h-1.66v2.67Z"/><path class="cls-1" d="M275.65,42.22c0-1.07,.16-1.97,.48-2.7,.24-.54,.57-1.02,.98-1.44,.41-.43,.87-.74,1.36-.95,.66-.28,1.41-.42,2.27-.42,1.55,0,2.79,.48,3.72,1.44,.93,.96,1.4,2.3,1.4,4.01s-.46,3.03-1.39,3.99c-.92,.96-2.16,1.44-3.71,1.44s-2.81-.48-3.73-1.43c-.92-.95-1.39-2.27-1.39-3.95Zm2.19-.07c0,1.19,.28,2.1,.83,2.71,.55,.62,1.25,.92,2.1,.92s1.54-.31,2.09-.92c.54-.61,.82-1.53,.82-2.75s-.26-2.11-.79-2.7-1.23-.89-2.11-.89-1.58,.3-2.12,.9c-.54,.6-.8,1.51-.8,2.72Z"/><path class="cls-1" d="M287.52,36.89h3.89c.88,0,1.54,.07,2,.2,.62,.18,1.15,.51,1.59,.97,.44,.46,.78,1.03,1.01,1.71,.23,.67,.34,1.5,.34,2.49,0,.87-.11,1.61-.32,2.24-.26,.77-.64,1.39-1.13,1.86-.37,.36-.87,.64-1.49,.84-.47,.15-1.1,.22-1.88,.22h-4v-10.53Zm2.13,1.78v6.97h1.59c.59,0,1.02-.03,1.29-.1,.35-.09,.63-.23,.86-.44s.41-.54,.56-1.02c.14-.47,.22-1.11,.22-1.93s-.07-1.44-.22-1.87c-.14-.44-.34-.78-.6-1.02-.26-.24-.59-.41-.98-.5-.3-.07-.88-.1-1.75-.1h-.96Z"/><path class="cls-1" d="M298.13,36.89h2.13v5.7c0,.9,.03,1.49,.08,1.76,.09,.43,.31,.78,.65,1.04s.81,.39,1.4,.39,1.06-.12,1.36-.37,.49-.55,.55-.91c.06-.36,.09-.96,.09-1.79v-5.82h2.13v5.53c0,1.26-.06,2.16-.17,2.68-.12,.52-.33,.96-.64,1.32s-.72,.65-1.24,.86c-.52,.21-1.19,.32-2.03,.32-1.01,0-1.77-.12-2.29-.35-.52-.23-.93-.53-1.23-.91-.3-.37-.5-.76-.6-1.17-.14-.6-.21-1.49-.21-2.67v-5.62Z"/><path class="cls-1" d="M315.5,43.55l2.06,.65c-.32,1.15-.84,2-1.58,2.56-.74,.56-1.67,.84-2.8,.84-1.4,0-2.55-.48-3.45-1.43-.9-.95-1.35-2.26-1.35-3.92,0-1.75,.45-3.11,1.36-4.08,.91-.97,2.09-1.45,3.57-1.45,1.29,0,2.33,.38,3.14,1.14,.48,.45,.84,1.1,1.08,1.94l-2.1,.5c-.12-.55-.38-.98-.78-1.29s-.87-.47-1.44-.47c-.78,0-1.41,.28-1.9,.84-.49,.56-.73,1.47-.73,2.72,0,1.33,.24,2.28,.72,2.84,.48,.56,1.1,.85,1.87,.85,.56,0,1.05-.18,1.46-.54,.41-.36,.7-.92,.88-1.69Z"/><path class="cls-1" d="M321.76,47.42v-8.75h-3.12v-1.78h8.37v1.78h-3.12v8.75h-2.13Z"/><path class="cls-1" d="M339.19,43.55l2.06,.65c-.32,1.15-.84,2-1.58,2.56-.74,.56-1.67,.84-2.8,.84-1.4,0-2.55-.48-3.45-1.43-.9-.95-1.35-2.26-1.35-3.92,0-1.75,.45-3.11,1.36-4.08,.91-.97,2.09-1.45,3.57-1.45,1.29,0,2.33,.38,3.14,1.14,.48,.45,.84,1.1,1.08,1.94l-2.1,.5c-.12-.55-.38-.98-.78-1.29s-.87-.47-1.44-.47c-.78,0-1.41,.28-1.9,.84-.49,.56-.73,1.47-.73,2.72,0,1.33,.24,2.28,.72,2.84,.48,.56,1.1,.85,1.87,.85,.56,0,1.05-.18,1.46-.54,.41-.36,.7-.92,.88-1.69Z"/><path class="cls-1" d="M342.65,42.22c0-1.07,.16-1.97,.48-2.7,.24-.54,.57-1.02,.98-1.44,.41-.43,.87-.74,1.36-.95,.66-.28,1.41-.42,2.27-.42,1.55,0,2.79,.48,3.72,1.44,.93,.96,1.4,2.3,1.4,4.01s-.46,3.03-1.39,3.99c-.92,.96-2.16,1.44-3.71,1.44s-2.81-.48-3.73-1.43c-.92-.95-1.39-2.27-1.39-3.95Zm2.19-.07c0,1.19,.28,2.1,.83,2.71,.55,.62,1.25,.92,2.1,.92s1.54-.31,2.09-.92c.54-.61,.82-1.53,.82-2.75s-.26-2.11-.79-2.7c-.53-.59-1.23-.89-2.11-.89s-1.58,.3-2.12,.9c-.54,.6-.8,1.51-.8,2.72Z"/><path class="cls-1" d="M354.5,47.42v-2.02h2.02v2.02h-2.02Z"/><path class="cls-1" d="M361.21,45.15c0,.59-.18,1.31-.51,2.18-.34,.87-.72,1.56-1.12,2.09h-1.59c.35-.63,.66-1.35,.93-2.16,.26-.82,.4-1.53,.4-2.1h1.9Z"/><path class="cls-1" d="M363.43,47.42v-10.44h2.13v8.67h5.29v1.77h-7.41Z"/><path class="cls-1" d="M373.63,47.42v-8.75h-3.12v-1.78h8.37v1.78h-3.12v8.75h-2.13Z"/><path class="cls-1" d="M380.24,36.89h3.89c.88,0,1.54,.07,2,.2,.62,.18,1.15,.51,1.59,.97,.44,.46,.78,1.03,1.01,1.71,.23,.67,.34,1.5,.34,2.49,0,.87-.11,1.61-.32,2.24-.26,.77-.64,1.39-1.13,1.86-.37,.36-.87,.64-1.49,.84-.47,.15-1.1,.22-1.88,.22h-4v-10.53Zm2.13,1.78v6.97h1.59c.59,0,1.02-.03,1.29-.1,.35-.09,.63-.23,.86-.44s.41-.54,.56-1.02,.22-1.11,.22-1.93-.07-1.44-.22-1.87c-.14-.44-.34-.78-.6-1.02-.26-.24-.59-.41-.98-.5-.3-.07-.88-.1-1.75-.1h-.96Z"/><path class="cls-1" d="M390.85,47.42v-2.02h2.02v2.02h-2.02Z"/></g><g><path class="cls-1" d="M74.43,16.95c-.03,.12-.14,.23-.32,.35-.17,.13-.27,.43-.3,.9-.02,.7-.02,1.38,0,2.04,0,1.48,.07,2.98,.2,4.5,.05,.96-.18,1.69-.7,2.19-.66,.65-1.82,.98-3.48,.99-.2,.02-.33-.09-.4-.32-.22-.48-.74-1.19-1.57-2.14-.05-.07-.05-.12,0-.15,.05-.03,.14-.03,.27,0,1.34,.17,2.23,.18,2.66,.05,.43-.13,.65-.46,.67-1,.02-.33,.02-1.58,.02-3.76,0-1.56-.07-2.78-.2-3.66h-.05c-2.65,0-5.41,.08-8.26,.22-.05,.02-.11,0-.17-.03-.07-.03-.11-.09-.12-.17v-1.94c0-.15,.09-.22,.27-.22,2.09,.15,5,.22,8.73,.22h.77c3.52,0,6.73-.1,9.65-.3,.13-.02,.22,.05,.25,.2,.07,.68,.08,1.39,.02,2.14-.07,.1-.15,.14-.25,.12-2.01-.13-4.58-.22-7.71-.25Zm-.87-7.86c2.7,0,5.36-.07,7.96-.22,.1,0,.17,.02,.2,.05,.03,.03,.04,.09,.02,.17-.08,1.18-.12,1.91-.1,2.19,.02,.73,.08,1.48,.17,2.24,.02,.12-.05,.19-.2,.22-.9,.08-1.68,.08-2.36,0-.18-.02-.27-.1-.25-.25,.08-.76,.12-1.54,.12-2.34-1.48-.05-3.71-.07-6.72-.07-1.76,0-3.95,.02-6.57,.07,0,.88,.03,1.7,.1,2.46,0,.13-.07,.21-.22,.22-.91,.07-1.73,.07-2.46,0-.15-.02-.22-.1-.2-.25,.13-1.08,.22-1.87,.25-2.39-.02-.7-.04-1.39-.07-2.09,0-.13,.02-.22,.05-.25,.03-.03,.12-.04,.25-.03,3.18,.17,5.75,.25,7.71,.25,.03-1.43-.03-2.48-.2-3.16-.05-.12-.06-.19-.02-.22,.02-.03,.08-.03,.17,0,1.16,.1,2.06,.26,2.71,.47,.2,.07,.31,.15,.32,.25,.03,.15-.03,.34-.2,.57-.17,.25-.27,.46-.3,.65-.03,.2-.09,.68-.17,1.44Z"/><path class="cls-1" d="M86.51,14.52c.17-.6,.38-1.17,.65-1.72,.07-.13,.19-.17,.37-.12,1.72,.33,2.99,.66,3.81,1,.08,.03,.11,.17,.07,.4-.05,.48-.22,1.08-.52,1.79-.07,.17-.2,.2-.4,.1-.75-.33-1.52-.6-2.31-.8-.8-.2-1.27-.31-1.42-.35-.08,0-.15-.02-.2-.05-.05-.03-.07-.12-.05-.25Zm.15,11.19c.66-.66,1.43-1.79,2.29-3.38,.71-1.31,1.29-2.53,1.72-3.66,.02-.08,.05-.12,.1-.12,.03,0,.07,.03,.12,.1,.4,.48,.83,.9,1.29,1.27,.03,0,.07,.03,.1,.08,.05,.07,.05,.15,0,.25-.48,1.51-1.13,3.09-1.94,4.75-.12,.25-.23,.49-.35,.72-.1,.2-.18,.41-.25,.65-.12,.31-.2,.5-.25,.55-.12,.1-.31,.12-.57,.05-1-.3-1.73-.59-2.21-.87-.08-.05-.13-.11-.15-.17-.02-.05,.02-.12,.1-.2Zm1.52-17.68c.36-.55,.73-1.03,1.09-1.44,.05-.1,.17-.11,.37-.02,1.04,.51,2.13,1.19,3.26,2.04,.12,.1,.12,.24,0,.42-.23,.51-.56,1.03-.97,1.54-.13,.13-.29,.13-.47,0-.53-.46-1.19-.95-1.99-1.47-.61-.4-1-.63-1.14-.7-.08-.05-.14-.09-.17-.12-.05-.05-.04-.13,.02-.25Zm14.55,14.25c1.59,1.54,3.66,2.69,6.19,3.46,.1,.03,.15,.08,.15,.12s-.05,.1-.15,.15c-1,.5-1.77,1.01-2.31,1.54-.12,.12-.27,.12-.45,0-1.82-.86-3.46-2.03-4.9-3.51-1.46,1.57-3.14,2.79-5.05,3.63-.2,.1-.36,.08-.5-.05-.23-.25-.53-.46-.9-.65-.38-.18-.76-.35-1.12-.5-.03-.02-.07-.03-.1-.05-.13,.2-.31,.44-.55,.72-.15,.2-.33,.21-.55,.02-.23-.18-.92-.36-2.06-.52-.12-.02-.18-.05-.2-.1-.02-.07,.03-.13,.12-.2,1.36-1.14,2.34-2.59,2.93-4.33,.61-1.76,.98-3.55,1.09-5.37,.12-3.27,0-5.6-.35-7.01-.02-.15,0-.24,.03-.27,.03-.03,.12-.03,.27,0,1.56,.15,3.35,.22,5.37,.22v-.22c.02-.83-.11-1.93-.37-3.31-.02-.1,0-.17,.02-.22,.03-.05,.09-.07,.17-.05,.78,.03,1.75,.22,2.91,.55,.2,.07,.29,.17,.27,.3,0,.08-.07,.22-.22,.42-.05,.1-.11,.2-.17,.3-.17,.3-.26,.49-.27,.57-.05,.18-.08,.65-.1,1.39v.27h.02c2.37-.03,3.67-.08,3.91-.15,.23-.05,.4-.06,.5-.02,.53,.27,.97,.57,1.32,.92,.13,.15,0,.39-.37,.72-.07,.07-.24,.38-.52,.94-.27,.55-.51,.99-.72,1.32-.05,.08-.14,.1-.27,.05-.48-.22-1.06-.35-1.74-.4-.1-.02-.12-.09-.05-.22,.18-.28,.37-.7,.57-1.27-.88-.02-1.76-.04-2.64-.07v2.93c.63-.02,1.26-.03,1.89-.05,.17,0,.33-.04,.5-.12,.13-.08,.27-.08,.42,0,.22,.12,.64,.41,1.27,.87,.2,.15,.26,.27,.2,.35-.07,.08-.15,.17-.25,.27-.23,.28-.38,.56-.45,.82-.61,2.09-1.55,4.02-2.81,5.8Zm-1.49-1.72c.93-1.39,1.57-2.87,1.92-4.43h-3.68c-.75,0-1.7,.02-2.86,.05-.18,4.11-1.14,7.44-2.86,10,2.45-.8,4.49-2.07,6.09-3.83-1.11-1.53-1.94-3.17-2.49-4.95-.05-.13,0-.23,.17-.3,.53-.2,1.09-.33,1.67-.4,.17,0,.25,.05,.25,.15,.38,1.33,.98,2.56,1.79,3.71Zm-1.52-6.19v-2.96h-3.13c.03,1.23,.05,2.21,.05,2.93v.02h3.08Z"/><path class="cls-1" d="M127.36,14.52c.02,.43,0,.81-.02,1.14,0,.1-.08,.15-.22,.15-2.59-.12-4.27-.18-5.05-.2,0,.05-.1,.15-.3,.3-.17,.12-.25,.26-.25,.42-.02,.8-.02,1.56-.02,2.29,1.59-.03,3.33-.11,5.22-.22,.15,0,.23,.07,.25,.22,.07,.78,.07,1.42,0,1.92-.03,.13-.12,.18-.25,.15-1.68-.13-3.42-.2-5.22-.2,0,.93,.02,2.36,.05,4.28,1.72,0,3.12-.02,4.18-.05-.9-.78-1.87-1.45-2.93-2.01-.1-.05-.16-.08-.17-.1-.03-.05-.02-.13,.05-.25,.35-.51,.7-.95,1.04-1.32,.05-.1,.17-.11,.35-.02,1.03,.43,2.06,1.01,3.08,1.74,.08,.07,.08,.21,0,.42-.3,.6-.63,1.11-.99,1.54,1.04-.02,2.38-.07,4-.15,.17,0,.25,.07,.25,.2,.05,.66,.05,1.33,0,2.01,0,.12-.08,.17-.22,.17-3.5-.15-6.76-.22-9.77-.22s-5.99,.08-9.33,.22c-.18,0-.27-.07-.27-.2-.05-.6-.05-1.25,0-1.96,0-.18,.09-.26,.27-.22,2.62,.17,5.32,.23,8.11,.2,.03-2.02,.05-3.45,.05-4.28-1.69,.03-3.35,.1-4.97,.2-.17,.02-.27-.05-.3-.2-.05-.58-.05-1.2,0-1.87,0-.1,.02-.16,.07-.2,.03-.02,.11-.02,.22-.02,2.04,.13,3.7,.21,4.97,.22,0-1.57,0-2.58-.02-3.01-.46,0-2.28,.07-5.45,.2-.18,0-.28-.06-.3-.17-.02-.12-.03-.47-.03-1.07-.84,.05-1.56,.05-2.14,0-.17-.05-.24-.13-.22-.25,.15-.95,.24-1.81,.27-2.59,0-.25-.03-.99-.1-2.21-.02-.12,0-.19,.05-.22,.03-.03,.12-.05,.25-.05,3.08,.17,5.6,.25,7.56,.25,.05-1.01-.03-2.16-.25-3.46-.03-.12-.03-.18,0-.2,.02-.03,.07-.05,.17-.05,.98,.08,1.92,.26,2.83,.52,.23,.08,.34,.21,.32,.37-.02,.12-.09,.3-.22,.55-.15,.32-.24,.53-.27,.65-.07,.27-.13,.8-.2,1.62h.17c2.04,0,4.61-.08,7.71-.25,.1,0,.17,.02,.2,.05,.02,.02,.02,.08,.02,.2-.08,1.23-.12,1.99-.1,2.29,.03,.94,.09,1.78,.17,2.51,.02,.12-.05,.19-.2,.22-.8,.07-1.5,.07-2.11,0Zm-.22-1c.03-.53,.05-1.18,.05-1.96-2.8-.1-5.07-.12-6.79-.08-1.92-.05-4.18-.02-6.76,.08,0,.66,.02,1.32,.07,1.96h.05c2.15,.13,3.54,.21,4.15,.22,.6,.02,1.43,.02,2.49,0,1.24,0,2.11,0,2.61-.02,.48-.03,1.84-.1,4.08-.2h.05Z"/><path class="cls-1" d="M146.66,17.53c.73,1.44,1.72,2.69,2.96,3.76,1.87,1.61,4.1,2.55,6.69,2.83,.22,.02,.34,.07,.37,.15,.02,.07-.04,.14-.17,.22-.31,.22-.68,.46-1.09,.72-.41,.26-.74,.57-.97,.92-.1,.15-.28,.18-.55,.1-1.97-.6-3.68-1.48-5.12-2.66-1.09-.9-2.03-1.96-2.81-3.21-.63,1.34-1.65,2.53-3.06,3.56-1.51,1.11-3.38,1.96-5.6,2.56-.17,.05-.29,0-.37-.12-.28-.41-.8-.87-1.57-1.37-.18-.1-.36-.22-.52-.35-.07-.05-.08-.11-.05-.17,.03-.05,.09-.08,.17-.1,3.02-.38,5.36-1.22,7.04-2.51,1.46-1.13,2.27-2.48,2.44-4.05,.05-.4,.08-1.21,.08-2.44-.02-1.24-.03-2.31-.05-3.21-.03-.9-.11-1.72-.22-2.49-.02-.13,.03-.2,.15-.2,1.23,.2,2.07,.38,2.54,.55,.22,.05,.32,.14,.32,.27,.02,.17-.06,.38-.22,.65-.18,.3-.28,.69-.3,1.17-.07,.73-.09,1.83-.08,3.31,.03,.95,.03,1.65,0,2.11Zm-8.16,2.06c.23-3.05,.32-5.87,.27-8.46,0-1.43-.07-3.22-.22-5.4-.02-.08,0-.14,.05-.17,.03-.02,.09-.02,.17-.02,1.66,.15,3.95,.22,6.89,.22,1.94,0,4.15-.07,6.64-.22,.12-.02,.19,0,.22,.05,.03,.03,.05,.11,.05,.22-.12,2.72-.17,4.45-.17,5.2,0,2.42,.1,5.24,.3,8.46,.02,.2,0,.33-.08,.4-.05,.05-.12,.08-.22,.1-.83,.07-1.48,.07-1.97,.02-.25,0-.37-.14-.37-.42,.07-2.59,.1-5.42,.1-8.51,0-1.29,0-2.11-.02-2.44,0-.51,0-.82-.02-.92h-9l-.05,3.38c0,2.4,.07,5.23,.22,8.48,0,.15-.02,.24-.07,.27-.03,.03-.12,.06-.25,.07-.8,.07-1.53,.08-2.19,.02-.13-.03-.21-.06-.22-.07-.05-.05-.07-.14-.05-.27Z"/><path class="cls-1" d="M164.34,7.85h1.14c.58,0,1.77-.07,3.56-.2,.13,0,.22,.07,.25,.2v1.74c-.02,.1-.1,.15-.25,.15-1.69-.1-2.88-.15-3.56-.15-.75,.02-1.49,.02-2.24,.02-.73,1.09-1.45,1.97-2.16,2.64-.1,.12-.22,.13-.35,.05-.47-.26-1.09-.46-1.89-.6-.23-.05-.28-.12-.15-.22,1.04-.75,2.02-1.8,2.93-3.16,.8-1.19,1.23-2.08,1.29-2.66,.03-.08,.1-.12,.2-.12,.38,.05,1.02,.29,1.92,.72,.27,.15,.41,.27,.45,.35,.05,.12-.07,.25-.35,.4-.27,.07-.48,.25-.65,.55-.05,.1-.1,.2-.15,.3Zm10.79,9.48c-1.69-.03-3.3-.05-4.83-.05v1.57c3.7,0,6.59-.07,8.68-.22,.13-.02,.22,0,.25,.03,.03,.03,.03,.11,0,.22-.02,.05-.08,.41-.2,1.09-.27,1.69-.6,2.93-1,3.71-.84,1.64-2.51,2.37-5,2.19-.13,0-.23-.09-.3-.27-.1-.45-.56-1.12-1.37-2.01-.17-.2-.11-.28,.17-.25,1.48,.25,2.48,.34,3.01,.27,.46-.07,.84-.31,1.14-.75,.33-.46,.61-1.23,.82-2.29-2.07-.02-4.15-.03-6.22-.05,.03,2.99,.13,5.3,.3,6.94,.03,.13-.02,.2-.15,.2-.9,.08-1.69,.08-2.39,0-.13-.02-.2-.1-.2-.25,.15-1.58,.23-3.35,.25-5.32-2.16,2.36-4.4,3.99-6.74,4.9-.3,.12-.52,.1-.67-.05-.23-.23-.54-.46-.92-.67-.38-.2-.69-.37-.92-.5-.05-.03-.08-.07-.1-.1-.03-.07,.02-.12,.15-.15,1.54-.45,3.07-1.14,4.58-2.09,1.36-.86,2.58-1.83,3.66-2.91-3.07,.03-5.27,.13-6.62,.3-.08,.02-.14-.03-.17-.12-.03-.08-.03-.16,0-.22,.51-.86,.88-1.85,1.09-2.96,.13-.86,.19-1.64,.17-2.34,0-.08,0-.14,.02-.17,.03-.05,.09-.07,.17-.05,.5,.05,1.29,.26,2.36,.62,.9,0,2.21,.02,3.93,.05-.03-.61-.06-1.09-.07-1.44-3.13,.05-5.23,.12-6.29,.2-.15,0-.23-.06-.25-.17-.05-.7-.06-1.29-.02-1.79,.02-.13,.12-.2,.32-.2,.96,.08,2.18,.14,3.66,.17-.65-.71-1.27-1.19-1.87-1.44-.08-.03-.13-.07-.15-.1-.02-.03,0-.09,.08-.17,.36-.38,.71-.71,1.04-1,.08-.05,.19-.04,.32,.02,.73,.28,1.46,.73,2.19,1.34,.08,.07,.08,.17-.02,.3-.41,.47-.76,.81-1.04,1.05,.91,.02,1.85,.02,2.81,.02,.38,.02,2.21,0,5.5-.02-.68-.73-1.3-1.21-1.87-1.44-.08-.03-.13-.07-.15-.1-.02-.03,0-.09,.07-.17,.37-.38,.71-.71,1.05-1,.08-.05,.19-.04,.32,.02,.73,.28,1.46,.73,2.19,1.34,.08,.07,.07,.17-.02,.3-.22,.27-.55,.61-1,1.02,1.16-.03,1.94-.07,2.34-.1,.12,0,.19,.02,.22,.05,.03,.03,.04,.09,.02,.17-.2,1.21-.17,2.89,.07,5.02,.02,.13-.06,.23-.22,.3-.73,.08-1.38,.08-1.94,0-.22-.05-.31-.15-.3-.3,0-.08,0-.14,.02-.17Zm-6.99,1.49v-1.54c-1.49,.02-2.98,.03-4.48,.05-.1,.46-.21,.93-.32,1.39,1.09,.07,2.69,.1,4.8,.1Zm4.68-10.97h1.14c1.62,0,3.34-.07,5.15-.2,.15,0,.22,.07,.22,.2,.05,.56,.05,1.14,0,1.74,0,.1-.07,.15-.22,.15-1.71-.1-3.42-.15-5.15-.15-.94,0-1.64,0-2.09,.02-.66,1.11-1.28,1.95-1.84,2.51-.1,.1-.22,.12-.35,.07-.41-.2-1.04-.36-1.87-.47-.25-.03-.3-.1-.15-.2,.98-.78,1.85-1.83,2.61-3.16,.68-1.18,1.02-2.04,1.02-2.59,.03-.1,.1-.15,.2-.15,.36,.05,1,.24,1.92,.57,.28,.13,.44,.23,.47,.3,.05,.12-.06,.26-.32,.42-.25,.07-.44,.25-.57,.55-.07,.17-.12,.29-.17,.37Zm2.31,7.71c0-.46,0-.93-.02-1.39h-4.38s-.1,.12-.2,.2c-.12,.08-.17,.22-.17,.4,0,.28,0,.56-.03,.85,1.61-.02,3.21-.03,4.8-.05Z"/><path class="cls-1" d="M182.99,15.19c3.25,.18,6.54,.27,9.87,.27s6.67-.09,9.85-.27c.18,0,.29,.09,.32,.27,.07,1.04,.07,1.85,0,2.41-.03,.15-.14,.21-.32,.17-1.81-.1-3.71-.17-5.72-.2-.76-.02-2.14-.03-4.13-.05-3.66,0-6.96,.08-9.87,.25-.25,.03-.38-.04-.4-.22-.05-.51-.05-1.3,0-2.36,.02-.12,.06-.19,.12-.22,.07-.03,.16-.05,.27-.05Z"/><path class="cls-1" d="M223.74,12.58c2.22-.08,3.41-.13,3.56-.15,.17-.02,.27,.06,.3,.22,.05,.63,.05,1.3,0,2.01-.02,.12-.12,.17-.3,.17-1.04-.07-2.26-.12-3.66-.15-.12,1.94-.24,3.6-.37,4.97,1.36-.07,2.37-.13,3.03-.2,.13,0,.22,.08,.27,.25,.07,.93,.08,1.61,.03,2.04-.07,.13-.16,.2-.27,.2-1.03-.1-2.13-.17-3.31-.22-.1,.61-.21,1.07-.32,1.37-.38,1.03-.9,1.74-1.57,2.14-.58,.35-1.45,.53-2.61,.55-.28,.03-.45-.07-.5-.3-.08-.3-.41-.79-.97-1.47-.3-.3-.5-.54-.6-.72-.07-.12-.08-.18-.05-.2,.02,0,.08,0,.2,.02,1.38,.27,2.32,.32,2.83,.17,.5-.13,.88-.53,1.14-1.19,0-.02,.04-.16,.12-.42-1.38,.02-2.75,.02-4.13,.02-2.77-.05-5.53,.02-8.28,.2-.1,0-.17-.03-.22-.1-.05-.05-.06-.11-.02-.17,.58-1.84,1.04-4.14,1.39-6.91-.78,.02-1.71,.06-2.79,.12-.22,.03-.34-.04-.37-.22-.03-.6-.03-1.25,0-1.97,.02-.18,.14-.26,.37-.22,1.14,.07,2.16,.11,3.06,.12,.41-3.47,.59-5.75,.52-6.87,0-.12,0-.18,.02-.2s.07-.02,.15,0c2.54,.23,4.8,.31,6.79,.22,2.77,0,4.97-.09,6.59-.27,.12-.02,.2,0,.25,.05,.03,.03,.04,.11,.02,.22-.1,2.29-.21,4.58-.32,6.86Zm-2.34,2.06c-1.24-.02-2.76-.02-4.55-.02-2.01,0-3.71,0-5.12,.02-.1,.96-.33,2.66-.7,5.1h5.52c1.49,0,2.98,0,4.45-.02,.17-1.64,.3-3.33,.4-5.07Zm.1-2.01c.12-2.27,.17-3.92,.17-4.95-.28-.03-1.81-.05-4.58-.05-1.51,.02-3.03,.03-4.55,.05-.1,.65-.3,2.29-.6,4.92,1.36,.03,2.99,.05,4.9,.05s3.41,0,4.65-.02Zm-6.62,2.64c.07-.18,.19-.22,.37-.1,1.36,.53,2.49,1.18,3.38,1.94,.18,.07,.19,.24,.02,.52-.35,.58-.67,1.02-.97,1.32-.15,.2-.31,.22-.47,.05-.78-.75-1.82-1.46-3.11-2.14-.22-.12-.25-.26-.1-.42,.3-.38,.59-.77,.87-1.17Zm.47-6.94c.07-.1,.11-.15,.12-.15,.05-.02,.12,0,.22,.05,1.36,.53,2.49,1.18,3.38,1.94,.18,.07,.19,.24,.02,.52-.2,.35-.52,.79-.97,1.32-.13,.2-.29,.22-.47,.05-.78-.75-1.82-1.46-3.11-2.14-.22-.12-.25-.26-.1-.42,.08-.13,.38-.52,.9-1.17Z"/><path class="cls-1" d="M245.32,19.64c.25,.1,.19,.31-.17,.65-.22,.13-.37,.33-.45,.6-.37,.8-.59,1.26-.67,1.39,2.01,.56,4.02,1.49,6.04,2.79,.16,.13,.19,.29,.07,.47-.63,.75-1.08,1.19-1.34,1.34-.17,.12-.32,.11-.47-.03-1.77-1.39-3.59-2.4-5.45-3.01-1.94,2.04-5.41,3.12-10.42,3.23-.18,0-.32-.08-.4-.22-.17-.3-.41-.58-.72-.84-.31-.27-.58-.5-.8-.7-.15-.13-.2-.22-.15-.25,.05-.03,.15-.05,.3-.05,4.66,.2,7.94-.37,9.85-1.72-.7-.1-1.23-.16-1.59-.17-1.03-.08-2.1-.07-3.21,.05-.08,0-.15-.03-.2-.1-.05-.08-.05-.15,0-.2,.56-.83,1.11-1.84,1.64-3.03,.03-.07,.06-.13,.08-.2-1.99,0-4.12,.05-6.39,.15-.18,.02-.28-.03-.3-.15-.03-.53-.03-1.07,0-1.62,0-.1,.02-.16,.05-.17,.03-.03,.12-.04,.25-.03,2.49,.1,4.79,.17,6.91,.2,.18-.73,.27-1.33,.25-1.82,0-.08,0-.13,.02-.15,.03-.03,.09-.04,.17-.02,.63,.03,1.48,.22,2.56,.55,.26,.07,.36,.17,.3,.32-.05,.12-.18,.22-.4,.32-.2,.12-.38,.37-.55,.75l-.02,.05h.75c3.47,0,6.8-.07,10-.2,.08-.02,.13,0,.15,.03,.02,.02,.03,.07,.05,.17,.03,.56,.03,1.11,0,1.64,0,.1-.07,.15-.2,.15-2.01-.08-3.85-.14-5.55-.17Zm-8.06-8.36c.22,.58,.58,1.1,1.09,1.57,.66,.6,1.46,.99,2.39,1.17,.12,.02,.17,.05,.17,.1,0,.07-.07,.14-.2,.22-.53,.35-.97,.75-1.32,1.19-.1,.15-.22,.19-.37,.12-.95-.43-1.68-1.18-2.19-2.24-.6,1.49-1.88,2.73-3.86,3.71-.23,.15-.41,.16-.55,.02-.45-.5-.98-.86-1.59-1.09-.08-.05-.12-.09-.12-.12,.02-.05,.08-.09,.2-.12,1.59-.45,2.78-1.1,3.56-1.97,.81-.9,1.2-2.04,1.17-3.43-.03-1.03-.08-1.69-.15-1.99-.02-.1,0-.17,.02-.2,.03-.03,.1-.05,.2-.05,.73,.08,1.33,.21,1.79,.37,.15,.05,.23,.12,.25,.22,.03,.1-.02,.23-.17,.4-.2,.25-.3,.51-.3,.8,.02,.31,0,.75-.02,1.32Zm3.03-2.51c0,1.16,.04,2.3,.12,3.41,0,.23-.1,.36-.3,.37-.5,.07-.94,.07-1.34,0-.25-.05-.36-.17-.32-.35,.05-.91,.07-1.99,.07-3.23,0-.88,0-1.44-.02-1.69-.27-.02-.94-.02-2.04-.02h-2.11v1.72c0,1.34,0,2.45,.02,3.31,0,.18-.09,.27-.27,.27-.55,.03-1.07,.02-1.57-.02-.2-.02-.28-.12-.25-.3,.13-1.19,.19-2.34,.17-3.43,0-1.59-.03-2.61-.1-3.06-.03-.1-.03-.17,0-.22,.03-.05,.11-.07,.22-.05,.94,.08,2.25,.12,3.9,.12,1.18,0,2.4-.03,3.66-.1,.12,0,.19,.02,.22,.05,.03,.03,.04,.1,.02,.2-.07,.53-.1,1.54-.1,3.03Zm2.36,10.87h-3.16c-.5,1.13-.8,1.78-.9,1.96,1.21,0,2.32,.08,3.33,.25,.23-.4,.42-.82,.57-1.27,.1-.4,.15-.71,.15-.94Zm3.56-8.18c.31,.71,.8,1.38,1.44,2.01,.9,.86,1.94,1.45,3.13,1.77,.15,.03,.23,.07,.25,.12,0,.03-.05,.07-.15,.1-.63,.28-1.19,.67-1.67,1.17-.1,.15-.25,.17-.45,.05-1.29-.65-2.34-1.73-3.13-3.26-.63,1.31-1.76,2.41-3.38,3.31-.23,.13-.41,.12-.52-.02-.36-.41-.83-.77-1.39-1.07-.08-.05-.12-.09-.12-.12,.02-.03,.07-.07,.17-.1,2.8-.9,4.22-2.55,4.25-4.97,0-.76-.05-1.44-.15-2.04-.02-.08,0-.14,.02-.17,.03-.05,.09-.07,.17-.05,.78,.03,1.41,.13,1.89,.3,.17,.05,.26,.12,.27,.22,.03,.1-.03,.23-.2,.4-.25,.25-.37,.58-.37,.99,0,.47-.03,.92-.08,1.37Zm3.16-2.54c0,1.34,.04,2.36,.12,3.06,.05,.23-.05,.37-.3,.42-.41,.07-.92,.08-1.52,.02-.23,0-.33-.11-.3-.32,.05-1.09,.08-2.19,.08-3.28,0-.68,0-1.19-.03-1.54-.38-.02-.99-.02-1.82-.02-1.11,0-1.81,0-2.09,.02-.02,.38-.03,.95-.03,1.72,0,1.21,.03,2.3,.08,3.26,0,.18-.1,.28-.3,.3-.51,.07-.98,.07-1.39,0-.15-.02-.24-.04-.27-.07-.03-.03-.05-.11-.05-.22,.13-.81,.2-1.95,.2-3.41,0-1.62-.05-2.67-.15-3.13-.02-.12,0-.19,.02-.22,.03-.05,.11-.07,.22-.05,.78,.1,2.07,.15,3.88,.15,.96,0,2.12-.04,3.48-.12,.12-.02,.2,0,.25,.05,.03,.03,.04,.1,.03,.2-.08,.9-.12,1.97-.12,3.21Z"/><path class="cls-1" d="M272.97,18.41c-1.28,0-3-.02-5.18-.05,.03,3.25,.09,5.71,.16,7.38,0,.12-.08,.18-.23,.18-.79,.1-1.51,.1-2.15,0-.21,0-.31-.08-.31-.23,.1-2.43,.18-4.88,.23-7.33-2.14,.04-3.76,.05-4.84,.05-.52,3.45-1.58,6.15-3.19,8.08-.16,.19-.34,.22-.54,.08-.33-.19-.98-.39-1.94-.6-.16-.02-.29-.04-.39-.08-.14-.04-.22-.08-.23-.13-.02-.07,.03-.15,.13-.23,2.38-1.98,3.76-5.49,4.14-10.52,.24-3.19,.1-6.31-.41-9.35-.02-.17,0-.28,.03-.34,.03-.03,.12-.04,.26-.03,2.21,.21,5.01,.29,8.39,.23,4.44-.05,7.23-.1,8.39-.16,.14-.02,.22,0,.26,.05,.02,.02,.02,.12,0,.31-.17,2.52-.23,5.73-.18,9.63,0,2.97,.06,5.79,.18,8.44,.03,.81-.23,1.48-.8,1.99-.69,.64-1.74,.96-3.13,.96-.17,0-.29-.12-.36-.36-.16-.35-.41-.71-.78-1.09-.36-.38-.69-.75-.98-1.11-.09-.09-.12-.15-.1-.18,.02-.04,.1-.04,.23-.03,1.02,.14,1.75,.19,2.2,.16,.71-.05,1.08-.31,1.11-.78,.07-1.16,.09-2.81,.05-4.97Zm-7.43-5.39c-1.9,.03-3.38,.05-4.45,.05-.04,1.19-.1,2.29-.18,3.29,1.1,0,2.64,.02,4.61,.05,.02-.69,.03-1.49,.03-2.41v-.98Zm0-1.94c-.05-2.3-.08-3.46-.08-3.5h-4.51c.07,2.24,.1,3.39,.1,3.45,1.09,0,2.58,.02,4.48,.05Zm7.43,5.28v-3.29c-1.31,0-3.06-.02-5.23-.05v.98c0,.93,0,1.74,.03,2.41,2.18-.03,3.91-.05,5.21-.05Zm-.03-5.34c-.04-1.12-.07-2.24-.1-3.37-1.52-.02-3.05-.04-4.58-.08-.04,.05-.11,.12-.23,.21-.14,.1-.21,.27-.21,.49,0,.59-.02,1.52-.05,2.8,2.18-.03,3.9-.05,5.18-.05Z"/><path class="cls-1" d="M284.7,24.44c-.63-.03-1.29-.05-1.99-.05s-1.35,.02-2.01,.05c.02,.38,.02,.75,.02,1.12,.02,.15,0,.25-.05,.3-.03,.03-.13,.06-.3,.08-.68,.07-1.25,.07-1.72,0-.17-.02-.27-.04-.32-.08-.05-.05-.07-.16-.05-.32,.15-1.49,.22-3.1,.22-4.83,.03-1.44,0-2.85-.12-4.23-.02-.17-.02-.26,0-.27,.03-.05,.14-.07,.32-.05,.81,.08,2.16,.12,4.03,.12,1.41,0,2.74-.04,3.98-.12,.12,0,.2,.03,.25,.08,.03,.03,.05,.12,.05,.25-.08,1.16-.12,2.61-.12,4.35,0,1.51,.05,2.98,.15,4.4,.02,.17,0,.27-.02,.32-.03,.05-.14,.09-.32,.12-.58,.08-1.12,.09-1.62,.02-.1-.02-.19-.03-.27-.05-.08-.03-.12-.12-.12-.27,.02-.31,.03-.63,.03-.95Zm.05-1.94v-1.87c0-.83,0-1.67-.02-2.51-.45-.02-1.13-.02-2.04-.02s-1.53,0-1.97,.02c0,.86,0,1.72-.02,2.56v1.82c.66,.03,1.33,.05,1.99,.05,.71,0,1.4-.02,2.06-.05Zm6.91-8.85c-1.06-.03-2.3-.05-3.73-.05-1.21,0-2.33,.02-3.36,.05,.02,.25,.02,.49,.02,.72,0,.13-.02,.22-.08,.25-.05,.05-.16,.08-.32,.1-.56,.08-1.14,.08-1.72,0-.2-.03-.31-.06-.35-.08-.07-.05-.09-.16-.07-.32,.15-1.31,.22-2.81,.22-4.5,.03-1.31,0-2.64-.12-3.98-.02-.13-.02-.22,0-.27,.02-.05,.13-.07,.35-.05,1.28,.1,3.1,.15,5.47,.15s4.24-.05,5.8-.15c.15-.02,.24,0,.27,.05,.03,.03,.04,.12,.02,.25-.08,1.16-.12,2.54-.12,4.13,0,1.36,.06,2.74,.17,4.13,.02,.18,0,.29-.02,.32-.03,.05-.16,.09-.37,.12-.53,.07-1.09,.08-1.69,.02-.1-.02-.19-.03-.27-.05-.08-.03-.12-.12-.12-.27,.02-.18,.02-.37,.02-.57Zm.03-2.01v-1.89c0-.71,0-1.43-.03-2.16-1.24,0-2.49,0-3.73-.03-1.11,.02-2.23,.03-3.36,.03,0,.73,0,1.46-.02,2.19v1.86c.99,.03,2.12,.05,3.38,.05,1.44,0,2.69-.02,3.76-.05Zm4,12.81c-.7-.03-1.43-.05-2.19-.05s-1.45,.02-2.11,.05c.02,.38,.02,.75,.02,1.12,0,.15-.02,.24-.05,.27-.03,.05-.14,.08-.32,.1-.58,.1-1.13,.1-1.64,0-.18-.03-.29-.06-.32-.08-.07-.05-.09-.16-.08-.32,.13-1.33,.2-2.93,.2-4.83,0-1.74-.03-3.15-.1-4.23-.02-.17-.02-.26,0-.27,.03-.05,.14-.07,.32-.05,.81,.08,2.19,.12,4.13,.12,1.54,0,2.94-.04,4.2-.12,.12,0,.2,.03,.25,.08,.03,.03,.05,.12,.05,.25-.1,1.39-.15,2.84-.15,4.35,0,1.26,.06,2.73,.17,4.4,.02,.17,0,.27-.03,.32s-.15,.09-.35,.12c-.58,.08-1.14,.09-1.67,.02-.1-.02-.18-.03-.25-.05-.08-.03-.12-.12-.12-.27,.02-.31,.02-.63,.02-.95Zm.02-1.94v-1.87c0-.83,0-1.67-.02-2.51-.73,0-1.46,0-2.19-.02-.7,.02-1.4,.02-2.11,.02,0,.86,0,1.72-.03,2.56v1.82c.7,.03,1.41,.05,2.14,.05,.78,0,1.52-.02,2.21-.05Z"/><path class="cls-1" d="M316.92,21.58c-1.26-.03-2.45-.05-3.58-.05-1.11,.02-2.22,.02-3.33,.02,.03,1.56,.07,3.11,.1,4.65,0,.15-.11,.24-.32,.27-.63,.03-1.26,.02-1.89-.03-.18,0-.27-.09-.25-.27,.15-2.45,.22-5.03,.22-7.74,0-.91,0-1.72-.02-2.44-1.31,1.81-2.67,3.26-4.08,4.35-.18,.12-.34,.13-.47,.05-.41-.33-1.09-.6-2.01-.8-.3-.07-.34-.16-.12-.27,1.67-1.01,3.22-2.4,4.63-4.18,1.14-1.46,2.16-3.12,3.06-4.97-1.82,.03-3.87,.11-6.14,.22-.2,.02-.31-.05-.32-.2v-1.97c.02-.12,.04-.19,.08-.22,.03-.03,.12-.04,.25-.02,2.29,.12,4.63,.19,7.01,.22,.65-1.66,.99-2.89,1.02-3.71,0-.13,.05-.2,.15-.2,.73,.13,1.62,.43,2.69,.9,.22,.13,.31,.28,.27,.45-.03,.17-.19,.33-.47,.5-.33,.18-.55,.41-.65,.67-.18,.46-.37,.93-.57,1.39h.47c3.7,0,7.06-.07,10.1-.22,.1-.02,.17,0,.2,.05,.02,.02,.02,.08,.02,.17,.05,.7,.05,1.38,0,2.04,0,.13-.07,.18-.22,.15-3.27-.15-6.63-.22-10.1-.22h-1.37c-.51,1.04-.88,1.75-1.09,2.11,1.14,.05,2.21,.08,3.21,.08,2.21,0,4.09-.05,5.65-.15,.13,0,.22,.02,.27,.07,.03,.03,.04,.12,.02,.25-.12,1.26-.17,3.28-.17,6.04,0,1.41,.06,3.1,.17,5.07,.05,.81-.16,1.46-.62,1.94-.6,.6-1.57,.91-2.91,.94-.22,0-.33-.11-.35-.32-.08-.28-.27-.61-.57-1-.3-.38-.59-.74-.87-1.07-.07-.08-.09-.13-.08-.15,.02-.03,.09-.04,.22-.02,1.04,.16,1.77,.2,2.19,.1,.38-.1,.57-.36,.57-.77,.02-.41,.02-1,.02-1.74Zm0-1.89v-1.79c-1.26-.03-2.46-.05-3.61-.05-.83,0-1.94,.02-3.33,.05v1.82c1.11,.02,2.22,.02,3.33,.02s2.35-.02,3.61-.05Zm-.02-3.71v-1.72c-1.19,0-2.39,0-3.58-.02-1.09,.02-2.2,.02-3.31,.02v1.72c1.39,.03,2.5,.05,3.31,.05,1.09,0,2.29-.02,3.58-.05Z"/><path class="cls-1" d="M328.8,7.66c-.1,.95-.14,2.28-.12,4v3.51c0,5.04,.1,8.75,.3,11.12,0,.1-.07,.17-.22,.2-.86,.05-1.66,.05-2.39,0-.17-.02-.24-.1-.22-.25,.25-2.85,.37-6.54,.37-11.07,.02-.9,.02-2.35,.02-4.35-.02-2.02-.12-3.66-.3-4.92-.02-.1,0-.17,.03-.2,.02-.02,.07-.02,.15,0,1.06,.07,2.12,.13,3.18,.2l2.14-.05c.07,0,.17-.05,.3-.15,.13-.13,.24-.18,.32-.15,.58,.33,1.08,.7,1.49,1.12,.18,.2,.12,.4-.17,.6-.17,.13-.26,.24-.3,.32-.6,1.23-1.19,2.45-1.79,3.68-.22,.36-.17,.69,.15,.97,.88,.95,1.46,1.95,1.74,3.01,.28,1.06,.28,2.04,0,2.93-.45,1.46-1.54,2.26-3.28,2.41-.13,0-.22-.08-.27-.22-.13-.48-.47-1.1-1.02-1.87-.12-.16-.11-.23,.02-.2,.68,.2,1.23,.17,1.67-.07,.41-.25,.69-.64,.82-1.17,.3-1.14-.09-2.35-1.17-3.61-.35-.38-.56-.66-.62-.85-.08-.23-.05-.57,.1-1.02,.51-1.62,.88-2.93,1.09-3.93h-2.01Zm13.58,12.34c1.29,2.16,3.17,3.7,5.62,4.63,.31,.1,.3,.23-.05,.4-.33,.13-.7,.29-1.12,.47-.41,.17-.79,.41-1.12,.72-.15,.15-.33,.16-.55,.03-1.66-1.06-3.03-2.53-4.13-4.4-.03,.45-.04,.79-.02,1.02,0,.2-.09,.33-.27,.4-2.12,.93-4.25,1.85-6.39,2.76-.13,.07-.26,.16-.37,.27-.15,.23-.33,.25-.55,.05-.58-.55-1.04-1.22-1.39-2.01-.05-.12,0-.2,.15-.25,.5-.1,1.09-.3,1.77-.6,.48-.23,.74-.67,.77-1.32,.08-2.29,.12-5.13,.12-8.53,.02-1.48,.02-2.75,0-3.83-.02-1.09-.1-2.35-.25-3.76-.02-.17-.02-.27,0-.3,.03-.07,.15-.09,.35-.08,1.31,.12,2.93,.17,4.85,.17,1.31,0,2.79-.07,4.43-.2,.13-.02,.22,0,.27,.08,.05,.05,.06,.13,.02,.25-.1,1.33-.15,3.02-.15,5.07,0,1.36,.08,2.84,.25,4.45,.02,.17,0,.27-.03,.3-.05,.05-.18,.1-.4,.15-.76,.05-1.28,.06-1.54,.02-.12,0-.22,0-.32-.02-.08-.02-.12-.1-.12-.25,.02-.15,.02-.31,.02-.47-.28-.02-.8-.02-1.57-.02,.2,1.18,.51,2.26,.95,3.26,.78-.38,1.49-.85,2.14-1.39,.45-.37,.82-.73,1.12-1.09,.05-.08,.12-.07,.22,.02,.08,.05,.31,.27,.7,.67,.45,.46,.75,.84,.92,1.12,.08,.17,.07,.28-.05,.35-.08,.05-.26,.1-.52,.15-.28,0-.55,.07-.8,.2-1.68,.88-2.66,1.38-2.96,1.52Zm-.15-10.37c0-.86,0-1.51-.02-1.94-.81,0-1.63,0-2.46-.02-.61,.02-1.53,.02-2.74,.02v1.97c1.16,.03,1.99,.05,2.49,.05,.33,0,1.24-.02,2.74-.07Zm.02,3.9v-2.11c-.9,0-1.8,0-2.71-.02-1.11,0-1.96,0-2.54,.02v2.14c.81,.02,1.62,.03,2.44,.03s1.78-.02,2.81-.05Zm-1.54,7.71c-.96-1.82-1.63-3.85-2.01-6.07-.35,.02-.91,.02-1.69,.02,0,3.1,0,5.55,.03,7.36,.93-.25,2.15-.69,3.68-1.32Z"/><path class="cls-1" d="M355.83,8.81c1.18,.36,2.06,.75,2.66,1.14,.15,.12,.19,.24,.12,.37-.05,.1-.18,.2-.4,.3-.35,.17-.6,.35-.75,.55-.56,1-1.21,1.96-1.94,2.91-1.28,1.69-2.57,2.98-3.88,3.85-.13,.08-.27,.08-.4-.02-.48-.31-1.29-.67-2.41-1.07-.18-.08-.2-.16-.05-.22,1.96-1.06,3.5-2.33,4.63-3.81,1.28-1.69,2.01-2.99,2.21-3.91,.03-.12,.1-.15,.2-.1Zm9.33,14.3c-3.78,.7-7.52,1.48-11.22,2.34-.17,.02-.35,.09-.55,.22-.23,.18-.43,.17-.6-.05-.4-.66-.78-1.53-1.14-2.59-.02-.08,0-.14,.02-.17,.05-.03,.13-.05,.25-.05,1-.03,1.78-.16,2.36-.37,.61-.23,1.08-.69,1.39-1.37,.98-2.07,1.79-4.62,2.44-7.64,.02-.1,.03-.16,.05-.17,.03-.03,.1-.03,.2,0,.96,.25,1.97,.61,3.01,1.09,.25,.15,.31,.32,.17,.52-.12,.18-.35,.36-.7,.52-.35,.18-.61,.5-.8,.94-1.03,2.7-1.89,4.69-2.59,5.97,2.07-.31,4.17-.66,6.29-1.04-.48-.58-1.05-1.24-1.72-1.99-.12-.12-.1-.25,.05-.4,.68-.53,1.16-.87,1.44-1.02,.12-.07,.24-.03,.37,.1,.53,.5,1.18,1.17,1.94,2.01,1.23,1.36,2.24,2.63,3.03,3.81,.08,.13,.04,.28-.12,.45-.56,.45-1.16,.86-1.79,1.24-.17,.08-.31,.02-.42-.2-.3-.56-.76-1.29-1.39-2.16Zm-3.31-15.15c-1.82-.03-3.41,.02-4.75,.15-.07,0-.12-.02-.15-.05-.03-.03-.06-.1-.07-.2-.05-.78-.06-1.43-.02-1.94,.02-.15,.03-.23,.05-.25,.03-.03,.1-.04,.2-.02,2.06,.22,4.22,.24,6.49,.07,.08-.02,.15-.02,.2,0,.07,.02,.12,.13,.15,.35,.31,1.76,1.07,3.41,2.26,4.95,1.44,1.87,3.35,3.31,5.72,4.3,.12,.05,.17,.11,.17,.17s-.07,.13-.2,.2c-.25,.1-.64,.27-1.17,.5-.51,.22-.94,.47-1.27,.77-.13,.13-.28,.14-.45,.02-1.74-1.11-3.25-2.51-4.53-4.2-1.13-1.49-2.01-3.1-2.64-4.83Z"/><path class="cls-1" d="M374.33,5.38c3.11,.15,6.22,.23,9.33,.23,4.44,0,7.54-.04,9.28-.13,.14-.02,.23,0,.28,.05s.07,.15,.05,.28c-.17,1.93-.24,4.69-.2,8.28v1.18c0,2.96,.06,5.51,.18,7.66,.07,.94-.24,1.69-.92,2.26-.73,.62-1.82,.92-3.26,.92-.15,0-.28-.12-.38-.36-.15-.36-.39-.73-.72-1.13-.34-.39-.67-.77-.97-1.13-.07-.1-.09-.16-.08-.18,.03-.03,.12-.04,.26-.03,1.01,.17,1.7,.25,2.08,.23,.91-.03,1.36-.38,1.36-1.03,.02-.91,.03-3.32,.03-7.23,0-2.51,0-5.02-.03-7.54-.92-.03-3.24-.05-6.95-.05-2.73,0-5.84,.08-9.33,.23-.2,.02-.32-.05-.33-.21v-2.08c.02-.12,.04-.2,.08-.23,.03-.03,.12-.04,.26-.03Zm1.69,3.95c2.08,.15,4.12,.23,6.1,.23,1.67,0,3.54-.09,5.59-.26,.15,0,.23,.08,.23,.23,.05,.6,.05,1.22,0,1.87,0,.12-.08,.18-.23,.18-2-.15-3.86-.23-5.59-.23-2.2,0-4.24,.08-6.1,.23-.17,0-.26-.07-.26-.2-.05-.56-.05-1.17,0-1.82,0-.1,.02-.17,.05-.21s.1-.04,.2-.03Zm7.92,10.87c-.79-.03-1.55-.05-2.28-.05-.85,0-1.66,.02-2.41,.05,0,.39,.02,.93,.05,1.61,.02,.14,0,.22-.05,.26-.05,.03-.17,.06-.36,.08-.6,.05-1.16,.05-1.69,0-.17-.02-.28-.04-.33-.08-.07-.05-.09-.15-.08-.31,.15-1.67,.23-3.3,.23-4.87,0-1.37-.03-2.49-.1-3.36-.02-.14-.02-.22,0-.26,.02-.05,.13-.06,.33-.03,.96,.07,2.44,.1,4.46,.1,1.03,0,2.46-.04,4.31-.13,.14-.02,.23,0,.28,.05,.03,.03,.05,.12,.05,.26-.09,.85-.13,1.92-.13,3.2,0,1.09,.05,2.51,.15,4.25,0,.17,0,.27-.03,.28-.03,.05-.16,.09-.38,.13-.75,.05-1.27,.06-1.56,.03-.1-.02-.2-.03-.31-.05-.12-.02-.18-.09-.18-.23,.02-.31,.03-.62,.03-.95Zm.08-1.97c.02-.48,.03-.96,.03-1.43,0-.53,0-1.07-.03-1.62-.53-.02-1.32-.03-2.38-.03-.79,.02-1.58,.03-2.38,.03v3.05c.75,.03,1.55,.05,2.38,.05s1.6-.02,2.38-.05Z"/></g></g></g></svg>