<?xml version="1.0" encoding="UTF-8"?><svg id="_层_2" xmlns="http://www.w3.org/2000/svg" viewBox="0 0 138.02 51.69"><defs><style>.cls-1{fill:#707070;}.cls-2{fill:#4e5f67;}.cls-3{fill:#2cd2c1;}</style></defs><g id="_层_1-2"><g><g><path class="cls-1" d="M4.92,46.87s-.06,.1-.14,.15c-.07,.06-.11,.18-.12,.37,0,.29,0,.57,0,.85,0,.62,.03,1.24,.08,1.88,.02,.4-.08,.71-.29,.91-.28,.27-.76,.41-1.45,.42-.08,0-.14-.04-.17-.13-.09-.2-.31-.5-.65-.89-.02-.03-.02-.05,0-.06,.02-.01,.06-.01,.11,0,.56,.07,.93,.08,1.11,.02,.18-.06,.27-.19,.28-.42,0-.14,.01-.66,.01-1.57,0-.65-.03-1.16-.08-1.53h-.02c-1.11,0-2.26,.03-3.45,.09-.02,0-.05,0-.07-.01-.03-.01-.05-.04-.05-.07v-.81c0-.06,.04-.09,.11-.09,.87,.06,2.09,.09,3.64,.09h.32c1.47,0,2.81-.04,4.03-.12,.06,0,.09,.02,.1,.08,.03,.28,.03,.58,.01,.89-.03,.04-.06,.06-.1,.05-.84-.06-1.91-.09-3.22-.1Zm-.36-3.28c1.13,0,2.24-.03,3.32-.09,.04,0,.07,0,.08,.02,.01,.01,.02,.04,.01,.07-.03,.49-.05,.8-.04,.91,0,.3,.03,.62,.07,.93,0,.05-.02,.08-.08,.09-.37,.03-.7,.03-.99,0-.08,0-.11-.04-.1-.1,.03-.32,.05-.64,.05-.98-.62-.02-1.55-.03-2.8-.03-.73,0-1.65,.01-2.74,.03,0,.37,.01,.71,.04,1.03,0,.06-.03,.09-.09,.09-.38,.03-.72,.03-1.03,0-.06,0-.09-.04-.08-.1,.06-.45,.09-.78,.1-1,0-.29-.02-.58-.03-.87,0-.06,0-.09,.02-.1,.01-.01,.05-.02,.1-.01,1.33,.07,2.4,.1,3.22,.1,.01-.6-.01-1.03-.08-1.32-.02-.05-.02-.08-.01-.09,0-.01,.03-.01,.07,0,.48,.04,.86,.11,1.13,.2,.08,.03,.13,.06,.13,.1,.01,.06-.01,.14-.08,.24-.07,.1-.11,.19-.12,.27-.01,.08-.04,.28-.07,.6Z"/><path class="cls-1" d="M9.96,46.12c.07-.25,.16-.49,.27-.72,.03-.06,.08-.07,.16-.05,.72,.14,1.25,.28,1.59,.42,.03,.01,.04,.07,.03,.17-.02,.2-.09,.45-.22,.75-.03,.07-.08,.08-.17,.04-.31-.14-.63-.25-.97-.33-.33-.08-.53-.13-.59-.15-.03,0-.06,0-.08-.02-.02-.01-.03-.05-.02-.1Zm.06,4.67c.28-.28,.59-.75,.95-1.41,.3-.55,.54-1.06,.72-1.53,0-.03,.02-.05,.04-.05,.01,0,.03,.01,.05,.04,.17,.2,.35,.38,.54,.53,.01,0,.03,.01,.04,.03,.02,.03,.02,.06,0,.1-.2,.63-.47,1.29-.81,1.98-.05,.1-.1,.2-.15,.3-.04,.08-.08,.17-.1,.27-.05,.13-.08,.21-.1,.23-.05,.04-.13,.05-.24,.02-.42-.12-.72-.25-.92-.36-.03-.02-.06-.05-.06-.07,0-.02,0-.05,.04-.08Zm.63-7.38c.15-.23,.3-.43,.46-.6,.02-.04,.07-.05,.16-.01,.44,.21,.89,.5,1.36,.85,.05,.04,.05,.1,0,.18-.1,.21-.23,.43-.41,.64-.06,.06-.12,.06-.2,0-.22-.19-.5-.4-.83-.61-.26-.17-.42-.26-.48-.29-.03-.02-.06-.04-.07-.05-.02-.02-.02-.06,.01-.1Zm6.07,5.95c.66,.64,1.53,1.12,2.59,1.44,.04,.01,.06,.03,.06,.05s-.02,.04-.06,.06c-.42,.21-.74,.42-.97,.64-.05,.05-.11,.05-.19,0-.76-.36-1.44-.85-2.05-1.46-.61,.66-1.31,1.16-2.11,1.52-.08,.04-.15,.03-.21-.02-.1-.1-.22-.19-.37-.27-.16-.08-.32-.15-.47-.21l-.04-.02c-.06,.08-.13,.18-.23,.3-.06,.08-.14,.09-.23,.01-.1-.08-.38-.15-.86-.22-.05,0-.08-.02-.08-.04,0-.03,.01-.06,.05-.08,.57-.48,.98-1.08,1.23-1.81,.26-.73,.41-1.48,.46-2.24,.05-1.36,0-2.34-.15-2.93,0-.06,0-.1,.01-.11,.01-.01,.05-.01,.11,0,.65,.06,1.4,.09,2.24,.09v-.09c0-.35-.05-.81-.16-1.38,0-.04,0-.07,.01-.09,.01-.02,.04-.03,.07-.02,.33,.01,.73,.09,1.21,.23,.08,.03,.12,.07,.11,.12,0,.03-.03,.09-.09,.18-.02,.04-.05,.08-.07,.12-.07,.12-.11,.2-.11,.24-.02,.08-.03,.27-.04,.58v.11h.01c.99-.01,1.53-.03,1.63-.06,.1-.02,.17-.02,.21-.01,.22,.11,.41,.24,.55,.38,.06,.06,0,.16-.16,.3-.03,.03-.1,.16-.22,.39-.11,.23-.21,.41-.3,.55-.02,.03-.06,.04-.11,.02-.2-.09-.44-.15-.73-.17-.04,0-.05-.04-.02-.09,.08-.12,.16-.29,.24-.53-.37,0-.73-.02-1.1-.03v1.23l.79-.02c.07,0,.14-.02,.21-.05,.06-.03,.11-.03,.18,0,.09,.05,.27,.17,.53,.36,.08,.06,.11,.11,.08,.15-.03,.03-.06,.07-.1,.11-.1,.12-.16,.23-.19,.34-.26,.87-.65,1.68-1.17,2.42Zm-.62-.72c.39-.58,.65-1.2,.8-1.85h-1.54c-.31,0-.71,0-1.19,.02-.08,1.72-.47,3.11-1.19,4.17,1.02-.33,1.87-.87,2.54-1.6-.46-.64-.81-1.33-1.04-2.07-.02-.06,0-.1,.07-.12,.22-.08,.45-.14,.7-.17,.07,0,.1,.02,.1,.06,.16,.55,.41,1.07,.75,1.55Zm-.63-2.59v-1.24h-1.31c.01,.51,.02,.92,.02,1.23h1.29Z"/><path class="cls-1" d="M27.01,45.98c0,.18,0,.34-.01,.48,0,.04-.03,.06-.09,.06-1.08-.05-1.78-.08-2.11-.08,0,.02-.04,.06-.12,.12-.07,.05-.1,.11-.1,.18,0,.33-.01,.65-.01,.95,.66-.01,1.39-.04,2.18-.09,.06,0,.1,.03,.1,.09,.03,.33,.03,.59,0,.8-.01,.06-.05,.08-.1,.06-.7-.06-1.43-.08-2.18-.08,0,.39,0,.98,.02,1.79,.72,0,1.3,0,1.74-.02-.37-.33-.78-.61-1.23-.84-.04-.02-.07-.03-.07-.04-.01-.02,0-.06,.02-.1,.15-.21,.29-.4,.44-.55,.02-.04,.07-.05,.15-.01,.43,.18,.86,.42,1.29,.73,.03,.03,.03,.09,0,.18-.12,.25-.26,.46-.42,.64,.44,0,.99-.03,1.67-.06,.07,0,.1,.03,.1,.08,.02,.28,.02,.56,0,.84,0,.05-.03,.07-.09,.07-1.46-.06-2.82-.09-4.08-.09s-2.5,.03-3.89,.09c-.08,0-.11-.03-.11-.08-.02-.25-.02-.52,0-.82,0-.08,.04-.11,.11-.09,1.09,.07,2.22,.1,3.38,.08,.01-.84,.02-1.44,.02-1.79-.71,.01-1.4,.04-2.08,.08-.07,0-.11-.02-.12-.08-.02-.24-.02-.5,0-.78,0-.04,.01-.07,.03-.08,.01,0,.05-.01,.09-.01,.85,.06,1.54,.09,2.08,.09,0-.66,0-1.08-.01-1.26-.19,0-.95,.03-2.27,.08-.08,0-.12-.02-.12-.07,0-.05-.01-.2-.01-.45-.35,.02-.65,.02-.89,0-.07-.02-.1-.06-.09-.1,.06-.39,.1-.75,.11-1.08,0-.1-.01-.41-.04-.92,0-.05,0-.08,.02-.09,.01-.01,.05-.02,.1-.02,1.29,.07,2.34,.1,3.16,.1,.02-.42-.01-.9-.1-1.44-.01-.05-.01-.08,0-.08,0-.01,.03-.02,.07-.02,.41,.03,.8,.11,1.18,.22,.1,.03,.14,.09,.13,.16,0,.05-.04,.12-.09,.23-.06,.13-.1,.22-.11,.27-.03,.11-.06,.34-.08,.67h.07c.85,0,1.92-.03,3.22-.1,.04,0,.07,0,.08,.02,0,0,.01,.03,.01,.08-.03,.51-.05,.83-.04,.96,.01,.39,.04,.74,.07,1.05,0,.05-.02,.08-.08,.09-.33,.03-.63,.03-.88,0Zm-.09-.42c.01-.22,.02-.49,.02-.82-1.17-.04-2.11-.05-2.83-.03-.8-.02-1.74-.01-2.82,.03,0,.28,.01,.55,.03,.82h.02c.9,.06,1.48,.09,1.73,.09,.25,0,.6,0,1.04,0,.52,0,.88,0,1.09-.01,.2-.01,.77-.04,1.7-.08h.02Z"/><path class="cls-1" d="M35.07,47.69c.3,.6,.72,1.13,1.24,1.57,.78,.67,1.71,1.07,2.79,1.18,.09,0,.14,.03,.16,.06,0,.03-.02,.06-.07,.09-.13,.09-.28,.19-.46,.3-.17,.11-.31,.24-.4,.38-.04,.06-.12,.08-.23,.04-.82-.25-1.54-.62-2.14-1.11-.46-.37-.85-.82-1.17-1.34-.26,.56-.69,1.06-1.28,1.48-.63,.46-1.41,.82-2.34,1.07-.07,.02-.12,0-.16-.05-.12-.17-.34-.36-.65-.57-.08-.04-.15-.09-.22-.15-.03-.02-.03-.05-.02-.07,.01-.02,.04-.03,.07-.04,1.26-.16,2.24-.51,2.94-1.05,.61-.47,.95-1.03,1.02-1.69,.02-.17,.03-.51,.03-1.02,0-.52-.01-.97-.02-1.34-.01-.37-.05-.72-.09-1.04,0-.06,.01-.08,.06-.08,.51,.08,.87,.16,1.06,.23,.09,.02,.13,.06,.13,.11,0,.07-.02,.16-.09,.27-.08,.12-.12,.29-.12,.49-.03,.3-.04,.76-.03,1.38,.01,.39,.01,.69,0,.88Zm-3.41,.86c.1-1.27,.14-2.45,.11-3.53,0-.6-.03-1.35-.09-2.25,0-.03,0-.06,.02-.07,.01,0,.04-.01,.07-.01,.69,.06,1.65,.09,2.88,.09,.81,0,1.73-.03,2.77-.09,.05,0,.08,0,.09,.02,.01,.01,.02,.05,.02,.09-.05,1.14-.07,1.86-.07,2.17,0,1.01,.04,2.19,.12,3.53,0,.08,0,.14-.03,.17-.02,.02-.05,.03-.09,.04-.35,.03-.62,.03-.82,.01-.1,0-.16-.06-.16-.18,.03-1.08,.04-2.26,.04-3.55,0-.54,0-.88-.01-1.02,0-.21,0-.34-.01-.38h-3.76l-.02,1.41c0,1,.03,2.18,.09,3.54,0,.06-.01,.1-.03,.11-.01,.01-.05,.02-.1,.03-.33,.03-.64,.03-.91,.01-.06-.01-.09-.02-.09-.03-.02-.02-.03-.06-.02-.11Z"/><path class="cls-1" d="M42.45,43.4h.48c.24,0,.74-.03,1.48-.08,.06,0,.09,.03,.1,.08v.73s-.04,.06-.1,.06c-.71-.04-1.2-.06-1.48-.06-.31,0-.62,.01-.93,.01-.3,.46-.61,.82-.9,1.1-.04,.05-.09,.06-.15,.02-.19-.11-.46-.19-.79-.25-.1-.02-.12-.05-.06-.09,.44-.31,.84-.75,1.23-1.32,.33-.5,.51-.87,.54-1.11,.01-.03,.04-.05,.08-.05,.16,.02,.43,.12,.8,.3,.11,.06,.17,.11,.19,.15,.02,.05-.03,.1-.15,.17-.11,.03-.2,.1-.27,.23-.02,.04-.04,.08-.06,.12Zm4.51,3.96c-.71-.01-1.38-.02-2.01-.02v.65c1.54,0,2.75-.03,3.62-.09,.06,0,.09,0,.1,.01,.01,.01,.01,.05,0,.09,0,.02-.03,.17-.08,.46-.11,.71-.25,1.22-.42,1.55-.35,.69-1.05,.99-2.09,.91-.06,0-.1-.04-.12-.11-.04-.19-.23-.47-.57-.84-.07-.08-.05-.12,.07-.1,.62,.1,1.03,.14,1.26,.11,.19-.03,.35-.13,.48-.31,.14-.19,.25-.51,.34-.96-.87,0-1.73-.01-2.6-.02,.01,1.25,.06,2.21,.12,2.9,.01,.06,0,.08-.06,.08-.37,.03-.71,.03-1,0-.06,0-.08-.04-.08-.1,.06-.66,.1-1.4,.1-2.22-.9,.98-1.84,1.66-2.81,2.05-.12,.05-.22,.04-.28-.02-.1-.1-.22-.19-.38-.28-.16-.08-.29-.15-.38-.21-.02-.01-.03-.03-.04-.04-.01-.03,0-.05,.06-.06,.64-.19,1.28-.48,1.91-.87,.57-.36,1.08-.76,1.53-1.21-1.28,.01-2.2,.06-2.76,.12-.03,0-.06-.01-.07-.05-.01-.03-.01-.07,0-.09,.21-.36,.37-.77,.46-1.24,.06-.36,.08-.69,.07-.98,0-.03,0-.06,.01-.07,.01-.02,.04-.03,.07-.02,.21,.02,.54,.11,.99,.26,.37,0,.92,0,1.64,.02-.01-.26-.02-.46-.03-.6-1.31,.02-2.18,.05-2.63,.08-.06,0-.1-.02-.1-.07-.02-.29-.02-.54-.01-.75,0-.06,.05-.08,.13-.08,.4,.03,.91,.06,1.53,.07-.27-.3-.53-.5-.78-.6-.03-.01-.06-.03-.06-.04,0-.01,0-.04,.03-.07,.15-.16,.3-.3,.44-.42,.03-.02,.08-.02,.13,.01,.3,.12,.61,.3,.91,.56,.03,.03,.03,.07-.01,.12-.17,.19-.32,.34-.44,.44,.38,0,.77,.01,1.17,.01,.16,0,.92,0,2.29-.01-.28-.3-.54-.51-.78-.6-.03-.01-.06-.03-.06-.04,0-.01,0-.04,.03-.07,.15-.16,.3-.3,.44-.42,.03-.02,.08-.02,.13,.01,.3,.12,.61,.3,.91,.56,.03,.03,.03,.07-.01,.12-.09,.11-.23,.25-.42,.43,.48-.01,.81-.03,.98-.04,.05,0,.08,0,.09,.02,.01,.01,.02,.04,.01,.07-.08,.51-.07,1.2,.03,2.1,0,.06-.02,.1-.09,.12-.3,.03-.57,.03-.81,0-.09-.02-.13-.06-.12-.12,0-.03,0-.06,.01-.07Zm-2.92,.62v-.64c-.62,0-1.25,.01-1.87,.02-.04,.19-.09,.39-.13,.58,.46,.03,1.12,.04,2,.04Zm1.95-4.58h.48c.68,0,1.39-.03,2.15-.08,.06,0,.09,.03,.09,.08,.02,.24,.02,.48,0,.73,0,.04-.03,.06-.09,.06-.71-.04-1.43-.06-2.15-.06-.39,0-.69,0-.87,.01-.28,.46-.53,.81-.77,1.05-.04,.04-.09,.05-.15,.03-.17-.08-.43-.15-.78-.2-.1-.01-.12-.04-.06-.08,.41-.33,.77-.76,1.09-1.32,.28-.49,.43-.85,.43-1.08,.01-.04,.04-.06,.08-.06,.15,.02,.42,.1,.8,.24,.12,.06,.18,.1,.2,.12,.02,.05-.02,.11-.13,.18-.1,.03-.18,.1-.24,.23-.03,.07-.05,.12-.07,.16Zm.97,3.22c0-.19,0-.39-.01-.58h-1.83s-.04,.05-.08,.08c-.05,.03-.07,.09-.07,.17,0,.12,0,.24-.01,.35,.67,0,1.34-.01,2-.02Z"/><path class="cls-1" d="M50.23,46.72c1.36,.08,2.73,.11,4.12,.11s2.78-.04,4.11-.11c.08,0,.12,.04,.13,.11,.03,.44,.03,.77,0,1.01-.01,.06-.06,.09-.13,.07-.75-.04-1.55-.07-2.39-.08-.32,0-.89-.01-1.72-.02-1.53,0-2.9,.03-4.12,.1-.1,.01-.16-.02-.17-.09-.02-.21-.02-.54,0-.99,0-.05,.02-.08,.05-.09,.03-.01,.07-.02,.11-.02Z"/><path class="cls-1" d="M67.25,45.63c.93-.03,1.42-.06,1.48-.06,.07,0,.11,.02,.12,.09,.02,.26,.02,.54,0,.84,0,.05-.05,.07-.12,.07-.44-.03-.94-.05-1.53-.06-.05,.81-.1,1.5-.16,2.08,.57-.03,.99-.06,1.27-.08,.06,0,.09,.03,.11,.1,.03,.39,.03,.67,.01,.85-.03,.06-.07,.08-.11,.08-.43-.04-.89-.07-1.38-.09-.04,.26-.09,.45-.13,.57-.16,.43-.38,.73-.65,.89-.24,.15-.61,.22-1.09,.23-.12,.01-.19-.03-.21-.12-.03-.12-.17-.33-.41-.61-.12-.12-.21-.22-.25-.3-.03-.05-.03-.08-.02-.08,0,0,.03,0,.08,.01,.57,.11,.97,.13,1.18,.07,.21-.06,.37-.22,.48-.5,0,0,.02-.07,.05-.18-.57,0-1.15,.01-1.72,.01-1.16-.02-2.31,0-3.46,.08-.04,0-.07-.01-.09-.04-.02-.02-.02-.04-.01-.07,.24-.77,.44-1.73,.58-2.89-.33,0-.71,.02-1.16,.05-.09,.01-.14-.02-.16-.09-.01-.25-.01-.52,0-.82,0-.08,.06-.11,.16-.09,.48,.03,.9,.05,1.28,.05,.17-1.45,.25-2.4,.22-2.87,0-.05,0-.08,.01-.08s.03,0,.06,0c1.06,.1,2,.13,2.83,.09,1.16,0,2.07-.04,2.75-.11,.05,0,.08,0,.1,.02,.01,.01,.02,.05,.01,.09-.04,.95-.09,1.91-.13,2.87Zm-.98,.86c-.52,0-1.15-.01-1.9-.01-.84,0-1.55,0-2.14,.01-.04,.4-.14,1.11-.29,2.13h2.31c.62,0,1.24,0,1.86-.01,.07-.69,.12-1.39,.17-2.12Zm.04-.84c.05-.95,.07-1.64,.07-2.07-.12-.01-.75-.02-1.91-.02-.63,0-1.26,.01-1.9,.02-.04,.27-.12,.96-.25,2.06,.57,.01,1.25,.02,2.05,.02s1.42,0,1.94-.01Zm-2.76,1.1c.03-.08,.08-.09,.16-.04,.57,.22,1.04,.49,1.41,.81,.08,.03,.08,.1,.01,.22-.15,.24-.28,.43-.41,.55-.06,.08-.13,.09-.2,.02-.33-.31-.76-.61-1.3-.89-.09-.05-.1-.11-.04-.18,.12-.16,.25-.32,.36-.49Zm.2-2.9s.05-.06,.05-.06c.02,0,.05,0,.09,.02,.57,.22,1.04,.49,1.41,.81,.08,.03,.08,.1,.01,.22-.08,.15-.22,.33-.4,.55-.06,.08-.12,.09-.2,.02-.33-.31-.76-.61-1.3-.89-.09-.05-.1-.11-.04-.18,.03-.06,.16-.22,.37-.49Z"/><path class="cls-1" d="M76.26,48.57c.1,.04,.08,.13-.07,.27-.09,.06-.15,.14-.19,.25-.15,.33-.25,.53-.28,.58,.84,.24,1.68,.62,2.52,1.16,.07,.06,.08,.12,.03,.2-.26,.31-.45,.5-.56,.56-.07,.05-.13,.04-.2-.01-.74-.58-1.5-1-2.27-1.26-.81,.85-2.26,1.3-4.35,1.35-.08,0-.13-.03-.17-.09-.07-.12-.17-.24-.3-.35-.13-.11-.24-.21-.33-.29-.06-.06-.08-.09-.06-.1,.02-.01,.06-.02,.12-.02,1.94,.08,3.32-.16,4.11-.72-.29-.04-.51-.07-.66-.07-.43-.03-.88-.03-1.34,.02-.03,0-.06-.01-.08-.04-.02-.03-.02-.06,0-.08,.24-.35,.46-.77,.69-1.27,.01-.03,.02-.06,.03-.08-.83,0-1.72,.02-2.67,.06-.08,0-.12-.01-.12-.06-.01-.22-.01-.45,0-.67,0-.04,0-.07,.02-.07,.01-.01,.05-.02,.1-.01,1.04,.04,2,.07,2.89,.08,.08-.3,.11-.56,.1-.76,0-.03,0-.06,.01-.06,.01-.01,.04-.02,.07-.01,.26,.01,.62,.09,1.07,.23,.11,.03,.15,.07,.12,.13-.02,.05-.08,.09-.17,.13-.08,.05-.16,.15-.23,.31v.02h.3c1.45,0,2.84-.03,4.17-.08,.03,0,.06,0,.06,.01,0,0,.01,.03,.02,.07,.01,.24,.01,.46,0,.69,0,.04-.03,.06-.08,.06-.84-.03-1.61-.06-2.32-.07Zm-3.36-3.49c.09,.24,.24,.46,.46,.65,.28,.25,.61,.41,1,.49,.05,0,.07,.02,.07,.04,0,.03-.03,.06-.08,.09-.22,.15-.4,.31-.55,.5-.04,.06-.09,.08-.16,.05-.39-.18-.7-.49-.91-.93-.25,.62-.79,1.14-1.61,1.55-.1,.06-.17,.07-.23,.01-.19-.21-.41-.36-.66-.46-.03-.02-.05-.04-.05-.05,0-.02,.03-.04,.08-.05,.66-.19,1.16-.46,1.48-.82,.34-.37,.5-.85,.49-1.43-.01-.43-.03-.71-.06-.83,0-.04,0-.07,.01-.08,.01-.01,.04-.02,.08-.02,.3,.03,.55,.09,.75,.16,.06,.02,.1,.05,.1,.09,.01,.04-.01,.1-.07,.17-.08,.1-.12,.21-.12,.33,0,.13,0,.31-.01,.55Zm1.27-1.05c0,.48,.02,.96,.05,1.42,0,.1-.04,.15-.12,.16-.21,.03-.39,.03-.56,0-.1-.02-.15-.07-.13-.15,.02-.38,.03-.83,.03-1.35,0-.37,0-.6-.01-.71-.11,0-.39-.01-.85-.01h-.88v.72c0,.56,0,1.02,.01,1.38,0,.08-.04,.11-.11,.11-.23,.01-.45,.01-.65-.01-.08,0-.12-.05-.1-.12,.06-.5,.08-.98,.07-1.43,0-.66-.01-1.09-.04-1.28-.01-.04-.01-.07,0-.09,.01-.02,.05-.03,.09-.02,.39,.03,.94,.05,1.63,.05,.49,0,1-.01,1.53-.04,.05,0,.08,0,.09,.02,.01,.01,.02,.04,.01,.08-.03,.22-.04,.64-.04,1.27Zm.99,4.54h-1.32c-.21,.47-.33,.74-.37,.82,.51,0,.97,.03,1.39,.1,.1-.17,.18-.34,.24-.53,.04-.17,.06-.3,.06-.39Zm1.48-3.42c.13,.3,.33,.58,.6,.84,.37,.36,.81,.61,1.31,.74,.06,.01,.1,.03,.1,.05,0,.01-.02,.03-.06,.04-.26,.12-.49,.28-.7,.49-.04,.06-.1,.07-.19,.02-.54-.27-.98-.72-1.31-1.36-.26,.55-.73,1.01-1.41,1.38-.1,.06-.17,.05-.22-.01-.15-.17-.35-.32-.58-.45-.03-.02-.05-.04-.05-.05,0-.01,.03-.03,.07-.04,1.17-.37,1.76-1.07,1.78-2.08,0-.32-.02-.6-.06-.85,0-.03,0-.06,.01-.07,.01-.02,.04-.03,.07-.02,.33,.01,.59,.06,.79,.12,.07,.02,.11,.05,.11,.09,.01,.04-.01,.1-.08,.17-.1,.1-.16,.24-.16,.42,0,.19-.01,.38-.03,.57Zm1.32-1.06c0,.56,.02,.99,.05,1.28,.02,.1-.02,.16-.12,.18-.17,.03-.38,.03-.63,.01-.1,0-.14-.04-.12-.13,.02-.46,.03-.91,.03-1.37,0-.28,0-.5-.01-.64-.16,0-.41-.01-.76-.01-.46,0-.75,0-.87,.01,0,.16-.01,.4-.01,.72,0,.51,.01,.96,.03,1.36,0,.08-.04,.12-.12,.12-.21,.03-.41,.03-.58,0-.06,0-.1-.02-.11-.03-.01-.01-.02-.05-.02-.09,.06-.34,.08-.81,.08-1.42,0-.68-.02-1.11-.06-1.31,0-.05,0-.08,.01-.09,.01-.02,.04-.03,.09-.02,.33,.04,.87,.06,1.62,.06,.4,0,.89-.02,1.45-.05,.05,0,.08,0,.1,.02,.01,.01,.02,.04,.01,.08-.03,.37-.05,.82-.05,1.34Z"/><path class="cls-1" d="M87.8,48.06c-.53,0-1.25,0-2.16-.02,.01,1.36,.04,2.38,.06,3.08,0,.05-.03,.08-.1,.08-.33,.04-.63,.04-.9,0-.09,0-.13-.03-.13-.1,.04-1.02,.08-2.04,.1-3.06-.89,.01-1.57,.02-2.02,.02-.22,1.44-.66,2.57-1.33,3.37-.06,.08-.14,.09-.23,.03-.14-.08-.41-.16-.81-.25-.06,0-.12-.02-.16-.03-.06-.01-.09-.03-.1-.05,0-.03,.01-.06,.05-.1,.99-.83,1.57-2.29,1.73-4.39,.1-1.33,.04-2.63-.17-3.9,0-.07,0-.12,.01-.14,.01-.01,.05-.02,.11-.01,.92,.09,2.09,.12,3.5,.1,1.85-.02,3.02-.04,3.5-.06,.06,0,.09,0,.11,.02,0,0,0,.05,0,.13-.07,1.05-.1,2.39-.08,4.02,0,1.24,.03,2.42,.08,3.53,.01,.34-.1,.62-.34,.83-.29,.27-.72,.4-1.31,.4-.07,0-.12-.05-.15-.15-.06-.14-.17-.3-.32-.45-.15-.16-.29-.31-.41-.46-.04-.04-.05-.06-.04-.08,0-.01,.04-.02,.1-.01,.43,.06,.73,.08,.92,.06,.3-.02,.45-.13,.47-.32,.03-.48,.04-1.17,.02-2.08Zm-3.1-2.25c-.79,.01-1.41,.02-1.86,.02-.01,.5-.04,.96-.08,1.37,.46,0,1.1,0,1.92,.02,0-.29,.01-.62,.01-1.01v-.41Zm0-.81c-.02-.96-.03-1.44-.03-1.46h-1.88c.03,.94,.04,1.42,.04,1.44,.45,0,1.08,0,1.87,.02Zm3.1,2.21v-1.37c-.55,0-1.28,0-2.18-.02v.41c0,.39,0,.72,.01,1.01,.91-.01,1.63-.02,2.17-.02Zm-.01-2.23c-.01-.47-.03-.94-.04-1.41-.63,0-1.27-.02-1.91-.03-.01,.02-.05,.05-.1,.09-.06,.04-.09,.11-.09,.21,0,.25,0,.63-.02,1.17,.91-.01,1.63-.02,2.16-.02Z"/><path class="cls-1" d="M92.69,50.58c-.26-.01-.54-.02-.83-.02s-.56,0-.84,.02c0,.16,.01,.31,.01,.47,0,.06,0,.1-.02,.12-.01,.01-.06,.02-.12,.03-.28,.03-.52,.03-.72,0-.07,0-.11-.02-.13-.03-.02-.02-.03-.07-.02-.13,.06-.62,.09-1.29,.09-2.01,.01-.6,0-1.19-.05-1.77,0-.07,0-.11,0-.11,.01-.02,.06-.03,.13-.02,.34,.03,.9,.05,1.68,.05,.59,0,1.14-.02,1.66-.05,.05,0,.08,.01,.1,.03,.01,.01,.02,.05,.02,.1-.03,.48-.05,1.09-.05,1.82,0,.63,.02,1.24,.06,1.84,0,.07,0,.11-.01,.13-.01,.02-.06,.04-.14,.05-.24,.03-.47,.04-.67,.01-.04,0-.08-.01-.11-.02-.03-.01-.05-.05-.05-.11,0-.13,.01-.26,.01-.39Zm.02-.81v-.78c0-.35,0-.7-.01-1.05-.19,0-.47-.01-.85-.01s-.64,0-.82,.01c0,.36,0,.72-.01,1.07v.76c.28,.01,.55,.02,.83,.02,.3,0,.58,0,.86-.02Zm2.89-3.7c-.44-.01-.96-.02-1.56-.02-.51,0-.97,0-1.4,.02,0,.1,.01,.2,.01,.3,0,.06-.01,.09-.03,.1-.02,.02-.07,.03-.13,.04-.24,.03-.47,.03-.72,0-.08-.01-.13-.02-.15-.03-.03-.02-.04-.07-.03-.13,.06-.55,.09-1.17,.09-1.88,.01-.55,0-1.1-.05-1.66,0-.06,0-.09,0-.11,0-.02,.06-.03,.15-.02,.53,.04,1.29,.06,2.28,.06s1.77-.02,2.42-.06c.06,0,.1,0,.11,.02,.01,.01,.02,.05,.01,.1-.03,.48-.05,1.06-.05,1.72,0,.57,.02,1.14,.07,1.72,0,.08,0,.12-.01,.13-.01,.02-.07,.04-.16,.05-.22,.03-.46,.03-.71,.01-.04,0-.08-.01-.11-.02-.03-.01-.05-.05-.05-.11,0-.08,.01-.16,.01-.24Zm.01-.84v-.79c0-.3,0-.6-.01-.9-.52,0-1.04,0-1.56-.01-.46,0-.93,.01-1.4,.01,0,.3,0,.61-.01,.91v.78c.42,.01,.89,.02,1.41,.02,.6,0,1.12,0,1.57-.02Zm1.67,5.35c-.29-.01-.6-.02-.91-.02s-.61,0-.88,.02c0,.16,.01,.31,.01,.47,0,.06,0,.1-.02,.11-.01,.02-.06,.03-.13,.04-.24,.04-.47,.04-.69,0-.08-.01-.12-.02-.13-.03-.03-.02-.04-.07-.03-.13,.06-.55,.08-1.23,.08-2.01,0-.73-.01-1.32-.04-1.77,0-.07,0-.11,0-.11,.01-.02,.06-.03,.13-.02,.34,.03,.91,.05,1.72,.05,.64,0,1.23-.02,1.75-.05,.05,0,.08,.01,.1,.03,.01,.01,.02,.05,.02,.1-.04,.58-.06,1.19-.06,1.82,0,.53,.02,1.14,.07,1.84,0,.07,0,.11-.01,.13s-.06,.04-.15,.05c-.24,.03-.47,.04-.7,.01-.04,0-.08-.01-.1-.02-.03-.01-.05-.05-.05-.11,0-.13,.01-.26,.01-.39Zm.01-.81v-.78c0-.35,0-.7-.01-1.05-.3,0-.61,0-.91-.01-.29,0-.59,.01-.88,.01,0,.36,0,.72-.01,1.07v.76c.29,.01,.59,.02,.89,.02,.33,0,.63,0,.92-.02Z"/><path class="cls-1" d="M106.15,49.38c-.53-.01-1.02-.02-1.5-.02-.46,0-.93,.01-1.39,.01,.01,.65,.03,1.3,.04,1.94,0,.06-.05,.1-.13,.11-.26,.01-.53,.01-.79-.01-.08,0-.11-.04-.1-.11,.06-1.02,.09-2.1,.09-3.23,0-.38,0-.72-.01-1.02-.55,.75-1.11,1.36-1.7,1.82-.08,.05-.14,.06-.2,.02-.17-.14-.45-.25-.84-.33-.12-.03-.14-.07-.05-.11,.7-.42,1.34-1,1.93-1.74,.48-.61,.9-1.3,1.28-2.08-.76,.01-1.62,.05-2.56,.09-.08,0-.13-.02-.13-.08v-.82s.02-.08,.03-.09c.01-.01,.05-.02,.1-.01,.96,.05,1.93,.08,2.93,.09,.27-.69,.41-1.21,.43-1.55,0-.06,.02-.08,.06-.08,.3,.06,.68,.18,1.12,.37,.09,.06,.13,.12,.11,.19-.01,.07-.08,.14-.2,.21-.14,.08-.23,.17-.27,.28-.08,.19-.16,.39-.24,.58h.2c1.54,0,2.95-.03,4.22-.09,.04,0,.07,0,.08,.02,0,0,.01,.03,.01,.07,.02,.29,.02,.57,0,.85,0,.06-.03,.08-.09,.06-1.36-.06-2.77-.09-4.22-.09h-.57c-.21,.44-.37,.73-.46,.88,.48,.02,.92,.03,1.34,.03,.92,0,1.71-.02,2.36-.06,.06,0,.09,.01,.11,.03,.01,.01,.02,.05,.01,.1-.05,.53-.07,1.37-.07,2.52,0,.59,.02,1.29,.07,2.12,.02,.34-.07,.61-.26,.81-.25,.25-.65,.38-1.21,.39-.09,0-.14-.05-.15-.13-.03-.12-.11-.26-.24-.42s-.25-.31-.36-.45c-.03-.03-.04-.06-.03-.06,0-.01,.04-.02,.09-.01,.44,.07,.74,.08,.91,.04,.16-.04,.24-.15,.24-.32,0-.17,.01-.42,.01-.73Zm0-.79v-.75c-.53-.01-1.03-.02-1.51-.02-.35,0-.81,0-1.39,.02v.76c.46,0,.93,.01,1.39,.01s.98,0,1.51-.02Zm-.01-1.55v-.72c-.5,0-1,0-1.5-.01-.46,0-.92,.01-1.38,.01v.72c.58,.01,1.04,.02,1.38,.02,.46,0,.96,0,1.5-.02Z"/><path class="cls-1" d="M111.1,43.57c-.04,.39-.06,.95-.05,1.67v1.46c0,2.1,.04,3.65,.12,4.64,0,.04-.03,.07-.09,.08-.36,.02-.69,.02-1,0-.07,0-.1-.04-.09-.1,.1-1.19,.16-2.73,.16-4.62,0-.37,.01-.98,.01-1.82,0-.84-.05-1.53-.12-2.06,0-.04,0-.07,.01-.08,0,0,.03,0,.06,0,.44,.03,.89,.06,1.33,.08l.89-.02s.07-.02,.12-.06c.06-.06,.1-.08,.13-.06,.24,.14,.45,.29,.62,.47,.08,.08,.05,.17-.07,.25-.07,.06-.11,.1-.12,.14-.25,.51-.5,1.02-.75,1.54-.09,.15-.07,.29,.06,.4,.37,.39,.61,.81,.73,1.26,.12,.44,.12,.85,0,1.23-.19,.61-.64,.95-1.37,1.01-.06,0-.09-.03-.11-.09-.06-.2-.2-.46-.43-.78-.05-.07-.05-.1,.01-.08,.28,.08,.52,.07,.7-.03,.17-.1,.29-.27,.34-.49,.12-.48-.04-.98-.49-1.51-.15-.16-.23-.28-.26-.35-.03-.1-.02-.24,.04-.43,.21-.68,.37-1.23,.46-1.64h-.84Zm5.67,5.15c.54,.9,1.32,1.54,2.35,1.93,.13,.04,.12,.1-.02,.17-.14,.06-.29,.12-.47,.2-.17,.07-.33,.17-.47,.3-.06,.06-.14,.07-.23,.01-.69-.44-1.27-1.06-1.72-1.84-.01,.19-.02,.33-.01,.43,0,.08-.04,.14-.11,.17-.89,.39-1.78,.77-2.67,1.15-.06,.03-.11,.07-.16,.11-.06,.1-.14,.1-.23,.02-.24-.23-.44-.51-.58-.84-.02-.05,0-.08,.06-.1,.21-.04,.45-.12,.74-.25,.2-.1,.31-.28,.32-.55,.03-.96,.05-2.14,.05-3.56,0-.62,0-1.15,0-1.6,0-.46-.04-.98-.1-1.57,0-.07,0-.11,0-.12,.01-.03,.06-.04,.15-.03,.55,.05,1.22,.07,2.02,.07,.55,0,1.16-.03,1.85-.08,.06,0,.09,0,.11,.03,.02,.02,.02,.06,.01,.1-.04,.55-.06,1.26-.06,2.12,0,.57,.03,1.19,.1,1.86,0,.07,0,.11-.01,.12-.02,.02-.08,.04-.17,.06-.32,.02-.53,.02-.64,.01-.05,0-.09,0-.13-.01-.03,0-.05-.04-.05-.1,0-.06,.01-.13,.01-.2-.12,0-.34-.01-.65-.01,.08,.49,.21,.94,.39,1.36,.33-.16,.62-.35,.89-.58,.19-.15,.34-.3,.47-.46,.02-.03,.05-.03,.09,.01,.03,.02,.13,.11,.29,.28,.19,.19,.31,.35,.38,.47,.03,.07,.03,.12-.02,.15-.03,.02-.11,.04-.22,.06-.12,0-.23,.03-.33,.08-.7,.37-1.11,.58-1.24,.63Zm-.06-4.33c0-.36,0-.63-.01-.81-.34,0-.68,0-1.03-.01-.26,0-.64,.01-1.14,.01v.82c.48,.01,.83,.02,1.04,.02,.14,0,.52-.01,1.14-.03Zm.01,1.63v-.88c-.37,0-.75,0-1.13-.01-.46,0-.82,0-1.06,.01v.89c.34,0,.68,.01,1.02,.01s.74,0,1.17-.02Zm-.64,3.22c-.4-.76-.68-1.61-.84-2.53-.15,0-.38,.01-.71,.01,0,1.29,0,2.32,.01,3.07,.39-.1,.9-.29,1.54-.55Z"/><path class="cls-1" d="M122.39,44.05c.49,.15,.86,.31,1.11,.48,.06,.05,.08,.1,.05,.16-.02,.04-.08,.08-.17,.12-.15,.07-.25,.15-.31,.23-.24,.42-.51,.82-.81,1.21-.53,.71-1.07,1.24-1.62,1.61-.06,.03-.11,.03-.17-.01-.2-.13-.54-.28-1.01-.45-.08-.03-.08-.07-.02-.09,.82-.44,1.46-.97,1.93-1.59,.53-.71,.84-1.25,.92-1.63,.01-.05,.04-.06,.08-.04Zm3.89,5.97c-1.58,.29-3.14,.62-4.68,.98-.07,0-.15,.04-.23,.09-.1,.08-.18,.07-.25-.02-.17-.28-.33-.64-.48-1.08,0-.03,0-.06,.01-.07,.02-.01,.06-.02,.1-.02,.42-.01,.74-.07,.99-.16,.26-.1,.45-.29,.58-.57,.41-.87,.75-1.93,1.02-3.19,0-.04,.01-.07,.02-.07,.01-.01,.04-.01,.08,0,.4,.1,.82,.26,1.26,.46,.1,.06,.13,.13,.07,.22-.05,.08-.15,.15-.29,.22-.15,.08-.26,.21-.33,.39-.43,1.13-.79,1.96-1.08,2.49,.87-.13,1.74-.28,2.63-.44-.2-.24-.44-.52-.72-.83-.05-.05-.04-.1,.02-.17,.28-.22,.48-.36,.6-.43,.05-.03,.1-.01,.16,.04,.22,.21,.49,.49,.81,.84,.51,.57,.93,1.1,1.27,1.59,.03,.06,.02,.12-.05,.19-.24,.19-.48,.36-.75,.52-.07,.03-.13,0-.18-.08-.12-.24-.32-.54-.58-.9Zm-1.38-6.32c-.76-.01-1.42,0-1.98,.06-.03,0-.05,0-.06-.02-.01-.01-.02-.04-.03-.08-.02-.33-.02-.6-.01-.81,0-.06,.01-.1,.02-.1,.01-.01,.04-.02,.08-.01,.86,.09,1.76,.1,2.71,.03,.03,0,.06,0,.08,0,.03,0,.05,.06,.06,.15,.13,.73,.45,1.42,.95,2.07,.6,.78,1.4,1.38,2.39,1.8,.05,.02,.07,.05,.07,.07s-.03,.06-.08,.08c-.1,.04-.27,.11-.49,.21-.21,.09-.39,.2-.53,.32-.06,.06-.12,.06-.19,.01-.73-.46-1.36-1.05-1.89-1.75-.47-.62-.84-1.29-1.1-2.01Z"/><path class="cls-1" d="M130.11,42.62c1.3,.06,2.6,.1,3.9,.1,1.86,0,3.15-.02,3.87-.05,.06,0,.1,0,.12,.02s.03,.06,.02,.12c-.07,.81-.1,1.96-.09,3.46v.49c0,1.23,.02,2.3,.07,3.2,.03,.39-.1,.71-.39,.94-.31,.26-.76,.39-1.36,.39-.06,0-.12-.05-.16-.15-.06-.15-.16-.31-.3-.47-.14-.16-.28-.32-.41-.47-.03-.04-.04-.07-.03-.08,.01-.01,.05-.02,.11-.01,.42,.07,.71,.1,.87,.1,.38-.01,.57-.16,.57-.43,0-.38,.01-1.38,.01-3.02,0-1.05,0-2.1-.01-3.15-.39-.01-1.35-.02-2.9-.02-1.14,0-2.44,.03-3.9,.1-.09,0-.13-.02-.14-.09v-.87c0-.05,.02-.08,.03-.1,.01-.01,.05-.02,.11-.01Zm.71,1.65c.87,.06,1.72,.1,2.55,.1,.7,0,1.48-.04,2.33-.11,.06,0,.1,.03,.1,.1,.02,.25,.02,.51,0,.78,0,.05-.03,.07-.1,.07-.83-.06-1.61-.1-2.33-.1-.92,0-1.77,.03-2.55,.1-.07,0-.11-.03-.11-.09-.02-.24-.02-.49,0-.76,0-.04,0-.07,.02-.09s.04-.02,.09-.01Zm3.31,4.54c-.33-.01-.65-.02-.95-.02-.36,0-.69,0-1.01,.02,0,.16,0,.39,.02,.67,0,.06,0,.09-.02,.11-.02,.01-.07,.03-.15,.03-.25,.02-.49,.02-.71,0-.07,0-.12-.02-.14-.03-.03-.02-.04-.06-.03-.13,.06-.7,.1-1.38,.1-2.03,0-.57-.01-1.04-.04-1.4,0-.06,0-.09,0-.11,0-.02,.05-.03,.14-.01,.4,.03,1.02,.04,1.86,.04,.43,0,1.03-.02,1.8-.05,.06,0,.1,0,.12,.02,.01,.01,.02,.05,.02,.11-.04,.36-.05,.8-.05,1.34,0,.46,.02,1.05,.06,1.78,0,.07,0,.11-.01,.12-.01,.02-.07,.04-.16,.05-.31,.02-.53,.02-.65,.01-.04,0-.09-.01-.13-.02-.05,0-.07-.04-.07-.1,0-.13,.01-.26,.01-.4Zm.03-.82c0-.2,.01-.4,.01-.6,0-.22,0-.45-.01-.67-.22,0-.55-.01-1-.01-.33,0-.66,.01-1,.01v1.27c.31,.01,.65,.02,1,.02s.67,0,1-.02Z"/></g><g><path class="cls-2" d="M51.87,35.91c-1.58,0-3.16,0-4.74,0-.23,0-.29-.07-.28-.29,.02-.25,.01-.5,0-.74-.01-.17,.05-.21,.22-.21,1.35,0,2.7,0,4.05,0q.4,0,.4-.4c0-.59,0-1.18,0-1.77q0-.35-.34-.35c-1.11,0-2.22,0-3.33,0-.18,0-.24-.04-.23-.22,.02-.26,.01-.51,0-.77,0-.18,.05-.23,.23-.23,1.1,.01,2.21,.02,3.31,.02,.37,0,.37,0,.37-.37,0-.36-.01-.72,0-1.08,.01-.23-.07-.3-.29-.29-1.16,0-2.33,0-3.49,0-.22,0-.32-.05-.28-.28,0-.02,0-.05,0-.08,0-.45,.05-.39-.38-.38-.17,0-.24-.02-.24-.22,0-.92,0-1.85-.03-2.77,0-.21,.06-.26,.26-.26,1.38,.01,2.77,0,4.15,.02,.2,0,.28-.04,.26-.25-.02-.2,0-.41,0-.62,0-.13,.04-.18,.18-.18,.32,0,.63,0,.95,0,.14,0,.2,.04,.19,.19-.01,.2,0,.41,0,.62-.01,.19,.04,.25,.24,.25,1.01-.01,2.02,0,3.03,0,.39,0,.76,.06,1.1,.28,.38,.24,.55,.6,.55,1.04,0,.56-.07,1.12-.2,1.67-.04,.19-.13,.26-.32,.23-.2-.03-.32,.02-.41,.25-.13,.36-.44,.49-.82,.49-.94,0-1.88,0-2.82,0-.33,0-.34,0-.34,.34,0,.36,0,.72,0,1.08-.01,.25,.07,.33,.32,.33,1.15-.02,2.29,0,3.44-.03,.23,0,.29,.06,.28,.28-.01,.62-.32,.93-.99,.94-.91,0-1.83,0-2.74,0-.23,0-.32,.06-.31,.3,.02,.64,.01,1.28,0,1.92,0,.22,.08,.3,.3,.3,.52-.01,1.04-.01,1.56,0,.19,0,.22-.05,.16-.22-.09-.28-.17-.57-.25-.86-.1-.36,.03-.54,.4-.58,.51-.06,.78,.12,.92,.63,.08,.29,.16,.57,.23,.86,.03,.12,.09,.16,.21,.16,.35,0,.7,0,1.05,0,.13,0,.18,.02,.18,.17,.03,.71-.31,1.07-1.02,1.07-1.56,0-3.13,0-4.69,0Zm.32-7.91c1.26,0,2.53,0,3.79,0,.1,0,.23,.04,.26-.13,.05-.3,.12-.6,.15-.91,.03-.33-.1-.49-.44-.53-.25-.03-.49-.03-.74-.03-2.27,0-4.54,0-6.82,0-.21,0-.28,.05-.27,.27,.02,.35,.02,.7,0,1.05-.01,.22,.04,.29,.28,.29,1.26-.01,2.53,0,3.79,0Z"/><path class="cls-2" d="M64.67,32.24c-.27,.66-.64,1.22-1.09,1.72-.94,1.04-2.05,1.81-3.41,2.22-.2,.06-.25,.02-.24-.18,.01-.31-.07-.65,.03-.91,.11-.28,.5-.29,.76-.44,1.11-.64,2.05-1.44,2.65-2.6,.28-.55,.42-1.13,.42-1.75,0-.79,0-1.57,0-2.36,0-.18,.04-.24,.23-.23,.34,.01,.68,.01,1.03,0,.18,0,.23,.05,.23,.23,0,.79,0,1.59,0,2.38,0,.18,.04,.33,.12,.49,.44,.78,.97,1.5,1.57,2.18,.12,.13,.18,.13,.29,0,1.04-1.11,1.42-2.44,1.33-3.93-.04-.72-.23-1.4-.63-2-.47-.71-1.15-1.05-2-1.06-1.47,0-2.94,0-4.41,0-.22,0-.25,.08-.25,.27,0,2.2,0,4.39,0,6.59,0,.23-.05,.31-.29,.3-.3-.02-.6-.01-.9,0-.15,0-.2-.05-.19-.19,0-.1,0-.2,0-.31,0-2.56-.01-5.11-.03-7.67,0-.24,.07-.29,.3-.29,1.91,0,3.83,.04,5.74,0,1.9-.05,3.12,1.05,3.64,2.46,.56,1.49,.64,3.03,.1,4.56-.3,.84-.83,1.53-1.51,2.1-.16,.14-.16,.21,0,.33,.37,.27,.75,.53,1.17,.73,.12,.06,.16,.12,.16,.25,0,.3-.01,.6,0,.9,0,.21-.05,.24-.25,.17-1.29-.5-2.38-1.29-3.33-2.28-.47-.5-.88-1.04-1.26-1.65Z"/><path class="cls-2" d="M74.94,32.88c-.67,0-1.29,0-1.91,0-.19,0-.25-.03-.23-.24,.09-.89,.16-1.79,.23-2.68,.02-.21,.08-.28,.31-.28,1.14,.01,2.27,0,3.41,.01,.22,0,.3-.07,.3-.29-.02-.62,.05-.53-.54-.53-1.09,0-2.17,0-3.26,0q-.36,0-.36-.35c0-.21,.02-.43,0-.64-.02-.21,.06-.24,.25-.24,1.57,0,3.15,0,4.72,0,1,0,2,0,3,0,.86,0,1.5,.48,1.69,1.25,.22,.89-.39,1.81-1.29,1.94-.64,.09-1.28,.02-1.92,.04-.25,0-.5,0-.74,0-.06,0-.14-.02-.17,.01-.2,.19-.07,.43-.09,.65-.01,.13,.11,.15,.22,.15,.45,0,.91,0,1.36,0,.53,0,1.06-.01,1.58,.13,.89,.24,1.35,.84,1.33,1.7-.02,.99-.52,1.66-1.4,1.87-.61,.15-1.22,.13-1.83,.05-.18-.02-.29-.14-.29-.33,0-.21,0-.41,0-.62,0-.21,.1-.3,.3-.28,.37,.04,.73,.05,1.1,.05,.18,0,.36-.03,.53-.1,.28-.11,.41-.29,.41-.58,0-.28-.13-.47-.38-.58-.23-.1-.48-.13-.73-.13-.65,0-1.3,0-1.95,0-.21,0-.26,.07-.26,.27,0,.71,0,1.42,0,2.13,0,.53-.7,1-1.2,.8-.11-.05-.07-.14-.07-.22,0-.85,0-1.71,0-2.56,0-.14,.09-.33-.12-.4-.25-.09-.51,0-.63,.21-.9,1.5-2.25,2.34-3.92,2.73-.12,.03-.15,0-.15-.11,0-.34,0-.68,0-1.03,0-.15,.11-.15,.2-.17,.93-.26,1.73-.72,2.37-1.45,.04-.04,.07-.09,.15-.19Zm4.79-3.18c.38,0,.75,0,1.13,0,.3,0,.52-.18,.52-.42,0-.25-.2-.4-.52-.4-.66,0-1.32,0-1.97,0-.64,0-.56-.08-.57,.58,0,.18,.06,.25,.24,.24,.39,0,.79,0,1.18,0Zm-4.2,2c.32,0,.65,0,.97,0,.62,0,.53,.05,.55-.55,0-.23-.09-.27-.29-.27-.7,0-1.4,0-2.1,0q-.48,0-.52,.49s0,.07-.01,.1c-.04,.17,0,.24,.2,.23,.4-.02,.8,0,1.2,0Z"/><path class="cls-2" d="M89.89,29.58c1.61,0,3.21,.01,4.82,0,.68,0,.94,.67,.87,1.27,0,.07-.06,.07-.11,.07-.07,0-.14,0-.21,0-3.19,0-6.37-.01-9.56,0-.72,0-.97-.64-.88-1.27,.02-.14,.15-.08,.23-.08,.98,0,1.97,0,2.95,0,.63,0,1.26,0,1.9,0Z"/><path class="cls-2" d="M81.07,26.16c.18,.33,.34,.63,.51,.92,.1,.17,.04,.2-.12,.2-.33,0-.67,0-1,0-.14,0-.21-.04-.27-.17-.1-.25-.23-.5-.35-.74-.14-.27-.52-.3-.71-.06-.34,.44-.7,.87-1.2,1.13-.1,.05-.2,.13-.34,.12,0-.42,0-.84,0-1.26,0-.09,.03-.14,.11-.18,.57-.35,.85-.9,.96-1.53,.04-.2,.09-.29,.32-.27,.29,.03,.58,.01,.87,0,.13,0,.2,0,.16,.18-.05,.17-.2,.39-.1,.5,.11,.12,.35,.04,.54,.04,.56,0,1.11,0,1.67,0,.5,0,.79,.53,.72,1.04-.02,.13-.13,.08-.21,.08-.5,0-1.01,0-1.56,0Z"/><path class="cls-2" d="M75.94,26.17c.2,.37,.42,.69,.58,1.08-.46,0-.89,0-1.32,0-.1,0-.1-.08-.13-.14-.12-.25-.23-.5-.35-.74-.13-.26-.49-.3-.68-.08-.5,.58-1.12,.97-1.82,1.25-.2,.08-.31,.08-.27-.18,0-.04,0-.09,0-.13,0-.26-.05-.54,0-.79,.06-.29,.41-.28,.62-.42,.55-.38,.95-.85,1.06-1.53,.02-.13,.07-.19,.21-.18,.34,.01,.68,.01,1.03,0,.17,0,.18,.05,.14,.19-.04,.11-.07,.23-.11,.34-.07,.15-.05,.21,.13,.2,.44-.01,.87,0,1.31,0,.62,0,.85,.46,.78,1.04-.01,.12-.11,.08-.18,.08-.32,0-.65,0-1.01,0Z"/><g><path class="cls-2" d="M52.3,5.25c-1.37,0-2.62,.49-3.59,1.3V.06h-2.03V10.88c0,3.1,2.52,5.63,5.63,5.63s5.63-2.52,5.63-5.63-2.52-5.63-5.63-5.63Zm0,9.22c-1.98,0-3.59-1.61-3.59-3.59s1.61-3.59,3.59-3.59,3.6,1.61,3.6,3.59-1.61,3.59-3.6,3.59Z"/><path class="cls-2" d="M77.42,5.25c-1.37,0-2.62,.49-3.59,1.3V.06h-2.03V10.88c0,3.1,2.52,5.63,5.63,5.63s5.63-2.52,5.63-5.63-2.52-5.63-5.63-5.63Zm0,9.22c-1.98,0-3.59-1.61-3.59-3.59s1.61-3.59,3.59-3.59,3.6,1.61,3.6,3.59-1.61,3.59-3.6,3.59Z"/><path class="cls-2" d="M64.86,5.25c-3.1,0-5.63,2.52-5.63,5.63s2.52,5.63,5.63,5.63c1.37,0,2.62-.49,3.59-1.3v1.23h2.03v-5.55c0-3.1-2.52-5.63-5.63-5.63Zm0,9.22c-1.98,0-3.6-1.61-3.6-3.59s1.61-3.59,3.6-3.59,3.59,1.61,3.59,3.59-1.61,3.59-3.59,3.59Z"/><path class="cls-2" d="M93.57,10.91c0,1.98-1.61,3.59-3.6,3.59s-3.59-1.61-3.59-3.59V5.35h-2.03v5.55c0,3.1,2.52,5.63,5.63,5.63,1.37,0,2.62-.49,3.6-1.3v2.29c0,1.89-1.54,3.42-3.43,3.42s-3.42-1.54-3.42-3.42h-2.03c0,3.01,2.45,5.46,5.46,5.46s5.43-2.42,5.46-5.41h0V5.35h-2.03v5.55Z"/><path class="cls-2" d="M101.06,4.42h0v12.21h2.03v-6.07h4.82v-2.03h-4.82V4.42h0c0-1.12,.91-2.04,2.04-2.04h2.78V.35h-2.78c-2.24,0-4.07,1.83-4.07,4.07Z"/><path class="cls-2" d="M135.83,12.28c0,1.12-.91,2.04-2.04,2.04s-2.04-.91-2.04-2.04h0v-4.11h4.82v-2.03h-4.82V.06h-2.03V12.28h0c0,2.24,1.83,4.07,4.07,4.07s4.07-1.83,4.07-4.07h-2.03Z"/><rect class="cls-2" x="109.79" y="7.2" width="2.03" height="9.39"/><path class="cls-2" d="M113.77,9.09h0v7.49h2.03v-7.28c0-1.29,1.05-2.34,2.34-2.34h1.11v-2.03h-1.11c-2.34,0-4.26,1.85-4.37,4.16Z"/><path class="cls-2" d="M124.99,9.53h-1.45c-.76,0-1.38-.62-1.38-1.38s.62-1.38,1.38-1.38h3.85v-2.03h-3.85c-1.88,0-3.41,1.53-3.41,3.41s1.53,3.41,3.41,3.41h1.45c.76,0,1.38,.62,1.38,1.38s-.62,1.38-1.38,1.38h-4.66v2.03h4.67c1.88,0,3.4-1.53,3.4-3.41s-1.53-3.41-3.41-3.41Z"/><path class="cls-2" d="M111.07,2.7c-.94-.18-1.76,.63-1.58,1.58,.1,.53,.52,.95,1.05,1.05,.94,.18,1.76-.63,1.58-1.58-.1-.53-.53-.95-1.05-1.05Z"/></g><g><path class="cls-3" d="M20.17,19.54c-.53,.64-1.05,1.28-1.58,1.92,.57,.74,1.21,1.55,1.89,2.27,.54-.64,1.08-1.27,1.63-1.9-.65-.75-1.3-1.53-1.94-2.3Zm-.3,4.8s-.04-.05-.07-.07c.02,.02,.04,.05,.06,.07,.01,.02,.03,.04,.05,.06h0s-.04-.04-.05-.06ZM34.29,2.73C33.22,1.23,31.57,0,29.69,0c-1.79,0-3.45,1.03-4.6,2.39-.98,1.16-1.94,2.33-2.88,3.52,.79,.6,1.44,1.37,1.9,2.26,1.17-1.36,2.36-2.7,3.61-4,.53-.53,1.23-.85,1.97-.83,.74,.02,1.44,.37,1.97,.95,.53,.58,.82,1.31,.82,1.99s-.29,1.22-.82,1.58c-3.19,2.37-5.94,5.2-8.53,8.18,.66,.8,1.3,1.53,2.05,2.33,2.64-2.89,5.57-5.67,9.11-7.19,1.23-.51,1.92-1.51,1.9-3.1-.02-1.9-.81-3.8-1.9-5.34ZM15.58,25.06c-2.21,2.57-4.52,5.03-7.12,7.22-1.26,.92-2.95,.48-3.94-.61-.53-.58-.82-1.25-.82-1.83s.29-1,.82-1.25c3.11-1.45,5.74-3.92,8.1-6.55-.71-.69-1.44-1.37-2.17-2.02-2.44,2.49-5.28,4.78-8.56,5.41C.68,25.68-.02,26.33,0,27.63c.03,1.73,.9,3.46,1.9,4.86,1.11,1.54,2.68,2.86,4.6,3.22,1.69,.29,3.37-.32,4.6-1.49,2.25-2.21,4.34-4.56,6.39-6.95-.58-.72-1.21-1.45-1.9-2.2Z"/><path class="cls-3" d="M23.44,11.31c0,1.66-.76,3.14-1.94,4.12-.26,.22-.54,.41-.84,.57-.55,.3-1.15,.51-1.8,.6-.25,.04-.5,.05-.76,.05-.3,0-.58-.02-.87-.07-.98-.16-1.88-.59-2.6-1.21-1.15-.98-1.87-2.44-1.87-4.06,0-.54,.08-1.06,.23-1.55,.03-.09,.06-.18,.09-.27,.35-.95,.95-1.78,1.74-2.39,.91-.71,2.05-1.13,3.29-1.13s2.32,.4,3.22,1.08c.79,.6,1.41,1.41,1.77,2.35,.23,.6,.36,1.24,.36,1.92Z"/><path class="cls-3" d="M36.19,27.77c-.03,1.73-.9,3.46-1.9,4.86-1.11,1.54-2.68,2.86-4.6,3.22-1.68,.29-3.37-.32-4.6-1.49-2.27-2.23-4.38-4.61-6.45-7.02-.04-.05-.08-.09-.12-.14-.16-.19-.32-.38-.49-.57h0c-.59-.7-1.17-1.39-1.76-2.08l-.12-.14h-.01c-.16-.21-.33-.4-.49-.59-.52-.61-1.04-1.21-1.56-1.82-.2-.23-.39-.45-.59-.68-.04-.04-.07-.09-.11-.13-.63-.72-1.28-1.47-1.94-2.2-.3-.33-.59-.66-.9-.98-2.52-2.71-5.31-5.25-8.64-6.68C.68,10.8-.02,9.81,0,8.22c.02-1.9,.81-3.8,1.9-5.34C2.97,1.38,4.62,.15,6.5,.14c1.79,0,3.45,1.03,4.6,2.39,.95,1.13,1.89,2.28,2.81,3.43-.78,.61-1.43,1.4-1.88,2.29-1.15-1.35-2.33-2.67-3.56-3.95-.53-.53-1.23-.85-1.97-.83-.74,.02-1.44,.37-1.97,.95s-.82,1.31-.82,1.99c0,.15,.01,.29,.04,.42,.1,.48,.36,.88,.78,1.16,3.37,2.51,6.25,5.52,8.97,8.69,.62,.72,1.23,1.45,1.84,2.19,.45,.54,.89,1.07,1.33,1.61,.24,.29,.47,.57,.7,.86,.22,.26,.43,.53,.65,.79h0v.02h.01c.54,.69,1.13,1.44,1.77,2.13,.02,.02,.04,.05,.06,.07,.01,.02,.03,.04,.05,.06,.19,.22,.38,.44,.57,.67,2.24,2.62,4.59,5.13,7.23,7.35,1.26,.92,2.95,.48,3.94-.61,.53-.58,.82-1.25,.82-1.83s-.29-1-.82-1.25c-3.22-1.51-5.94-4.1-8.36-6.84-.14-.15-.27-.31-.41-.47-.07-.08-.14-.16-.21-.24,0,0-.02-.02-.03-.03h0s-.07-.08-.11-.12c-.61-.71-1.22-1.44-1.81-2.16h0c-.22-.27-.45-.54-.67-.81-.06-.07-.12-.14-.18-.21,.94-.26,1.81-.71,2.54-1.32,.04,.05,.09,.11,.13,.16h0s.08,.09,.12,.13c.6,.68,1.23,1.41,1.89,2.13,0,.01,.02,.02,.03,.04,.19,.21,.38,.41,.57,.62,.24,.25,.47,.49,.72,.74,.81,.82,1.67,1.61,2.57,2.33,.04,.04,.08,.08,.13,.12h0c1.72,1.34,3.62,2.39,5.68,2.78,1.23,.25,1.93,.91,1.9,2.2Z"/></g></g></g></g></svg>