<?xml version="1.0" encoding="UTF-8"?><svg id="_层_2" xmlns="http://www.w3.org/2000/svg" viewBox="0 0 281.47 56.25"><defs><style>.cls-1{fill:#4e5f67;}.cls-2{fill:#2cd2c1;}</style></defs><g id="_层_1-2"><g><g><path class="cls-2" d="M24.97,24.63c-.65,.8-1.31,1.6-1.96,2.4,.71,.92,1.5,1.93,2.34,2.84,.67-.79,1.34-1.59,2.02-2.37-.81-.94-1.61-1.9-2.4-2.87Zm-.37,5.99s-.05-.06-.08-.09c.02,.03,.05,.06,.08,.09,.02,.02,.04,.05,.06,.07h0s-.04-.05-.06-.07ZM42.44,3.65c-1.32-1.87-3.36-3.4-5.69-3.41-2.22,0-4.27,1.29-5.69,2.98-1.21,1.45-2.4,2.91-3.57,4.39,.98,.75,1.78,1.71,2.35,2.82,1.44-1.7,2.92-3.37,4.46-5,.65-.66,1.52-1.06,2.44-1.04,.92,.02,1.79,.46,2.44,1.18,.65,.72,1.01,1.63,1.01,2.48s-.36,1.52-1.01,1.98c-3.95,2.96-7.35,6.49-10.56,10.21,.82,.99,1.61,1.91,2.53,2.91,3.26-3.61,6.89-7.07,11.28-8.97,1.52-.64,2.38-1.88,2.36-3.87-.02-2.37-1-4.75-2.36-6.67ZM19.29,31.52c-2.73,3.2-5.59,6.28-8.81,9-1.55,1.15-3.65,.59-4.87-.76-.65-.72-1.01-1.56-1.01-2.28s.36-1.25,1.01-1.56c3.85-1.81,7.1-4.89,10.03-8.18-.88-.86-1.78-1.71-2.68-2.52-3.02,3.11-6.54,5.96-10.6,6.75C.84,32.29-.03,33.11,0,34.72c.04,2.16,1.11,4.32,2.36,6.06,1.37,1.92,3.32,3.57,5.69,4.02,2.09,.36,4.17-.4,5.69-1.86,2.79-2.76,5.37-5.69,7.91-8.67-.72-.89-1.5-1.81-2.35-2.74Z"/><path class="cls-2" d="M29.01,14.35c0,2.07-.94,3.92-2.41,5.14-.32,.27-.67,.51-1.04,.71-.68,.38-1.43,.64-2.22,.75-.31,.04-.62,.07-.95,.07-.37,0-.72-.03-1.07-.09-1.22-.2-2.32-.74-3.22-1.52-1.42-1.22-2.32-3.04-2.32-5.07,0-.67,.1-1.32,.28-1.94,.03-.11,.07-.23,.11-.34,.43-1.19,1.18-2.22,2.15-2.98,1.12-.89,2.54-1.42,4.07-1.42s2.87,.5,3.98,1.35c.98,.75,1.74,1.76,2.19,2.93,.28,.74,.44,1.55,.44,2.4Z"/><path class="cls-2" d="M44.79,34.9c-.04,2.16-1.11,4.32-2.36,6.06-1.37,1.92-3.32,3.57-5.69,4.02-2.09,.36-4.17-.4-5.69-1.86-2.82-2.79-5.42-5.75-7.99-8.76-.05-.06-.1-.12-.15-.18-.2-.24-.4-.47-.6-.71h-.01c-.73-.87-1.45-1.74-2.18-2.6l-.14-.17-.02-.02c-.2-.24-.4-.48-.61-.72-.64-.76-1.28-1.52-1.93-2.27-.24-.28-.49-.57-.73-.85-.05-.05-.09-.11-.14-.16-.78-.9-1.58-1.83-2.4-2.75-.37-.41-.74-.82-1.11-1.23-3.11-3.38-6.57-6.55-10.7-8.34C.84,13.72-.02,12.48,0,10.5c.02-2.37,1-4.75,2.36-6.67C3.68,1.96,5.72,.42,8.04,.42c2.22,0,4.27,1.29,5.69,2.98,1.18,1.41,2.34,2.84,3.48,4.28-.97,.76-1.77,1.74-2.32,2.86-1.43-1.68-2.89-3.33-4.41-4.93-.65-.66-1.52-1.06-2.44-1.04-.92,.02-1.79,.46-2.44,1.18-.65,.72-1.01,1.63-1.01,2.48,0,.18,.02,.36,.05,.52,.12,.6,.45,1.1,.96,1.45,4.17,3.13,7.73,6.89,11.1,10.84,.77,.9,1.53,1.81,2.28,2.73,.55,.67,1.1,1.34,1.65,2.01,.29,.36,.58,.71,.87,1.07,.27,.33,.53,.66,.8,.98h0v.02h.01c.67,.87,1.4,1.8,2.19,2.66,.02,.03,.05,.06,.08,.09,.02,.02,.04,.05,.06,.07,.23,.28,.47,.56,.7,.83,2.78,3.27,5.68,6.41,8.95,9.18,1.56,1.15,3.65,.59,4.88-.76,.65-.72,1.01-1.56,1.01-2.28s-.36-1.25-1.01-1.56c-3.99-1.88-7.35-5.12-10.35-8.54-.17-.19-.34-.39-.51-.58-.09-.1-.17-.2-.26-.3-.01-.01-.02-.03-.04-.04h0c-.04-.05-.09-.1-.13-.15-.76-.88-1.51-1.79-2.24-2.69h0c-.28-.34-.55-.68-.82-1.01-.07-.09-.14-.18-.22-.27,1.17-.32,2.24-.89,3.14-1.65,.05,.07,.11,.13,.16,.2h0s.1,.11,.15,.16c.74,.85,1.52,1.75,2.34,2.66,.01,.02,.03,.03,.04,.04,.23,.26,.47,.51,.71,.77,.29,.31,.59,.62,.89,.92,1.01,1.02,2.07,2.02,3.18,2.91,.05,.05,.1,.1,.16,.14h.01c2.13,1.67,4.48,2.98,7.03,3.47,1.52,.31,2.39,1.13,2.36,2.75Z"/></g><g><path class="cls-1" d="M71.42,12.75c-3.35,0-6.43,1.2-8.83,3.2V0h-4.99V26.56c0,7.62,6.2,13.81,13.81,13.81s13.81-6.2,13.81-13.81-6.2-13.81-13.81-13.81Zm0,22.64c-4.87,0-8.83-3.96-8.83-8.83s3.96-8.83,8.83-8.83,8.83,3.96,8.83,8.83-3.96,8.83-8.83,8.83Z"/><path class="cls-1" d="M133.08,12.75c-3.35,0-6.43,1.2-8.83,3.2V0h-4.99V26.56c0,7.62,6.2,13.81,13.81,13.81s13.81-6.2,13.81-13.81-6.2-13.81-13.81-13.81Zm0,22.64c-4.87,0-8.83-3.96-8.83-8.83s3.96-8.83,8.83-8.83,8.83,3.96,8.83,8.83-3.96,8.83-8.83,8.83Z"/><path class="cls-1" d="M102.25,12.75c-7.62,0-13.81,6.2-13.81,13.81s6.2,13.81,13.81,13.81c3.35,0,6.43-1.2,8.83-3.2v3.01h4.99v-13.63c0-7.62-6.2-13.81-13.81-13.81Zm0,22.64c-4.87,0-8.83-3.96-8.83-8.83s3.96-8.83,8.83-8.83,8.83,3.96,8.83,8.83-3.96,8.83-8.83,8.83Z"/><path class="cls-1" d="M172.74,26.62c0,4.87-3.96,8.83-8.83,8.83s-8.83-3.96-8.83-8.83V12.99h-4.99v13.63c0,7.62,6.2,13.81,13.81,13.81,3.35,0,6.43-1.2,8.83-3.2v5.62c0,4.64-3.77,8.41-8.41,8.41s-8.41-3.77-8.41-8.41h-4.99c0,7.39,6.01,13.4,13.4,13.4s13.33-5.94,13.39-13.27h0V12.99h-4.99v13.63Z"/><path class="cls-1" d="M191.13,10.71h-.02v29.99h4.99v-14.91h11.83v-4.99h-11.83V10.71h.02c0-2.76,2.24-5,5-5h6.81V.72h-6.81c-5.51,0-9.99,4.48-9.99,9.99Z"/><path class="cls-1" d="M276.48,29.99c0,2.76-2.24,5-5,5s-5-2.24-5-5h-.02v-10.09h11.83v-4.99h-11.83V0h-4.99V29.99h.02c0,5.51,4.48,9.99,9.99,9.99s9.99-4.48,9.99-9.99h-4.99Z"/><rect class="cls-1" x="212.55" y="17.52" width="4.99" height="23.05"/><path class="cls-1" d="M222.32,22.17h-.01v18.4h4.99V22.7c0-3.17,2.58-5.75,5.75-5.75h2.72v-4.99h-2.72c-5.74,0-10.45,4.53-10.73,10.21Z"/><path class="cls-1" d="M249.88,23.23h-3.56c-1.87,0-3.39-1.52-3.39-3.39s1.52-3.39,3.39-3.39h9.46v-4.97h-9.46c-4.61,0-8.37,3.75-8.37,8.37s3.75,8.37,8.37,8.37h3.56c1.87,0,3.39,1.52,3.39,3.39s-1.52,3.39-3.39,3.39h-11.44v4.97h11.47c4.6-.01,8.34-3.76,8.34-8.37s-3.75-8.37-8.37-8.37Z"/><path class="cls-1" d="M215.69,6.48c-2.32-.44-4.31,1.55-3.87,3.87,.25,1.29,1.29,2.34,2.58,2.58,2.32,.44,4.31-1.55,3.87-3.87-.25-1.29-1.29-2.34-2.58-2.58Z"/></g></g></g></svg>