<?xml version="1.0" encoding="UTF-8"?><svg id="_层_2" xmlns="http://www.w3.org/2000/svg" viewBox="0 0 152.31 54.8"><defs><style>.cls-1{font-family:'AlibabaPuHuiTi_3_65_Medium-GBpc-EUC-H', 'Alibaba PuHuiTi 3.0';}.cls-1,.cls-2,.cls-3,.cls-4{font-size:6.76px;}.cls-2{letter-spacing:0em;}.cls-2,.cls-3,.cls-5,.cls-4{font-family:Arial-BoldMT, Arial;}.cls-3{letter-spacing:-.07em;}.cls-6{fill:#707070;}.cls-5{font-size:5.55px;}.cls-7{fill:#4e5f67;}.cls-8{fill:#2cd2c1;}</style></defs><g id="_层_1-2"><g><g><path class="cls-7" d="M57.44,39.37c-1.74,0-3.47,0-5.21,0-.26,0-.32-.07-.3-.31,.02-.27,.02-.54,0-.82-.01-.19,.06-.23,.24-.23,1.48,0,2.97,0,4.45,0q.44,0,.43-.43c0-.65,0-1.3,0-1.94q0-.38-.37-.38c-1.22,0-2.44,0-3.66,0-.19,0-.27-.04-.26-.25,.02-.28,.02-.56,0-.84-.01-.2,.05-.25,.25-.25,1.21,.01,2.42,.02,3.63,.02,.4,0,.4,0,.4-.41,0-.39-.01-.79,0-1.18,.01-.25-.07-.33-.32-.32-1.28,0-2.55,0-3.83,0-.24,0-.35-.05-.31-.31,0-.03,0-.06,0-.08,0-.49,.05-.42-.41-.42-.18,0-.26-.03-.26-.24,0-1.01,0-2.03-.03-3.04,0-.23,.06-.28,.28-.28,1.52,.01,3.04,.01,4.56,.02,.22,0,.31-.04,.29-.27-.02-.22,0-.45,0-.68,0-.14,.04-.2,.19-.2,.35,0,.69,0,1.04,0,.16,0,.22,.04,.21,.2-.01,.22,.01,.45,0,.68-.02,.21,.04,.27,.26,.27,1.11-.01,2.22,0,3.32,0,.43,0,.84,.07,1.21,.3,.42,.26,.6,.66,.6,1.14,0,.62-.08,1.23-.22,1.84-.05,.2-.15,.28-.35,.25-.22-.03-.36,.02-.45,.27-.14,.39-.49,.54-.9,.54-1.03,0-2.07,0-3.1,0-.36,0-.37,0-.37,.37,0,.39,.01,.79-.01,1.18-.01,.27,.07,.36,.35,.36,1.26-.02,2.52,0,3.77-.03,.25,0,.32,.06,.31,.31-.01,.68-.35,1.02-1.08,1.03-1,.01-2.01,.01-3.01,0-.25,0-.35,.06-.34,.33,.02,.7,.01,1.41,0,2.11,0,.25,.08,.33,.33,.33,.57-.01,1.15-.01,1.72,0,.21,0,.24-.06,.18-.24-.1-.31-.19-.63-.27-.94-.1-.39,.03-.59,.44-.63,.56-.06,.86,.14,1.01,.69,.09,.32,.18,.63,.26,.95,.03,.14,.1,.18,.23,.18,.38,0,.77,0,1.15,0,.14,0,.19,.03,.2,.18,.03,.78-.34,1.18-1.12,1.17-1.72,0-3.44,0-5.15,0Zm.35-8.69c1.39,0,2.78,0,4.16,0,.11,0,.25,.04,.28-.14,.05-.33,.13-.66,.16-1,.04-.37-.11-.54-.49-.58-.27-.03-.54-.03-.81-.03-2.5,0-4.99,0-7.49,0-.23,0-.31,.06-.29,.29,.02,.38,.02,.77,0,1.15-.01,.24,.04,.32,.3,.32,1.39-.01,2.78,0,4.16,0Z"/><path class="cls-7" d="M71.49,35.34c-.29,.73-.7,1.34-1.2,1.89-1.03,1.15-2.26,1.99-3.74,2.44-.22,.07-.28,.03-.27-.2,.02-.34-.08-.71,.03-1,.12-.31,.55-.32,.83-.49,1.21-.71,2.25-1.59,2.91-2.86,.31-.6,.46-1.25,.46-1.92,0-.86,0-1.73,0-2.59,0-.19,.05-.26,.25-.25,.37,.02,.75,.02,1.13,0,.2,0,.26,.06,.25,.25,0,.87,0,1.75,0,2.62,0,.19,.04,.37,.14,.54,.49,.86,1.07,1.65,1.72,2.39,.13,.14,.2,.14,.32,0,1.14-1.22,1.56-2.68,1.46-4.32-.05-.79-.26-1.54-.7-2.2-.52-.78-1.27-1.15-2.19-1.16-1.61-.01-3.23,0-4.84,0-.24,0-.27,.09-.27,.29,0,2.41,0,4.83,0,7.24,0,.25-.06,.34-.32,.32-.33-.02-.66-.01-.99,0-.16,0-.22-.05-.2-.21,.01-.11,0-.23,0-.34,0-2.81-.01-5.61-.03-8.42,0-.26,.07-.32,.33-.32,2.1,0,4.21,.05,6.31,0,2.08-.05,3.42,1.15,4,2.7,.61,1.64,.7,3.33,.1,5.01-.33,.92-.91,1.68-1.66,2.3-.18,.15-.18,.23,0,.37,.41,.3,.83,.58,1.29,.8,.13,.06,.18,.14,.17,.28-.01,.33-.01,.66,0,.99,.01,.23-.06,.27-.27,.19-1.42-.55-2.62-1.41-3.66-2.51-.52-.55-.97-1.15-1.39-1.82Z"/><path class="cls-7" d="M82.77,36.05c-.74,0-1.42,0-2.1,0-.21,0-.27-.04-.25-.26,.1-.98,.18-1.96,.25-2.94,.02-.23,.09-.31,.34-.3,1.25,.02,2.5,0,3.75,.01,.24,0,.33-.07,.33-.32-.02-.68,.05-.58-.59-.58-1.19,0-2.38,0-3.58,0q-.4,0-.4-.39c0-.23,.02-.47,0-.7-.02-.23,.07-.26,.27-.26,1.73,0,3.46,0,5.18,0,1.1,0,2.2,0,3.3,0,.95,0,1.65,.53,1.86,1.37,.24,.98-.43,1.99-1.42,2.13-.7,.1-1.41,.02-2.11,.04-.27,0-.54,0-.82,0-.07,0-.16-.02-.19,.02-.21,.21-.07,.48-.1,.72-.01,.15,.12,.17,.24,.17,.5,0,1,0,1.49,0,.58,0,1.17-.02,1.73,.14,.97,.27,1.48,.92,1.46,1.87-.02,1.09-.57,1.82-1.53,2.05-.67,.16-1.34,.14-2.01,.05-.2-.03-.32-.15-.32-.36,0-.23,0-.45,0-.68,0-.23,.11-.33,.33-.3,.4,.04,.8,.06,1.21,.05,.2,0,.39-.03,.58-.1,.3-.12,.45-.32,.45-.64,0-.3-.14-.52-.42-.64-.25-.11-.52-.15-.8-.15-.71,0-1.43,0-2.14,0-.23,0-.29,.08-.29,.3,0,.78,0,1.56,0,2.34,0,.59-.77,1.1-1.31,.88-.12-.05-.08-.16-.08-.24,0-.94,0-1.88,0-2.82,0-.15,.1-.36-.13-.44-.28-.1-.56,0-.69,.23-.98,1.65-2.47,2.57-4.31,3-.13,.03-.17,0-.17-.12,0-.38,0-.75,0-1.13,0-.17,.12-.16,.23-.19,1.02-.28,1.9-.79,2.6-1.59,.04-.05,.08-.1,.16-.21Zm5.26-3.49c.41,0,.83,0,1.24,0,.33,0,.57-.2,.57-.46,0-.27-.22-.44-.57-.44-.72,0-1.44,0-2.17,0-.7,0-.62-.09-.63,.63,0,.19,.07,.27,.26,.27,.43,0,.86,0,1.29,0Zm-4.61,2.2c.36,0,.71,0,1.07,0,.68,0,.58,.06,.6-.61,0-.25-.09-.3-.32-.3-.77,0-1.54,0-2.31,0q-.53,0-.58,.54s0,.08-.02,.11c-.05,.19,0,.27,.22,.26,.44-.02,.88,0,1.32,0Z"/><path class="cls-7" d="M99.2,32.42c1.76,0,3.53,.01,5.29,0,.75,0,1.03,.74,.95,1.4,0,.07-.07,.08-.13,.08-.08,0-.15,0-.23,0-3.5,0-7-.01-10.5,0-.79,0-1.07-.7-.97-1.39,.02-.15,.17-.09,.26-.09,1.08,0,2.16,0,3.24,0,.69,0,1.39,0,2.08,0Z"/><path class="cls-7" d="M89.51,28.67c.2,.36,.38,.69,.57,1.01,.11,.19,.04,.22-.14,.22-.37,0-.73,0-1.1,0-.15,0-.23-.04-.29-.19-.11-.28-.25-.55-.39-.81-.15-.3-.57-.33-.78-.07-.38,.48-.77,.95-1.32,1.25-.11,.06-.22,.14-.38,.13,0-.46,0-.92,0-1.38,0-.1,.04-.15,.12-.2,.63-.39,.93-.99,1.06-1.68,.04-.22,.1-.32,.35-.3,.32,.03,.64,.01,.96,0,.15,0,.22,0,.17,.2-.05,.19-.22,.43-.11,.55,.12,.13,.39,.04,.59,.04,.61,0,1.22,0,1.83,0,.55,0,.87,.58,.79,1.14-.02,.14-.15,.09-.23,.09-.55,0-1.11,0-1.71,0Z"/><path class="cls-7" d="M83.88,28.67c.22,.41,.46,.76,.64,1.19-.5,0-.97,0-1.45,0-.11,0-.11-.09-.14-.15-.13-.27-.25-.54-.39-.81-.15-.29-.53-.33-.75-.08-.55,.63-1.23,1.06-2,1.37-.21,.08-.34,.09-.3-.19,0-.05,0-.09,0-.14,0-.29-.06-.59,0-.87,.07-.32,.45-.3,.68-.46,.61-.42,1.04-.94,1.17-1.68,.02-.14,.08-.21,.24-.2,.38,.01,.75,.01,1.13,0,.18,0,.2,.06,.15,.21-.04,.12-.07,.25-.13,.37-.08,.17-.06,.23,.15,.22,.48-.01,.96,0,1.44,0,.68,0,.93,.51,.86,1.14-.02,.14-.12,.09-.2,.09-.36,0-.71,0-1.1,0Z"/><g><path class="cls-7" d="M57.91,5.7c-1.5,0-2.88,.54-3.95,1.43V0h-2.23V11.88c0,3.41,2.77,6.18,6.18,6.18s6.18-2.77,6.18-6.18-2.77-6.18-6.18-6.18Zm0,10.13c-2.18,0-3.95-1.77-3.95-3.95s1.77-3.95,3.95-3.95,3.95,1.77,3.95,3.95-1.77,3.95-3.95,3.95Z"/><path class="cls-7" d="M85.5,5.7c-1.5,0-2.88,.54-3.95,1.43V0h-2.23V11.88c0,3.41,2.77,6.18,6.18,6.18s6.18-2.77,6.18-6.18-2.77-6.18-6.18-6.18Zm0,10.13c-2.18,0-3.95-1.77-3.95-3.95s1.77-3.95,3.95-3.95,3.95,1.77,3.95,3.95-1.77,3.95-3.95,3.95Z"/><path class="cls-7" d="M71.7,5.7c-3.41,0-6.18,2.77-6.18,6.18s2.77,6.18,6.18,6.18c1.5,0,2.88-.54,3.95-1.43v1.35h2.23v-6.1c0-3.41-2.77-6.18-6.18-6.18Zm0,10.13c-2.18,0-3.95-1.77-3.95-3.95s1.77-3.95,3.95-3.95,3.95,1.77,3.95,3.95-1.77,3.95-3.95,3.95Z"/><path class="cls-7" d="M103.24,11.91c0,2.18-1.77,3.95-3.95,3.95s-3.95-1.77-3.95-3.95V5.81h-2.23v6.1c0,3.41,2.77,6.18,6.18,6.18,1.5,0,2.88-.54,3.95-1.43v2.51c0,2.07-1.69,3.76-3.76,3.76s-3.76-1.69-3.76-3.76h-2.23c0,3.3,2.69,5.99,5.99,5.99s5.96-2.66,5.99-5.94h0V5.81h-2.23v6.1Z"/><path class="cls-7" d="M111.47,4.79h0v13.41h2.23v-6.67h5.29v-2.23h-5.29V4.79h0c0-1.23,1-2.24,2.24-2.24h3.05V.32h-3.05c-2.46,0-4.47,2-4.47,4.47Z"/><path class="cls-7" d="M149.65,13.41c0,1.23-1,2.24-2.24,2.24s-2.24-1-2.24-2.24h0v-4.51h5.29v-2.23h-5.29V0h-2.23V13.41h0c0,2.46,2,4.47,4.47,4.47s4.47-2,4.47-4.47h-2.23Z"/><rect class="cls-7" x="121.05" y="7.84" width="2.23" height="10.31"/><path class="cls-7" d="M125.42,9.92h0v8.23h2.23v-7.99c0-1.42,1.15-2.57,2.57-2.57h1.22v-2.23h-1.22c-2.57,0-4.67,2.03-4.8,4.57Z"/><path class="cls-7" d="M137.75,10.39h-1.59c-.84,0-1.52-.68-1.52-1.52s.68-1.52,1.52-1.52h4.23v-2.23h-4.23c-2.06,0-3.74,1.68-3.74,3.74s1.68,3.74,3.74,3.74h1.59c.84,0,1.52,.68,1.52,1.52s-.68,1.52-1.52,1.52h-5.12v2.23h5.13c2.06,0,3.73-1.68,3.73-3.74s-1.68-3.74-3.74-3.74Z"/><path class="cls-7" d="M122.45,2.9c-1.04-.2-1.93,.7-1.73,1.73,.11,.58,.58,1.05,1.16,1.16,1.04,.2,1.93-.7,1.73-1.73-.11-.58-.58-1.05-1.16-1.16Z"/></g></g><text class="cls-6" transform="translate(0 52.26)"><tspan class="cls-4" x="0" y="0">NINGBO BABYFIRST BABYPRODUCT CO.</tspan><tspan class="cls-1" x="136.01" y="0">,</tspan><tspan class="cls-3" x="138.12" y="0">L</tspan><tspan class="cls-2" x="141.75" y="0">TD</tspan><tspan class="cls-5" x="150.76" y="0">.</tspan></text><g><path class="cls-8" d="M20.53,23.11c-.53,.64-1.05,1.28-1.58,1.92,.57,.74,1.21,1.55,1.89,2.27,.54-.64,1.08-1.27,1.63-1.9-.65-.75-1.3-1.53-1.94-2.3Zm-.3,4.8s-.04-.05-.07-.07c.02,.02,.04,.05,.06,.07,.01,.02,.03,.04,.05,.06h0s-.04-.04-.05-.06ZM34.64,6.3c-1.07-1.5-2.71-2.73-4.6-2.73-1.79,0-3.45,1.03-4.6,2.39-.98,1.16-1.94,2.33-2.88,3.52,.79,.6,1.44,1.37,1.9,2.26,1.17-1.36,2.36-2.7,3.61-4,.53-.53,1.23-.85,1.97-.83,.74,.02,1.44,.37,1.97,.95,.53,.58,.82,1.31,.82,1.99s-.29,1.22-.82,1.58c-3.19,2.37-5.94,5.2-8.53,8.18,.66,.8,1.3,1.53,2.05,2.33,2.64-2.89,5.57-5.67,9.11-7.19,1.23-.51,1.92-1.51,1.9-3.1-.02-1.9-.81-3.8-1.9-5.34ZM15.94,28.63c-2.21,2.57-4.52,5.03-7.12,7.22-1.26,.92-2.95,.48-3.94-.61-.53-.58-.82-1.25-.82-1.83s.29-1,.82-1.25c3.11-1.45,5.74-3.92,8.1-6.55-.71-.69-1.44-1.37-2.17-2.02-2.44,2.49-5.28,4.78-8.56,5.41-1.23,.25-1.93,.91-1.9,2.2,.03,1.73,.9,3.46,1.9,4.86,1.11,1.54,2.68,2.86,4.6,3.22,1.69,.29,3.37-.32,4.6-1.49,2.25-2.21,4.34-4.56,6.39-6.95-.58-.72-1.21-1.45-1.9-2.2Z"/><path class="cls-8" d="M23.79,14.87c0,1.66-.76,3.14-1.94,4.12-.26,.22-.54,.41-.84,.57-.55,.3-1.15,.51-1.8,.6-.25,.04-.5,.05-.76,.05-.3,0-.58-.02-.87-.07-.98-.16-1.88-.59-2.6-1.21-1.15-.98-1.87-2.44-1.87-4.06,0-.54,.08-1.06,.23-1.55,.03-.09,.06-.18,.09-.27,.35-.95,.95-1.78,1.74-2.39,.91-.71,2.05-1.13,3.29-1.13s2.32,.4,3.22,1.08c.79,.6,1.41,1.41,1.77,2.35,.23,.6,.36,1.24,.36,1.92Z"/><path class="cls-8" d="M36.54,31.34c-.03,1.73-.9,3.46-1.9,4.86-1.11,1.54-2.68,2.86-4.6,3.22-1.68,.29-3.37-.32-4.6-1.49-2.27-2.23-4.38-4.61-6.45-7.02-.04-.05-.08-.09-.12-.14-.16-.19-.32-.38-.49-.57h0c-.59-.7-1.17-1.39-1.76-2.08l-.12-.14h-.01c-.16-.21-.33-.4-.49-.59-.52-.61-1.04-1.21-1.56-1.82-.2-.23-.39-.45-.59-.68-.04-.04-.07-.09-.11-.13-.63-.72-1.28-1.47-1.94-2.2-.3-.33-.59-.66-.9-.98-2.52-2.71-5.31-5.25-8.64-6.68-1.23-.51-1.92-1.51-1.9-3.1,.02-1.9,.81-3.8,1.9-5.34,1.07-1.5,2.72-2.73,4.6-2.73,1.79,0,3.45,1.03,4.6,2.39,.95,1.13,1.89,2.28,2.81,3.43-.78,.61-1.43,1.4-1.88,2.29-1.15-1.35-2.33-2.67-3.56-3.95-.53-.53-1.23-.85-1.97-.83-.74,.02-1.44,.37-1.97,.95s-.82,1.31-.82,1.99c0,.15,.01,.29,.04,.42,.1,.48,.36,.88,.78,1.16,3.37,2.51,6.25,5.52,8.97,8.69,.62,.72,1.23,1.45,1.84,2.19,.45,.54,.89,1.07,1.33,1.61,.24,.29,.47,.57,.7,.86,.22,.26,.43,.53,.65,.79h0v.02h.01c.54,.69,1.13,1.44,1.77,2.13,.02,.02,.04,.05,.06,.07,.01,.02,.03,.04,.05,.06,.19,.22,.38,.44,.57,.67,2.24,2.62,4.59,5.13,7.23,7.35,1.26,.92,2.95,.48,3.94-.61,.53-.58,.82-1.25,.82-1.83s-.29-1-.82-1.25c-3.22-1.51-5.94-4.1-8.36-6.84-.14-.15-.27-.31-.41-.47-.07-.08-.14-.16-.21-.24,0,0-.02-.02-.03-.03h0s-.07-.08-.11-.12c-.61-.71-1.22-1.44-1.81-2.16h0c-.22-.27-.45-.54-.67-.81-.06-.07-.12-.14-.18-.21,.94-.26,1.81-.71,2.54-1.32,.04,.05,.09,.11,.13,.16h0s.08,.09,.12,.13c.6,.68,1.23,1.41,1.89,2.13,0,.01,.02,.02,.03,.04,.19,.21,.38,.41,.57,.62,.24,.25,.47,.49,.72,.74,.81,.82,1.67,1.61,2.57,2.33,.04,.04,.08,.08,.13,.12h0c1.72,1.34,3.62,2.39,5.68,2.78,1.23,.25,1.93,.91,1.9,2.2Z"/></g></g></g></svg>