<?xml version="1.0" encoding="UTF-8"?><svg id="_层_2" xmlns="http://www.w3.org/2000/svg" viewBox="0 0 235.17 47.08"><defs><style>.cls-1{fill:#4e5f67;}.cls-2{fill:#2cd2c1;}</style></defs><g id="_层_1-2"><g><path class="cls-1" d="M72.85,43.94c-5.55,0-11.1-.02-16.65,.02-.82,0-1.03-.23-.97-1,.07-.86,.05-1.74,0-2.61-.04-.6,.18-.75,.76-.75,4.74,.02,9.48,.01,14.22,0q1.39,0,1.39-1.39c0-2.07,0-4.14,0-6.21q0-1.21-1.18-1.22c-3.9,0-7.8-.02-11.7,0-.62,0-.86-.14-.82-.79,.05-.9,.05-1.8,0-2.7-.03-.63,.16-.81,.8-.8,3.87,.05,7.74,.05,11.61,.07,1.29,0,1.29,0,1.29-1.3,0-1.26-.05-2.52,.02-3.78,.04-.8-.24-1.04-1.02-1.03-4.08,.03-8.16,0-12.24,.03-.78,0-1.13-.17-.98-.98,.02-.09,0-.18,0-.27-.02-1.57,.17-1.36-1.32-1.34-.59,0-.83-.08-.83-.76,0-3.24-.03-6.48-.1-9.71-.02-.72,.2-.91,.91-.9,4.86,.04,9.72,.03,14.58,.08,.69,0,.99-.13,.93-.88-.06-.71,0-1.44-.02-2.16-.01-.46,.14-.64,.62-.63,1.11,.03,2.22,.03,3.33,0,.5-.02,.7,.12,.67,.65-.04,.72,.03,1.44-.02,2.16-.05,.66,.14,.87,.84,.86,3.54-.04,7.08-.02,10.62-.01,1.37,0,2.68,.23,3.87,.97,1.35,.85,1.93,2.12,1.92,3.65,0,1.98-.25,3.94-.7,5.88-.15,.65-.46,.91-1.11,.81-.71-.11-1.14,.05-1.44,.87-.46,1.25-1.55,1.73-2.88,1.72-3.3-.01-6.6,0-9.9,0-1.16,0-1.18,0-1.2,1.2-.02,1.26,.03,2.52-.03,3.78-.04,.86,.24,1.16,1.12,1.14,4.02-.06,8.04-.03,12.06-.09,.8-.01,1.02,.2,1,.99-.04,2.17-1.12,3.26-3.46,3.28-3.21,.03-6.42,.03-9.63,0-.81-.01-1.11,.2-1.09,1.05,.06,2.25,.04,4.5,0,6.75-.01,.79,.27,1.06,1.05,1.04,1.83-.04,3.66-.04,5.49,0,.67,.01,.76-.18,.56-.78-.33-.99-.6-2.01-.87-3.02-.33-1.25,.11-1.88,1.41-2.02,1.8-.2,2.73,.44,3.23,2.22,.28,1.01,.58,2.01,.82,3.03,.11,.44,.32,.58,.75,.57,1.23-.02,2.46,0,3.69-.02,.44,0,.62,.08,.64,.58,.11,2.48-1.09,3.76-3.57,3.75-5.49,0-10.98,0-16.47,0Zm1.13-27.77c4.44,0,8.87,0,13.31,0,.36,0,.81,.14,.9-.46,.17-1.06,.42-2.12,.52-3.19,.12-1.17-.36-1.73-1.55-1.85-.86-.09-1.73-.1-2.6-.1-7.97,0-15.94,0-23.92-.02-.73,0-.98,.19-.94,.94,.06,1.23,.06,2.46,0,3.68-.04,.76,.14,1.02,.97,1.01,4.44-.05,8.87-.02,13.31-.02Z"/><path class="cls-1" d="M120.11,31.07c-.94,2.32-2.24,4.28-3.83,6.05-3.29,3.66-7.21,6.37-11.97,7.81-.71,.22-.89,.09-.86-.63,.05-1.08-.26-2.26,.1-3.21,.37-.99,1.76-1.03,2.66-1.56,3.88-2.26,7.2-5.07,9.29-9.14,.99-1.93,1.47-3.98,1.47-6.15,0-2.76,.02-5.52-.01-8.28,0-.62,.15-.84,.79-.81,1.2,.05,2.4,.05,3.6,0,.63-.02,.82,.18,.81,.8-.01,2.79,.03,5.58,.03,8.37,0,.62,.13,1.17,.44,1.71,1.56,2.75,3.41,5.28,5.51,7.64,.41,.46,.63,.45,1.03,.01,3.64-3.9,5-8.57,4.68-13.8-.16-2.51-.82-4.91-2.23-7.03-1.66-2.49-4.05-3.68-7-3.7-5.16-.03-10.32,0-15.48-.03-.76,0-.87,.29-.87,.94,.02,7.71,0,15.42,.03,23.13,0,.81-.19,1.1-1.03,1.04-1.04-.08-2.1-.05-3.15,0-.53,.02-.7-.16-.65-.67,.03-.36,0-.72,0-1.08-.02-8.97-.04-17.94-.09-26.9,0-.83,.23-1.03,1.04-1.03,6.72,.03,13.44,.15,20.16-.02,6.65-.17,10.93,3.69,12.78,8.64,1.96,5.24,2.24,10.65,.33,16.01-1.05,2.94-2.91,5.36-5.3,7.35-.57,.48-.58,.73,.03,1.17,1.31,.96,2.65,1.87,4.12,2.55,.42,.19,.56,.44,.55,.89-.03,1.05-.04,2.1,0,3.15,.03,.75-.18,.86-.87,.59-4.53-1.76-8.36-4.51-11.69-8.02-1.66-1.74-3.09-3.66-4.43-5.8Z"/><path class="cls-1" d="M215.18,21.92c5.64,0,11.27,.04,16.91-.02,2.4-.03,3.29,2.37,3.04,4.47-.03,.23-.22,.25-.4,.26-.24,0-.48,0-.72,0-11.18,0-22.37-.04-33.55,.03-2.51,.01-3.41-2.24-3.1-4.44,.07-.48,.53-.29,.82-.29,3.45-.01,6.9,0,10.34,0,2.22,0,4.44,0,6.66,0Z"/><g><path class="cls-1" d="M159.54,33.32c-2.35,0-4.53-.03-6.71,.02-.67,.01-.87-.12-.8-.84,.31-3.13,.57-6.27,.81-9.41,.06-.75,.3-.98,1.08-.97,3.99,.05,7.98,0,11.97,.04,.78,0,1.06-.23,1.04-1.03-.05-2.18,.17-1.85-1.89-1.86-3.81-.01-7.62,0-11.43,0q-1.28,0-1.28-1.23c0-.75,.05-1.51-.02-2.25-.07-.72,.22-.83,.86-.83,5.52,.02,11.04,.01,16.56,.01,3.51,0,7.02-.01,10.53,0,3.02,.02,5.28,1.7,5.93,4.38,.76,3.12-1.36,6.35-4.54,6.8-2.23,.32-4.49,.07-6.74,.13-.87,.02-1.74,0-2.61,0-.21,0-.5-.06-.61,.05-.69,.66-.24,1.52-.31,2.29-.04,.47,.38,.54,.77,.54,1.59,0,3.18,0,4.77,0,1.86,0,3.72-.05,5.54,.45,3.11,.86,4.74,2.94,4.68,5.97-.07,3.47-1.81,5.81-4.9,6.56-2.13,.52-4.28,.45-6.44,.17-.65-.09-1.02-.48-1.03-1.15-.01-.72,0-1.44,0-2.16-.01-.74,.36-1.04,1.07-.97,1.28,.13,2.57,.18,3.86,.16,.64,0,1.26-.11,1.85-.33,.97-.37,1.43-1.03,1.44-2.05,.01-.97-.44-1.65-1.34-2.04-.81-.35-1.67-.47-2.55-.47-2.28,0-4.56,.03-6.84-.01-.73-.01-.93,.26-.92,.95,.03,2.49,.02,4.98,0,7.47-.01,1.87-2.47,3.5-4.2,2.8-.4-.16-.24-.51-.25-.78-.01-3,0-6-.02-9,0-.48,.33-1.15-.41-1.41-.89-.31-1.78,.02-2.2,.74-3.15,5.26-7.9,8.21-13.76,9.57-.41,.09-.54,.03-.54-.39,.01-1.2,.02-2.4,0-3.6,0-.54,.38-.51,.72-.6,3.25-.9,6.07-2.52,8.32-5.07,.14-.16,.25-.33,.51-.66Zm16.8-11.17c1.32,0,2.64,0,3.96,0,1.04,0,1.82-.64,1.81-1.46-.01-.87-.7-1.42-1.82-1.42-2.31,0-4.62,0-6.92,0-2.23,0-1.98-.28-2,2.02,0,.62,.22,.87,.84,.86,1.38-.02,2.76,0,4.14,0Zm-14.72,7.02c1.14,0,2.28,0,3.42,0,2.16,0,1.87,.18,1.92-1.94,.02-.79-.3-.96-1.01-.95-2.46,.03-4.91,.01-7.37,0q-1.68,0-1.84,1.72c-.01,.12-.02,.24-.05,.36-.15,.61,.02,.85,.7,.82,1.41-.05,2.82-.02,4.22-.02Z"/><path class="cls-1" d="M181.05,9.74c.64,1.16,1.2,2.21,1.81,3.23,.35,.59,.14,.7-.44,.69-1.17-.02-2.34-.03-3.51,0-.49,.01-.74-.14-.94-.61-.36-.89-.79-1.75-1.23-2.6-.49-.95-1.82-1.06-2.48-.21-1.21,1.54-2.45,3.04-4.22,3.98-.36,.19-.71,.46-1.21,.42,0-1.48,0-2.94,0-4.41,0-.31,.12-.48,.38-.64,2.01-1.23,2.97-3.15,3.39-5.37,.13-.69,.33-1.02,1.13-.95,1.01,.09,2.04,.04,3.06,.02,.47,0,.72,.02,.55,.63-.16,.59-.7,1.37-.35,1.76,.37,.42,1.24,.13,1.9,.13,1.95,.02,3.9,.02,5.85,0,1.77-.02,2.77,1.87,2.53,3.65-.06,.45-.47,.28-.73,.28-1.77,.01-3.54,0-5.47,0Z"/><path class="cls-1" d="M163.07,9.77c.71,1.31,1.48,2.41,2.05,3.8-1.61,0-3.11,0-4.62,0-.34,0-.35-.29-.44-.48-.42-.86-.8-1.74-1.23-2.6-.47-.92-1.71-1.07-2.4-.27-1.74,2.03-3.92,3.4-6.38,4.38-.69,.27-1.08,.29-.95-.62,.02-.15,0-.3,0-.45-.01-.93-.19-1.89,0-2.78,.22-1.02,1.45-.97,2.18-1.47,1.94-1.33,3.33-3,3.73-5.37,.08-.45,.24-.66,.75-.64,1.2,.04,2.4,.05,3.6,0,.59-.02,.65,.19,.48,.66-.14,.39-.23,.81-.4,1.19-.24,.53-.18,.73,.47,.72,1.53-.04,3.06,0,4.59-.01,2.18-.01,2.97,1.63,2.75,3.64-.05,.44-.39,.29-.63,.29-1.14,.01-2.27,0-3.53,0Z"/></g><g><path class="cls-2" d="M26.23,25.62c-.69,.84-1.37,1.68-2.06,2.52,.74,.97,1.57,2.03,2.46,2.98,.7-.83,1.41-1.66,2.12-2.49-.85-.98-1.69-2-2.52-3.01Zm-.39,6.29s-.06-.06-.09-.09c.03,.03,.05,.06,.08,.1,.02,.03,.04,.05,.06,.07h0s-.05-.05-.07-.08ZM44.57,3.58C43.19,1.62,41.04,0,38.6,0c-2.33,0-4.48,1.36-5.97,3.13-1.27,1.52-2.52,3.06-3.75,4.62,1.02,.79,1.87,1.8,2.47,2.96,1.52-1.79,3.07-3.54,4.69-5.25,.68-.7,1.59-1.11,2.56-1.09,.97,.02,1.88,.48,2.56,1.24,.68,.76,1.06,1.72,1.06,2.6s-.38,1.6-1.06,2.08c-4.15,3.11-7.72,6.82-11.09,10.73,.86,1.04,1.7,2,2.66,3.06,3.43-3.79,7.24-7.43,11.84-9.42,1.6-.67,2.5-1.98,2.48-4.06-.03-2.49-1.05-4.99-2.48-7.01Zm-24.31,29.28c-2.87,3.37-5.87,6.6-9.25,9.46-1.63,1.21-3.83,.62-5.12-.8-.68-.76-1.06-1.63-1.06-2.39s.38-1.31,1.06-1.63c4.04-1.9,7.46-5.13,10.53-8.59-.93-.91-1.87-1.79-2.82-2.65-3.17,3.27-6.87,6.27-11.13,7.09C.88,33.66-.03,34.52,0,36.22c.04,2.26,1.17,4.54,2.47,6.37,1.44,2.02,3.49,3.75,5.97,4.22,2.19,.38,4.38-.42,5.97-1.95,2.93-2.9,5.64-5.98,8.31-9.11-.75-.94-1.58-1.9-2.47-2.88Z"/><path class="cls-2" d="M30.47,14.82c0,2.17-.98,4.11-2.53,5.4-.34,.28-.7,.53-1.09,.75-.71,.4-1.5,.67-2.33,.79-.32,.05-.66,.07-.99,.07-.38,0-.76-.03-1.13-.09-1.28-.21-2.44-.78-3.39-1.59-1.49-1.29-2.44-3.2-2.44-5.32,0-.71,.1-1.39,.3-2.03,.04-.12,.08-.24,.12-.36,.45-1.25,1.24-2.33,2.26-3.13,1.18-.93,2.66-1.49,4.27-1.49s3.02,.53,4.18,1.42c1.03,.78,1.83,1.85,2.3,3.08,.3,.78,.46,1.63,.46,2.52Z"/><path class="cls-2" d="M47.05,36.41c-.04,2.26-1.17,4.54-2.48,6.37-1.44,2.02-3.49,3.75-5.97,4.22-2.19,.38-4.38-.42-5.97-1.95-2.96-2.93-5.7-6.04-8.39-9.21-.05-.06-.1-.12-.16-.18-.21-.25-.42-.5-.63-.75h-.01c-.77-.92-1.53-1.82-2.29-2.73l-.15-.18s-.01-.01-.02-.02c-.21-.25-.42-.5-.64-.75-.67-.8-1.35-1.59-2.03-2.38-.26-.3-.51-.59-.77-.89-.05-.06-.1-.11-.15-.17-.82-.95-1.66-1.92-2.52-2.89-.38-.43-.77-.86-1.17-1.29-3.27-3.55-6.9-6.88-11.24-8.76C.88,14.16-.02,12.86,0,10.77c.03-2.49,1.05-4.99,2.48-7.01C3.86,1.81,6.01,.19,8.45,.19c2.33,0,4.48,1.36,5.97,3.13,1.24,1.48,2.45,2.98,3.66,4.5-1.02,.8-1.85,1.83-2.44,3-1.5-1.76-3.03-3.5-4.63-5.18-.68-.7-1.59-1.11-2.56-1.09-.97,.02-1.88,.48-2.56,1.24-.68,.76-1.06,1.72-1.06,2.6,0,.19,.02,.38,.05,.55,.12,.64,.47,1.15,1.01,1.53,4.38,3.29,8.12,7.24,11.66,11.39,.81,.95,1.6,1.9,2.4,2.87,.58,.7,1.15,1.41,1.73,2.12,.31,.37,.61,.75,.92,1.12,.28,.35,.56,.69,.84,1.03h0v.02h.01c.7,.91,1.47,1.89,2.31,2.79,.03,.03,.05,.06,.08,.1,.02,.03,.04,.05,.06,.07,.24,.29,.49,.58,.74,.87,2.92,3.43,5.97,6.73,9.4,9.64,1.63,1.21,3.83,.62,5.12-.8,.68-.76,1.06-1.63,1.06-2.39s-.38-1.31-1.06-1.63c-4.19-1.97-7.72-5.38-10.87-8.97-.18-.2-.36-.41-.53-.61-.09-.1-.18-.21-.27-.31-.01-.01-.03-.03-.04-.04h0c-.05-.05-.09-.11-.14-.16-.79-.93-1.58-1.88-2.36-2.83h0c-.29-.36-.58-.71-.87-1.06-.08-.09-.15-.18-.23-.28,1.23-.34,2.35-.94,3.3-1.74,.06,.07,.11,.14,.17,.21h0c.05,.05,.11,.11,.16,.17,.78,.9,1.6,1.84,2.46,2.79,.01,.02,.03,.03,.04,.05,.24,.27,.49,.54,.74,.81,.31,.33,.62,.65,.93,.97,1.06,1.07,2.17,2.12,3.34,3.06,.06,.05,.11,.1,.16,.15h.01c2.24,1.75,4.7,3.13,7.38,3.65,1.6,.33,2.51,1.19,2.48,2.89Z"/></g></g></g></svg>