<?xml version="1.0" encoding="UTF-8"?><svg id="_层_2" xmlns="http://www.w3.org/2000/svg" viewBox="0 0 550 144.49"><defs><style>.cls-1{fill:#4e5f67;}.cls-2{fill:#2cd2c1;}</style></defs><g id="_层_1-2"><g><path class="cls-1" d="M206.93,143.26c-6.31,0-12.62-.02-18.93,.03-.94,0-1.17-.26-1.1-1.14,.08-.98,.06-1.98,0-2.96-.04-.69,.2-.85,.86-.85,5.39,.02,10.78,.01,16.17,.01q1.58,0,1.58-1.58c0-2.35,0-4.71,0-7.06q0-1.38-1.34-1.38c-4.43,0-8.87-.02-13.3,0-.7,0-.97-.15-.93-.89,.06-1.02,.06-2.05,0-3.07-.04-.71,.18-.92,.91-.91,4.4,.05,8.8,.06,13.2,.08,1.47,0,1.47,0,1.46-1.48,0-1.43-.05-2.87,.02-4.3,.04-.91-.27-1.18-1.16-1.18-4.64,.03-9.28,0-13.92,.04-.89,0-1.29-.19-1.11-1.12,.02-.1,0-.2,0-.31-.02-1.78,.2-1.54-1.5-1.52-.67,0-.95-.1-.94-.86,0-3.68-.03-7.36-.11-11.04-.02-.82,.23-1.03,1.03-1.03,5.52,.05,11.05,.04,16.58,.09,.78,0,1.13-.15,1.05-1-.07-.81,0-1.64-.02-2.45-.02-.52,.16-.73,.71-.71,1.26,.03,2.52,.03,3.79,0,.57-.02,.79,.14,.76,.74-.05,.82,.04,1.64-.02,2.45-.06,.75,.16,.99,.95,.98,4.02-.04,8.05-.03,12.07-.02,1.55,0,3.05,.26,4.4,1.1,1.53,.96,2.19,2.41,2.19,4.14,0,2.25-.28,4.48-.79,6.68-.17,.74-.53,1.03-1.27,.92-.81-.12-1.3,.06-1.63,.99-.52,1.42-1.76,1.96-3.27,1.96-3.75-.02-7.5,0-11.26,0-1.32,0-1.34,0-1.36,1.36-.02,1.43,.04,2.87-.04,4.3-.05,.98,.27,1.31,1.27,1.3,4.57-.07,9.14-.04,13.71-.11,.91-.01,1.15,.23,1.14,1.13-.05,2.46-1.27,3.71-3.94,3.73-3.65,.04-7.3,.04-10.95,0-.92-.01-1.26,.23-1.24,1.2,.06,2.56,.05,5.12,0,7.67-.01,.9,.31,1.2,1.19,1.18,2.08-.05,4.16-.04,6.24,0,.76,.02,.86-.21,.64-.88-.37-1.13-.68-2.28-.99-3.43-.38-1.43,.13-2.14,1.6-2.3,2.05-.23,3.11,.49,3.67,2.52,.32,1.15,.66,2.29,.93,3.45,.12,.5,.36,.65,.85,.65,1.4-.03,2.8,0,4.19-.02,.5-.01,.7,.09,.73,.66,.12,2.82-1.24,4.27-4.06,4.27-6.24,0-12.48,0-18.73,0Zm1.29-31.57c5.04,0,10.09,0,15.13,0,.41,0,.92,.16,1.03-.52,.19-1.21,.47-2.41,.6-3.62,.14-1.33-.41-1.96-1.77-2.1-.98-.1-1.97-.12-2.96-.12-9.06,0-18.13,0-27.19-.02-.83,0-1.12,.21-1.07,1.07,.07,1.39,.07,2.79,0,4.19-.04,.86,.16,1.16,1.1,1.15,5.04-.05,10.09-.02,15.13-.02Z"/><path class="cls-1" d="M257.99,128.62c-1.07,2.64-2.55,4.87-4.36,6.88-3.74,4.16-8.2,7.24-13.6,8.87-.81,.25-1.01,.1-.97-.72,.06-1.23-.3-2.57,.11-3.65,.42-1.12,2-1.17,3.03-1.77,4.41-2.57,8.19-5.76,10.56-10.39,1.12-2.19,1.67-4.53,1.67-6.99,0-3.14,.02-6.27-.02-9.41,0-.7,.16-.95,.9-.92,1.36,.06,2.73,.06,4.09,0,.72-.03,.93,.2,.92,.91-.02,3.17,.04,6.34,.03,9.51,0,.71,.15,1.33,.49,1.94,1.77,3.12,3.88,6,6.26,8.69,.46,.52,.71,.51,1.18,.02,4.14-4.43,5.68-9.75,5.32-15.68-.18-2.86-.93-5.58-2.53-7.99-1.88-2.83-4.6-4.19-7.96-4.21-5.87-.04-11.73,0-17.6-.03-.87,0-.99,.33-.99,1.07,.02,8.76,0,17.53,.03,26.29,0,.92-.21,1.25-1.17,1.18-1.19-.09-2.39-.05-3.58,0-.6,.02-.79-.18-.74-.76,.04-.41,0-.82,0-1.23-.03-10.19-.04-20.39-.1-30.58,0-.95,.26-1.17,1.18-1.17,7.64,.04,15.28,.17,22.92-.02,7.56-.19,12.43,4.19,14.53,9.82,2.22,5.96,2.55,12.11,.38,18.2-1.19,3.34-3.3,6.09-6.02,8.36-.65,.54-.66,.83,.03,1.33,1.49,1.09,3.01,2.12,4.69,2.9,.48,.22,.64,.5,.62,1.01-.04,1.19-.05,2.39,0,3.58,.04,.85-.21,.98-.99,.67-5.14-2.01-9.51-5.13-13.29-9.12-1.88-1.98-3.51-4.16-5.04-6.6Z"/><path class="cls-1" d="M298.96,131.19c-2.67,0-5.15-.03-7.63,.02-.76,.01-.98-.14-.9-.95,.35-3.56,.65-7.13,.92-10.69,.06-.85,.34-1.11,1.23-1.1,4.54,.06,9.07,.01,13.61,.05,.89,0,1.2-.27,1.18-1.17-.06-2.48,.19-2.1-2.15-2.11-4.33-.02-8.66,0-13,0q-1.45,0-1.45-1.4c0-.85,.06-1.71-.02-2.56-.08-.82,.25-.95,.98-.94,6.28,.03,12.55,.01,18.83,.01,3.99,0,7.98-.02,11.97,0,3.44,.02,6,1.93,6.74,4.98,.86,3.54-1.55,7.21-5.16,7.73-2.54,.36-5.11,.08-7.66,.14-.99,.02-1.98,0-2.97,0-.24,0-.57-.07-.7,.06-.78,.75-.27,1.73-.35,2.6-.05,.53,.43,.61,.87,.61,1.81,0,3.62,0,5.42,0,2.11,0,4.23-.06,6.3,.51,3.54,.97,5.39,3.34,5.32,6.79-.08,3.94-2.06,6.61-5.57,7.46-2.42,.59-4.87,.52-7.32,.19-.73-.1-1.16-.54-1.17-1.31-.01-.82,0-1.64,0-2.46-.02-.84,.41-1.18,1.21-1.1,1.46,.14,2.92,.21,4.39,.19,.73-.01,1.43-.12,2.1-.38,1.11-.42,1.63-1.17,1.64-2.33,.01-1.11-.5-1.88-1.52-2.32-.92-.39-1.9-.53-2.89-.53-2.59,0-5.18,.03-7.78-.01-.83-.01-1.06,.29-1.05,1.07,.03,2.83,.03,5.66,0,8.49-.01,2.13-2.81,3.98-4.77,3.19-.45-.18-.28-.58-.28-.88-.01-3.41,0-6.82-.03-10.23,0-.55,.37-1.31-.46-1.6-1.01-.35-2.02,.03-2.5,.84-3.58,5.98-8.98,9.34-15.64,10.88-.46,.11-.62,.03-.61-.45,.01-1.36,.02-2.73,0-4.09,0-.61,.43-.58,.82-.69,3.7-1.03,6.9-2.86,9.45-5.77,.16-.18,.29-.38,.58-.75Zm19.1-12.69c1.5,0,3,0,4.5,0,1.18,0,2.07-.72,2.06-1.66-.01-.99-.8-1.61-2.06-1.61-2.62,0-5.25,0-7.87,0-2.53,0-2.25-.32-2.28,2.3,0,.7,.25,.99,.95,.98,1.57-.03,3.13,0,4.7,0Zm-16.74,7.98c1.29,0,2.59,0,3.88,0,2.45,0,2.12,.21,2.19-2.2,.02-.9-.34-1.09-1.15-1.08-2.79,.03-5.59,.01-8.38,.01q-1.91,0-2.09,1.95c-.01,.14-.02,.27-.06,.4-.17,.69,.02,.96,.8,.93,1.6-.06,3.2-.02,4.8-.02Z"/><path class="cls-1" d="M358.63,118c6.41,0,12.82,.05,19.23-.02,2.73-.03,3.74,2.69,3.46,5.08-.03,.27-.25,.29-.46,.29-.27,0-.55,0-.82,0-12.71,0-25.43-.04-38.14,.03-2.86,.02-3.87-2.54-3.53-5.05,.08-.55,.61-.33,.94-.33,3.92-.02,7.84-.01,11.76-.01,2.52,0,5.04,0,7.57,0Z"/><path class="cls-1" d="M323.43,104.38c.73,1.31,1.36,2.51,2.05,3.67,.4,.67,.16,.8-.5,.79-1.33-.02-2.66-.03-3.99,0-.55,.01-.85-.15-1.06-.7-.4-1.01-.9-1.98-1.4-2.95-.56-1.07-2.06-1.2-2.82-.24-1.37,1.75-2.79,3.45-4.79,4.52-.41,.22-.8,.52-1.37,.47,0-1.68,0-3.35,0-5.01,0-.36,.14-.55,.43-.73,2.29-1.4,3.37-3.58,3.85-6.11,.15-.79,.38-1.16,1.28-1.08,1.15,.1,2.32,.04,3.48,.02,.53-.01,.82,.02,.62,.72-.19,.68-.79,1.56-.4,2,.42,.47,1.41,.14,2.16,.15,2.22,.02,4.43,.02,6.65,0,2.01-.02,3.15,2.12,2.87,4.15-.07,.51-.54,.32-.84,.32-2.01,.02-4.02,0-6.21,0Z"/><path class="cls-1" d="M302.98,104.41c.81,1.49,1.68,2.74,2.33,4.32-1.83,0-3.54,0-5.26,0-.39,0-.4-.33-.5-.55-.48-.98-.91-1.98-1.4-2.95-.53-1.05-1.94-1.21-2.73-.3-1.98,2.3-4.45,3.87-7.26,4.98-.78,.31-1.23,.33-1.08-.7,.02-.17,0-.34,0-.51-.01-1.06-.22-2.15,0-3.16,.26-1.16,1.64-1.1,2.47-1.67,2.2-1.52,3.78-3.41,4.24-6.11,.09-.51,.27-.75,.86-.73,1.36,.05,2.73,.05,4.09,0,.67-.02,.74,.22,.55,.75-.16,.45-.26,.92-.46,1.35-.27,.6-.21,.84,.53,.82,1.74-.04,3.48,0,5.22-.01,2.47-.02,3.38,1.85,3.12,4.14-.06,.5-.45,.32-.71,.33-1.29,.02-2.58,0-4.01,0Z"/><g><path class="cls-1" d="M208.65,20.96c-5.45,0-10.45,1.95-14.34,5.19V.25h-8.1V43.41c0,12.38,10.07,22.45,22.45,22.45s22.45-10.07,22.45-22.45-10.07-22.45-22.45-22.45Zm0,36.79c-7.91,0-14.34-6.43-14.34-14.34s6.43-14.34,14.34-14.34,14.34,6.43,14.34,14.34-6.43,14.34-14.34,14.34Z"/><path class="cls-1" d="M308.86,20.96c-5.45,0-10.45,1.95-14.34,5.19V.25h-8.1V43.41c0,12.38,10.07,22.45,22.45,22.45s22.45-10.07,22.45-22.45-10.07-22.45-22.45-22.45Zm0,36.79c-7.91,0-14.34-6.43-14.34-14.34s6.43-14.34,14.34-14.34,14.34,6.43,14.34,14.34-6.43,14.34-14.34,14.34Z"/><path class="cls-1" d="M258.76,20.96c-12.38,0-22.45,10.07-22.45,22.45s10.07,22.45,22.45,22.45c5.45,0,10.45-1.95,14.34-5.19v4.9h8.1v-22.15c0-12.38-10.07-22.45-22.45-22.45Zm0,36.79c-7.91,0-14.34-6.43-14.34-14.34s6.43-14.34,14.34-14.34,14.34,6.43,14.34,14.34-6.43,14.34-14.34,14.34Z"/><path class="cls-1" d="M373.3,43.51c0,7.91-6.43,14.34-14.34,14.34s-14.34-6.43-14.34-14.34V21.36h-8.1v22.15c0,12.38,10.07,22.45,22.45,22.45,5.45,0,10.45-1.95,14.34-5.2v9.13c0,7.53-6.13,13.66-13.66,13.66s-13.66-6.13-13.66-13.66h-8.1c0,12,9.76,21.77,21.77,21.77s21.65-9.66,21.76-21.57h0V21.36h-8.1v22.15Z"/><path class="cls-1" d="M403.19,17.65h-.03v48.73h8.1v-24.23h19.23v-8.1h-19.23V17.65h.03c0-4.48,3.65-8.13,8.13-8.13h11.07V1.41h-11.07c-8.95,0-16.23,7.28-16.23,16.23Z"/><path class="cls-1" d="M541.9,48.98c0,4.48-3.65,8.13-8.13,8.13s-8.13-3.65-8.13-8.13h-.03v-16.39h19.23v-8.1h-19.23V.25h-8.1V48.98h.03c0,8.95,7.28,16.23,16.23,16.23s16.23-7.28,16.23-16.23h-8.1Z"/><rect class="cls-1" x="438" y="28.72" width="8.1" height="37.45"/><path class="cls-1" d="M453.88,36.27h-.02v29.9h8.1v-29.03c0-5.16,4.19-9.35,9.35-9.35h4.41v-8.1h-4.41c-9.33,0-16.98,7.36-17.43,16.59Z"/><path class="cls-1" d="M498.66,38h-5.78c-3.04,0-5.52-2.47-5.52-5.52s2.47-5.52,5.52-5.52h15.38v-8.08h-15.38c-7.5,0-13.6,6.1-13.6,13.6s6.1,13.6,13.6,13.6h5.78c3.04,0,5.52,2.47,5.52,5.52s-2.48,5.52-5.52,5.52h-18.59v8.08h18.63c7.48-.02,13.56-6.11,13.56-13.6s-6.1-13.6-13.6-13.6Z"/><path class="cls-1" d="M443.1,10.78c-3.76-.71-7,2.53-6.29,6.29,.4,2.1,2.09,3.8,4.2,4.2,3.76,.71,7-2.53,6.29-6.29-.4-2.1-2.1-3.8-4.2-4.2Z"/></g><g><path class="cls-2" d="M80.49,77.97c-2.11,2.55-4.21,5.12-6.31,7.68,2.29,2.94,4.83,6.17,7.54,9.07,2.16-2.54,4.32-5.07,6.5-7.59-2.6-2.99-5.19-6.08-7.73-9.16Zm-1.19,19.15c-.09-.09-.18-.18-.26-.28,.08,.1,.16,.19,.25,.29,.06,.08,.13,.15,.19,.23,0-.01,.02-.02,.02-.02-.07-.07-.14-.14-.2-.22ZM136.78,10.89C132.53,4.92,125.95,.01,118.45,0c-7.16-.01-13.75,4.13-18.33,9.53-3.9,4.62-7.72,9.31-11.5,14.05,3.14,2.4,5.74,5.48,7.59,9.01,4.65-5.44,9.42-10.79,14.39-15.97,2.1-2.12,4.89-3.38,7.86-3.32,2.97,.06,5.76,1.46,7.86,3.78,2.1,2.31,3.25,5.22,3.25,7.92s-1.15,4.87-3.25,6.32c-12.74,9.47-23.69,20.76-34.04,32.65,2.64,3.17,5.2,6.1,8.17,9.3,10.52-11.53,22.22-22.61,36.35-28.68,4.9-2.05,7.66-6.01,7.6-12.37-.08-7.58-3.21-15.17-7.6-21.32ZM62.18,99.99c-8.81,10.24-18.03,20.08-28.39,28.78-5.01,3.67-11.77,1.9-15.71-2.45-2.1-2.31-3.26-4.98-3.26-7.28s1.16-3.98,3.26-4.98c12.4-5.79,22.9-15.63,32.32-26.13-2.85-2.76-5.73-5.45-8.65-8.06-9.72,9.94-21.07,19.07-34.15,21.57C2.7,102.44-.08,105.06,0,110.22c.12,6.89,3.58,13.81,7.59,19.37,4.42,6.14,10.71,11.41,18.33,12.84,6.73,1.15,13.45-1.29,18.33-5.95,8.98-8.82,17.32-18.2,25.49-27.73-2.31-2.85-4.83-5.78-7.58-8.77Z"/><path class="cls-2" d="M93.51,45.1c0,6.61-3.02,12.52-7.76,16.43-1.04,.86-2.16,1.63-3.35,2.27-2.18,1.21-4.6,2.03-7.16,2.4-1,.14-2.01,.22-3.05,.22-1.18,0-2.33-.1-3.46-.28-3.92-.64-7.49-2.37-10.39-4.84-4.57-3.91-7.48-9.72-7.48-16.2,0-2.15,.32-4.23,.92-6.19,.11-.36,.23-.73,.36-1.08,1.38-3.8,3.81-7.09,6.93-9.54,3.62-2.83,8.18-4.53,13.12-4.53s9.26,1.61,12.84,4.31c3.15,2.38,5.62,5.62,7.06,9.36,.92,2.38,1.42,4.96,1.42,7.66Z"/><path class="cls-2" d="M144.38,110.79c-.12,6.89-3.58,13.81-7.6,19.37-4.42,6.14-10.7,11.41-18.33,12.84-6.72,1.15-13.45-1.29-18.33-5.95-9.08-8.91-17.49-18.39-25.74-28.02-.16-.19-.32-.38-.48-.56-.65-.76-1.3-1.51-1.94-2.27-.02-.02-.03-.03-.04-.05-2.35-2.75-4.68-5.5-7.02-8.26-.15-.18-.31-.36-.46-.55-.02-.02-.03-.04-.05-.06-.65-.77-1.3-1.53-1.95-2.3-2.06-2.42-4.13-4.84-6.22-7.26-.78-.91-1.57-1.81-2.35-2.71-.15-.17-.3-.34-.45-.51-2.52-2.89-5.09-5.85-7.74-8.79-1.18-1.31-2.37-2.62-3.58-3.92-10.04-10.79-21.18-20.95-34.49-26.66C2.7,43.1-.06,39.14,0,32.78c.08-7.58,3.21-15.17,7.6-21.32C11.85,5.49,18.43,.58,25.93,.57c7.16-.01,13.75,4.13,18.33,9.53,3.8,4.51,7.53,9.08,11.22,13.69-3.12,2.45-5.69,5.57-7.49,9.14-4.59-5.37-9.3-10.64-14.2-15.76-2.1-2.12-4.89-3.38-7.86-3.32-2.96,.06-5.75,1.46-7.85,3.78-2.1,2.31-3.26,5.22-3.26,7.92,0,.59,.06,1.14,.16,1.68,.38,1.93,1.45,3.51,3.09,4.65,13.45,10.01,24.92,22.02,35.77,34.66,2.48,2.88,4.92,5.79,7.35,8.73,1.78,2.14,3.54,4.29,5.31,6.44,.94,1.14,1.87,2.28,2.81,3.42,.86,1.05,1.72,2.1,2.59,3.14,0,0,0,.01,.01,.02,.01,.02,.02,.03,.04,.05h0c2.16,2.77,4.52,5.75,7.07,8.5,.08,.1,.16,.19,.25,.29,.06,.08,.13,.15,.19,.23,.74,.89,1.5,1.77,2.26,2.66,8.95,10.44,18.31,20.48,28.86,29.34,5.02,3.67,11.77,1.9,15.72-2.45,2.1-2.31,3.25-4.98,3.25-7.28s-1.15-3.98-3.25-4.98c-12.86-6-23.68-16.36-33.37-27.3-.55-.61-1.09-1.23-1.63-1.86-.28-.32-.56-.63-.83-.96-.04-.04-.08-.09-.12-.13h0c-.14-.16-.28-.33-.43-.49-2.44-2.82-4.86-5.73-7.23-8.61,0,0,0-.01,0-.01-.89-1.08-1.78-2.15-2.66-3.21-.23-.28-.47-.56-.7-.85,3.77-1.02,7.21-2.85,10.13-5.28,.18,.22,.35,.43,.53,.64,.01-.01,.02-.02,.03-.03,.16,.19,.32,.38,.48,.56,2.38,2.73,4.9,5.61,7.54,8.5,.04,.05,.09,.1,.13,.14,.75,.82,1.51,1.64,2.28,2.46,.94,.99,1.89,1.97,2.85,2.95,3.24,3.27,6.66,6.44,10.25,9.3,.17,.15,.34,.31,.51,.46l.03-.04c6.88,5.37,14.43,9.57,22.66,11.15,4.9,1,7.69,3.62,7.6,8.78Z"/></g></g></g></svg>