<?xml version="1.0" encoding="UTF-8"?><svg id="_层_2" xmlns="http://www.w3.org/2000/svg" viewBox="0 0 188.16 52.75"><defs><style>.cls-1{fill:#4e5f67;}.cls-2{fill:#2cd2c1;}</style></defs><g id="_层_1-2"><g><path class="cls-1" d="M70.79,49.01c-2.16,0-4.32,0-6.48,0-.32,0-.4-.09-.38-.39,.03-.34,.02-.68,0-1.01-.01-.24,.07-.29,.3-.29,1.84,0,3.69,0,5.53,0q.54,0,.54-.54c0-.81,0-1.61,0-2.42q0-.47-.46-.47c-1.52,0-3.03,0-4.55,0-.24,0-.33-.05-.32-.31,.02-.35,.02-.7,0-1.05-.01-.24,.06-.31,.31-.31,1.5,.02,3.01,.02,4.52,.03,.5,0,.5,0,.5-.51,0-.49-.02-.98,0-1.47,.02-.31-.09-.4-.4-.4-1.59,.01-3.17,0-4.76,.01-.3,0-.44-.07-.38-.38,0-.03,0-.07,0-.1,0-.61,.07-.53-.51-.52-.23,0-.32-.03-.32-.3,0-1.26-.01-2.52-.04-3.78,0-.28,.08-.35,.35-.35,1.89,.02,3.78,.01,5.67,.03,.27,0,.39-.05,.36-.34-.02-.28,0-.56,0-.84,0-.18,.05-.25,.24-.24,.43,.01,.86,.01,1.3,0,.19,0,.27,.05,.26,.25-.02,.28,.01,.56,0,.84-.02,.26,.05,.34,.32,.34,1.38-.01,2.75,0,4.13,0,.53,0,1.04,.09,1.51,.38,.52,.33,.75,.83,.75,1.42,0,.77-.1,1.53-.27,2.29-.06,.25-.18,.35-.43,.31-.28-.04-.44,.02-.56,.34-.18,.49-.6,.67-1.12,.67-1.28,0-2.57,0-3.85,0-.45,0-.46,0-.47,.47,0,.49,.01,.98-.01,1.47-.02,.34,.09,.45,.44,.44,1.56-.02,3.13-.01,4.69-.04,.31,0,.39,.08,.39,.39-.02,.84-.43,1.27-1.35,1.28-1.25,.01-2.5,.01-3.75,0-.32,0-.43,.08-.42,.41,.02,.87,.02,1.75,0,2.62,0,.31,.1,.41,.41,.4,.71-.02,1.42-.02,2.14,0,.26,0,.3-.07,.22-.3-.13-.39-.23-.78-.34-1.17-.13-.49,.04-.73,.55-.79,.7-.08,1.06,.17,1.26,.86,.11,.39,.22,.78,.32,1.18,.04,.17,.12,.22,.29,.22,.48,0,.96,0,1.44,0,.17,0,.24,.03,.25,.23,.04,.96-.43,1.46-1.39,1.46-2.14,0-4.27,0-6.41,0Zm.44-10.8c1.73,0,3.45,0,5.18,0,.14,0,.31,.06,.35-.18,.06-.41,.16-.82,.2-1.24,.05-.46-.14-.67-.6-.72-.34-.03-.67-.04-1.01-.04-3.1,0-6.2,0-9.3,0-.29,0-.38,.07-.37,.37,.03,.48,.02,.96,0,1.43-.01,.3,.06,.4,.38,.39,1.72-.02,3.45,0,5.18,0Z"/><path class="cls-1" d="M88.26,44c-.37,.9-.87,1.67-1.49,2.35-1.28,1.42-2.8,2.48-4.65,3.04-.28,.08-.35,.03-.33-.25,.02-.42-.1-.88,.04-1.25,.15-.38,.68-.4,1.04-.61,1.51-.88,2.8-1.97,3.61-3.55,.38-.75,.57-1.55,.57-2.39,0-1.07,0-2.15,0-3.22,0-.24,.06-.33,.31-.31,.47,.02,.93,.02,1.4,0,.25,0,.32,.07,.32,.31,0,1.08,.01,2.17,.01,3.25,0,.24,.05,.46,.17,.66,.61,1.07,1.33,2.05,2.14,2.97,.16,.18,.24,.18,.4,0,1.42-1.52,1.94-3.33,1.82-5.37-.06-.98-.32-1.91-.87-2.73-.64-.97-1.57-1.43-2.72-1.44-2.01-.01-4.01,0-6.02-.01-.3,0-.34,.11-.34,.37,0,3,0,6,.01,8.99,0,.32-.07,.43-.4,.4-.41-.03-.82-.02-1.22,0-.2,0-.27-.06-.25-.26,.01-.14,0-.28,0-.42,0-3.49-.01-6.98-.03-10.46,0-.32,.09-.4,.41-.4,2.61,.01,5.23,.06,7.84,0,2.59-.07,4.25,1.43,4.97,3.36,.76,2.04,.87,4.14,.13,6.23-.41,1.14-1.13,2.08-2.06,2.86-.22,.19-.22,.28,.01,.46,.51,.37,1.03,.73,1.6,.99,.16,.08,.22,.17,.21,.35-.01,.41-.02,.82,0,1.22,.01,.29-.07,.33-.34,.23-1.76-.69-3.25-1.76-4.55-3.12-.64-.68-1.2-1.42-1.72-2.26Z"/><path class="cls-1" d="M102.28,44.88c-.91,0-1.76-.01-2.61,0-.26,0-.34-.05-.31-.32,.12-1.22,.22-2.44,.31-3.66,.02-.29,.12-.38,.42-.38,1.55,.02,3.1,0,4.66,.02,.3,0,.41-.09,.4-.4-.02-.85,.07-.72-.74-.72-1.48,0-2.96,0-4.45,0q-.5,0-.5-.48c0-.29,.02-.59,0-.87-.03-.28,.09-.32,.34-.32,2.15,0,4.29,0,6.44,0,1.37,0,2.73,0,4.1,0,1.18,0,2.05,.66,2.31,1.7,.29,1.21-.53,2.47-1.76,2.64-.87,.12-1.75,.03-2.62,.05-.34,0-.68,0-1.02,0-.08,0-.19-.02-.24,.02-.27,.26-.09,.59-.12,.89-.02,.18,.15,.21,.3,.21,.62,0,1.24,0,1.86,0,.72,0,1.45-.02,2.15,.18,1.21,.33,1.84,1.14,1.82,2.32-.03,1.35-.7,2.26-1.91,2.55-.83,.2-1.67,.18-2.5,.07-.25-.03-.4-.19-.4-.45,0-.28,0-.56,0-.84,0-.29,.14-.4,.41-.38,.5,.05,1,.07,1.5,.06,.25,0,.49-.04,.72-.13,.38-.14,.56-.4,.56-.8,0-.38-.17-.64-.52-.79-.32-.13-.65-.18-.99-.18-.89,0-1.77,.01-2.66,0-.28,0-.36,.1-.36,.37,.01,.97,0,1.94,0,2.9,0,.73-.96,1.36-1.63,1.09-.15-.06-.1-.2-.1-.3,0-1.17,0-2.33,0-3.5,0-.19,.13-.45-.16-.55-.34-.12-.69,0-.86,.29-1.22,2.05-3.07,3.19-5.35,3.72-.16,.04-.21,.01-.21-.15,0-.47,0-.93,0-1.4,0-.21,.15-.2,.28-.23,1.26-.35,2.36-.98,3.23-1.97,.05-.06,.1-.13,.2-.26Zm6.53-4.34c.51,0,1.03,0,1.54,0,.4,0,.71-.25,.7-.57,0-.34-.27-.55-.71-.55-.9,0-1.8,0-2.69,0-.87,0-.77-.11-.78,.79,0,.24,.08,.34,.33,.33,.54,0,1.07,0,1.61,0Zm-5.73,2.73c.44,0,.89,0,1.33,0,.84,0,.73,.07,.75-.75,0-.31-.12-.37-.39-.37-.96,.01-1.91,0-2.87,0q-.65,0-.72,.67s0,.09-.02,.14c-.06,.24,0,.33,.27,.32,.55-.02,1.1,0,1.64,0Z"/><path class="cls-1" d="M122.69,40.37c2.19,0,4.38,.02,6.58,0,.93-.01,1.28,.92,1.18,1.74-.01,.09-.08,.1-.16,.1-.09,0-.19,0-.28,0-4.35,0-8.7-.01-13.05,.01-.98,0-1.32-.87-1.21-1.73,.03-.19,.21-.11,.32-.11,1.34,0,2.68,0,4.02,0,.86,0,1.73,0,2.59,0Z"/><path class="cls-1" d="M110.65,35.71c.25,.45,.47,.86,.7,1.26,.14,.23,.06,.27-.17,.27-.45,0-.91-.01-1.36,0-.19,0-.29-.05-.36-.24-.14-.35-.31-.68-.48-1.01-.19-.37-.71-.41-.96-.08-.47,.6-.95,1.18-1.64,1.55-.14,.07-.27,.18-.47,.16,0-.57,0-1.15,0-1.72,0-.12,.05-.19,.15-.25,.78-.48,1.15-1.22,1.32-2.09,.05-.27,.13-.4,.44-.37,.39,.04,.79,.01,1.19,0,.18,0,.28,0,.21,.24-.06,.23-.27,.53-.14,.68,.14,.16,.48,.05,.74,.05,.76,0,1.52,0,2.28,0,.69,0,1.08,.73,.98,1.42-.02,.18-.18,.11-.29,.11-.69,0-1.38,0-2.13,0Z"/><path class="cls-1" d="M103.65,35.72c.28,.51,.58,.94,.8,1.48-.62,0-1.21,0-1.8,0-.13,0-.14-.11-.17-.19-.16-.33-.31-.68-.48-1.01-.18-.36-.66-.42-.93-.1-.68,.79-1.52,1.32-2.48,1.7-.27,.11-.42,.11-.37-.24,0-.06,0-.12,0-.17,0-.36-.07-.74,0-1.08,.09-.4,.56-.38,.85-.57,.75-.52,1.29-1.17,1.45-2.09,.03-.17,.09-.26,.29-.25,.47,.02,.93,.02,1.4,0,.23,0,.25,.07,.19,.26-.05,.15-.09,.32-.16,.46-.09,.21-.07,.29,.18,.28,.59-.01,1.19,0,1.78,0,.85,0,1.16,.63,1.07,1.42-.02,.17-.15,.11-.24,.11-.44,0-.88,0-1.37,0Z"/><g><path class="cls-1" d="M71.38,7.17c-1.86,0-3.58,.67-4.91,1.78V.08h-2.77V14.85c0,4.23,3.44,7.68,7.68,7.68s7.68-3.44,7.68-7.68-3.44-7.68-7.68-7.68Zm0,12.59c-2.71,0-4.91-2.2-4.91-4.91s2.2-4.91,4.91-4.91,4.91,2.2,4.91,4.91-2.2,4.91-4.91,4.91Z"/><path class="cls-1" d="M105.66,7.17c-1.86,0-3.58,.67-4.91,1.78V.08h-2.77V14.85c0,4.23,3.44,7.68,7.68,7.68s7.68-3.44,7.68-7.68-3.44-7.68-7.68-7.68Zm0,12.59c-2.71,0-4.91-2.2-4.91-4.91s2.2-4.91,4.91-4.91,4.91,2.2,4.91,4.91-2.2,4.91-4.91,4.91Z"/><path class="cls-1" d="M88.52,7.17c-4.23,0-7.68,3.44-7.68,7.68s3.44,7.68,7.68,7.68c1.86,0,3.58-.67,4.91-1.78v1.68h2.77v-7.58c0-4.23-3.44-7.68-7.68-7.68Zm0,12.59c-2.71,0-4.91-2.2-4.91-4.91s2.2-4.91,4.91-4.91,4.91,2.2,4.91,4.91-2.2,4.91-4.91,4.91Z"/><path class="cls-1" d="M127.71,14.89c0,2.71-2.2,4.91-4.91,4.91s-4.91-2.2-4.91-4.91V7.31h-2.77v7.58c0,4.23,3.44,7.68,7.68,7.68,1.86,0,3.58-.67,4.91-1.78v3.12c0,2.58-2.1,4.67-4.67,4.67s-4.67-2.1-4.67-4.67h-2.77c0,4.11,3.34,7.45,7.45,7.45s7.41-3.3,7.45-7.38h0V7.31h-2.77v7.58Z"/><path class="cls-1" d="M137.94,6.04h0V22.71h2.77V14.42h6.58v-2.77h-6.58V6.04h0c0-1.53,1.25-2.78,2.78-2.78h3.79V.48h-3.79c-3.06,0-5.55,2.49-5.55,5.55Z"/><path class="cls-1" d="M185.39,16.76c0,1.53-1.25,2.78-2.78,2.78s-2.78-1.25-2.78-2.78h0v-5.61h6.58v-2.77h-6.58V.08h-2.77V16.76h0c0,3.06,2.49,5.55,5.55,5.55s5.55-2.49,5.55-5.55h-2.77Z"/><rect class="cls-1" x="149.84" y="9.83" width="2.77" height="12.81"/><path class="cls-1" d="M155.28,12.41h0v10.23h2.77V12.71c0-1.76,1.44-3.2,3.2-3.2h1.51v-2.77h-1.51c-3.19,0-5.81,2.52-5.96,5.67Z"/><path class="cls-1" d="M170.6,13h-1.98c-1.04,0-1.89-.85-1.89-1.89s.85-1.89,1.89-1.89h5.26v-2.77h-5.26c-2.57,0-4.65,2.09-4.65,4.65s2.09,4.65,4.65,4.65h1.98c1.04,0,1.89,.85,1.89,1.89s-.85,1.89-1.89,1.89h-6.36v2.77h6.37c2.56,0,4.64-2.09,4.64-4.65s-2.09-4.65-4.65-4.65Z"/><path class="cls-1" d="M151.59,3.69c-1.29-.24-2.4,.86-2.15,2.15,.14,.72,.72,1.3,1.44,1.44,1.29,.24,2.4-.86,2.15-2.15-.14-.72-.72-1.3-1.44-1.44Z"/></g><g><path class="cls-2" d="M27.54,26.67c-.72,.87-1.44,1.75-2.16,2.63,.78,1.01,1.65,2.11,2.58,3.1,.74-.87,1.48-1.73,2.22-2.6-.89-1.02-1.78-2.08-2.64-3.13Zm-.41,6.55s-.06-.06-.09-.1c.03,.03,.06,.07,.09,.1,.02,.03,.04,.05,.07,.08h0s-.05-.06-.07-.08ZM46.79,3.73C45.34,1.68,43.09,0,40.52,0c-2.45,0-4.7,1.41-6.27,3.26-1.33,1.58-2.64,3.19-3.93,4.81,1.08,.82,1.96,1.87,2.6,3.08,1.59-1.86,3.22-3.69,4.92-5.46,.72-.72,1.67-1.16,2.69-1.13,1.02,.02,1.97,.5,2.69,1.29,.72,.79,1.11,1.79,1.11,2.71s-.39,1.67-1.11,2.16c-4.36,3.24-8.1,7.1-11.65,11.17,.9,1.09,1.78,2.09,2.79,3.18,3.6-3.95,7.6-7.73,12.43-9.81,1.67-.7,2.62-2.06,2.6-4.23-.03-2.59-1.1-5.19-2.6-7.3Zm-25.52,30.48c-3.01,3.5-6.17,10.87-9.71,13.85-1.71,1.25-4.02,.65-5.38-.84-.72-.79-1.11-1.7-1.11-2.49s.4-1.36,1.11-1.7c4.24-1.98,7.83-9.35,11.06-12.94-.97-.95-1.96,2.13-2.96,1.24-3.33,3.4-7.21,6.52-11.68,7.38C.92,39.05-.03,39.94,0,41.71c.04,2.36,1.23,4.72,2.6,6.63,1.51,2.1,3.66,3.9,6.27,4.39,2.3,.39,4.6-4.44,6.27-6.03,3.07-3.02,5.93-6.23,8.72-9.49-.79-.98-1.65-1.98-2.59-3Z"/><path class="cls-2" d="M31.99,15.43c0,2.26-1.03,4.28-2.65,5.62-.36,.3-.74,.56-1.15,.78-.75,.41-1.57,.69-2.45,.82-.34,.05-.69,.07-1.04,.07-.4,0-.8-.03-1.18-.1-1.34-.22-2.56-.81-3.55-1.66-1.56-1.34-2.56-3.33-2.56-5.54,0-.74,.11-1.45,.31-2.12,.04-.12,.08-.25,.12-.37,.47-1.3,1.3-2.43,2.37-3.26,1.24-.97,2.8-1.55,4.49-1.55s3.17,.55,4.39,1.47c1.08,.82,1.92,1.92,2.42,3.2,.31,.81,.49,1.7,.49,2.62Z"/><path class="cls-2" d="M49.39,37.9c-.04,2.36-1.23,4.72-2.6,6.63-1.51,2.1-3.66,3.9-6.27,4.39-2.3,.39-4.6-.44-6.27-2.03-3.1-3.05-5.98-6.29-8.81-9.58-.05-.06-.11-.13-.17-.19-.22-.26-.44-.52-.66-.78v-.02c-.82-.94-1.61-1.88-2.42-2.82l-.16-.19s-.01-.01-.02-.02c-.22-.26-.44-.52-.67-.79-.71-.83-1.41-1.66-2.13-2.48-.27-.31-.54-.62-.81-.93-.05-.06-.1-.12-.15-.18-.86-.99-1.74-2-2.65-3.01-.4-.45-.81,3.1-1.23,2.66-3.43-3.69-7.25-7.17-11.8-9.12C.92,18.74-.02,17.39,0,15.22c.03-2.59,1.1-5.19,2.6-7.3,1.46-2.04,3.71-3.72,6.27-3.73,2.45,0,4.7-2.59,6.27-.74,1.3,1.54,2.58,3.11,3.84,4.68-1.07,.84-1.95,1.9-2.56,3.13-1.57-1.84-3.18,.36-4.86-1.39-.72-.72-1.67-1.16-2.69-1.13-1.01,.02-1.97,.5-2.69,1.29-.72,.79-1.11,1.79-1.11,2.71,0,.2,.02,.39,.06,.57,.13,.66,.5,1.2,1.06,1.59,4.6,3.42,8.52,3.53,12.24,7.86,.85,.99,1.68,1.98,2.52,2.99,.61,.73,1.21,1.47,1.82,2.2,.32,.39,.64,.78,.96,1.17,.29,.36,.59,.72,.89,1.08h0v.02h.01c.74,.95,1.55,1.97,2.42,2.91,.03,.03,.06,.07,.09,.1,.02,.03,.04,.05,.07,.08,.25,.3,.51,.61,.77,.91,3.06,3.57,6.26,7.01,9.87,10.04,1.72,1.25,4.02,.65,5.38-.84,.72-.79,1.11-1.7,1.11-2.49s-.39-1.36-1.11-1.7c-4.4-2.05-8.1-5.6-11.42-9.34-.19-.21-.37-.42-.56-.64-.1-.11-.19-.22-.28-.33-.01-.01-.03-.03-.04-.04h0c-.05-.06-.1-.11-.15-.17-.83-.96-1.66-1.96-2.47-2.95h0c-.31-.37-.61-.74-.91-1.1-.08-.1-.16-.19-.24-.29,1.29-.35,2.47-.97,3.47-1.81,.06,.07,.12,.15,.18,.22h0c.05,.05,.11,.12,.17,.18,.82,.93,1.67,1.92,2.58,2.91,.01,.02,.03,.03,.04,.05,.26,.28,.52,.56,.78,.84,.32,.34,.65,.68,.98,1.01,1.11,1.12,2.28,2.2,3.51,3.18,.06,.05,.11,.11,.17,.16h.01c2.35,1.82,4.94,3.26,7.75,3.8,1.67,.34,2.63,1.24,2.6,3Z"/></g></g></g></svg>