<?xml version="1.0" encoding="UTF-8"?><svg id="_层_2" xmlns="http://www.w3.org/2000/svg" viewBox="0 0 161.33 161.45"><defs><style>.cls-1{fill:#2cd2c1;}</style></defs><g id="_层_1-2"><g><path class="cls-1" d="M89.93,87.85c-2.36,2.88-4.7,5.77-7.05,8.65,2.55,3.31,5.39,6.95,8.43,10.22,2.41-2.86,4.83-5.71,7.26-8.55-2.91-3.37-5.8-6.86-8.63-10.32Zm-1.33,21.57c-.1-.1-.2-.21-.29-.31,.09,.11,.18,.22,.28,.33,.06,.09,.14,.17,.22,.26,0-.01,.02-.02,.03-.03-.08-.08-.16-.16-.23-.24ZM152.84,12.27C148.09,5.55,140.74,.01,132.35,0c-8-.01-15.36,4.65-20.48,10.74-4.36,5.21-8.63,10.49-12.85,15.83,3.51,2.7,6.42,6.17,8.48,10.15,5.2-6.13,10.52-12.15,16.08-18,2.34-2.38,5.46-3.81,8.78-3.74,3.32,.07,6.44,1.65,8.78,4.25,2.34,2.61,3.63,5.88,3.63,8.93s-1.29,5.49-3.63,7.12c-14.23,10.67-26.47,23.39-38.03,36.79,2.95,3.58,5.81,6.87,9.12,10.48,11.75-12.99,24.82-25.47,40.61-32.32,5.47-2.31,8.56-6.77,8.49-13.94-.09-8.54-3.59-17.09-8.49-24.03ZM69.48,112.66c-9.84,11.54-20.14,22.62-31.72,32.43-5.6,4.13-13.15,2.14-17.56-2.76-2.34-2.6-3.64-5.61-3.64-8.21s1.3-4.48,3.64-5.61c13.86-6.53,25.59-17.61,36.12-29.45-3.18-3.11-6.4-6.14-9.66-9.09-10.87,11.2-23.54,21.48-38.16,24.31C3.02,115.42-.09,118.38,0,124.2c.13,7.77,4,15.56,8.48,21.83,4.94,6.91,11.96,12.85,20.49,14.47,7.52,1.29,15.03-1.45,20.48-6.7,10.04-9.94,19.35-20.51,28.48-31.24-2.58-3.22-5.4-6.52-8.47-9.89Z"/><path class="cls-1" d="M104.49,50.82c0,7.45-3.37,14.11-8.67,18.52-1.16,.97-2.41,1.83-3.75,2.56-2.44,1.36-5.14,2.29-8.01,2.7-1.11,.16-2.25,.24-3.41,.24-1.32,0-2.61-.11-3.86-.31-4.38-.72-8.37-2.67-11.61-5.46-5.11-4.41-8.36-10.96-8.36-18.25,0-2.42,.36-4.77,1.02-6.97,.12-.41,.26-.82,.4-1.22,1.54-4.28,4.26-7.99,7.75-10.74,4.05-3.19,9.14-5.1,14.66-5.1s10.35,1.81,14.35,4.86c3.52,2.68,6.28,6.33,7.89,10.55,1.02,2.68,1.59,5.59,1.59,8.63Z"/><path class="cls-1" d="M161.33,124.84c-.13,7.77-4,15.56-8.49,21.83-4.94,6.91-11.96,12.85-20.49,14.47-7.51,1.29-15.03-1.45-20.48-6.7-10.14-10.04-19.54-20.72-28.76-31.57-.18-.21-.36-.42-.54-.63-.72-.85-1.45-1.7-2.17-2.56-.02-.02-.03-.03-.04-.05-2.62-3.09-5.23-6.2-7.85-9.3-.17-.2-.34-.41-.51-.62-.02-.03-.04-.04-.06-.06-.72-.87-1.45-1.72-2.18-2.59-2.31-2.73-4.62-5.46-6.94-8.18-.88-1.03-1.75-2.04-2.63-3.06-.17-.19-.33-.38-.5-.58-2.81-3.25-5.69-6.59-8.65-9.9-1.32-1.48-2.65-2.95-4-4.42-11.21-12.16-23.67-23.6-38.54-30.04C3.02,48.56-.07,44.1,0,36.94,.09,28.4,3.59,19.84,8.49,12.91,13.24,6.19,20.59,.65,28.98,.64c8-.01,15.36,4.65,20.48,10.74,4.25,5.08,8.41,10.23,12.54,15.43-3.49,2.76-6.36,6.27-8.37,10.3-5.13-6.05-10.39-11.99-15.87-17.75-2.34-2.38-5.46-3.81-8.78-3.74-3.31,.07-6.43,1.65-8.77,4.25-2.34,2.61-3.64,5.88-3.64,8.93,0,.66,.06,1.29,.18,1.89,.43,2.18,1.62,3.95,3.46,5.23,15.03,11.28,27.84,24.81,39.97,39.06,2.77,3.25,5.5,6.53,8.22,9.83,1.99,2.41,3.96,4.83,5.93,7.25,1.05,1.28,2.09,2.57,3.14,3.85,.96,1.19,1.93,2.36,2.89,3.54,0,0,0,.01,.01,.02,.01,.02,.03,.03,.04,.05h0c2.41,3.12,5.05,6.48,7.9,9.57,.09,.11,.18,.22,.28,.33,.06,.09,.14,.17,.22,.26,.83,1,1.68,2,2.52,2.99,10,11.76,20.46,23.07,32.25,33.05,5.6,4.13,13.15,2.14,17.56-2.76,2.34-2.6,3.63-5.61,3.63-8.21s-1.29-4.48-3.63-5.61c-14.37-6.77-26.46-18.43-37.29-30.76-.61-.69-1.22-1.39-1.82-2.1-.31-.36-.62-.71-.93-1.08-.04-.04-.09-.1-.13-.15h0c-.16-.19-.32-.37-.48-.56-2.73-3.18-5.43-6.45-8.08-9.7,0,0,0-.01,0-.01-1-1.22-1.99-2.42-2.97-3.61-.26-.32-.52-.63-.78-.95,4.21-1.15,8.06-3.21,11.32-5.95,.2,.24,.39,.48,.59,.72,.01-.01,.03-.03,.03-.04,.18,.21,.36,.42,.54,.63,2.66,3.08,5.47,6.32,8.43,9.57,.04,.06,.1,.11,.15,.16,.84,.92,1.69,1.85,2.55,2.77,1.05,1.11,2.11,2.22,3.19,3.33,3.62,3.68,7.44,7.26,11.46,10.48,.19,.17,.37,.35,.57,.52l.04-.04c7.69,6.05,16.12,10.78,25.32,12.56,5.47,1.12,8.59,4.07,8.49,9.89Z"/></g></g></svg>