<?xml version="1.0" encoding="UTF-8"?><svg id="_层_2" xmlns="http://www.w3.org/2000/svg" viewBox="0 0 161.45 161.45"><defs><style>.cls-1{fill:#727272;}</style></defs><g id="_层_1-2"><g><path class="cls-1" d="M124.8,83.82l-11.74,11.68,28.17,28.17c2.35,2.35,3.63,5.5,3.63,8.8s-1.28,6.46-3.63,8.8c-4.69,4.7-12.86,4.7-17.55,0l-28.17-28.17-1.71-1.71-1.39-1.39,6.67-6.62,8.59-8.59,2.35-2.35,11.68-11.74,10.99-10.94,20.27-20.27c5.44-5.5,8.48-12.75,8.48-20.49s-3.04-15.05-8.48-20.54C147.47,3.04,140.22,0,132.43,0s-14.99,3.04-20.49,8.48l-9.6,9.6c4.75,3.36,8.32,7.74,10.56,12.91l10.78-10.78c2.35-2.35,5.44-3.63,8.75-3.63s6.46,1.28,8.8,3.63c2.35,2.35,3.63,5.44,3.63,8.8s-1.28,6.4-3.63,8.75l-20.27,20.27,.05,.05-10.94,10.99-.05-.05-11.74,11.68,.05,.05-2.35,2.35-.05-.05-8.59,8.59-6.62,6.67-1.39-1.39-1.71-1.71-3.95-3.95-9.18-9.12v-.05l-.69-.64v-.05l-.69-.64v-.05l-11.68-11.68v-.05l-.69-.64h0v-.05l-.69-.64-29.88-29.88c-4.8-4.86-4.8-12.7,0-17.55,2.45-2.45,5.6-3.63,8.8-3.63s6.35,1.17,8.8,3.63l10.78,10.78c2.19-5.18,5.76-9.55,10.51-12.91l-9.6-9.6C38.15-2.83,19.79-2.83,8.48,8.48c-11.31,11.31-11.31,29.72,0,41.03l28.44,28.44,1.39,1.39,.69,.69,.69,.69,11.74,11.74,.69,.69,.69,.69,15.47,15.47,.69,.69-6.67,6.67-24.54,24.6c-2.35,2.35-5.6,3.52-8.8,3.52s-6.46-1.17-8.8-3.52c-2.35-2.35-3.63-5.5-3.63-8.8s1.28-6.46,3.63-8.8l27.32-27.32-11.68-11.74-27.32,27.37c-5.5,5.44-8.48,12.75-8.48,20.49s2.99,15.05,8.48,20.49c5.44,5.5,12.75,8.48,20.49,8.48s15.05-2.99,20.49-8.48l24.6-24.54,6.67-6.67,.69,.69,30.52,30.52c5.5,5.5,12.75,8.48,20.49,8.48s15.05-2.99,20.54-8.48c5.44-5.44,8.48-12.75,8.48-20.49s-3.04-15.05-8.48-20.49l-28.17-28.17Z"/><path class="cls-1" d="M52.29,45.56c-.11,5.98,1.33,11.26,4.22,15.58,.11,.27,.32,.59,.53,.85,.16,.27,.37,.53,.64,.8,1.81,2.45,4.22,4.59,7.1,6.24,2.24,1.33,4.59,2.29,7.1,2.99,.37,.11,.69,.21,1.07,.27,.37,.11,.75,.21,1.12,.27,5.12,1.07,10.51,.85,15.53-.53,2.45-.69,4.85-1.65,7.04-2.99,2.88-1.65,5.28-3.79,7.15-6.24,3.63-4.59,5.5-10.4,5.39-17.13v-.11c.05-2.56-.21-5.02-.75-7.31-.11-.37-.16-.75-.27-1.12s-.21-.69-.37-1.01c-1.71-5.55-5.18-10.14-10.14-13.29-.27-.27-.53-.43-.85-.59-.05-.05-.11-.05-.16-.11-.27-.16-.48-.27-.75-.37-4.59-2.56-9.87-3.79-15.15-3.79-5.6,0-11.2,1.39-15.95,4.16-.32,.21-.64,.37-.96,.69-4.96,3.09-8.43,7.68-10.19,13.23-.96,2.93-1.39,6.08-1.33,9.5Z"/></g></g></svg>