<svg width="390" height="844" viewBox="0 0 390 844" fill="none" xmlns="http://www.w3.org/2000/svg">
<g clip-path="url(#clip0_309_4486)">
<rect width="390" height="844" rx="16" fill="#186051"/>
<circle cx="195.283" cy="350.281" r="141" fill="#236D5E"/>
<circle cx="195.283" cy="350.283" r="146" transform="rotate(0.115105 195.283 350.283)" stroke="white" stroke-opacity="0.4" stroke-width="10"/>
<path d="M49.2832 349.99C49.2251 378.866 57.7312 407.11 73.7256 431.152C89.72 455.194 112.484 473.953 139.14 485.057C165.796 496.161 195.146 499.111 223.478 493.535C251.811 487.958 277.853 474.105 298.313 453.728C318.772 433.35 332.73 407.364 338.42 379.054C344.11 350.744 341.278 321.382 330.281 294.682C319.284 267.982 300.617 245.143 276.64 229.052C252.663 212.961 224.452 204.341 195.576 204.283" stroke="#CFFFC8" stroke-opacity="0.6" stroke-width="10" stroke-linecap="round"/>
<circle cx="49.5742" cy="350.219" r="12.2188" fill="#FEFB54"/>
<path d="M127.705 284.207L110.206 266.708" stroke="white" stroke-opacity="0.6" stroke-width="5" stroke-linecap="round"/>
<path d="M277.791 434.293L260.292 416.794" stroke="white" stroke-opacity="0.6" stroke-width="5" stroke-linecap="round"/>
<path d="M127.707 416.793L110.208 434.292" stroke="white" stroke-opacity="0.6" stroke-width="5" stroke-linecap="round"/>
<path d="M277.791 266.707L260.292 284.206" stroke="white" stroke-opacity="0.6" stroke-width="5" stroke-linecap="round"/>
<path d="M194 256.746L194 231.999" stroke="white" stroke-opacity="0.6" stroke-width="5" stroke-linecap="round"/>
<path d="M194 469L194 444.253" stroke="white" stroke-opacity="0.6" stroke-width="5" stroke-linecap="round"/>
<path d="M100.246 350.5L75.4991 350.5" stroke="white" stroke-opacity="0.6" stroke-width="5" stroke-linecap="round"/>
<path d="M312.5 350.5L287.753 350.5" stroke="white" stroke-opacity="0.6" stroke-width="5" stroke-linecap="round"/>
<circle cx="194" cy="349" r="13" stroke="white" stroke-width="10"/>
<path d="M177.5 349L129.5 349" stroke="white" stroke-width="16" stroke-linecap="round"/>
<path d="M88.6875 133.438C88.6875 135.271 88.5312 137.115 88.2188 138.969C87.9271 140.802 87.4688 142.573 86.8438 144.281C86.2396 145.969 85.4479 147.552 84.4688 149.031C83.5104 150.49 82.3646 151.76 81.0312 152.844C79.7188 153.927 78.2083 154.781 76.5 155.406C74.7917 156.031 72.8854 156.344 70.7812 156.344C68.6771 156.344 66.7812 156.062 65.0938 155.5C63.4062 154.938 61.8958 154.156 60.5625 153.156C59.2292 152.135 58.0833 150.917 57.125 149.5C56.1667 148.083 55.375 146.531 54.75 144.844C54.125 143.135 53.6562 141.323 53.3438 139.406C53.0521 137.469 52.9062 135.479 52.9062 133.438C52.9062 129.75 53.3646 126.396 54.2812 123.375C55.2188 120.333 56.4896 117.729 58.0938 115.562C59.7188 113.396 61.6146 111.719 63.7812 110.531C65.9688 109.323 68.3021 108.719 70.7812 108.719C73.5521 108.719 76.0417 109.26 78.25 110.344C80.4583 111.427 82.3333 113.021 83.875 115.125C85.4167 117.208 86.6042 119.792 87.4375 122.875C88.2708 125.938 88.6875 129.458 88.6875 133.438ZM76.0312 132.031C76.0312 130.24 75.8958 128.635 75.625 127.219C75.375 125.802 75.0104 124.604 74.5312 123.625C74.0729 122.625 73.5 121.865 72.8125 121.344C72.1458 120.823 71.3958 120.562 70.5625 120.562C69.7708 120.562 69.0417 120.896 68.375 121.562C67.7292 122.208 67.1667 123.073 66.6875 124.156C66.2292 125.219 65.8646 126.438 65.5938 127.812C65.3229 129.188 65.1875 130.594 65.1875 132.031C65.1875 133.698 65.2917 135.208 65.5 136.562C65.7292 137.917 66.0625 139.073 66.5 140.031C66.9375 140.99 67.4896 141.729 68.1562 142.25C68.8438 142.771 69.6458 143.031 70.5625 143.031C71.5 143.031 72.3021 142.781 72.9688 142.281C73.6562 141.76 74.2292 141.031 74.6875 140.094C75.1458 139.135 75.4792 137.979 75.6875 136.625C75.9167 135.25 76.0312 133.719 76.0312 132.031ZM95.9062 155.625C95.9062 152.729 96.1875 150.24 96.75 148.156C97.3125 146.052 98.0521 144.229 98.9688 142.688C99.9062 141.146 100.969 139.833 102.156 138.75C103.344 137.667 104.552 136.688 105.781 135.812C107.031 134.938 108.25 134.115 109.438 133.344C110.625 132.573 111.677 131.74 112.594 130.844C113.531 129.948 114.281 128.938 114.844 127.812C115.406 126.688 115.688 125.323 115.688 123.719C115.688 123.344 115.625 122.938 115.5 122.5C115.396 122.062 115.208 121.656 114.938 121.281C114.667 120.885 114.302 120.562 113.844 120.312C113.385 120.062 112.823 119.938 112.156 119.938C111.594 119.938 111.094 120.042 110.656 120.25C110.24 120.458 109.885 120.719 109.594 121.031C109.323 121.344 109.115 121.698 108.969 122.094C108.844 122.469 108.781 122.833 108.781 123.188C108.781 123.521 108.844 123.844 108.969 124.156C109.115 124.448 109.302 124.708 109.531 124.938C109.76 125.167 110.01 125.354 110.281 125.5C110.573 125.625 110.865 125.688 111.156 125.688C111.469 125.688 111.844 125.625 112.281 125.5C111.927 126.167 111.448 126.771 110.844 127.312C110.26 127.833 109.594 128.271 108.844 128.625C108.115 128.979 107.323 129.25 106.469 129.438C105.635 129.625 104.781 129.719 103.906 129.719C102.781 129.719 101.719 129.562 100.719 129.25C99.7396 128.938 98.875 128.469 98.125 127.844C97.3958 127.198 96.8229 126.406 96.4062 125.469C95.9896 124.51 95.7812 123.385 95.7812 122.094C95.7812 120.365 96.1042 118.688 96.75 117.062C97.4167 115.438 98.4167 113.99 99.75 112.719C101.083 111.448 102.75 110.438 104.75 109.688C106.75 108.917 109.094 108.531 111.781 108.531C114.844 108.531 117.5 108.969 119.75 109.844C122.021 110.719 123.896 111.927 125.375 113.469C126.875 115.01 127.99 116.833 128.719 118.938C129.469 121.042 129.844 123.312 129.844 125.75C129.844 127.479 129.625 128.979 129.188 130.25C128.75 131.521 128.156 132.625 127.406 133.562C126.656 134.5 125.781 135.312 124.781 136C123.802 136.688 122.75 137.323 121.625 137.906C120.521 138.469 119.385 139.01 118.219 139.531C117.052 140.052 115.917 140.625 114.812 141.25C113.729 141.854 112.708 142.542 111.75 143.312C110.792 144.083 109.969 145.01 109.281 146.094C113.49 145.802 117.219 145.031 120.469 143.781C123.719 142.51 126.458 140.875 128.688 138.875C128.542 139.979 128.438 141.073 128.375 142.156C128.312 143.219 128.281 144.281 128.281 145.344C128.281 147.073 128.365 148.802 128.531 150.531C128.719 152.24 129 153.938 129.375 155.625C126.771 155.25 124.073 154.969 121.281 154.781C118.49 154.594 115.667 154.5 112.812 154.5C109.896 154.5 107.021 154.594 104.188 154.781C101.375 154.969 98.6146 155.25 95.9062 155.625ZM137.688 150C137.688 149.104 137.854 148.26 138.188 147.469C138.542 146.656 139.01 145.948 139.594 145.344C140.198 144.74 140.896 144.271 141.688 143.938C142.479 143.583 143.333 143.406 144.25 143.406C145.167 143.406 146.021 143.583 146.812 143.938C147.625 144.271 148.323 144.74 148.906 145.344C149.51 145.948 149.979 146.656 150.312 147.469C150.667 148.26 150.844 149.104 150.844 150C150.844 150.917 150.667 151.781 150.312 152.594C149.979 153.385 149.51 154.083 148.906 154.688C148.323 155.271 147.625 155.729 146.812 156.062C146.021 156.417 145.167 156.594 144.25 156.594C143.333 156.594 142.479 156.417 141.688 156.062C140.896 155.729 140.198 155.271 139.594 154.688C139.01 154.083 138.542 153.385 138.188 152.594C137.854 151.781 137.688 150.917 137.688 150ZM137.688 127.75C137.688 126.833 137.854 125.979 138.188 125.188C138.542 124.375 139.01 123.677 139.594 123.094C140.198 122.49 140.896 122.021 141.688 121.688C142.479 121.333 143.333 121.156 144.25 121.156C145.167 121.156 146.021 121.333 146.812 121.688C147.625 122.021 148.323 122.49 148.906 123.094C149.51 123.677 149.979 124.375 150.312 125.188C150.667 125.979 150.844 126.833 150.844 127.75C150.844 128.667 150.667 129.521 150.312 130.312C149.979 131.104 149.51 131.802 148.906 132.406C148.323 132.99 147.625 133.458 146.812 133.812C146.021 134.146 145.167 134.312 144.25 134.312C143.333 134.312 142.479 134.146 141.688 133.812C140.896 133.458 140.198 132.99 139.594 132.406C139.01 131.802 138.542 131.104 138.188 130.312C137.854 129.521 137.688 128.667 137.688 127.75ZM194.375 133.438C194.375 135.271 194.219 137.115 193.906 138.969C193.615 140.802 193.156 142.573 192.531 144.281C191.927 145.969 191.135 147.552 190.156 149.031C189.198 150.49 188.052 151.76 186.719 152.844C185.406 153.927 183.896 154.781 182.188 155.406C180.479 156.031 178.573 156.344 176.469 156.344C174.365 156.344 172.469 156.062 170.781 155.5C169.094 154.938 167.583 154.156 166.25 153.156C164.917 152.135 163.771 150.917 162.812 149.5C161.854 148.083 161.062 146.531 160.438 144.844C159.812 143.135 159.344 141.323 159.031 139.406C158.74 137.469 158.594 135.479 158.594 133.438C158.594 129.75 159.052 126.396 159.969 123.375C160.906 120.333 162.177 117.729 163.781 115.562C165.406 113.396 167.302 111.719 169.469 110.531C171.656 109.323 173.99 108.719 176.469 108.719C179.24 108.719 181.729 109.26 183.938 110.344C186.146 111.427 188.021 113.021 189.562 115.125C191.104 117.208 192.292 119.792 193.125 122.875C193.958 125.938 194.375 129.458 194.375 133.438ZM181.719 132.031C181.719 130.24 181.583 128.635 181.312 127.219C181.062 125.802 180.698 124.604 180.219 123.625C179.76 122.625 179.188 121.865 178.5 121.344C177.833 120.823 177.083 120.562 176.25 120.562C175.458 120.562 174.729 120.896 174.062 121.562C173.417 122.208 172.854 123.073 172.375 124.156C171.917 125.219 171.552 126.438 171.281 127.812C171.01 129.188 170.875 130.594 170.875 132.031C170.875 133.698 170.979 135.208 171.188 136.562C171.417 137.917 171.75 139.073 172.188 140.031C172.625 140.99 173.177 141.729 173.844 142.25C174.531 142.771 175.333 143.031 176.25 143.031C177.188 143.031 177.99 142.781 178.656 142.281C179.344 141.76 179.917 141.031 180.375 140.094C180.833 139.135 181.167 137.979 181.375 136.625C181.604 135.25 181.719 133.719 181.719 132.031ZM234.562 131.562C234.396 132.5 234.271 133.427 234.188 134.344C234.125 135.24 234.094 136.156 234.094 137.094C234.094 138.906 234.25 140.719 234.562 142.531C234.083 142.302 233.573 142.094 233.031 141.906C232.49 141.719 231.948 141.542 231.406 141.375C231.635 143.75 231.938 146.073 232.312 148.344C232.708 150.594 233.198 152.75 233.781 154.812C233.365 154.771 232.885 154.729 232.344 154.688C231.865 154.646 231.281 154.615 230.594 154.594C229.927 154.573 229.156 154.562 228.281 154.562C226.615 154.562 224.656 154.635 222.406 154.781C220.177 154.927 217.76 155.208 215.156 155.625C215.531 154.854 215.865 153.896 216.156 152.75C216.448 151.604 216.698 150.375 216.906 149.062C217.135 147.729 217.312 146.344 217.438 144.906C217.583 143.469 217.698 142.073 217.781 140.719C217.365 140.74 216.635 140.729 215.594 140.688C214.552 140.646 213.25 140.646 211.688 140.688C210.146 140.729 208.385 140.844 206.406 141.031C204.427 141.219 202.292 141.542 200 142C201.042 138.792 202.01 135.823 202.906 133.094C203.802 130.365 204.615 127.74 205.344 125.219C206.073 122.698 206.698 120.208 207.219 117.75C207.74 115.292 208.146 112.729 208.438 110.062C212.458 110.417 216.458 110.573 220.438 110.531C224.417 110.469 228.417 110.271 232.438 109.938C231.958 112.292 231.573 115.115 231.281 118.406C230.99 121.677 230.844 125.188 230.844 128.938V132.719C231.552 132.552 232.219 132.385 232.844 132.219C233.469 132.052 234.042 131.833 234.562 131.562ZM218.094 133.625C218.094 133.083 218.083 132.365 218.062 131.469C218.062 130.573 218.042 129.562 218 128.438C217.979 127.312 217.948 126.104 217.906 124.812C217.865 123.5 217.802 122.167 217.719 120.812C216.781 122.625 216.031 124.615 215.469 126.781C214.906 128.948 214.396 131.167 213.938 133.438C214.417 133.479 214.844 133.51 215.219 133.531C215.594 133.552 215.938 133.573 216.25 133.594C216.562 133.594 216.865 133.604 217.156 133.625C217.448 133.625 217.76 133.625 218.094 133.625ZM242.312 150C242.312 149.104 242.479 148.26 242.812 147.469C243.167 146.656 243.635 145.948 244.219 145.344C244.823 144.74 245.521 144.271 246.312 143.938C247.104 143.583 247.958 143.406 248.875 143.406C249.792 143.406 250.646 143.583 251.438 143.938C252.25 144.271 252.948 144.74 253.531 145.344C254.135 145.948 254.604 146.656 254.938 147.469C255.292 148.26 255.469 149.104 255.469 150C255.469 150.917 255.292 151.781 254.938 152.594C254.604 153.385 254.135 154.083 253.531 154.688C252.948 155.271 252.25 155.729 251.438 156.062C250.646 156.417 249.792 156.594 248.875 156.594C247.958 156.594 247.104 156.417 246.312 156.062C245.521 155.729 244.823 155.271 244.219 154.688C243.635 154.083 243.167 153.385 242.812 152.594C242.479 151.781 242.312 150.917 242.312 150ZM242.312 127.75C242.312 126.833 242.479 125.979 242.812 125.188C243.167 124.375 243.635 123.677 244.219 123.094C244.823 122.49 245.521 122.021 246.312 121.688C247.104 121.333 247.958 121.156 248.875 121.156C249.792 121.156 250.646 121.333 251.438 121.688C252.25 122.021 252.948 122.49 253.531 123.094C254.135 123.677 254.604 124.375 254.938 125.188C255.292 125.979 255.469 126.833 255.469 127.75C255.469 128.667 255.292 129.521 254.938 130.312C254.604 131.104 254.135 131.802 253.531 132.406C252.948 132.99 252.25 133.458 251.438 133.812C250.646 134.146 249.792 134.312 248.875 134.312C247.958 134.312 247.104 134.146 246.312 133.812C245.521 133.458 244.823 132.99 244.219 132.406C243.635 131.802 243.167 131.104 242.812 130.312C242.479 129.521 242.312 128.667 242.312 127.75ZM296 131.562C295.833 132.5 295.708 133.427 295.625 134.344C295.562 135.24 295.531 136.156 295.531 137.094C295.531 138.906 295.688 140.719 296 142.531C295.521 142.302 295.01 142.094 294.469 141.906C293.927 141.719 293.385 141.542 292.844 141.375C293.073 143.75 293.375 146.073 293.75 148.344C294.146 150.594 294.635 152.75 295.219 154.812C294.802 154.771 294.323 154.729 293.781 154.688C293.302 154.646 292.719 154.615 292.031 154.594C291.365 154.573 290.594 154.562 289.719 154.562C288.052 154.562 286.094 154.635 283.844 154.781C281.615 154.927 279.198 155.208 276.594 155.625C276.969 154.854 277.302 153.896 277.594 152.75C277.885 151.604 278.135 150.375 278.344 149.062C278.573 147.729 278.75 146.344 278.875 144.906C279.021 143.469 279.135 142.073 279.219 140.719C278.802 140.74 278.073 140.729 277.031 140.688C275.99 140.646 274.688 140.646 273.125 140.688C271.583 140.729 269.823 140.844 267.844 141.031C265.865 141.219 263.729 141.542 261.438 142C262.479 138.792 263.448 135.823 264.344 133.094C265.24 130.365 266.052 127.74 266.781 125.219C267.51 122.698 268.135 120.208 268.656 117.75C269.177 115.292 269.583 112.729 269.875 110.062C273.896 110.417 277.896 110.573 281.875 110.531C285.854 110.469 289.854 110.271 293.875 109.938C293.396 112.292 293.01 115.115 292.719 118.406C292.427 121.677 292.281 125.188 292.281 128.938V132.719C292.99 132.552 293.656 132.385 294.281 132.219C294.906 132.052 295.479 131.833 296 131.562ZM279.531 133.625C279.531 133.083 279.521 132.365 279.5 131.469C279.5 130.573 279.479 129.562 279.438 128.438C279.417 127.312 279.385 126.104 279.344 124.812C279.302 123.5 279.24 122.167 279.156 120.812C278.219 122.625 277.469 124.615 276.906 126.781C276.344 128.948 275.833 131.167 275.375 133.438C275.854 133.479 276.281 133.51 276.656 133.531C277.031 133.552 277.375 133.573 277.688 133.594C278 133.594 278.302 133.604 278.594 133.625C278.885 133.625 279.198 133.625 279.531 133.625ZM318 123.5C318.625 123.521 319.531 123.583 320.719 123.688C321.927 123.792 323.24 124.031 324.656 124.406C326.073 124.781 327.521 125.333 329 126.062C330.479 126.771 331.823 127.76 333.031 129.031C334.24 130.281 335.229 131.854 336 133.75C336.771 135.625 337.156 137.906 337.156 140.594C337.156 143.073 336.781 145.333 336.031 147.375C335.302 149.396 334.188 151.125 332.688 152.562C331.208 154 329.333 155.104 327.062 155.875C324.812 156.667 322.156 157.062 319.094 157.062C316.406 157.062 314.062 156.677 312.062 155.906C310.062 155.156 308.396 154.146 307.062 152.875C305.729 151.604 304.729 150.156 304.062 148.531C303.417 146.885 303.094 145.198 303.094 143.469C303.094 142.198 303.302 141.094 303.719 140.156C304.135 139.198 304.708 138.406 305.438 137.781C306.188 137.135 307.052 136.656 308.031 136.344C309.031 136.031 310.094 135.875 311.219 135.875C312.094 135.875 312.948 135.969 313.781 136.156C314.635 136.344 315.427 136.625 316.156 137C316.906 137.354 317.573 137.792 318.156 138.312C318.76 138.833 319.24 139.427 319.594 140.094C319.156 139.969 318.781 139.906 318.469 139.906C318.177 139.906 317.885 139.979 317.594 140.125C317.323 140.25 317.073 140.427 316.844 140.656C316.615 140.885 316.427 141.156 316.281 141.469C316.156 141.76 316.094 142.073 316.094 142.406C316.094 142.76 316.156 143.135 316.281 143.531C316.427 143.906 316.635 144.25 316.906 144.562C317.198 144.875 317.552 145.135 317.969 145.344C318.406 145.552 318.906 145.656 319.469 145.656C320.823 145.656 321.823 145.24 322.469 144.406C323.115 143.552 323.438 142.438 323.438 141.062C323.438 139.854 323.135 138.792 322.531 137.875C321.927 136.938 321.135 136.156 320.156 135.531C319.177 134.885 318.062 134.385 316.812 134.031C315.562 133.656 314.292 133.417 313 133.312C311.729 133.188 310.479 133.198 309.25 133.344C308.021 133.469 306.948 133.708 306.031 134.062C306.031 134 306.021 133.656 306 133.031C306 132.406 305.99 131.604 305.969 130.625C305.948 129.625 305.917 128.49 305.875 127.219C305.833 125.948 305.771 124.635 305.688 123.281C305.625 121.906 305.542 120.531 305.438 119.156C305.333 117.76 305.198 116.458 305.031 115.25C304.885 114.021 304.708 112.927 304.5 111.969C304.312 110.99 304.083 110.229 303.812 109.688C305.812 110.104 307.844 110.406 309.906 110.594C311.969 110.76 314.01 110.844 316.031 110.844C318.344 110.844 320.594 110.771 322.781 110.625C324.99 110.458 326.958 110.271 328.688 110.062C330.708 109.833 332.615 109.562 334.406 109.25V125.812C333.281 124.854 332.125 124.052 330.938 123.406C329.771 122.74 328.615 122.208 327.469 121.812C326.344 121.417 325.26 121.135 324.219 120.969C323.177 120.781 322.24 120.688 321.406 120.688H318.25L318 123.5Z" fill="#FEFB54"/>
<path d="M116.688 586.082V546.625H132.438C139.438 546.625 144.032 550.535 144.032 556.496V556.551C144.032 560.707 140.887 564.562 136.731 565.164V565.273C142.336 565.848 145.973 569.703 145.973 574.898V574.953C145.973 581.871 140.915 586.082 132.52 586.082H116.688ZM130.961 551.629H122.813V563.441H129.594C135.008 563.441 137.934 561.254 137.934 557.289V557.234C137.934 553.625 135.391 551.629 130.961 551.629ZM130.852 568.172H122.813V581.078H131.262C136.758 581.078 139.711 578.863 139.711 574.652V574.598C139.711 570.359 136.704 568.172 130.852 568.172ZM160.249 586.082V552.695H160.112L149.803 559.805V554.008L160.194 546.625H166.237V586.082H160.249ZM200.202 586.738C191.78 586.738 186.284 582.145 185.737 575.719L185.71 575.363H191.589L191.616 575.664C191.999 579.164 195.308 581.625 200.202 581.625C205.015 581.625 208.269 578.945 208.269 575.117V575.062C208.269 570.605 205.042 568.117 199.765 568.117H194.98V563.359H199.601C204.112 563.359 207.175 560.707 207.175 557.043V556.988C207.175 553.188 204.605 550.973 200.148 550.973C195.773 550.973 192.71 553.27 192.327 556.934L192.3 557.18H186.558L186.585 556.906C187.187 550.316 192.437 545.969 200.148 545.969C207.995 545.969 213.136 550.125 213.136 556.195V556.25C213.136 561.145 209.636 564.426 204.823 565.438V565.574C210.62 566.094 214.503 569.594 214.503 575.117V575.172C214.503 581.926 208.569 586.738 200.202 586.738ZM229.9 586.082V552.695H229.763L219.454 559.805V554.008L229.845 546.625H235.888V586.082H229.9ZM258.886 586.738C250.464 586.738 244.968 582.145 244.421 575.719L244.394 575.363H250.273L250.3 575.664C250.683 579.164 253.992 581.625 258.886 581.625C263.699 581.625 266.953 578.945 266.953 575.117V575.062C266.953 570.605 263.726 568.117 258.449 568.117H253.664V563.359H258.285C262.796 563.359 265.859 560.707 265.859 557.043V556.988C265.859 553.188 263.289 550.973 258.832 550.973C254.457 550.973 251.394 553.27 251.011 556.934L250.984 557.18H245.242L245.269 556.906C245.871 550.316 251.121 545.969 258.832 545.969C266.679 545.969 271.82 550.125 271.82 556.195V556.25C271.82 561.145 268.32 564.426 263.507 565.438V565.574C269.304 566.094 273.187 569.594 273.187 575.117V575.172C273.187 581.926 267.253 586.738 258.886 586.738Z" fill="white" fill-opacity="0.8"/>
<rect x="20.75" y="690.93" width="348.5" height="63.3203" rx="31.6602" stroke="white" stroke-width="1.5"/>
<path d="M220.508 712.973L227.895 720.36C228.233 720.698 228.233 721.247 227.895 721.586L220.508 728.973" stroke="white" stroke-opacity="0.8" stroke-width="1.6" stroke-linecap="round"/>
<path d="M235.439 712.973L242.827 720.36C243.165 720.698 243.165 721.247 242.827 721.586L235.439 728.973" stroke="white" stroke-opacity="0.6" stroke-width="1.6" stroke-linecap="round"/>
<path d="M250.373 712.973L257.76 720.36C258.099 720.698 258.099 721.247 257.76 721.586L250.373 728.973" stroke="white" stroke-opacity="0.4" stroke-width="1.6" stroke-linecap="round"/>
<path d="M129.372 724.293C129.359 724.186 129.319 724.046 129.252 723.873C129.185 723.686 129.119 723.499 129.052 723.313C128.999 723.126 128.939 722.966 128.872 722.833C129.099 722.793 129.339 722.659 129.592 722.433C129.845 722.193 130.132 721.893 130.452 721.533C130.625 721.359 130.879 721.066 131.212 720.653C131.559 720.239 131.939 719.753 132.352 719.193C132.765 718.633 133.185 718.026 133.612 717.373C134.039 716.719 134.432 716.059 134.792 715.393L136.172 716.233C135.319 717.566 134.399 718.866 133.412 720.133C132.425 721.399 131.432 722.513 130.432 723.473V723.513C130.432 723.513 130.379 723.539 130.272 723.593C130.165 723.633 130.039 723.693 129.892 723.773C129.759 723.853 129.639 723.939 129.532 724.033C129.425 724.126 129.372 724.213 129.372 724.293ZM129.372 724.293L129.312 723.033L130.092 722.513L136.072 721.533C136.059 721.733 136.059 721.966 136.072 722.233C136.099 722.486 136.125 722.693 136.152 722.853C134.752 723.106 133.625 723.313 132.772 723.473C131.932 723.633 131.285 723.759 130.832 723.853C130.392 723.946 130.065 724.026 129.852 724.093C129.652 724.159 129.492 724.226 129.372 724.293ZM129.232 719.433C129.205 719.326 129.159 719.179 129.092 718.993C129.039 718.806 128.979 718.619 128.912 718.433C128.845 718.233 128.779 718.066 128.712 717.933C128.899 717.893 129.085 717.766 129.272 717.553C129.459 717.339 129.652 717.073 129.852 716.753C129.972 716.593 130.139 716.333 130.352 715.973C130.565 715.599 130.805 715.159 131.072 714.653C131.339 714.146 131.599 713.606 131.852 713.033C132.119 712.459 132.352 711.879 132.552 711.293L134.092 711.933C133.745 712.733 133.359 713.533 132.932 714.333C132.519 715.119 132.085 715.879 131.632 716.613C131.179 717.333 130.719 717.986 130.252 718.573V718.613C130.252 718.613 130.199 718.639 130.092 718.693C129.999 718.746 129.879 718.819 129.732 718.913C129.599 718.993 129.479 719.079 129.372 719.173C129.279 719.266 129.232 719.353 129.232 719.433ZM129.232 719.433L129.212 718.313L129.972 717.833L134.192 717.473C134.152 717.659 134.119 717.873 134.092 718.113C134.065 718.353 134.052 718.553 134.052 718.713C133.105 718.819 132.332 718.913 131.732 718.993C131.132 719.059 130.665 719.119 130.332 719.173C130.012 719.226 129.772 719.273 129.612 719.313C129.452 719.353 129.325 719.393 129.232 719.433ZM128.812 726.913C129.439 726.806 130.145 726.679 130.932 726.533C131.732 726.373 132.572 726.206 133.452 726.033C134.345 725.846 135.232 725.666 136.112 725.493L136.232 726.873C134.979 727.166 133.719 727.446 132.452 727.713C131.199 727.979 130.072 728.226 129.072 728.453L128.812 726.913ZM136.272 713.853H146.972V715.293H136.272V713.853ZM136.772 718.413H146.632V719.853H136.772V718.413ZM138.112 727.333H145.352V728.693H138.112V727.333ZM140.892 711.153H142.432V719.153H140.892V711.153ZM137.292 721.893H146.132V729.473H144.632V723.253H138.752V729.553H137.292V721.893ZM149.224 713.293H166.244V714.713H149.224V713.293ZM156.904 711.193H158.444V729.573H156.904V711.193ZM156.744 721.853L158.004 722.433C157.524 723.113 156.957 723.773 156.304 724.413C155.664 725.053 154.971 725.659 154.224 726.233C153.477 726.793 152.704 727.299 151.904 727.753C151.104 728.206 150.317 728.593 149.544 728.913C149.477 728.779 149.377 728.633 149.244 728.473C149.124 728.326 148.997 728.179 148.864 728.033C148.744 727.886 148.624 727.759 148.504 727.653C149.277 727.386 150.057 727.053 150.844 726.653C151.644 726.239 152.404 725.779 153.124 725.273C153.857 724.753 154.531 724.206 155.144 723.633C155.771 723.046 156.304 722.453 156.744 721.853ZM158.704 721.893C159.291 722.693 160.031 723.466 160.924 724.213C161.817 724.959 162.791 725.633 163.844 726.233C164.911 726.819 165.971 727.286 167.024 727.633C166.917 727.739 166.791 727.866 166.644 728.013C166.511 728.159 166.384 728.313 166.264 728.473C166.144 728.646 166.037 728.799 165.944 728.933C164.891 728.519 163.831 727.979 162.764 727.313C161.711 726.646 160.724 725.899 159.804 725.073C158.884 724.233 158.104 723.359 157.464 722.453L158.704 721.893ZM152.044 718.233V721.313H163.344V718.233H152.044ZM150.604 716.893H164.884V722.653H150.604V716.893ZM173.576 713.113H186.396V714.433H173.576V713.113ZM179.156 711.253H180.656V713.733H179.156V711.253ZM176.576 716.613V718.453H183.356V716.613H176.576ZM175.136 715.533H184.856V719.553H175.136V715.533ZM173.256 720.693H186.596V724.133H185.196V721.913H174.596V724.153H173.256V720.693ZM175.536 723.253H184.456V724.513H175.536V723.253ZM179.156 723.533H180.656V727.953C180.656 728.366 180.603 728.679 180.496 728.893C180.389 729.106 180.176 729.266 179.856 729.373C179.536 729.479 179.116 729.539 178.596 729.553C178.076 729.579 177.436 729.593 176.676 729.593C176.649 729.393 176.589 729.166 176.496 728.913C176.416 728.659 176.323 728.433 176.216 728.233C176.616 728.246 176.989 728.253 177.336 728.253C177.683 728.266 177.983 728.266 178.236 728.253C178.489 728.253 178.669 728.253 178.776 728.253C178.936 728.239 179.036 728.213 179.076 728.173C179.129 728.133 179.156 728.053 179.156 727.933V723.533ZM172.576 711.253L173.996 711.673C173.569 712.806 173.063 713.926 172.476 715.033C171.889 716.126 171.256 717.159 170.576 718.133C169.896 719.106 169.189 719.966 168.456 720.713C168.416 720.593 168.343 720.439 168.236 720.253C168.143 720.066 168.036 719.879 167.916 719.693C167.809 719.493 167.709 719.339 167.616 719.233C168.283 718.579 168.923 717.826 169.536 716.973C170.149 716.119 170.716 715.206 171.236 714.233C171.756 713.246 172.203 712.253 172.576 711.253ZM170.496 716.393L171.916 714.973L171.936 714.993V729.533H170.496V716.393ZM188.428 714.073H205.368V715.533H188.428V714.073ZM188.108 724.293H205.728V725.773H188.108V724.293ZM197.028 716.773H198.608V729.573H197.028V716.773ZM190.248 721.553C190.221 721.433 190.175 721.279 190.108 721.093C190.041 720.906 189.968 720.713 189.888 720.513C189.821 720.313 189.755 720.139 189.688 719.993C189.901 719.939 190.121 719.773 190.348 719.493C190.575 719.213 190.821 718.853 191.088 718.413C191.235 718.186 191.441 717.833 191.708 717.353C191.988 716.859 192.295 716.273 192.628 715.593C192.975 714.913 193.315 714.186 193.648 713.413C193.981 712.626 194.281 711.846 194.548 711.073L196.248 711.533C195.795 712.653 195.295 713.766 194.748 714.873C194.201 715.966 193.641 717.006 193.068 717.993C192.495 718.966 191.915 719.839 191.328 720.613V720.673C191.328 720.673 191.275 720.706 191.168 720.773C191.061 720.826 190.935 720.899 190.788 720.993C190.641 721.073 190.515 721.166 190.408 721.273C190.301 721.366 190.248 721.459 190.248 721.553ZM190.248 721.553V720.353L191.208 719.833H204.048V721.253H192.408C192.008 721.253 191.655 721.266 191.348 721.293C191.055 721.319 190.815 721.353 190.628 721.393C190.441 721.433 190.315 721.486 190.248 721.553Z" fill="white"/>
<path d="M259.572 659.266H274.041" stroke="white" stroke-width="1.17" stroke-linecap="round" stroke-linejoin="round"/>
<path d="M259.572 673.734H274.041" stroke="white" stroke-width="1.17" stroke-linecap="round" stroke-linejoin="round"/>
<path d="M261.348 659.266C261.348 661.949 262.578 664.484 264.686 666.145L265.137 666.5" stroke="white" stroke-width="1.17" stroke-linecap="round" stroke-linejoin="round"/>
<path d="M272.265 673.736V673.584C272.265 670.602 270.924 667.65 268.477 665.945" stroke="white" stroke-width="1.17" stroke-linecap="round" stroke-linejoin="round"/>
<path d="M261.348 673.735V672.178C261.348 669.791 262.399 667.525 264.222 665.984" stroke="white" stroke-width="1.17" stroke-linecap="round" stroke-linejoin="round"/>
<path d="M272.265 659.266V659.494C272.265 661.966 271.221 664.322 269.391 665.983" stroke="white" stroke-width="1.17" stroke-linecap="round" stroke-linejoin="round"/>
<line x1="265.065" y1="663.255" x2="268.546" y2="663.255" stroke="white" stroke-width="1.17" stroke-linecap="round"/>
<path d="M266.807 664.949V661.508" stroke="white" stroke-width="1.17" stroke-linecap="round"/>
<path d="M277.756 669.354C277.735 669.268 277.703 669.162 277.66 669.034C277.618 668.906 277.57 668.772 277.516 668.634C277.474 668.495 277.431 668.378 277.388 668.282C277.559 668.25 277.74 668.138 277.932 667.946C278.124 667.754 278.338 667.514 278.572 667.226C278.7 667.076 278.892 666.836 279.148 666.506C279.404 666.175 279.687 665.78 279.996 665.322C280.316 664.852 280.636 664.356 280.956 663.834C281.276 663.3 281.575 662.762 281.852 662.218L282.828 662.794C282.21 663.892 281.532 664.964 280.796 666.01C280.06 667.044 279.308 667.951 278.54 668.73V668.762C278.54 668.762 278.498 668.783 278.412 668.826C278.338 668.858 278.247 668.906 278.14 668.97C278.044 669.023 277.954 669.087 277.868 669.162C277.794 669.226 277.756 669.29 277.756 669.354ZM277.756 669.354L277.692 668.394L278.268 667.978L282.604 667.194C282.594 667.354 282.588 667.53 282.588 667.722C282.588 667.914 282.594 668.074 282.604 668.202C281.602 668.404 280.796 668.57 280.188 668.698C279.591 668.826 279.127 668.932 278.796 669.018C278.476 669.092 278.242 669.156 278.092 669.21C277.943 669.252 277.831 669.3 277.756 669.354ZM277.644 665.498C277.623 665.412 277.591 665.3 277.548 665.162C277.506 665.023 277.458 664.884 277.404 664.746C277.362 664.596 277.314 664.474 277.26 664.378C277.399 664.346 277.538 664.239 277.676 664.058C277.815 663.876 277.964 663.647 278.124 663.37C278.22 663.231 278.348 663.012 278.508 662.714C278.679 662.404 278.86 662.042 279.052 661.626C279.255 661.199 279.452 660.746 279.644 660.266C279.847 659.775 280.018 659.29 280.156 658.81L281.292 659.322C281.036 659.972 280.748 660.634 280.428 661.306C280.119 661.967 279.788 662.602 279.436 663.21C279.084 663.807 278.732 664.351 278.38 664.842V664.874C278.38 664.874 278.343 664.895 278.268 664.938C278.194 664.98 278.108 665.034 278.012 665.098C277.916 665.162 277.831 665.231 277.756 665.306C277.682 665.37 277.644 665.434 277.644 665.498ZM277.644 665.498L277.628 664.618L278.172 664.266L281.1 663.962C281.079 664.111 281.058 664.282 281.036 664.474C281.026 664.655 281.02 664.804 281.02 664.922C280.359 665.007 279.82 665.082 279.404 665.146C278.988 665.199 278.663 665.247 278.428 665.29C278.204 665.332 278.034 665.37 277.916 665.402C277.799 665.434 277.708 665.466 277.644 665.498ZM277.356 671.354C278.018 671.215 278.823 671.039 279.772 670.826C280.732 670.612 281.708 670.394 282.7 670.17L282.796 671.178C281.879 671.402 280.962 671.631 280.044 671.866C279.127 672.09 278.306 672.292 277.58 672.474L277.356 671.354ZM284.876 663.93H291.804V664.97H284.876V663.93ZM287.788 658.954H288.812V671.018H287.788V658.954ZM287.708 664.298L288.412 664.57C288.199 665.199 287.932 665.85 287.612 666.522C287.303 667.183 286.956 667.807 286.572 668.394C286.199 668.97 285.815 669.444 285.42 669.818C285.367 669.679 285.287 669.514 285.18 669.322C285.074 669.119 284.978 668.954 284.892 668.826C285.244 668.495 285.602 668.079 285.964 667.578C286.327 667.076 286.658 666.543 286.956 665.978C287.266 665.402 287.516 664.842 287.708 664.298ZM290.556 659.946L291.532 660.234C291.319 660.746 291.084 661.279 290.828 661.834C290.583 662.388 290.354 662.863 290.14 663.258L289.388 662.986C289.527 662.708 289.666 662.394 289.804 662.042C289.954 661.679 290.092 661.316 290.22 660.954C290.359 660.58 290.471 660.244 290.556 659.946ZM285.164 660.186L285.98 659.962C286.108 660.282 286.242 660.628 286.38 661.002C286.519 661.364 286.642 661.722 286.748 662.074C286.866 662.415 286.951 662.719 287.004 662.986L286.14 663.258C286.055 662.842 285.916 662.351 285.724 661.786C285.543 661.21 285.356 660.676 285.164 660.186ZM288.716 664.81C288.834 664.927 288.994 665.108 289.196 665.354C289.41 665.599 289.639 665.876 289.884 666.186C290.14 666.484 290.391 666.788 290.636 667.098C290.892 667.396 291.116 667.674 291.308 667.93C291.5 668.175 291.644 668.356 291.74 668.474L290.988 669.306C290.882 669.114 290.738 668.879 290.556 668.602C290.375 668.324 290.172 668.026 289.948 667.706C289.724 667.386 289.495 667.071 289.26 666.762C289.036 666.452 288.823 666.17 288.62 665.914C288.428 665.647 288.268 665.434 288.14 665.274L288.716 664.81ZM283.324 659.466H284.428V671.626H291.932V672.698H283.324V659.466ZM299.284 660.314H306.436V661.338H299.284V660.314ZM302.18 658.826H303.364V663.258H302.18V658.826ZM299.86 665.034L300.42 664.442C300.772 664.623 301.14 664.847 301.524 665.114C301.908 665.38 302.202 665.626 302.404 665.85L301.828 666.522C301.615 666.298 301.322 666.047 300.948 665.77C300.575 665.492 300.212 665.247 299.86 665.034ZM298.692 666.49L299.268 665.866C299.631 666.058 300.01 666.298 300.404 666.586C300.799 666.863 301.108 667.119 301.332 667.354L300.74 668.042C300.538 667.807 300.239 667.546 299.844 667.258C299.45 666.959 299.066 666.703 298.692 666.49ZM298.692 662.778H306.388V663.818H298.692V662.778ZM306.132 662.778H306.308L306.5 662.73L307.268 662.922C307.098 663.455 306.916 663.999 306.724 664.554C306.532 665.108 306.34 665.578 306.148 665.962L305.188 665.706C305.348 665.354 305.514 664.922 305.684 664.41C305.866 663.898 306.015 663.412 306.132 662.954V662.778ZM298.356 668.25H307.3V669.306H298.356V668.25ZM302.644 664.442H303.764V666.378C303.764 666.964 303.711 667.578 303.604 668.218C303.498 668.858 303.279 669.498 302.948 670.138C302.618 670.767 302.116 671.375 301.444 671.962C300.783 672.548 299.887 673.087 298.756 673.578C298.714 673.482 298.65 673.38 298.564 673.274C298.49 673.167 298.404 673.06 298.308 672.954C298.212 672.847 298.127 672.756 298.052 672.682C299.098 672.244 299.924 671.764 300.532 671.242C301.151 670.719 301.61 670.175 301.908 669.61C302.218 669.044 302.415 668.484 302.5 667.93C302.596 667.375 302.644 666.847 302.644 666.346V664.442ZM303.3 670.586L304.036 669.93C304.452 670.207 304.884 670.516 305.332 670.858C305.791 671.199 306.218 671.546 306.612 671.898C307.018 672.239 307.343 672.548 307.588 672.826L306.804 673.578C306.57 673.3 306.255 672.98 305.86 672.618C305.466 672.266 305.044 671.914 304.596 671.562C304.159 671.199 303.727 670.874 303.3 670.586ZM293.364 669.354C293.343 669.279 293.311 669.178 293.268 669.05C293.226 668.922 293.178 668.794 293.124 668.666C293.082 668.527 293.044 668.415 293.012 668.33C293.172 668.287 293.343 668.17 293.524 667.978C293.716 667.786 293.93 667.54 294.164 667.242C294.292 667.092 294.474 666.852 294.708 666.522C294.954 666.191 295.226 665.796 295.524 665.338C295.834 664.868 296.143 664.367 296.452 663.834C296.762 663.3 297.039 662.762 297.284 662.218L298.228 662.762C297.652 663.86 297.007 664.938 296.292 665.994C295.578 667.039 294.858 667.956 294.132 668.746V668.778C294.132 668.778 294.095 668.799 294.02 668.842C293.946 668.874 293.855 668.922 293.748 668.986C293.642 669.039 293.551 669.098 293.476 669.162C293.402 669.226 293.364 669.29 293.364 669.354ZM293.364 669.354L293.268 668.346L293.812 667.93L297.876 666.922C297.876 667.082 297.882 667.263 297.892 667.466C297.903 667.658 297.919 667.812 297.94 667.93C297.002 668.186 296.244 668.394 295.668 668.554C295.103 668.714 294.666 668.842 294.356 668.938C294.047 669.034 293.823 669.114 293.684 669.178C293.546 669.242 293.439 669.3 293.364 669.354ZM293.252 665.498C293.231 665.423 293.199 665.322 293.156 665.194C293.114 665.055 293.066 664.916 293.012 664.778C292.97 664.639 292.927 664.522 292.884 664.426C293.023 664.394 293.167 664.292 293.316 664.122C293.466 663.94 293.626 663.711 293.796 663.434C293.882 663.295 294.01 663.071 294.18 662.762C294.362 662.452 294.559 662.09 294.772 661.674C294.986 661.247 295.199 660.794 295.412 660.314C295.626 659.823 295.812 659.338 295.972 658.858L297.012 659.338C296.746 659.999 296.447 660.666 296.116 661.338C295.786 661.999 295.434 662.634 295.06 663.242C294.687 663.839 294.314 664.383 293.94 664.874V664.906C293.94 664.906 293.903 664.927 293.828 664.97C293.764 665.002 293.684 665.05 293.588 665.114C293.503 665.178 293.423 665.247 293.348 665.322C293.284 665.386 293.252 665.444 293.252 665.498ZM293.252 665.498L293.22 664.634L293.78 664.266L296.548 663.994C296.527 664.132 296.506 664.298 296.484 664.49C296.474 664.682 296.468 664.836 296.468 664.954C295.839 665.028 295.327 665.098 294.932 665.162C294.548 665.215 294.244 665.263 294.02 665.306C293.796 665.338 293.626 665.37 293.508 665.402C293.402 665.434 293.316 665.466 293.252 665.498ZM292.964 671.338C293.583 671.135 294.324 670.879 295.188 670.57C296.063 670.26 296.954 669.946 297.86 669.626L298.052 670.618C297.21 670.938 296.367 671.258 295.524 671.578C294.682 671.898 293.919 672.191 293.236 672.458L292.964 671.338ZM312.892 660.378H323.148V661.434H312.892V660.378ZM317.356 658.89H318.556V660.874H317.356V658.89ZM315.292 663.178V664.65H320.716V663.178H315.292ZM314.14 662.314H321.916V665.53H314.14V662.314ZM312.636 666.442H323.308V669.194H322.188V667.418H313.708V669.21H312.636V666.442ZM314.46 668.49H321.596V669.498H314.46V668.49ZM317.356 668.714H318.556V672.25C318.556 672.58 318.514 672.831 318.428 673.002C318.343 673.172 318.172 673.3 317.916 673.386C317.66 673.471 317.324 673.519 316.908 673.53C316.492 673.551 315.98 673.562 315.372 673.562C315.351 673.402 315.303 673.22 315.228 673.018C315.164 672.815 315.09 672.634 315.004 672.474C315.324 672.484 315.623 672.49 315.9 672.49C316.178 672.5 316.418 672.5 316.62 672.49C316.823 672.49 316.967 672.49 317.052 672.49C317.18 672.479 317.26 672.458 317.292 672.426C317.335 672.394 317.356 672.33 317.356 672.234V668.714ZM312.092 658.89L313.228 659.226C312.887 660.132 312.482 661.028 312.012 661.914C311.543 662.788 311.036 663.615 310.492 664.394C309.948 665.172 309.383 665.86 308.796 666.458C308.764 666.362 308.706 666.239 308.62 666.09C308.546 665.94 308.46 665.791 308.364 665.642C308.279 665.482 308.199 665.359 308.124 665.274C308.658 664.751 309.17 664.148 309.66 663.466C310.151 662.783 310.604 662.052 311.02 661.274C311.436 660.484 311.794 659.69 312.092 658.89ZM310.428 663.002L311.564 661.866L311.58 661.882V673.514H310.428V663.002ZM324.692 661.146H338.244V662.314H324.692V661.146ZM324.436 669.322H338.532V670.506H324.436V669.322ZM331.572 663.306H332.836V673.546H331.572V663.306ZM326.148 667.13C326.127 667.034 326.09 666.911 326.036 666.762C325.983 666.612 325.924 666.458 325.86 666.298C325.807 666.138 325.754 665.999 325.7 665.882C325.871 665.839 326.047 665.706 326.228 665.482C326.41 665.258 326.607 664.97 326.82 664.618C326.938 664.436 327.103 664.154 327.316 663.77C327.54 663.375 327.786 662.906 328.052 662.362C328.33 661.818 328.602 661.236 328.868 660.618C329.135 659.988 329.375 659.364 329.588 658.746L330.948 659.114C330.586 660.01 330.186 660.9 329.748 661.786C329.311 662.66 328.863 663.492 328.404 664.282C327.946 665.06 327.482 665.759 327.012 666.378V666.426C327.012 666.426 326.97 666.452 326.884 666.506C326.799 666.548 326.698 666.607 326.58 666.682C326.463 666.746 326.362 666.82 326.276 666.906C326.191 666.98 326.148 667.055 326.148 667.13ZM326.148 667.13V666.17L326.916 665.754H337.188V666.89H327.876C327.556 666.89 327.274 666.9 327.028 666.922C326.794 666.943 326.602 666.97 326.452 667.002C326.303 667.034 326.202 667.076 326.148 667.13Z" fill="white"/>
<path d="M31.5864 65.6767C34.1852 65.6767 36.2919 63.57 36.2919 60.9712C36.2919 58.3724 34.1852 56.2656 31.5864 56.2656C28.9876 56.2656 26.8809 58.3724 26.8809 60.9712C26.8809 63.57 28.9876 65.6767 31.5864 65.6767Z" stroke="white" stroke-width="1.6" stroke-linecap="round" stroke-linejoin="round"/>
<path d="M42.1749 79.7945C42.1749 73.9472 37.4347 69.207 31.5875 69.207C25.7402 69.207 21 73.9472 21 79.7945" stroke="white" stroke-width="1.6" stroke-linecap="round" stroke-linejoin="round"/>
<path d="M359.518 70.9908V64.9297" stroke="white" stroke-width="1.6" stroke-linecap="round"/>
<path d="M353.562 56.2656H365.473" stroke="white" stroke-width="1.6" stroke-linecap="round"/>
<circle cx="359.518" cy="69.8031" r="9.70619" stroke="white" stroke-width="1.6"/>
<rect x="128" y="831" width="134" height="5" rx="2.5" fill="black"/>
<g clip-path="url(#clip1_309_4486)">
<path d="M117.768 -2H272.184V13C272.184 22.3888 264.572 30 255.184 30H134.768C125.379 30 117.768 22.3888 117.768 13V-2Z" fill="black"/>
<path d="M118 -2H113C113 -2 113 -2 113 -2C115.651 -2 117.799 0.148747 117.799 2.79934C117.799 2.86656 117.798 2.93345 117.795 3H118V-2Z" fill="black"/>
<path d="M272 -2H277C277 -2 277 -2 277 -2C274.349 -2 272.201 0.148747 272.201 2.79934C272.201 2.86656 272.202 2.93345 272.205 3H272V-2Z" fill="black"/>
<path d="M42.3849 19.8062C45.6472 19.8062 47.631 22.1055 47.631 25.9653V25.9819C47.631 29.8501 45.6306 32.2158 42.4099 32.2158C39.9362 32.2158 38.0851 30.7798 37.7448 28.8706L37.7282 28.8042H40.7082L40.7331 28.8623C40.9987 29.4434 41.5632 29.875 42.4099 29.875C43.9123 29.875 44.6096 28.4639 44.7175 26.563C44.7258 26.3721 44.7341 26.1729 44.7341 25.9985H44.676C44.2028 27.1357 43.0573 27.9243 41.4387 27.9243C39.1061 27.9243 37.5788 26.3057 37.5788 24.0811V24.0645C37.5788 21.5659 39.6208 19.8062 42.3849 19.8062ZM42.4099 25.791C43.4973 25.791 44.3439 25.0439 44.3439 23.9814V23.9731C44.3439 22.9355 43.5056 22.1553 42.4348 22.1553C41.3723 22.1553 40.509 22.9355 40.509 23.9482V23.9648C40.509 25.0439 41.3391 25.791 42.4099 25.791ZM50.0204 24.7451C49.1571 24.7451 48.4682 24.0645 48.4682 23.1929C48.4682 22.3296 49.1571 21.6406 50.0204 21.6406C50.892 21.6406 51.581 22.3296 51.581 23.1929C51.581 24.0645 50.892 24.7451 50.0204 24.7451ZM50.0204 30.3813C49.1571 30.3813 48.4682 29.6924 48.4682 28.8291C48.4682 27.9575 49.1571 27.2686 50.0204 27.2686C50.892 27.2686 51.581 27.9575 51.581 28.8291C51.581 29.6924 50.892 30.3813 50.0204 30.3813ZM58.2784 32V29.958H52.36V27.4761L56.9254 20.022H61.1588V27.5923H62.6778V29.958H61.1588V32H58.2784ZM54.9083 27.7002H58.3614V22.1221H58.295L54.9083 27.6172V27.7002ZM66.3787 32V22.6948H66.3206L63.324 24.7036V22.0972L66.3704 20.022H69.4085V32H66.3787Z" fill="white"/>
<path opacity="0.35" d="M340 19.5273H357C358.918 19.5273 360.473 21.0822 360.473 23V28C360.473 29.9178 358.918 31.4727 357 31.4727H340C338.082 31.4727 336.527 29.9178 336.527 28V23C336.527 21.0822 338.082 19.5273 340 19.5273Z" fill="white" stroke="white" stroke-width="1.05509"/>
<path opacity="0.4" d="M362 24V28.2203C362.849 27.8629 363.401 27.0314 363.401 26.1102C363.401 25.1889 362.849 24.3574 362 24Z" fill="white"/>
<path d="M338 23C338 21.8954 338.895 21 340 21H357C358.105 21 359 21.8954 359 23V28C359 29.1046 358.105 30 357 30H340C338.895 30 338 29.1046 338 28V23Z" fill="white"/>
<path fill-rule="evenodd" clip-rule="evenodd" d="M318.115 29.0848C319.535 27.8592 321.614 27.8593 323.034 29.0848C323.106 29.1507 323.147 29.2443 323.149 29.3426C323.151 29.4408 323.114 29.5355 323.045 29.6043L320.821 31.8943C320.756 31.9615 320.668 31.9997 320.575 31.9998C320.482 31.9998 320.393 31.9616 320.328 31.8943L318.104 29.6043C318.036 29.5354 317.998 29.4408 318 29.3426C318.002 29.2443 318.044 29.1506 318.115 29.0848ZM315.109 26.2615C318.168 23.3569 322.906 23.3569 325.965 26.2615C326.034 26.3296 326.073 26.4233 326.074 26.5213C326.075 26.6192 326.037 26.7136 325.97 26.783L324.685 28.1082C324.552 28.2435 324.338 28.2468 324.202 28.115C323.198 27.1866 321.891 26.6716 320.536 26.6717C319.182 26.6722 317.876 27.1871 316.872 28.115C316.736 28.2468 316.522 28.2435 316.39 28.1082L315.104 26.783C315.037 26.7137 314.999 26.6192 315 26.5213C315.001 26.4233 315.04 26.3296 315.109 26.2615ZM312.107 23.4422C316.799 18.8526 324.201 18.8526 328.893 23.4422C328.961 23.5104 328.999 23.6037 329 23.701C329 23.7981 328.963 23.8918 328.896 23.9607L327.609 25.2859C327.477 25.4219 327.262 25.4236 327.127 25.2898C325.339 23.5551 322.967 22.5878 320.5 22.5877C318.033 22.5878 315.661 23.5551 313.873 25.2898C313.739 25.4237 313.523 25.4221 313.391 25.2859L312.104 23.9607C312.037 23.8918 312 23.798 312 23.701C312.001 23.6037 312.039 23.5103 312.107 23.4422Z" fill="white"/>
<path d="M287 28.5H288C288.276 28.5 288.5 28.7239 288.5 29V31C288.5 31.2761 288.276 31.5 288 31.5H287C286.724 31.5 286.5 31.2761 286.5 31V29C286.5 28.7239 286.724 28.5 287 28.5ZM292 26H293C293.276 26 293.5 26.2239 293.5 26.5V31C293.5 31.2761 293.276 31.5 293 31.5H292C291.724 31.5 291.5 31.2761 291.5 31V26.5C291.5 26.2239 291.724 26 292 26ZM297 22.5H298C298.276 22.5 298.5 22.7239 298.5 23V31C298.5 31.2761 298.276 31.5 298 31.5H297C296.724 31.5 296.5 31.2761 296.5 31V23C296.5 22.7239 296.724 22.5 297 22.5ZM302 20.5H303C303.276 20.5 303.5 20.7239 303.5 21V31C303.5 31.2761 303.276 31.5 303 31.5H302C301.724 31.5 301.5 31.2761 301.5 31V21C301.5 20.7239 301.724 20.5 302 20.5Z" fill="white" stroke="white"/>
</g>
</g>
<defs>
<clipPath id="clip0_309_4486">
<rect width="390" height="844" rx="16" fill="white"/>
</clipPath>
<clipPath id="clip1_309_4486">
<rect width="390" height="47" fill="white"/>
</clipPath>
</defs>
</svg>
