<svg width="390" height="844" viewBox="0 0 390 844" fill="none" xmlns="http://www.w3.org/2000/svg">
<g clip-path="url(#clip0_331_10569)">
<rect width="390" height="844" rx="12" fill="#186051"/>
<path d="M30.9731 65.6845C33.5719 65.6845 35.6787 63.5778 35.6787 60.979C35.6787 58.3802 33.5719 56.2734 30.9731 56.2734C28.3743 56.2734 26.2676 58.3802 26.2676 60.979C26.2676 63.5778 28.3743 65.6845 30.9731 65.6845Z" stroke="white" stroke-width="1.6" stroke-linecap="round" stroke-linejoin="round"/>
<path d="M41.5616 79.8023C41.5616 73.955 36.8215 69.2148 30.9742 69.2148C25.1269 69.2148 20.3867 73.955 20.3867 79.8023" stroke="white" stroke-width="1.6" stroke-linecap="round" stroke-linejoin="round"/>
<path d="M358.904 70.9987V64.9375" stroke="white" stroke-width="1.6" stroke-linecap="round"/>
<path d="M352.949 56.2734H364.859" stroke="white" stroke-width="1.6" stroke-linecap="round"/>
<circle cx="358.905" cy="69.8109" r="9.70619" stroke="white" stroke-width="1.6"/>
<rect x="20.6309" y="687.75" width="162.875" height="61.6758" rx="30.8379" stroke="white" stroke-width="1.5"/>
<path d="M69.5764 710.86H83.7244V712.138H69.5764V710.86ZM68.7484 710.86H70.1164V716.602C70.1164 717.334 70.0984 718.126 70.0624 718.978C70.0264 719.818 69.9484 720.682 69.8284 721.57C69.7204 722.458 69.5584 723.328 69.3424 724.18C69.1384 725.02 68.8564 725.788 68.4964 726.484C68.4244 726.412 68.3104 726.322 68.1544 726.214C68.0104 726.118 67.8604 726.022 67.7044 725.926C67.5484 725.842 67.4164 725.776 67.3084 725.728C67.6444 725.056 67.9084 724.336 68.1004 723.568C68.2924 722.788 68.4304 721.996 68.5144 721.192C68.6104 720.388 68.6704 719.596 68.6944 718.816C68.7304 718.024 68.7484 717.286 68.7484 716.602V710.86ZM71.2684 716.08H82.0144V717.358H71.2684V716.08ZM81.4564 716.08H82.8064C82.8064 716.08 82.8004 716.122 82.7884 716.206C82.7884 716.278 82.7884 716.368 82.7884 716.476C82.7884 716.572 82.7824 716.65 82.7704 716.71C82.6984 718.198 82.6204 719.47 82.5364 720.526C82.4644 721.57 82.3804 722.434 82.2844 723.118C82.1884 723.802 82.0744 724.342 81.9424 724.738C81.8224 725.122 81.6784 725.404 81.5104 725.584C81.3184 725.812 81.1144 725.968 80.8984 726.052C80.6944 726.148 80.4304 726.208 80.1064 726.232C79.8184 726.268 79.4224 726.28 78.9184 726.268C78.4264 726.256 77.9044 726.232 77.3524 726.196C77.3404 725.992 77.2924 725.764 77.2084 725.512C77.1364 725.26 77.0404 725.038 76.9204 724.846C77.4964 724.906 78.0304 724.942 78.5224 724.954C79.0264 724.966 79.3804 724.972 79.5844 724.972C79.7764 724.972 79.9264 724.96 80.0344 724.936C80.1424 724.9 80.2444 724.828 80.3404 724.72C80.4844 724.6 80.6104 724.36 80.7184 724C80.8264 723.64 80.9224 723.13 81.0064 722.47C81.0904 721.81 81.1684 720.976 81.2404 719.968C81.3124 718.96 81.3844 717.742 81.4564 716.314V716.08ZM75.5704 713.092H76.9564C76.9324 714.268 76.8784 715.402 76.7944 716.494C76.7224 717.574 76.5844 718.606 76.3804 719.59C76.1884 720.562 75.8944 721.474 75.4984 722.326C75.1024 723.166 74.5684 723.934 73.8964 724.63C73.2364 725.326 72.4024 725.932 71.3944 726.448C71.3104 726.292 71.1784 726.118 70.9984 725.926C70.8184 725.734 70.6504 725.578 70.4944 725.458C71.4544 724.99 72.2404 724.438 72.8524 723.802C73.4764 723.166 73.9624 722.458 74.3104 721.678C74.6704 720.886 74.9344 720.04 75.1024 719.14C75.2704 718.228 75.3844 717.268 75.4444 716.26C75.5044 715.24 75.5464 714.184 75.5704 713.092ZM92.6044 710.05H93.9904V717.61C93.9904 718.354 93.9364 719.086 93.8284 719.806C93.7324 720.514 93.5344 721.198 93.2344 721.858C92.9344 722.518 92.4844 723.136 91.8844 723.712C91.2964 724.288 90.5104 724.816 89.5264 725.296C88.5424 725.776 87.3184 726.19 85.8544 726.538C85.7944 726.43 85.7164 726.304 85.6204 726.16C85.5364 726.016 85.4404 725.866 85.3324 725.71C85.2364 725.554 85.1404 725.428 85.0444 725.332C86.4604 725.032 87.6304 724.678 88.5544 724.27C89.4904 723.862 90.2284 723.406 90.7684 722.902C91.3204 722.398 91.7224 721.864 91.9744 721.3C92.2384 720.724 92.4064 720.13 92.4784 719.518C92.5624 718.894 92.6044 718.258 92.6044 717.61V710.05ZM87.7984 714.136V717.484H98.8144V714.136H87.7984ZM86.4844 712.822H100.182V718.78H86.4844V712.822ZM88.5364 719.392C89.0884 720.508 89.7544 721.426 90.5344 722.146C91.3264 722.866 92.2504 723.43 93.3064 723.838C94.3744 724.246 95.5924 724.546 96.9604 724.738C98.3404 724.918 99.8944 725.044 101.622 725.116C101.49 725.284 101.364 725.494 101.244 725.746C101.124 726.01 101.04 726.262 100.992 726.502C99.2284 726.394 97.6324 726.214 96.2044 725.962C94.7764 725.722 93.4984 725.362 92.3704 724.882C91.2544 724.402 90.2764 723.76 89.4364 722.956C88.6084 722.14 87.9004 721.102 87.3124 719.842L88.5364 719.392ZM103.914 711.202L104.832 710.338C105.156 710.638 105.492 710.962 105.84 711.31C106.2 711.658 106.536 712 106.848 712.336C107.16 712.672 107.412 712.978 107.604 713.254L106.65 714.208C106.47 713.944 106.224 713.638 105.912 713.29C105.6 712.93 105.27 712.57 104.922 712.21C104.574 711.838 104.238 711.502 103.914 711.202ZM102.762 715.63H106.794V716.926H102.762V715.63ZM108.99 711.49H119.142V712.84H108.99V711.49ZM114.516 711.958H115.938V724.558C115.938 725.014 115.872 725.362 115.74 725.602C115.62 725.854 115.392 726.046 115.056 726.178C114.732 726.286 114.282 726.358 113.706 726.394C113.142 726.43 112.434 726.448 111.582 726.448C111.558 726.304 111.51 726.142 111.438 725.962C111.378 725.794 111.312 725.62 111.24 725.44C111.168 725.26 111.09 725.104 111.006 724.972C111.462 724.996 111.894 725.008 112.302 725.008C112.722 725.008 113.082 725.008 113.382 725.008C113.694 725.008 113.916 725.008 114.048 725.008C114.216 724.996 114.336 724.96 114.408 724.9C114.48 724.828 114.516 724.708 114.516 724.54V711.958ZM105.552 726.088L105.318 724.774L105.732 724.18L109.764 721.516C109.788 721.648 109.818 721.792 109.854 721.948C109.902 722.092 109.95 722.236 109.998 722.38C110.058 722.512 110.112 722.626 110.16 722.722C109.212 723.382 108.45 723.916 107.874 724.324C107.298 724.72 106.854 725.026 106.542 725.242C106.23 725.47 106.002 725.644 105.858 725.764C105.726 725.896 105.624 726.004 105.552 726.088ZM105.552 726.088C105.516 725.98 105.456 725.854 105.372 725.71C105.3 725.566 105.216 725.422 105.12 725.278C105.036 725.146 104.952 725.032 104.868 724.936C105.036 724.828 105.234 724.642 105.462 724.378C105.702 724.102 105.822 723.766 105.822 723.37V715.63H107.136V724.54C107.136 724.54 107.082 724.576 106.974 724.648C106.866 724.72 106.734 724.816 106.578 724.936C106.422 725.056 106.266 725.182 106.11 725.314C105.954 725.458 105.822 725.596 105.714 725.728C105.606 725.86 105.552 725.98 105.552 726.088ZM127.716 713.722H129.102V726.52H127.716V713.722ZM123.432 717.232V719.176H133.584V717.232H123.432ZM123.432 714.244V716.152H133.584V714.244H123.432ZM122.118 713.092H134.952V720.328H122.118V713.092ZM120.426 722.038H136.536V723.298H120.426V722.038ZM123.684 710.59L124.836 710.05C125.208 710.458 125.58 710.914 125.952 711.418C126.324 711.91 126.6 712.348 126.78 712.732L125.574 713.326C125.394 712.966 125.124 712.528 124.764 712.012C124.416 711.484 124.056 711.01 123.684 710.59ZM132.216 710.05L133.674 710.536C133.314 711.112 132.924 711.7 132.504 712.3C132.096 712.888 131.718 713.386 131.37 713.794L130.218 713.344C130.446 713.056 130.686 712.72 130.938 712.336C131.19 711.952 131.43 711.562 131.658 711.166C131.886 710.758 132.072 710.386 132.216 710.05Z" fill="white"/>
<path d="M265.095 710.654L266.121 709.934C266.469 710.234 266.829 710.564 267.201 710.924C267.573 711.284 267.921 711.644 268.245 712.004C268.569 712.352 268.827 712.67 269.019 712.958L267.921 713.75C267.741 713.462 267.495 713.138 267.183 712.778C266.871 712.406 266.529 712.034 266.157 711.662C265.797 711.29 265.443 710.954 265.095 710.654ZM253.431 714.794H269.451V716.072H253.431V714.794ZM253.161 720.068C253.869 719.936 254.697 719.774 255.645 719.582C256.605 719.39 257.613 719.186 258.669 718.97C259.737 718.742 260.799 718.514 261.855 718.286L261.963 719.492C260.979 719.72 259.983 719.954 258.975 720.194C257.979 720.422 257.013 720.644 256.077 720.86C255.153 721.064 254.313 721.256 253.557 721.436L253.161 720.068ZM257.283 711.302H258.633V724.28C258.633 724.724 258.573 725.06 258.453 725.288C258.345 725.516 258.141 725.684 257.841 725.792C257.565 725.9 257.175 725.966 256.671 725.99C256.179 726.026 255.561 726.044 254.817 726.044C254.793 725.912 254.757 725.762 254.709 725.594C254.661 725.438 254.601 725.276 254.529 725.108C254.457 724.94 254.391 724.796 254.331 724.676C254.907 724.688 255.435 724.694 255.915 724.694C256.395 724.706 256.713 724.706 256.869 724.694C257.025 724.682 257.133 724.646 257.193 724.586C257.253 724.538 257.283 724.436 257.283 724.28V711.302ZM260.703 709.682L261.657 710.816C260.961 711.056 260.175 711.278 259.299 711.482C258.435 711.674 257.541 711.854 256.617 712.022C255.705 712.19 254.817 712.334 253.953 712.454C253.917 712.298 253.857 712.112 253.773 711.896C253.701 711.668 253.623 711.476 253.539 711.32C254.379 711.188 255.243 711.038 256.131 710.87C257.019 710.69 257.859 710.498 258.651 710.294C259.443 710.09 260.127 709.886 260.703 709.682ZM262.503 709.61H263.925C263.913 711.254 263.967 712.832 264.087 714.344C264.219 715.844 264.405 717.23 264.645 718.502C264.885 719.762 265.167 720.86 265.491 721.796C265.827 722.72 266.193 723.44 266.589 723.956C266.985 724.46 267.399 724.712 267.831 724.712C268.083 724.712 268.269 724.466 268.389 723.974C268.521 723.47 268.611 722.636 268.659 721.472C268.803 721.616 268.983 721.76 269.199 721.904C269.415 722.036 269.613 722.138 269.793 722.21C269.721 723.206 269.607 723.986 269.451 724.55C269.295 725.114 269.079 725.51 268.803 725.738C268.527 725.966 268.161 726.08 267.705 726.08C267.129 726.08 266.595 725.876 266.103 725.468C265.623 725.06 265.191 724.484 264.807 723.74C264.435 722.984 264.105 722.096 263.817 721.076C263.541 720.056 263.307 718.934 263.115 717.71C262.923 716.474 262.779 715.172 262.683 713.804C262.587 712.436 262.527 711.038 262.503 709.61ZM267.399 716.9L268.587 717.404C268.011 718.508 267.303 719.558 266.463 720.554C265.635 721.538 264.717 722.438 263.709 723.254C262.713 724.07 261.657 724.766 260.541 725.342C260.433 725.186 260.289 725.006 260.109 724.802C259.941 724.598 259.773 724.424 259.605 724.28C260.685 723.764 261.717 723.128 262.701 722.372C263.685 721.604 264.579 720.752 265.383 719.816C266.187 718.88 266.859 717.908 267.399 716.9ZM272.373 712.364H277.845V724.136H272.373V722.912H276.603V713.57H272.373V712.364ZM271.581 712.364H272.823V725.558H271.581V712.364ZM272.283 717.368H277.251V718.556H272.283V717.368ZM274.335 709.43L275.793 709.682C275.613 710.246 275.415 710.816 275.199 711.392C274.995 711.968 274.803 712.46 274.623 712.868L273.525 712.598C273.633 712.298 273.735 711.962 273.831 711.59C273.939 711.218 274.035 710.84 274.119 710.456C274.215 710.072 274.287 709.73 274.335 709.43ZM280.419 712.31H285.945V713.552H280.419V712.31ZM285.459 712.31H286.737C286.737 712.31 286.737 712.352 286.737 712.436C286.737 712.52 286.737 712.622 286.737 712.742C286.737 712.85 286.731 712.934 286.719 712.994C286.647 715.058 286.575 716.804 286.503 718.232C286.443 719.66 286.365 720.83 286.269 721.742C286.173 722.642 286.059 723.344 285.927 723.848C285.807 724.352 285.657 724.712 285.477 724.928C285.273 725.192 285.057 725.372 284.829 725.468C284.613 725.576 284.343 725.648 284.019 725.684C283.719 725.708 283.323 725.714 282.831 725.702C282.351 725.702 281.853 725.684 281.337 725.648C281.325 725.456 281.277 725.234 281.193 724.982C281.121 724.73 281.019 724.52 280.887 724.352C281.487 724.4 282.027 724.43 282.507 724.442C282.999 724.454 283.353 724.46 283.569 724.46C283.749 724.46 283.893 724.442 284.001 724.406C284.121 724.358 284.235 724.274 284.343 724.154C284.487 723.998 284.613 723.68 284.721 723.2C284.841 722.708 284.943 722.012 285.027 721.112C285.111 720.212 285.189 719.066 285.261 717.674C285.333 716.27 285.399 714.578 285.459 712.598V712.31ZM280.779 709.394L282.075 709.682C281.859 710.582 281.595 711.464 281.283 712.328C280.983 713.18 280.647 713.984 280.275 714.74C279.915 715.496 279.531 716.162 279.123 716.738C279.039 716.666 278.925 716.582 278.781 716.486C278.649 716.378 278.511 716.282 278.367 716.198C278.223 716.102 278.097 716.024 277.989 715.964C278.409 715.424 278.793 714.806 279.141 714.11C279.489 713.402 279.801 712.646 280.077 711.842C280.353 711.038 280.587 710.222 280.779 709.394ZM279.951 716.972L281.013 716.378C281.349 716.798 281.697 717.26 282.057 717.764C282.429 718.268 282.771 718.754 283.083 719.222C283.407 719.69 283.665 720.104 283.857 720.464L282.705 721.184C282.525 720.812 282.279 720.386 281.967 719.906C281.667 719.414 281.337 718.916 280.977 718.412C280.629 717.896 280.287 717.416 279.951 716.972ZM288.993 712.076H304.239V713.39H288.993V712.076ZM288.705 721.274H304.563V722.606H288.705V721.274ZM296.733 714.506H298.155V726.026H296.733V714.506ZM290.631 718.808C290.607 718.7 290.565 718.562 290.505 718.394C290.445 718.226 290.379 718.052 290.307 717.872C290.247 717.692 290.187 717.536 290.127 717.404C290.319 717.356 290.517 717.206 290.721 716.954C290.925 716.702 291.147 716.378 291.387 715.982C291.519 715.778 291.705 715.46 291.945 715.028C292.197 714.584 292.473 714.056 292.773 713.444C293.085 712.832 293.391 712.178 293.691 711.482C293.991 710.774 294.261 710.072 294.501 709.376L296.031 709.79C295.623 710.798 295.173 711.8 294.681 712.796C294.189 713.78 293.685 714.716 293.169 715.604C292.653 716.48 292.131 717.266 291.603 717.962V718.016C291.603 718.016 291.555 718.046 291.459 718.106C291.363 718.154 291.249 718.22 291.117 718.304C290.985 718.376 290.871 718.46 290.775 718.556C290.679 718.64 290.631 718.724 290.631 718.808ZM290.631 718.808V717.728L291.495 717.26H303.051V718.538H292.575C292.215 718.538 291.897 718.55 291.621 718.574C291.357 718.598 291.141 718.628 290.973 718.664C290.805 718.7 290.691 718.748 290.631 718.808ZM312.201 710.618H322.299V711.896H312.201V710.618ZM312.561 714.524H321.165V715.712H313.767V725.99H312.561V714.524ZM320.661 714.524H321.813V724.496C321.813 724.82 321.771 725.072 321.687 725.252C321.615 725.444 321.459 725.588 321.219 725.684C320.991 725.78 320.679 725.834 320.283 725.846C319.899 725.87 319.425 725.882 318.861 725.882C318.849 725.726 318.801 725.54 318.717 725.324C318.645 725.12 318.573 724.94 318.501 724.784C318.933 724.796 319.323 724.802 319.671 724.802C320.019 724.802 320.253 724.796 320.373 724.784C320.493 724.784 320.571 724.76 320.607 724.712C320.643 724.676 320.661 724.598 320.661 724.478V714.524ZM315.459 718.07L316.161 717.584C316.425 718.04 316.677 718.538 316.917 719.078C317.169 719.606 317.349 720.05 317.457 720.41L316.719 721.004C316.611 720.62 316.437 720.152 316.197 719.6C315.969 719.048 315.723 718.538 315.459 718.07ZM315.369 711.608H316.413V714.83C316.413 715.394 316.395 716.018 316.359 716.702C316.323 717.386 316.245 718.094 316.125 718.826C316.005 719.558 315.825 720.278 315.585 720.986C315.345 721.694 315.021 722.354 314.613 722.966C314.529 722.858 314.409 722.732 314.253 722.588C314.097 722.444 313.959 722.324 313.839 722.228C314.199 721.688 314.481 721.1 314.685 720.464C314.901 719.816 315.057 719.156 315.153 718.484C315.249 717.8 315.309 717.146 315.333 716.522C315.357 715.898 315.369 715.334 315.369 714.83V711.608ZM318.123 717.944L318.843 717.476C319.095 717.92 319.347 718.4 319.599 718.916C319.851 719.42 320.073 719.906 320.265 720.374C320.469 720.842 320.625 721.25 320.733 721.598L319.941 722.192C319.845 721.82 319.695 721.394 319.491 720.914C319.299 720.422 319.083 719.918 318.843 719.402C318.615 718.874 318.375 718.388 318.123 717.944ZM318.015 711.59H319.059V715.118C319.059 715.694 319.041 716.33 319.005 717.026C318.969 717.722 318.897 718.436 318.789 719.168C318.681 719.9 318.519 720.62 318.303 721.328C318.087 722.024 317.799 722.678 317.439 723.29C317.355 723.17 317.235 723.038 317.079 722.894C316.923 722.75 316.785 722.636 316.665 722.552C316.989 722.024 317.241 721.436 317.421 720.788C317.601 720.14 317.733 719.48 317.817 718.808C317.913 718.124 317.967 717.464 317.979 716.828C318.003 716.192 318.015 715.616 318.015 715.1V711.59ZM306.045 711.626H311.751V712.814H306.045V711.626ZM309.141 714.416H310.311V725.954H309.141V714.416ZM305.919 721.58C306.675 721.424 307.575 721.226 308.619 720.986C309.675 720.734 310.749 720.482 311.841 720.23L311.949 721.382C310.941 721.646 309.939 721.91 308.943 722.174C307.947 722.426 307.041 722.654 306.225 722.858L305.919 721.58ZM306.477 718.646C306.453 718.562 306.417 718.448 306.369 718.304C306.321 718.16 306.267 718.016 306.207 717.872C306.159 717.728 306.111 717.608 306.063 717.512C306.207 717.464 306.339 717.308 306.459 717.044C306.579 716.768 306.693 716.426 306.801 716.018C306.873 715.814 306.963 715.49 307.071 715.046C307.191 714.59 307.317 714.062 307.449 713.462C307.581 712.862 307.701 712.22 307.809 711.536C307.929 710.84 308.013 710.156 308.061 709.484L309.321 709.682C309.201 710.63 309.039 711.596 308.835 712.58C308.631 713.564 308.403 714.512 308.151 715.424C307.911 716.336 307.653 717.158 307.377 717.89V717.926C307.377 717.926 307.329 717.95 307.233 717.998C307.137 718.046 307.029 718.112 306.909 718.196C306.801 718.268 306.699 718.346 306.603 718.43C306.519 718.502 306.477 718.574 306.477 718.646ZM306.477 718.646V717.512L307.179 717.152H311.769V718.394H307.719C307.431 718.394 307.167 718.418 306.927 718.466C306.699 718.514 306.549 718.574 306.477 718.646Z" fill="white"/>
<rect x="206.377" y="687.75" width="162.875" height="61.6758" rx="30.8379" stroke="white" stroke-width="1.5"/>
<circle cx="195" cy="350" r="141" fill="#236D5E"/>
<circle cx="195.716" cy="350.283" r="146" transform="rotate(0.115105 195.716 350.283)" stroke="white" stroke-opacity="0.4" stroke-width="10"/>
<path d="M150.96 542.662H162.64V545.094H150.96V542.662ZM156.336 543.654H159.12V552.422H156.336V543.654ZM137.52 553.094H158.832V565.222H155.824V555.398H140.4V565.254H137.52V553.094ZM139.536 557.574H156.688V559.654H139.536V557.574ZM139.536 561.862H156.752V564.198H139.536V561.862ZM160.464 535.942L161.936 538.214C160.933 538.513 159.803 538.769 158.544 538.982C157.285 539.196 155.995 539.377 154.672 539.526C153.349 539.654 152.069 539.761 150.832 539.846C150.811 539.526 150.725 539.164 150.576 538.758C150.427 538.353 150.277 537.99 150.128 537.67C151.344 537.564 152.581 537.436 153.84 537.286C155.099 537.116 156.304 536.913 157.456 536.678C158.608 536.444 159.611 536.198 160.464 535.942ZM150.128 537.67H152.816V542.47C152.816 543.494 152.752 544.614 152.624 545.83C152.496 547.046 152.24 548.241 151.856 549.414C151.472 550.588 150.896 551.644 150.128 552.582C149.979 552.433 149.755 552.262 149.456 552.07C149.179 551.857 148.891 551.654 148.592 551.462C148.293 551.27 148.037 551.132 147.824 551.046C148.528 550.193 149.04 549.265 149.36 548.262C149.68 547.26 149.883 546.257 149.968 545.254C150.075 544.23 150.128 543.281 150.128 542.406V537.67ZM133.744 537.574H148.72V539.878H133.744V537.574ZM141.232 540.966H144.016V552.422H141.232V540.966ZM134.864 545.798C134.821 545.606 134.747 545.35 134.64 545.03C134.533 544.689 134.416 544.348 134.288 544.006C134.16 543.644 134.043 543.345 133.936 543.11C134.213 543.046 134.48 542.897 134.736 542.662C135.013 542.406 135.312 542.097 135.632 541.734C135.824 541.478 136.144 541.041 136.592 540.422C137.04 539.782 137.509 539.025 138 538.15C138.512 537.276 138.949 536.401 139.312 535.526L142.352 536.294C141.797 537.297 141.168 538.3 140.464 539.302C139.781 540.284 139.077 541.212 138.352 542.086C137.648 542.94 136.955 543.697 136.272 544.358V544.422C136.272 544.422 136.155 544.497 135.92 544.646C135.685 544.796 135.451 544.977 135.216 545.19C134.981 545.404 134.864 545.606 134.864 545.798ZM134.864 545.798V543.686L136.304 542.95H148.816V545.318H137.552C136.891 545.318 136.315 545.361 135.824 545.446C135.333 545.532 135.013 545.649 134.864 545.798ZM133.776 548.166C134.992 548.081 136.389 547.974 137.968 547.846C139.568 547.697 141.264 547.548 143.056 547.398C144.869 547.228 146.683 547.068 148.496 546.918L148.528 549.094C146.779 549.286 145.029 549.478 143.28 549.67C141.531 549.862 139.867 550.044 138.288 550.214C136.709 550.364 135.28 550.513 134 550.662L133.776 548.166ZM165.272 546.95H194.2V549.83H165.272V546.95ZM167.256 537.638H192.376V540.518H167.256V537.638ZM179.992 551.142H183.16V560.678C183.16 561.233 183.267 561.596 183.48 561.766C183.715 561.916 184.216 561.99 184.984 561.99C185.155 561.99 185.453 561.99 185.88 561.99C186.328 561.99 186.819 561.99 187.352 561.99C187.885 561.99 188.387 561.99 188.856 561.99C189.325 561.99 189.677 561.99 189.912 561.99C190.403 561.99 190.765 561.873 191 561.638C191.256 561.404 191.437 560.934 191.544 560.23C191.651 559.505 191.736 558.428 191.8 556.998C192.035 557.169 192.323 557.34 192.664 557.51C193.005 557.681 193.357 557.83 193.72 557.958C194.104 558.086 194.435 558.193 194.712 558.278C194.584 560.028 194.371 561.393 194.072 562.374C193.795 563.334 193.347 564.006 192.728 564.39C192.109 564.774 191.245 564.966 190.136 564.966C189.987 564.966 189.72 564.966 189.336 564.966C188.973 564.966 188.557 564.966 188.088 564.966C187.619 564.966 187.139 564.966 186.648 564.966C186.179 564.966 185.763 564.966 185.4 564.966C185.037 564.966 184.781 564.966 184.632 564.966C183.416 564.966 182.467 564.838 181.784 564.582C181.123 564.326 180.653 563.878 180.376 563.238C180.12 562.62 179.992 561.766 179.992 560.678V551.142ZM177.688 538.822H180.76C180.717 541.276 180.632 543.622 180.504 545.862C180.376 548.102 180.077 550.204 179.608 552.166C179.16 554.129 178.445 555.942 177.464 557.606C176.483 559.249 175.128 560.721 173.4 562.022C171.672 563.324 169.464 564.422 166.776 565.318C166.584 564.913 166.296 564.454 165.912 563.942C165.549 563.452 165.187 563.046 164.824 562.726C167.384 561.937 169.464 560.966 171.064 559.814C172.685 558.662 173.944 557.35 174.84 555.878C175.736 554.385 176.376 552.753 176.76 550.982C177.165 549.212 177.411 547.313 177.496 545.286C177.581 543.238 177.645 541.084 177.688 538.822ZM197.056 537.03H207.392V539.654H197.056V537.03ZM196.352 547.398H208.544V550.118H196.352V547.398ZM201.408 548.646H204.32V561.862C204.32 562.63 204.224 563.228 204.032 563.654C203.861 564.102 203.509 564.444 202.976 564.678C202.464 564.913 201.824 565.052 201.056 565.094C200.309 565.158 199.381 565.19 198.272 565.19C198.229 564.764 198.112 564.273 197.92 563.718C197.749 563.185 197.557 562.716 197.344 562.31C198.112 562.332 198.827 562.342 199.488 562.342C200.149 562.342 200.587 562.332 200.8 562.31C201.035 562.31 201.195 562.278 201.28 562.214C201.365 562.15 201.408 562.022 201.408 561.83V548.646ZM206.464 537.03H207.104L207.648 536.87L209.472 538.118C208.96 538.95 208.373 539.804 207.712 540.678C207.072 541.553 206.4 542.385 205.696 543.174C204.992 543.942 204.299 544.614 203.616 545.19C203.424 544.913 203.157 544.604 202.816 544.262C202.496 543.921 202.208 543.644 201.952 543.43C202.507 542.918 203.072 542.332 203.648 541.67C204.224 540.988 204.757 540.284 205.248 539.558C205.76 538.812 206.165 538.15 206.464 537.574V537.03ZM207.68 547.398H208.096L208.512 547.302L210.368 547.782C209.984 549.062 209.568 550.374 209.12 551.718C208.672 553.041 208.256 554.15 207.872 555.046L205.6 554.502C205.835 553.948 206.069 553.297 206.304 552.55C206.56 551.782 206.805 550.993 207.04 550.182C207.275 549.35 207.488 548.561 207.68 547.814V547.398ZM197.824 543.494L199.456 541.542C200.245 542.033 201.109 542.577 202.048 543.174C202.987 543.772 203.893 544.358 204.768 544.934C205.643 545.51 206.368 546.022 206.944 546.47L205.248 548.71C204.693 548.241 203.989 547.708 203.136 547.11C202.283 546.492 201.387 545.862 200.448 545.222C199.509 544.582 198.635 544.006 197.824 543.494ZM210.016 536.902H226.144V539.558H210.016V536.902ZM216.8 538.246L220.128 538.662C219.829 539.622 219.52 540.582 219.2 541.542C218.88 542.481 218.571 543.281 218.272 543.942L215.68 543.43C215.893 542.684 216.107 541.83 216.32 540.87C216.533 539.889 216.693 539.014 216.8 538.246ZM216.48 546.982H219.328V553.158C219.328 554.182 219.221 555.238 219.008 556.326C218.795 557.414 218.368 558.492 217.728 559.558C217.109 560.604 216.192 561.596 214.976 562.534C213.781 563.473 212.171 564.326 210.144 565.094C209.973 564.774 209.707 564.401 209.344 563.974C208.981 563.569 208.629 563.228 208.288 562.95C210.144 562.332 211.616 561.628 212.704 560.838C213.792 560.028 214.603 559.185 215.136 558.31C215.669 557.414 216.021 556.529 216.192 555.654C216.384 554.758 216.48 553.916 216.48 553.126V546.982ZM218.464 560.038L220.448 558.214C221.088 558.705 221.771 559.26 222.496 559.878C223.243 560.476 223.947 561.073 224.608 561.67C225.291 562.246 225.835 562.758 226.24 563.206L224.16 565.286C223.776 564.817 223.253 564.273 222.592 563.654C221.952 563.057 221.269 562.438 220.544 561.798C219.819 561.158 219.125 560.572 218.464 560.038ZM211.136 542.374H224.896V557.638H221.952V545.126H213.952V557.734H211.136V542.374ZM229.064 556.87C229.021 556.678 228.947 556.422 228.84 556.102C228.733 555.782 228.616 555.452 228.488 555.11C228.381 554.748 228.264 554.449 228.136 554.214C228.52 554.129 228.915 553.905 229.32 553.542C229.725 553.18 230.184 552.71 230.696 552.134C230.973 551.836 231.379 551.366 231.912 550.726C232.445 550.086 233.043 549.308 233.704 548.39C234.365 547.473 235.037 546.492 235.72 545.446C236.403 544.38 237.032 543.313 237.608 542.246L240.072 543.782C238.771 545.916 237.32 547.996 235.72 550.022C234.141 552.049 232.541 553.83 230.92 555.366V555.462C230.92 555.462 230.824 555.505 230.632 555.59C230.461 555.676 230.248 555.804 229.992 555.974C229.757 556.124 229.544 556.273 229.352 556.422C229.16 556.572 229.064 556.721 229.064 556.87ZM229.064 556.87L228.936 554.47L230.376 553.51L240.008 552.102C239.987 552.508 239.987 552.956 240.008 553.446C240.029 553.937 240.072 554.342 240.136 554.662C237.896 555.046 236.083 555.356 234.696 555.59C233.331 555.825 232.275 556.017 231.528 556.166C230.781 556.316 230.227 556.444 229.864 556.55C229.523 556.657 229.256 556.764 229.064 556.87ZM228.808 549.126C228.765 548.934 228.691 548.668 228.584 548.326C228.477 547.985 228.349 547.633 228.2 547.27C228.072 546.908 227.955 546.598 227.848 546.342C228.168 546.257 228.477 546.054 228.776 545.734C229.096 545.393 229.437 544.956 229.8 544.422C229.992 544.166 230.269 543.75 230.632 543.174C230.995 542.577 231.389 541.873 231.816 541.062C232.264 540.252 232.712 539.388 233.16 538.47C233.608 537.532 234.003 536.593 234.344 535.654L237.192 536.838C236.616 538.118 235.965 539.409 235.24 540.71C234.515 542.012 233.768 543.249 233 544.422C232.232 545.574 231.453 546.62 230.664 547.558V547.622C230.664 547.622 230.568 547.676 230.376 547.782C230.205 547.868 229.992 547.996 229.736 548.166C229.501 548.316 229.288 548.476 229.096 548.646C228.904 548.817 228.808 548.977 228.808 549.126ZM228.808 549.126L228.744 547.014L230.088 546.182L237.064 545.606C236.979 545.969 236.915 546.385 236.872 546.854C236.829 547.324 236.797 547.697 236.776 547.974C235.219 548.124 233.949 548.262 232.968 548.39C231.987 548.497 231.219 548.593 230.664 548.678C230.131 548.764 229.725 548.849 229.448 548.934C229.192 548.998 228.979 549.062 228.808 549.126ZM228.008 560.582C229.053 560.433 230.248 560.252 231.592 560.038C232.957 559.804 234.397 559.548 235.912 559.27C237.427 558.993 238.941 558.726 240.456 558.47L240.648 561.094C238.493 561.542 236.339 561.969 234.184 562.374C232.051 562.78 230.141 563.153 228.456 563.494L228.008 560.582ZM243.56 541.35H254.888V544.166H243.56V541.35ZM253.672 541.35H256.584C256.584 541.35 256.584 541.446 256.584 541.638C256.584 541.83 256.584 542.044 256.584 542.278C256.584 542.492 256.584 542.673 256.584 542.822C256.477 546.364 256.371 549.372 256.264 551.846C256.157 554.321 256.029 556.348 255.88 557.926C255.731 559.505 255.549 560.732 255.336 561.606C255.144 562.481 254.888 563.121 254.568 563.526C254.184 564.038 253.779 564.39 253.352 564.582C252.925 564.796 252.413 564.945 251.816 565.03C251.283 565.094 250.579 565.116 249.704 565.094C248.829 565.094 247.944 565.073 247.048 565.03C247.027 564.604 246.92 564.113 246.728 563.558C246.557 563.025 246.344 562.556 246.088 562.15C247.069 562.236 247.976 562.289 248.808 562.31C249.64 562.332 250.248 562.342 250.632 562.342C250.931 562.342 251.176 562.31 251.368 562.246C251.581 562.161 251.773 562.022 251.944 561.83C252.2 561.553 252.413 560.998 252.584 560.166C252.776 559.313 252.936 558.108 253.064 556.55C253.192 554.993 253.309 553.02 253.416 550.63C253.523 548.241 253.608 545.361 253.672 541.99V541.35ZM244.648 535.558L247.56 536.134C247.176 537.734 246.707 539.313 246.152 540.87C245.619 542.406 245.021 543.846 244.36 545.19C243.72 546.513 243.027 547.686 242.28 548.71C242.109 548.561 241.864 548.38 241.544 548.166C241.224 547.953 240.904 547.75 240.584 547.558C240.264 547.345 239.987 547.174 239.752 547.046C240.499 546.129 241.181 545.052 241.8 543.814C242.419 542.577 242.963 541.254 243.432 539.846C243.923 538.438 244.328 537.009 244.648 535.558ZM242.504 549.734L244.584 548.006C245.373 548.646 246.163 549.361 246.952 550.15C247.763 550.94 248.509 551.729 249.192 552.518C249.896 553.286 250.451 554.001 250.856 554.662L248.616 556.582C248.253 555.921 247.731 555.196 247.048 554.406C246.387 553.596 245.661 552.785 244.872 551.974C244.083 551.142 243.293 550.396 242.504 549.734Z" fill="white" fill-opacity="0.8"/>
<path d="M161 286V430" stroke="white" stroke-width="16" stroke-linecap="round" stroke-linejoin="round"/>
<path d="M161 286H215C234.882 286 251 301.67 251 321C251 340.33 234.882 356 215 356H161V286Z" stroke="white" stroke-width="16" stroke-linejoin="round"/>
<path d="M232.5 255C235.993 255 238.825 257.832 238.825 261.325V280.175H257.715C261.186 280.175 264 282.989 264 286.46C264 289.931 261.186 292.746 257.715 292.746H238.825V311.675C238.825 315.168 235.993 318 232.5 318C229.007 318 226.175 315.168 226.175 311.675V292.746H207.285C203.814 292.746 201 289.931 201 286.46C201 282.989 203.814 280.175 207.285 280.175H226.175V261.325C226.175 257.832 229.007 255 232.5 255Z" fill="#FEFB54" stroke="#236D5E" stroke-width="6"/>
<path d="M264 287.108C264 290.974 260.866 294.108 257 294.108L240.108 294.108L240.108 311C240.108 314.866 236.974 318 233.108 318L232.001 318C228.135 318 225.001 314.866 225.001 311L225.001 294.108L208 294.108C204.134 294.108 201 290.974 201 287.108L201 285.892C201 282.026 204.134 278.892 208 278.892L225.001 278.892L225.001 262C225.001 258.134 228.135 255 232.001 255L233.108 255C236.974 255 240.108 258.134 240.108 262L240.108 278.892L257 278.892C260.866 278.892 264 282.026 264 285.892L264 287.108Z" fill="#FEFB54" stroke="#236D5E" stroke-width="6"/>
<path d="M262.813 75.6992C268.359 75.6992 272.855 71.2028 272.855 65.6563C272.855 60.1097 268.359 55.6133 262.813 55.6133C257.266 55.6133 252.77 60.1097 252.77 65.6563C252.77 71.2028 257.266 75.6992 262.813 75.6992Z" stroke="white" stroke-width="1.6" stroke-linejoin="round"/>
<path d="M271.67 74.5195L276.983 79.8323" stroke="white" stroke-width="1.6" stroke-linecap="round" stroke-linejoin="round"/>
<path d="M324.371 57.828H321.71C321.52 57.186 321.128 56.6229 320.591 56.2235C320.054 55.8241 319.401 55.6099 318.732 55.6133C318.063 55.6096 317.41 55.8236 316.873 56.2231C316.335 56.6225 315.942 57.1858 315.753 57.828H301.813C301.705 57.8267 301.598 57.8468 301.497 57.887C301.397 57.9272 301.306 57.9867 301.229 58.0622C301.152 58.1377 301.09 58.2276 301.048 58.3269C301.006 58.4261 300.983 58.5328 300.982 58.6407C300.983 58.7486 301.006 58.8552 301.048 58.9545C301.09 59.0537 301.152 59.1437 301.229 59.2191C301.306 59.2946 301.397 59.3542 301.497 59.3943C301.598 59.4345 301.705 59.4546 301.813 59.4533H315.752C315.941 60.096 316.335 60.6595 316.872 61.059C317.41 61.4585 318.063 61.6723 318.733 61.668C319.403 61.6714 320.055 61.4573 320.592 61.0578C321.129 60.6584 321.522 60.0953 321.711 59.4533H324.372C324.48 59.4544 324.587 59.4342 324.687 59.394C324.787 59.3537 324.878 59.2941 324.955 59.2187C325.032 59.1432 325.093 59.0533 325.136 58.9541C325.178 58.855 325.2 58.7484 325.201 58.6407C325.2 58.5328 325.178 58.4261 325.135 58.3269C325.093 58.2276 325.032 58.1377 324.955 58.0622C324.877 57.9867 324.786 57.9272 324.686 57.887C324.586 57.8468 324.479 57.8267 324.371 57.828ZM318.732 60.0427C318.356 60.0462 317.994 59.9007 317.726 59.6379C317.457 59.375 317.304 59.0164 317.299 58.6407C317.299 57.867 317.942 57.2387 318.732 57.2387C319.52 57.2387 320.164 57.867 320.164 58.6407C320.164 59.413 319.52 60.0427 318.732 60.0427ZM324.37 66.3045C324.478 66.3031 324.585 66.323 324.685 66.3631C324.785 66.4032 324.877 66.4627 324.954 66.5382C325.031 66.6137 325.093 66.7037 325.135 66.8031C325.178 66.9024 325.2 67.0092 325.201 67.1172C325.2 67.2251 325.178 67.3317 325.135 67.431C325.093 67.5302 325.032 67.6202 324.955 67.6957C324.877 67.7712 324.786 67.8307 324.686 67.8709C324.586 67.9111 324.479 67.9311 324.371 67.9299H310.432C310.242 68.5723 309.849 69.1357 309.312 69.5352C308.774 69.9346 308.121 70.1485 307.451 70.1445C306.782 70.1482 306.129 69.9342 305.592 69.5348C305.055 69.1353 304.662 68.572 304.473 67.9299H301.813C301.705 67.9311 301.598 67.9111 301.497 67.8709C301.397 67.8307 301.306 67.7712 301.229 67.6957C301.152 67.6202 301.09 67.5302 301.048 67.431C301.006 67.3317 300.983 67.2251 300.982 67.1172C300.983 67.0093 301.006 66.9027 301.048 66.8034C301.09 66.7041 301.152 66.6142 301.229 66.5387C301.306 66.4632 301.397 66.4037 301.497 66.3635C301.598 66.3233 301.705 66.3033 301.813 66.3045H304.474C304.663 65.6623 305.056 65.0991 305.593 64.6996C306.131 64.3002 306.783 64.0862 307.453 64.0899C308.87 64.0899 310.067 65.029 310.43 66.3045H324.37ZM307.454 68.5192C308.243 68.5192 308.886 67.8908 308.886 67.1172C308.886 66.3435 308.243 65.7152 307.454 65.7152C306.664 65.7152 306.021 66.3435 306.021 67.1172C306.021 67.8908 306.664 68.5192 307.454 68.5192ZM324.372 75.992C324.48 75.9907 324.587 76.0108 324.687 76.051C324.788 76.0912 324.879 76.1507 324.956 76.2262C325.033 76.3017 325.094 76.3916 325.137 76.4909C325.179 76.5901 325.201 76.6968 325.202 76.8047C325.201 76.9125 325.179 77.0192 325.137 77.1184C325.094 77.2177 325.033 77.3077 324.956 77.3831C324.879 77.4586 324.788 77.5182 324.687 77.5583C324.587 77.5985 324.48 77.6186 324.372 77.6173H321.711C321.522 78.2595 321.129 78.8228 320.591 79.2222C320.054 79.6217 319.402 79.8357 318.732 79.832C318.063 79.8357 317.41 79.6217 316.873 79.2222C316.335 78.8228 315.942 78.2595 315.753 77.6173H301.813C301.705 77.6186 301.598 77.5985 301.497 77.5583C301.397 77.5182 301.306 77.4586 301.229 77.3831C301.152 77.3077 301.09 77.2177 301.048 77.1184C301.006 77.0192 300.983 76.9125 300.982 76.8047C300.983 76.6968 301.006 76.5901 301.048 76.4909C301.09 76.3916 301.152 76.3017 301.229 76.2262C301.306 76.1507 301.397 76.0912 301.497 76.051C301.598 76.0108 301.705 75.9907 301.813 75.992H315.752C315.941 75.3496 316.334 74.7861 316.872 74.3867C317.409 73.9872 318.062 73.7733 318.732 73.7773C320.149 73.7773 321.346 74.7165 321.71 75.992H324.371H324.372ZM318.733 78.2066C319.522 78.2066 320.165 77.5783 320.165 76.8047C320.165 76.031 319.522 75.4027 318.733 75.4027C317.944 75.4027 317.3 76.031 317.3 76.8047C317.3 77.5783 317.944 78.2066 318.733 78.2066Z" fill="white"/>
<path d="M359.709 70.9948V64.9336" stroke="white" stroke-width="1.6" stroke-linecap="round"/>
<path d="M353.754 56.2695H365.664" stroke="white" stroke-width="1.6" stroke-linecap="round"/>
<circle cx="359.709" cy="69.807" r="9.70619" stroke="white" stroke-width="1.6"/>
<path d="M164.016 124.616H167.4V131.96H164.016V124.616ZM155.772 130.268H176.184V133.508H155.772V130.268ZM161.028 137.108H170.496V140.24H161.028V137.108ZM159.516 137.108H162.792V143.732C162.792 144.884 162.696 146.108 162.504 147.404C162.336 148.7 162 149.996 161.496 151.292C161.016 152.588 160.32 153.824 159.408 155C158.52 156.152 157.356 157.196 155.916 158.132C155.796 157.892 155.592 157.592 155.304 157.232C155.016 156.896 154.728 156.572 154.44 156.26C154.152 155.948 153.888 155.708 153.648 155.54C154.944 154.7 155.976 153.8 156.744 152.84C157.536 151.856 158.124 150.848 158.508 149.816C158.916 148.76 159.18 147.716 159.3 146.684C159.444 145.628 159.516 144.608 159.516 143.624V137.108ZM168.408 137.108H171.756V152.984C171.756 153.44 171.768 153.788 171.792 154.028C171.816 154.268 171.864 154.436 171.936 154.532C172.032 154.652 172.2 154.712 172.44 154.712C172.56 154.712 172.692 154.712 172.836 154.712C172.98 154.712 173.112 154.712 173.232 154.712C173.352 154.712 173.472 154.7 173.592 154.676C173.712 154.628 173.796 154.568 173.844 154.496C173.916 154.424 173.976 154.304 174.024 154.136C174.072 153.944 174.12 153.668 174.168 153.308C174.192 152.948 174.216 152.384 174.24 151.616C174.264 150.848 174.276 149.936 174.276 148.88C174.588 149.144 174.972 149.408 175.428 149.672C175.884 149.912 176.316 150.104 176.724 150.248C176.724 150.872 176.7 151.532 176.652 152.228C176.628 152.9 176.592 153.512 176.544 154.064C176.496 154.616 176.436 155.036 176.364 155.324C176.172 156.188 175.812 156.8 175.284 157.16C175.044 157.352 174.744 157.484 174.384 157.556C174.024 157.652 173.664 157.7 173.304 157.7C173.04 157.7 172.728 157.7 172.368 157.7C172.008 157.7 171.72 157.7 171.504 157.7C171.096 157.7 170.688 157.628 170.28 157.484C169.896 157.364 169.548 157.172 169.236 156.908C169.044 156.716 168.888 156.476 168.768 156.188C168.648 155.924 168.552 155.54 168.48 155.036C168.432 154.532 168.408 153.848 168.408 152.984V137.108ZM143.172 132.212H155.916V135.38H143.172V132.212ZM148.284 124.616H151.524V157.988H148.284V124.616ZM148.176 134.3L150.228 135.02C149.94 136.46 149.58 137.96 149.148 139.52C148.716 141.056 148.224 142.568 147.672 144.056C147.12 145.544 146.532 146.924 145.908 148.196C145.284 149.468 144.636 150.572 143.964 151.508C143.796 151.028 143.532 150.488 143.172 149.888C142.836 149.288 142.536 148.784 142.272 148.376C142.896 147.584 143.496 146.648 144.072 145.568C144.672 144.464 145.236 143.276 145.764 142.004C146.292 140.732 146.76 139.448 147.168 138.152C147.576 136.832 147.912 135.548 148.176 134.3ZM151.344 137.828C151.584 138.068 151.932 138.488 152.388 139.088C152.868 139.688 153.384 140.348 153.936 141.068C154.488 141.764 154.98 142.424 155.412 143.048C155.868 143.648 156.192 144.08 156.384 144.344L154.368 146.972C154.152 146.492 153.84 145.904 153.432 145.208C153.024 144.488 152.592 143.756 152.136 143.012C151.68 142.268 151.236 141.572 150.804 140.924C150.396 140.276 150.048 139.748 149.76 139.34L151.344 137.828ZM185.352 125.228H188.736V136.496C188.736 138.368 188.652 140.264 188.484 142.184C188.34 144.08 188.016 145.964 187.512 147.836C187.008 149.684 186.264 151.472 185.28 153.2C184.296 154.904 182.964 156.5 181.284 157.988C181.116 157.7 180.888 157.388 180.6 157.052C180.312 156.74 180 156.428 179.664 156.116C179.352 155.804 179.076 155.552 178.836 155.36C180.3 154.064 181.464 152.66 182.328 151.148C183.216 149.636 183.864 148.064 184.272 146.432C184.704 144.776 184.992 143.12 185.136 141.464C185.28 139.784 185.352 138.128 185.352 136.496V125.228ZM195.54 126.02H198.888V155.576H195.54V126.02ZM206.088 125.12H209.508V157.628H206.088V125.12ZM181.032 133.472L183.948 134.264C183.756 135.368 183.516 136.544 183.228 137.792C182.94 139.04 182.604 140.24 182.22 141.392C181.836 142.544 181.368 143.552 180.816 144.416L177.9 143.192C178.404 142.352 178.86 141.392 179.268 140.312C179.676 139.208 180.024 138.068 180.312 136.892C180.624 135.692 180.864 134.552 181.032 133.472ZM188.952 135.2L191.688 134.084C192.12 135.068 192.528 136.112 192.912 137.216C193.32 138.32 193.668 139.388 193.956 140.42C194.268 141.452 194.484 142.364 194.604 143.156L191.652 144.452C191.556 143.66 191.364 142.736 191.076 141.68C190.812 140.6 190.5 139.496 190.14 138.368C189.78 137.24 189.384 136.184 188.952 135.2ZM199.068 135.056L201.66 133.796C202.212 134.708 202.752 135.704 203.28 136.784C203.808 137.84 204.276 138.884 204.684 139.916C205.116 140.924 205.428 141.836 205.62 142.652L202.812 144.128C202.62 143.336 202.332 142.424 201.948 141.392C201.564 140.336 201.12 139.256 200.616 138.152C200.112 137.048 199.596 136.016 199.068 135.056ZM228.684 124.436H232.32V131.456H228.684V124.436ZM228.72 132.5H232.248V158.096H228.72V132.5ZM214.284 129.404H246.972V132.716H214.284V129.404ZM217.884 137.144H241.536V140.456H221.304V153.632H217.884V137.144ZM240.24 137.144H243.768V149.636C243.768 150.524 243.648 151.232 243.408 151.76C243.192 152.288 242.748 152.696 242.076 152.984C241.38 153.224 240.516 153.38 239.484 153.452C238.452 153.524 237.18 153.56 235.668 153.56C235.62 153.032 235.476 152.456 235.236 151.832C234.996 151.208 234.756 150.656 234.516 150.176C235.236 150.2 235.932 150.224 236.604 150.248C237.3 150.272 237.9 150.284 238.404 150.284C238.908 150.26 239.256 150.248 239.448 150.248C239.76 150.248 239.964 150.2 240.06 150.104C240.18 150.008 240.24 149.84 240.24 149.6V137.144Z" fill="white"/>
<rect x="128" y="831" width="134" height="5" rx="2.5" fill="black"/>
<g clip-path="url(#clip1_331_10569)">
<path d="M117.768 -2H272.184V13C272.184 22.3888 264.572 30 255.184 30H134.768C125.379 30 117.768 22.3888 117.768 13V-2Z" fill="black"/>
<path d="M118 -2H113C113 -2 113 -2 113 -2C115.651 -2 117.799 0.148747 117.799 2.79934C117.799 2.86656 117.798 2.93345 117.795 3H118V-2Z" fill="black"/>
<path d="M272 -2H277C277 -2 277 -2 277 -2C274.349 -2 272.201 0.148747 272.201 2.79934C272.201 2.86656 272.202 2.93345 272.205 3H272V-2Z" fill="black"/>
<path d="M40.8576 19.6982C43.9455 19.6982 46.0373 21.8896 46.0373 25.9487V25.9653C46.0373 29.9331 44.0451 32.3154 40.8908 32.3154C38.4172 32.3154 36.5744 30.8462 36.2175 28.9121L36.2092 28.8457H39.1642L39.1891 28.9121C39.4382 29.5264 40.0358 29.9663 40.8742 29.9663C42.3766 29.9663 43.0656 28.4888 43.1569 26.48C43.1569 26.397 43.1652 26.3057 43.1652 26.2144H42.9909C42.5593 27.1108 41.6296 27.916 39.9528 27.916C37.5788 27.916 36.0598 26.2808 36.0598 24.0312V24.0146C36.0598 21.541 38.0104 19.6982 40.8576 19.6982ZM40.8659 25.7827C41.9367 25.7827 42.7751 25.0356 42.7751 23.9648V23.9482C42.7751 22.8608 41.9367 22.0391 40.8742 22.0391C39.82 22.0391 38.965 22.8525 38.965 23.8984V23.915C38.965 25.0024 39.7702 25.7827 40.8659 25.7827ZM49.6386 24.7451C48.6508 24.7451 47.9784 24.0479 47.9784 23.1099C47.9784 22.1719 48.6508 21.4829 49.6386 21.4829C50.6347 21.4829 51.307 22.1719 51.307 23.1099C51.307 24.0479 50.6347 24.7451 49.6386 24.7451ZM49.6386 30.5308C48.6508 30.5308 47.9784 29.8418 47.9784 28.9038C47.9784 27.9658 48.6508 27.2686 49.6386 27.2686C50.6347 27.2686 51.307 27.9658 51.307 28.9038C51.307 29.8418 50.6347 30.5308 49.6386 30.5308ZM59.1666 32V29.958H53.2814V27.6587C54.7423 24.9775 56.2613 22.4624 57.8136 20.022H62.047V27.584H63.5411V29.958H62.047V32H59.1666ZM55.921 27.6919H59.2413V22.1968H59.0919C58.0211 23.8652 56.8839 25.7412 55.921 27.5425V27.6919ZM67.931 32V22.7695H67.7733L64.8846 24.7202V22.0972L67.931 20.022H70.9691V32H67.931Z" fill="white"/>
<path opacity="0.35" d="M340 19.5273H357C358.918 19.5273 360.473 21.0822 360.473 23V28C360.473 29.9178 358.918 31.4727 357 31.4727H340C338.082 31.4727 336.527 29.9178 336.527 28V23C336.527 21.0822 338.082 19.5273 340 19.5273Z" stroke="white" stroke-width="1.05509"/>
<path opacity="0.4" d="M362 24V28.2203C362.849 27.8629 363.401 27.0314 363.401 26.1102C363.401 25.1889 362.849 24.3574 362 24Z" fill="white"/>
<path d="M338 23C338 21.8954 338.895 21 340 21H357C358.105 21 359 21.8954 359 23V28C359 29.1046 358.105 30 357 30H340C338.895 30 338 29.1046 338 28V23Z" fill="white"/>
<path d="M318.115 29.085C319.535 27.8594 321.614 27.8595 323.034 29.085C323.106 29.1509 323.147 29.2445 323.149 29.3428C323.151 29.441 323.114 29.5357 323.045 29.6045L320.821 31.8945C320.756 31.9617 320.668 31.9999 320.575 32C320.482 32 320.393 31.9618 320.328 31.8945L318.104 29.6045C318.036 29.5356 317.998 29.441 318 29.3428C318.002 29.2445 318.044 29.1508 318.115 29.085ZM315.109 26.2617C318.168 23.3571 322.906 23.3571 325.965 26.2617C326.034 26.3298 326.073 26.4235 326.074 26.5215C326.075 26.6194 326.037 26.7138 325.97 26.7832L324.685 28.1084C324.552 28.2437 324.338 28.247 324.202 28.1152C323.198 27.1868 321.891 26.6718 320.536 26.6719C319.182 26.6724 317.876 27.1873 316.872 28.1152C316.736 28.247 316.522 28.2437 316.39 28.1084L315.104 26.7832C315.037 26.7139 314.999 26.6194 315 26.5215C315.001 26.4235 315.04 26.3298 315.109 26.2617ZM312.107 23.4424C316.799 18.8528 324.201 18.8528 328.893 23.4424C328.96 23.5106 328.999 23.6039 329 23.7012C329 23.7983 328.963 23.892 328.896 23.9609L327.609 25.2861C327.477 25.4221 327.262 25.4238 327.127 25.29C325.339 23.5553 322.967 22.588 320.5 22.5879C318.033 22.588 315.661 23.5553 313.873 25.29C313.738 25.4239 313.523 25.4223 313.391 25.2861L312.104 23.9609C312.037 23.892 312 23.7982 312 23.7012C312.001 23.6039 312.039 23.5105 312.107 23.4424Z" fill="white"/>
<path d="M296 23C296 22.4477 296.448 22 297 22H298C298.552 22 299 22.4477 299 23V31C299 31.5523 298.552 32 298 32H297C296.448 32 296 31.5523 296 31V23Z" fill="white"/>
<path d="M301 21C301 20.4477 301.448 20 302 20H303C303.552 20 304 20.4477 304 21V31C304 31.5523 303.552 32 303 32H302C301.448 32 301 31.5523 301 31V21Z" fill="white"/>
<path d="M291 26.5C291 25.9477 291.448 25.5 292 25.5H293C293.552 25.5 294 25.9477 294 26.5V31C294 31.5523 293.552 32 293 32H292C291.448 32 291 31.5523 291 31V26.5Z" fill="white"/>
<path d="M286 29C286 28.4477 286.448 28 287 28H288C288.552 28 289 28.4477 289 29V31C289 31.5523 288.552 32 288 32H287C286.448 32 286 31.5523 286 31V29Z" fill="white"/>
</g>
</g>
<defs>
<clipPath id="clip0_331_10569">
<rect width="390" height="844" rx="12" fill="white"/>
</clipPath>
<clipPath id="clip1_331_10569">
<rect width="390" height="47" fill="white"/>
</clipPath>
</defs>
</svg>
