<svg width="390" height="844" viewBox="0 0 390 844" fill="none" xmlns="http://www.w3.org/2000/svg">
<g clip-path="url(#clip0_510_2365)">
<rect width="390" height="844" rx="12" fill="#186051"/>
<path d="M30.9731 65.6845C33.5719 65.6845 35.6787 63.5778 35.6787 60.979C35.6787 58.3802 33.5719 56.2734 30.9731 56.2734C28.3743 56.2734 26.2676 58.3802 26.2676 60.979C26.2676 63.5778 28.3743 65.6845 30.9731 65.6845Z" stroke="white" stroke-width="1.6" stroke-linecap="round" stroke-linejoin="round"/>
<path d="M41.5616 79.8023C41.5616 73.955 36.8215 69.2148 30.9742 69.2148C25.1269 69.2148 20.3867 73.955 20.3867 79.8023" stroke="white" stroke-width="1.6" stroke-linecap="round" stroke-linejoin="round"/>
<path d="M358.904 70.9987V64.9375" stroke="white" stroke-width="1.6" stroke-linecap="round"/>
<path d="M352.949 56.2734H364.859" stroke="white" stroke-width="1.6" stroke-linecap="round"/>
<circle cx="358.905" cy="69.8109" r="9.70619" stroke="white" stroke-width="1.6"/>
<circle cx="195" cy="350" r="141" fill="#236D5E"/>
<circle cx="195.716" cy="350.283" r="146" transform="rotate(0.115105 195.716 350.283)" stroke="#CFFFC8" stroke-opacity="0.6" stroke-width="10"/>
<rect x="20.6309" y="687.75" width="162.875" height="61.6758" rx="30.8379" stroke="white" stroke-width="1.5"/>
<path d="M69.5764 710.86H83.7244V712.138H69.5764V710.86ZM68.7484 710.86H70.1164V716.602C70.1164 717.334 70.0984 718.126 70.0624 718.978C70.0264 719.818 69.9484 720.682 69.8284 721.57C69.7204 722.458 69.5584 723.328 69.3424 724.18C69.1384 725.02 68.8564 725.788 68.4964 726.484C68.4244 726.412 68.3104 726.322 68.1544 726.214C68.0104 726.118 67.8604 726.022 67.7044 725.926C67.5484 725.842 67.4164 725.776 67.3084 725.728C67.6444 725.056 67.9084 724.336 68.1004 723.568C68.2924 722.788 68.4304 721.996 68.5144 721.192C68.6104 720.388 68.6704 719.596 68.6944 718.816C68.7304 718.024 68.7484 717.286 68.7484 716.602V710.86ZM71.2684 716.08H82.0144V717.358H71.2684V716.08ZM81.4564 716.08H82.8064C82.8064 716.08 82.8004 716.122 82.7884 716.206C82.7884 716.278 82.7884 716.368 82.7884 716.476C82.7884 716.572 82.7824 716.65 82.7704 716.71C82.6984 718.198 82.6204 719.47 82.5364 720.526C82.4644 721.57 82.3804 722.434 82.2844 723.118C82.1884 723.802 82.0744 724.342 81.9424 724.738C81.8224 725.122 81.6784 725.404 81.5104 725.584C81.3184 725.812 81.1144 725.968 80.8984 726.052C80.6944 726.148 80.4304 726.208 80.1064 726.232C79.8184 726.268 79.4224 726.28 78.9184 726.268C78.4264 726.256 77.9044 726.232 77.3524 726.196C77.3404 725.992 77.2924 725.764 77.2084 725.512C77.1364 725.26 77.0404 725.038 76.9204 724.846C77.4964 724.906 78.0304 724.942 78.5224 724.954C79.0264 724.966 79.3804 724.972 79.5844 724.972C79.7764 724.972 79.9264 724.96 80.0344 724.936C80.1424 724.9 80.2444 724.828 80.3404 724.72C80.4844 724.6 80.6104 724.36 80.7184 724C80.8264 723.64 80.9224 723.13 81.0064 722.47C81.0904 721.81 81.1684 720.976 81.2404 719.968C81.3124 718.96 81.3844 717.742 81.4564 716.314V716.08ZM75.5704 713.092H76.9564C76.9324 714.268 76.8784 715.402 76.7944 716.494C76.7224 717.574 76.5844 718.606 76.3804 719.59C76.1884 720.562 75.8944 721.474 75.4984 722.326C75.1024 723.166 74.5684 723.934 73.8964 724.63C73.2364 725.326 72.4024 725.932 71.3944 726.448C71.3104 726.292 71.1784 726.118 70.9984 725.926C70.8184 725.734 70.6504 725.578 70.4944 725.458C71.4544 724.99 72.2404 724.438 72.8524 723.802C73.4764 723.166 73.9624 722.458 74.3104 721.678C74.6704 720.886 74.9344 720.04 75.1024 719.14C75.2704 718.228 75.3844 717.268 75.4444 716.26C75.5044 715.24 75.5464 714.184 75.5704 713.092ZM92.6044 710.05H93.9904V717.61C93.9904 718.354 93.9364 719.086 93.8284 719.806C93.7324 720.514 93.5344 721.198 93.2344 721.858C92.9344 722.518 92.4844 723.136 91.8844 723.712C91.2964 724.288 90.5104 724.816 89.5264 725.296C88.5424 725.776 87.3184 726.19 85.8544 726.538C85.7944 726.43 85.7164 726.304 85.6204 726.16C85.5364 726.016 85.4404 725.866 85.3324 725.71C85.2364 725.554 85.1404 725.428 85.0444 725.332C86.4604 725.032 87.6304 724.678 88.5544 724.27C89.4904 723.862 90.2284 723.406 90.7684 722.902C91.3204 722.398 91.7224 721.864 91.9744 721.3C92.2384 720.724 92.4064 720.13 92.4784 719.518C92.5624 718.894 92.6044 718.258 92.6044 717.61V710.05ZM87.7984 714.136V717.484H98.8144V714.136H87.7984ZM86.4844 712.822H100.182V718.78H86.4844V712.822ZM88.5364 719.392C89.0884 720.508 89.7544 721.426 90.5344 722.146C91.3264 722.866 92.2504 723.43 93.3064 723.838C94.3744 724.246 95.5924 724.546 96.9604 724.738C98.3404 724.918 99.8944 725.044 101.622 725.116C101.49 725.284 101.364 725.494 101.244 725.746C101.124 726.01 101.04 726.262 100.992 726.502C99.2284 726.394 97.6324 726.214 96.2044 725.962C94.7764 725.722 93.4984 725.362 92.3704 724.882C91.2544 724.402 90.2764 723.76 89.4364 722.956C88.6084 722.14 87.9004 721.102 87.3124 719.842L88.5364 719.392ZM103.914 711.202L104.832 710.338C105.156 710.638 105.492 710.962 105.84 711.31C106.2 711.658 106.536 712 106.848 712.336C107.16 712.672 107.412 712.978 107.604 713.254L106.65 714.208C106.47 713.944 106.224 713.638 105.912 713.29C105.6 712.93 105.27 712.57 104.922 712.21C104.574 711.838 104.238 711.502 103.914 711.202ZM102.762 715.63H106.794V716.926H102.762V715.63ZM108.99 711.49H119.142V712.84H108.99V711.49ZM114.516 711.958H115.938V724.558C115.938 725.014 115.872 725.362 115.74 725.602C115.62 725.854 115.392 726.046 115.056 726.178C114.732 726.286 114.282 726.358 113.706 726.394C113.142 726.43 112.434 726.448 111.582 726.448C111.558 726.304 111.51 726.142 111.438 725.962C111.378 725.794 111.312 725.62 111.24 725.44C111.168 725.26 111.09 725.104 111.006 724.972C111.462 724.996 111.894 725.008 112.302 725.008C112.722 725.008 113.082 725.008 113.382 725.008C113.694 725.008 113.916 725.008 114.048 725.008C114.216 724.996 114.336 724.96 114.408 724.9C114.48 724.828 114.516 724.708 114.516 724.54V711.958ZM105.552 726.088L105.318 724.774L105.732 724.18L109.764 721.516C109.788 721.648 109.818 721.792 109.854 721.948C109.902 722.092 109.95 722.236 109.998 722.38C110.058 722.512 110.112 722.626 110.16 722.722C109.212 723.382 108.45 723.916 107.874 724.324C107.298 724.72 106.854 725.026 106.542 725.242C106.23 725.47 106.002 725.644 105.858 725.764C105.726 725.896 105.624 726.004 105.552 726.088ZM105.552 726.088C105.516 725.98 105.456 725.854 105.372 725.71C105.3 725.566 105.216 725.422 105.12 725.278C105.036 725.146 104.952 725.032 104.868 724.936C105.036 724.828 105.234 724.642 105.462 724.378C105.702 724.102 105.822 723.766 105.822 723.37V715.63H107.136V724.54C107.136 724.54 107.082 724.576 106.974 724.648C106.866 724.72 106.734 724.816 106.578 724.936C106.422 725.056 106.266 725.182 106.11 725.314C105.954 725.458 105.822 725.596 105.714 725.728C105.606 725.86 105.552 725.98 105.552 726.088ZM127.716 713.722H129.102V726.52H127.716V713.722ZM123.432 717.232V719.176H133.584V717.232H123.432ZM123.432 714.244V716.152H133.584V714.244H123.432ZM122.118 713.092H134.952V720.328H122.118V713.092ZM120.426 722.038H136.536V723.298H120.426V722.038ZM123.684 710.59L124.836 710.05C125.208 710.458 125.58 710.914 125.952 711.418C126.324 711.91 126.6 712.348 126.78 712.732L125.574 713.326C125.394 712.966 125.124 712.528 124.764 712.012C124.416 711.484 124.056 711.01 123.684 710.59ZM132.216 710.05L133.674 710.536C133.314 711.112 132.924 711.7 132.504 712.3C132.096 712.888 131.718 713.386 131.37 713.794L130.218 713.344C130.446 713.056 130.686 712.72 130.938 712.336C131.19 711.952 131.43 711.562 131.658 711.166C131.886 710.758 132.072 710.386 132.216 710.05Z" fill="white"/>
<path d="M265.095 710.654L266.121 709.934C266.469 710.234 266.829 710.564 267.201 710.924C267.573 711.284 267.921 711.644 268.245 712.004C268.569 712.352 268.827 712.67 269.019 712.958L267.921 713.75C267.741 713.462 267.495 713.138 267.183 712.778C266.871 712.406 266.529 712.034 266.157 711.662C265.797 711.29 265.443 710.954 265.095 710.654ZM253.431 714.794H269.451V716.072H253.431V714.794ZM253.161 720.068C253.869 719.936 254.697 719.774 255.645 719.582C256.605 719.39 257.613 719.186 258.669 718.97C259.737 718.742 260.799 718.514 261.855 718.286L261.963 719.492C260.979 719.72 259.983 719.954 258.975 720.194C257.979 720.422 257.013 720.644 256.077 720.86C255.153 721.064 254.313 721.256 253.557 721.436L253.161 720.068ZM257.283 711.302H258.633V724.28C258.633 724.724 258.573 725.06 258.453 725.288C258.345 725.516 258.141 725.684 257.841 725.792C257.565 725.9 257.175 725.966 256.671 725.99C256.179 726.026 255.561 726.044 254.817 726.044C254.793 725.912 254.757 725.762 254.709 725.594C254.661 725.438 254.601 725.276 254.529 725.108C254.457 724.94 254.391 724.796 254.331 724.676C254.907 724.688 255.435 724.694 255.915 724.694C256.395 724.706 256.713 724.706 256.869 724.694C257.025 724.682 257.133 724.646 257.193 724.586C257.253 724.538 257.283 724.436 257.283 724.28V711.302ZM260.703 709.682L261.657 710.816C260.961 711.056 260.175 711.278 259.299 711.482C258.435 711.674 257.541 711.854 256.617 712.022C255.705 712.19 254.817 712.334 253.953 712.454C253.917 712.298 253.857 712.112 253.773 711.896C253.701 711.668 253.623 711.476 253.539 711.32C254.379 711.188 255.243 711.038 256.131 710.87C257.019 710.69 257.859 710.498 258.651 710.294C259.443 710.09 260.127 709.886 260.703 709.682ZM262.503 709.61H263.925C263.913 711.254 263.967 712.832 264.087 714.344C264.219 715.844 264.405 717.23 264.645 718.502C264.885 719.762 265.167 720.86 265.491 721.796C265.827 722.72 266.193 723.44 266.589 723.956C266.985 724.46 267.399 724.712 267.831 724.712C268.083 724.712 268.269 724.466 268.389 723.974C268.521 723.47 268.611 722.636 268.659 721.472C268.803 721.616 268.983 721.76 269.199 721.904C269.415 722.036 269.613 722.138 269.793 722.21C269.721 723.206 269.607 723.986 269.451 724.55C269.295 725.114 269.079 725.51 268.803 725.738C268.527 725.966 268.161 726.08 267.705 726.08C267.129 726.08 266.595 725.876 266.103 725.468C265.623 725.06 265.191 724.484 264.807 723.74C264.435 722.984 264.105 722.096 263.817 721.076C263.541 720.056 263.307 718.934 263.115 717.71C262.923 716.474 262.779 715.172 262.683 713.804C262.587 712.436 262.527 711.038 262.503 709.61ZM267.399 716.9L268.587 717.404C268.011 718.508 267.303 719.558 266.463 720.554C265.635 721.538 264.717 722.438 263.709 723.254C262.713 724.07 261.657 724.766 260.541 725.342C260.433 725.186 260.289 725.006 260.109 724.802C259.941 724.598 259.773 724.424 259.605 724.28C260.685 723.764 261.717 723.128 262.701 722.372C263.685 721.604 264.579 720.752 265.383 719.816C266.187 718.88 266.859 717.908 267.399 716.9ZM272.373 712.364H277.845V724.136H272.373V722.912H276.603V713.57H272.373V712.364ZM271.581 712.364H272.823V725.558H271.581V712.364ZM272.283 717.368H277.251V718.556H272.283V717.368ZM274.335 709.43L275.793 709.682C275.613 710.246 275.415 710.816 275.199 711.392C274.995 711.968 274.803 712.46 274.623 712.868L273.525 712.598C273.633 712.298 273.735 711.962 273.831 711.59C273.939 711.218 274.035 710.84 274.119 710.456C274.215 710.072 274.287 709.73 274.335 709.43ZM280.419 712.31H285.945V713.552H280.419V712.31ZM285.459 712.31H286.737C286.737 712.31 286.737 712.352 286.737 712.436C286.737 712.52 286.737 712.622 286.737 712.742C286.737 712.85 286.731 712.934 286.719 712.994C286.647 715.058 286.575 716.804 286.503 718.232C286.443 719.66 286.365 720.83 286.269 721.742C286.173 722.642 286.059 723.344 285.927 723.848C285.807 724.352 285.657 724.712 285.477 724.928C285.273 725.192 285.057 725.372 284.829 725.468C284.613 725.576 284.343 725.648 284.019 725.684C283.719 725.708 283.323 725.714 282.831 725.702C282.351 725.702 281.853 725.684 281.337 725.648C281.325 725.456 281.277 725.234 281.193 724.982C281.121 724.73 281.019 724.52 280.887 724.352C281.487 724.4 282.027 724.43 282.507 724.442C282.999 724.454 283.353 724.46 283.569 724.46C283.749 724.46 283.893 724.442 284.001 724.406C284.121 724.358 284.235 724.274 284.343 724.154C284.487 723.998 284.613 723.68 284.721 723.2C284.841 722.708 284.943 722.012 285.027 721.112C285.111 720.212 285.189 719.066 285.261 717.674C285.333 716.27 285.399 714.578 285.459 712.598V712.31ZM280.779 709.394L282.075 709.682C281.859 710.582 281.595 711.464 281.283 712.328C280.983 713.18 280.647 713.984 280.275 714.74C279.915 715.496 279.531 716.162 279.123 716.738C279.039 716.666 278.925 716.582 278.781 716.486C278.649 716.378 278.511 716.282 278.367 716.198C278.223 716.102 278.097 716.024 277.989 715.964C278.409 715.424 278.793 714.806 279.141 714.11C279.489 713.402 279.801 712.646 280.077 711.842C280.353 711.038 280.587 710.222 280.779 709.394ZM279.951 716.972L281.013 716.378C281.349 716.798 281.697 717.26 282.057 717.764C282.429 718.268 282.771 718.754 283.083 719.222C283.407 719.69 283.665 720.104 283.857 720.464L282.705 721.184C282.525 720.812 282.279 720.386 281.967 719.906C281.667 719.414 281.337 718.916 280.977 718.412C280.629 717.896 280.287 717.416 279.951 716.972ZM288.993 712.076H304.239V713.39H288.993V712.076ZM288.705 721.274H304.563V722.606H288.705V721.274ZM296.733 714.506H298.155V726.026H296.733V714.506ZM290.631 718.808C290.607 718.7 290.565 718.562 290.505 718.394C290.445 718.226 290.379 718.052 290.307 717.872C290.247 717.692 290.187 717.536 290.127 717.404C290.319 717.356 290.517 717.206 290.721 716.954C290.925 716.702 291.147 716.378 291.387 715.982C291.519 715.778 291.705 715.46 291.945 715.028C292.197 714.584 292.473 714.056 292.773 713.444C293.085 712.832 293.391 712.178 293.691 711.482C293.991 710.774 294.261 710.072 294.501 709.376L296.031 709.79C295.623 710.798 295.173 711.8 294.681 712.796C294.189 713.78 293.685 714.716 293.169 715.604C292.653 716.48 292.131 717.266 291.603 717.962V718.016C291.603 718.016 291.555 718.046 291.459 718.106C291.363 718.154 291.249 718.22 291.117 718.304C290.985 718.376 290.871 718.46 290.775 718.556C290.679 718.64 290.631 718.724 290.631 718.808ZM290.631 718.808V717.728L291.495 717.26H303.051V718.538H292.575C292.215 718.538 291.897 718.55 291.621 718.574C291.357 718.598 291.141 718.628 290.973 718.664C290.805 718.7 290.691 718.748 290.631 718.808ZM312.201 710.618H322.299V711.896H312.201V710.618ZM312.561 714.524H321.165V715.712H313.767V725.99H312.561V714.524ZM320.661 714.524H321.813V724.496C321.813 724.82 321.771 725.072 321.687 725.252C321.615 725.444 321.459 725.588 321.219 725.684C320.991 725.78 320.679 725.834 320.283 725.846C319.899 725.87 319.425 725.882 318.861 725.882C318.849 725.726 318.801 725.54 318.717 725.324C318.645 725.12 318.573 724.94 318.501 724.784C318.933 724.796 319.323 724.802 319.671 724.802C320.019 724.802 320.253 724.796 320.373 724.784C320.493 724.784 320.571 724.76 320.607 724.712C320.643 724.676 320.661 724.598 320.661 724.478V714.524ZM315.459 718.07L316.161 717.584C316.425 718.04 316.677 718.538 316.917 719.078C317.169 719.606 317.349 720.05 317.457 720.41L316.719 721.004C316.611 720.62 316.437 720.152 316.197 719.6C315.969 719.048 315.723 718.538 315.459 718.07ZM315.369 711.608H316.413V714.83C316.413 715.394 316.395 716.018 316.359 716.702C316.323 717.386 316.245 718.094 316.125 718.826C316.005 719.558 315.825 720.278 315.585 720.986C315.345 721.694 315.021 722.354 314.613 722.966C314.529 722.858 314.409 722.732 314.253 722.588C314.097 722.444 313.959 722.324 313.839 722.228C314.199 721.688 314.481 721.1 314.685 720.464C314.901 719.816 315.057 719.156 315.153 718.484C315.249 717.8 315.309 717.146 315.333 716.522C315.357 715.898 315.369 715.334 315.369 714.83V711.608ZM318.123 717.944L318.843 717.476C319.095 717.92 319.347 718.4 319.599 718.916C319.851 719.42 320.073 719.906 320.265 720.374C320.469 720.842 320.625 721.25 320.733 721.598L319.941 722.192C319.845 721.82 319.695 721.394 319.491 720.914C319.299 720.422 319.083 719.918 318.843 719.402C318.615 718.874 318.375 718.388 318.123 717.944ZM318.015 711.59H319.059V715.118C319.059 715.694 319.041 716.33 319.005 717.026C318.969 717.722 318.897 718.436 318.789 719.168C318.681 719.9 318.519 720.62 318.303 721.328C318.087 722.024 317.799 722.678 317.439 723.29C317.355 723.17 317.235 723.038 317.079 722.894C316.923 722.75 316.785 722.636 316.665 722.552C316.989 722.024 317.241 721.436 317.421 720.788C317.601 720.14 317.733 719.48 317.817 718.808C317.913 718.124 317.967 717.464 317.979 716.828C318.003 716.192 318.015 715.616 318.015 715.1V711.59ZM306.045 711.626H311.751V712.814H306.045V711.626ZM309.141 714.416H310.311V725.954H309.141V714.416ZM305.919 721.58C306.675 721.424 307.575 721.226 308.619 720.986C309.675 720.734 310.749 720.482 311.841 720.23L311.949 721.382C310.941 721.646 309.939 721.91 308.943 722.174C307.947 722.426 307.041 722.654 306.225 722.858L305.919 721.58ZM306.477 718.646C306.453 718.562 306.417 718.448 306.369 718.304C306.321 718.16 306.267 718.016 306.207 717.872C306.159 717.728 306.111 717.608 306.063 717.512C306.207 717.464 306.339 717.308 306.459 717.044C306.579 716.768 306.693 716.426 306.801 716.018C306.873 715.814 306.963 715.49 307.071 715.046C307.191 714.59 307.317 714.062 307.449 713.462C307.581 712.862 307.701 712.22 307.809 711.536C307.929 710.84 308.013 710.156 308.061 709.484L309.321 709.682C309.201 710.63 309.039 711.596 308.835 712.58C308.631 713.564 308.403 714.512 308.151 715.424C307.911 716.336 307.653 717.158 307.377 717.89V717.926C307.377 717.926 307.329 717.95 307.233 717.998C307.137 718.046 307.029 718.112 306.909 718.196C306.801 718.268 306.699 718.346 306.603 718.43C306.519 718.502 306.477 718.574 306.477 718.646ZM306.477 718.646V717.512L307.179 717.152H311.769V718.394H307.719C307.431 718.394 307.167 718.418 306.927 718.466C306.699 718.514 306.549 718.574 306.477 718.646Z" fill="white"/>
<rect x="206.377" y="687.75" width="162.875" height="61.6758" rx="30.8379" stroke="white" stroke-width="1.5"/>
<path d="M151.473 562.566V540.02H160.473C164.473 540.02 167.098 542.254 167.098 545.66V545.691C167.098 548.066 165.301 550.27 162.926 550.613V550.676C166.129 551.004 168.208 553.207 168.208 556.176V556.207C168.208 560.16 165.317 562.566 160.52 562.566H151.473ZM159.629 542.879H154.973V549.629H158.848C161.942 549.629 163.614 548.379 163.614 546.113V546.082C163.614 544.02 162.161 542.879 159.629 542.879ZM159.567 552.332H154.973V559.707H159.801C162.942 559.707 164.629 558.441 164.629 556.035V556.004C164.629 553.582 162.911 552.332 159.567 552.332ZM176.19 562.566V543.488H176.112L170.221 547.551V544.238L176.159 540.02H179.612V562.566H176.19ZM198.671 562.941C193.859 562.941 190.718 560.316 190.405 556.645L190.39 556.441H193.749L193.765 556.613C193.984 558.613 195.874 560.02 198.671 560.02C201.421 560.02 203.28 558.488 203.28 556.301V556.27C203.28 553.723 201.437 552.301 198.421 552.301H195.687V549.582H198.327C200.905 549.582 202.655 548.066 202.655 545.973V545.941C202.655 543.77 201.187 542.504 198.64 542.504C196.14 542.504 194.39 543.816 194.171 545.91L194.155 546.051H190.874L190.89 545.895C191.234 542.129 194.234 539.645 198.64 539.645C203.124 539.645 206.062 542.02 206.062 545.488V545.52C206.062 548.316 204.062 550.191 201.312 550.77V550.848C204.624 551.145 206.843 553.145 206.843 556.301V556.332C206.843 560.191 203.452 562.941 198.671 562.941ZM215.466 562.566V543.488H215.388L209.497 547.551V544.238L215.435 540.02H218.888V562.566H215.466ZM231.855 562.941C227.042 562.941 223.902 560.316 223.589 556.645L223.574 556.441H226.933L226.949 556.613C227.167 558.613 229.058 560.02 231.855 560.02C234.605 560.02 236.464 558.488 236.464 556.301V556.27C236.464 553.723 234.621 552.301 231.605 552.301H228.871V549.582H231.511C234.089 549.582 235.839 548.066 235.839 545.973V545.941C235.839 543.77 234.371 542.504 231.824 542.504C229.324 542.504 227.574 543.816 227.355 545.91L227.339 546.051H224.058L224.074 545.895C224.417 542.129 227.417 539.645 231.824 539.645C236.308 539.645 239.246 542.02 239.246 545.488V545.52C239.246 548.316 237.246 550.191 234.496 550.77V550.848C237.808 551.145 240.027 553.145 240.027 556.301V556.332C240.027 560.191 236.636 562.941 231.855 562.941Z" fill="white" fill-opacity="0.8"/>
<path d="M161 286V430" stroke="#FEFB54" stroke-width="16" stroke-linecap="round" stroke-linejoin="round"/>
<path d="M161 286H215C234.882 286 251 301.67 251 321C251 340.33 234.882 356 215 356H161V286Z" stroke="#FEFB54" stroke-width="16" stroke-linejoin="round"/>
<path d="M262.813 75.6992C268.359 75.6992 272.855 71.2028 272.855 65.6563C272.855 60.1097 268.359 55.6133 262.813 55.6133C257.266 55.6133 252.77 60.1097 252.77 65.6563C252.77 71.2028 257.266 75.6992 262.813 75.6992Z" stroke="white" stroke-width="1.6" stroke-linejoin="round"/>
<path d="M271.67 74.5195L276.983 79.8323" stroke="white" stroke-width="1.6" stroke-linecap="round" stroke-linejoin="round"/>
<path d="M324.371 57.828H321.71C321.52 57.186 321.128 56.6229 320.591 56.2235C320.054 55.8241 319.401 55.6099 318.732 55.6133C318.063 55.6096 317.41 55.8236 316.873 56.2231C316.335 56.6225 315.942 57.1858 315.753 57.828H301.813C301.705 57.8267 301.598 57.8468 301.497 57.887C301.397 57.9272 301.306 57.9867 301.229 58.0622C301.152 58.1377 301.09 58.2276 301.048 58.3269C301.006 58.4261 300.983 58.5328 300.982 58.6407C300.983 58.7486 301.006 58.8552 301.048 58.9545C301.09 59.0537 301.152 59.1437 301.229 59.2191C301.306 59.2946 301.397 59.3542 301.497 59.3943C301.598 59.4345 301.705 59.4546 301.813 59.4533H315.752C315.941 60.096 316.335 60.6595 316.872 61.059C317.41 61.4585 318.063 61.6723 318.733 61.668C319.403 61.6714 320.055 61.4573 320.592 61.0578C321.129 60.6584 321.522 60.0953 321.711 59.4533H324.372C324.48 59.4544 324.587 59.4342 324.687 59.394C324.787 59.3537 324.878 59.2941 324.955 59.2187C325.032 59.1432 325.093 59.0533 325.136 58.9541C325.178 58.855 325.2 58.7484 325.201 58.6407C325.2 58.5328 325.178 58.4261 325.135 58.3269C325.093 58.2276 325.032 58.1377 324.955 58.0622C324.877 57.9867 324.786 57.9272 324.686 57.887C324.586 57.8468 324.479 57.8267 324.371 57.828ZM318.732 60.0427C318.356 60.0462 317.994 59.9007 317.726 59.6379C317.457 59.375 317.304 59.0164 317.299 58.6407C317.299 57.867 317.942 57.2387 318.732 57.2387C319.52 57.2387 320.164 57.867 320.164 58.6407C320.164 59.413 319.52 60.0427 318.732 60.0427ZM324.37 66.3045C324.478 66.3031 324.585 66.323 324.685 66.3631C324.785 66.4032 324.877 66.4627 324.954 66.5382C325.031 66.6137 325.093 66.7037 325.135 66.8031C325.178 66.9024 325.2 67.0092 325.201 67.1172C325.2 67.2251 325.178 67.3317 325.135 67.431C325.093 67.5302 325.032 67.6202 324.955 67.6957C324.877 67.7712 324.786 67.8307 324.686 67.8709C324.586 67.9111 324.479 67.9311 324.371 67.9299H310.432C310.242 68.5723 309.849 69.1357 309.312 69.5352C308.774 69.9346 308.121 70.1485 307.451 70.1445C306.782 70.1482 306.129 69.9342 305.592 69.5348C305.055 69.1353 304.662 68.572 304.473 67.9299H301.813C301.705 67.9311 301.598 67.9111 301.497 67.8709C301.397 67.8307 301.306 67.7712 301.229 67.6957C301.152 67.6202 301.09 67.5302 301.048 67.431C301.006 67.3317 300.983 67.2251 300.982 67.1172C300.983 67.0093 301.006 66.9027 301.048 66.8034C301.09 66.7041 301.152 66.6142 301.229 66.5387C301.306 66.4632 301.397 66.4037 301.497 66.3635C301.598 66.3233 301.705 66.3033 301.813 66.3045H304.474C304.663 65.6623 305.056 65.0991 305.593 64.6996C306.131 64.3002 306.783 64.0862 307.453 64.0899C308.87 64.0899 310.067 65.029 310.43 66.3045H324.37ZM307.454 68.5192C308.243 68.5192 308.886 67.8908 308.886 67.1172C308.886 66.3435 308.243 65.7152 307.454 65.7152C306.664 65.7152 306.021 66.3435 306.021 67.1172C306.021 67.8908 306.664 68.5192 307.454 68.5192ZM324.372 75.992C324.48 75.9907 324.587 76.0108 324.687 76.051C324.788 76.0912 324.879 76.1507 324.956 76.2262C325.033 76.3017 325.094 76.3916 325.137 76.4909C325.179 76.5901 325.201 76.6968 325.202 76.8047C325.201 76.9125 325.179 77.0192 325.137 77.1184C325.094 77.2177 325.033 77.3077 324.956 77.3831C324.879 77.4586 324.788 77.5182 324.687 77.5583C324.587 77.5985 324.48 77.6186 324.372 77.6173H321.711C321.522 78.2595 321.129 78.8228 320.591 79.2222C320.054 79.6217 319.402 79.8357 318.732 79.832C318.063 79.8357 317.41 79.6217 316.873 79.2222C316.335 78.8228 315.942 78.2595 315.753 77.6173H301.813C301.705 77.6186 301.598 77.5985 301.497 77.5583C301.397 77.5182 301.306 77.4586 301.229 77.3831C301.152 77.3077 301.09 77.2177 301.048 77.1184C301.006 77.0192 300.983 76.9125 300.982 76.8047C300.983 76.6968 301.006 76.5901 301.048 76.4909C301.09 76.3916 301.152 76.3017 301.229 76.2262C301.306 76.1507 301.397 76.0912 301.497 76.051C301.598 76.0108 301.705 75.9907 301.813 75.992H315.752C315.941 75.3496 316.334 74.7861 316.872 74.3867C317.409 73.9872 318.062 73.7733 318.732 73.7773C320.149 73.7773 321.346 74.7165 321.71 75.992H324.371H324.372ZM318.733 78.2066C319.522 78.2066 320.165 77.5783 320.165 76.8047C320.165 76.031 319.522 75.4027 318.733 75.4027C317.944 75.4027 317.3 76.031 317.3 76.8047C317.3 77.5783 317.944 78.2066 318.733 78.2066Z" fill="white"/>
<path d="M359.709 70.9948V64.9336" stroke="white" stroke-width="1.6" stroke-linecap="round"/>
<path d="M353.754 56.2695H365.664" stroke="white" stroke-width="1.6" stroke-linecap="round"/>
<circle cx="359.709" cy="69.807" r="9.70619" stroke="white" stroke-width="1.6"/>
<path d="M138.256 154.812C137.818 154.771 137.329 154.729 136.787 154.688C136.308 154.646 135.735 154.615 135.068 154.594C134.402 154.573 133.631 154.562 132.756 154.562C131.068 154.562 129.11 154.635 126.881 154.781C124.652 154.927 122.235 155.208 119.631 155.625C120.089 154.688 120.485 153.5 120.818 152.062C121.152 150.625 121.423 149.094 121.631 147.469C121.86 145.823 122.037 144.156 122.162 142.469C122.287 140.781 122.381 139.208 122.443 137.75C122.506 136.292 122.537 135.031 122.537 133.969C122.558 132.906 122.568 132.177 122.568 131.781C122.568 131.719 122.558 131.469 122.537 131.031C122.537 130.573 122.527 129.979 122.506 129.25C122.485 128.521 122.454 127.688 122.412 126.75C122.391 125.792 122.36 124.781 122.318 123.719C121.173 123.49 120.027 123.281 118.881 123.094C117.756 122.906 116.725 122.75 115.787 122.625C114.704 122.479 113.662 122.365 112.662 122.281C114.1 120.927 115.277 119.625 116.193 118.375C117.11 117.125 117.839 115.948 118.381 114.844C118.943 113.74 119.36 112.729 119.631 111.812C119.923 110.896 120.152 110.083 120.318 109.375C122.423 109.75 124.35 110 126.1 110.125C127.87 110.25 129.464 110.312 130.881 110.312C131.818 110.312 132.662 110.292 133.412 110.25C134.162 110.208 134.798 110.167 135.318 110.125C135.923 110.062 136.454 110 136.912 109.938C136.662 111.104 136.443 112.406 136.256 113.844C136.068 115.26 135.902 116.781 135.756 118.406C135.61 120.01 135.495 121.698 135.412 123.469C135.35 125.24 135.318 127.062 135.318 128.938C135.318 131.104 135.37 133.312 135.475 135.562C135.579 137.792 135.745 140.01 135.975 142.219C136.225 144.427 136.527 146.594 136.881 148.719C137.256 150.844 137.714 152.875 138.256 154.812ZM160.1 123.5C160.725 123.521 161.631 123.583 162.818 123.688C164.027 123.792 165.339 124.031 166.756 124.406C168.173 124.781 169.62 125.333 171.1 126.062C172.579 126.771 173.923 127.76 175.131 129.031C176.339 130.281 177.329 131.854 178.1 133.75C178.87 135.625 179.256 137.906 179.256 140.594C179.256 143.073 178.881 145.333 178.131 147.375C177.402 149.396 176.287 151.125 174.787 152.562C173.308 154 171.433 155.104 169.162 155.875C166.912 156.667 164.256 157.062 161.193 157.062C158.506 157.062 156.162 156.677 154.162 155.906C152.162 155.156 150.495 154.146 149.162 152.875C147.829 151.604 146.829 150.156 146.162 148.531C145.516 146.885 145.193 145.198 145.193 143.469C145.193 142.198 145.402 141.094 145.818 140.156C146.235 139.198 146.808 138.406 147.537 137.781C148.287 137.135 149.152 136.656 150.131 136.344C151.131 136.031 152.193 135.875 153.318 135.875C154.193 135.875 155.048 135.969 155.881 136.156C156.735 136.344 157.527 136.625 158.256 137C159.006 137.354 159.673 137.792 160.256 138.312C160.86 138.833 161.339 139.427 161.693 140.094C161.256 139.969 160.881 139.906 160.568 139.906C160.277 139.906 159.985 139.979 159.693 140.125C159.423 140.25 159.173 140.427 158.943 140.656C158.714 140.885 158.527 141.156 158.381 141.469C158.256 141.76 158.193 142.073 158.193 142.406C158.193 142.76 158.256 143.135 158.381 143.531C158.527 143.906 158.735 144.25 159.006 144.562C159.298 144.875 159.652 145.135 160.068 145.344C160.506 145.552 161.006 145.656 161.568 145.656C162.923 145.656 163.923 145.24 164.568 144.406C165.214 143.552 165.537 142.438 165.537 141.062C165.537 139.854 165.235 138.792 164.631 137.875C164.027 136.938 163.235 136.156 162.256 135.531C161.277 134.885 160.162 134.385 158.912 134.031C157.662 133.656 156.391 133.417 155.1 133.312C153.829 133.188 152.579 133.198 151.35 133.344C150.12 133.469 149.048 133.708 148.131 134.062C148.131 134 148.12 133.656 148.1 133.031C148.1 132.406 148.089 131.604 148.068 130.625C148.048 129.625 148.016 128.49 147.975 127.219C147.933 125.948 147.87 124.635 147.787 123.281C147.725 121.906 147.641 120.531 147.537 119.156C147.433 117.76 147.298 116.458 147.131 115.25C146.985 114.021 146.808 112.927 146.6 111.969C146.412 110.99 146.183 110.229 145.912 109.688C147.912 110.104 149.943 110.406 152.006 110.594C154.068 110.76 156.11 110.844 158.131 110.844C160.443 110.844 162.693 110.771 164.881 110.625C167.089 110.458 169.058 110.271 170.787 110.062C172.808 109.833 174.714 109.562 176.506 109.25V125.812C175.381 124.854 174.225 124.052 173.037 123.406C171.87 122.74 170.714 122.208 169.568 121.812C168.443 121.417 167.36 121.135 166.318 120.969C165.277 120.781 164.339 120.688 163.506 120.688H160.35L160.1 123.5ZM186.912 150C186.912 149.104 187.079 148.26 187.412 147.469C187.766 146.656 188.235 145.948 188.818 145.344C189.423 144.74 190.12 144.271 190.912 143.938C191.704 143.583 192.558 143.406 193.475 143.406C194.391 143.406 195.245 143.583 196.037 143.938C196.85 144.271 197.548 144.74 198.131 145.344C198.735 145.948 199.204 146.656 199.537 147.469C199.891 148.26 200.068 149.104 200.068 150C200.068 150.917 199.891 151.781 199.537 152.594C199.204 153.385 198.735 154.083 198.131 154.688C197.548 155.271 196.85 155.729 196.037 156.062C195.245 156.417 194.391 156.594 193.475 156.594C192.558 156.594 191.704 156.417 190.912 156.062C190.12 155.729 189.423 155.271 188.818 154.688C188.235 154.083 187.766 153.385 187.412 152.594C187.079 151.781 186.912 150.917 186.912 150ZM186.912 127.75C186.912 126.833 187.079 125.979 187.412 125.188C187.766 124.375 188.235 123.677 188.818 123.094C189.423 122.49 190.12 122.021 190.912 121.688C191.704 121.333 192.558 121.156 193.475 121.156C194.391 121.156 195.245 121.333 196.037 121.688C196.85 122.021 197.548 122.49 198.131 123.094C198.735 123.677 199.204 124.375 199.537 125.188C199.891 125.979 200.068 126.833 200.068 127.75C200.068 128.667 199.891 129.521 199.537 130.312C199.204 131.104 198.735 131.802 198.131 132.406C197.548 132.99 196.85 133.458 196.037 133.812C195.245 134.146 194.391 134.312 193.475 134.312C192.558 134.312 191.704 134.146 190.912 133.812C190.12 133.458 189.423 132.99 188.818 132.406C188.235 131.802 187.766 131.104 187.412 130.312C187.079 129.521 186.912 128.667 186.912 127.75ZM231.318 154.812C230.881 154.771 230.391 154.729 229.85 154.688C229.37 154.646 228.798 154.615 228.131 154.594C227.464 154.573 226.693 154.562 225.818 154.562C224.131 154.562 222.173 154.635 219.943 154.781C217.714 154.927 215.298 155.208 212.693 155.625C213.152 154.688 213.548 153.5 213.881 152.062C214.214 150.625 214.485 149.094 214.693 147.469C214.923 145.823 215.1 144.156 215.225 142.469C215.35 140.781 215.443 139.208 215.506 137.75C215.568 136.292 215.6 135.031 215.6 133.969C215.62 132.906 215.631 132.177 215.631 131.781C215.631 131.719 215.62 131.469 215.6 131.031C215.6 130.573 215.589 129.979 215.568 129.25C215.548 128.521 215.516 127.688 215.475 126.75C215.454 125.792 215.423 124.781 215.381 123.719C214.235 123.49 213.089 123.281 211.943 123.094C210.818 122.906 209.787 122.75 208.85 122.625C207.766 122.479 206.725 122.365 205.725 122.281C207.162 120.927 208.339 119.625 209.256 118.375C210.173 117.125 210.902 115.948 211.443 114.844C212.006 113.74 212.423 112.729 212.693 111.812C212.985 110.896 213.214 110.083 213.381 109.375C215.485 109.75 217.412 110 219.162 110.125C220.933 110.25 222.527 110.312 223.943 110.312C224.881 110.312 225.725 110.292 226.475 110.25C227.225 110.208 227.86 110.167 228.381 110.125C228.985 110.062 229.516 110 229.975 109.938C229.725 111.104 229.506 112.406 229.318 113.844C229.131 115.26 228.964 116.781 228.818 118.406C228.673 120.01 228.558 121.698 228.475 123.469C228.412 125.24 228.381 127.062 228.381 128.938C228.381 131.104 228.433 133.312 228.537 135.562C228.641 137.792 228.808 140.01 229.037 142.219C229.287 144.427 229.589 146.594 229.943 148.719C230.318 150.844 230.777 152.875 231.318 154.812ZM264.693 132.969C265.652 133.24 266.589 133.604 267.506 134.062C268.443 134.5 269.266 135.104 269.975 135.875C270.704 136.625 271.287 137.573 271.725 138.719C272.162 139.844 272.381 141.24 272.381 142.906C272.381 144.927 272.006 146.802 271.256 148.531C270.527 150.26 269.412 151.76 267.912 153.031C266.433 154.281 264.558 155.26 262.287 155.969C260.037 156.698 257.381 157.062 254.318 157.062C251.631 157.062 249.287 156.677 247.287 155.906C245.287 155.156 243.62 154.146 242.287 152.875C240.954 151.604 239.954 150.156 239.287 148.531C238.641 146.885 238.318 145.198 238.318 143.469C238.318 142.198 238.527 141.094 238.943 140.156C239.36 139.198 239.933 138.406 240.662 137.781C241.412 137.135 242.277 136.656 243.256 136.344C244.256 136.031 245.318 135.875 246.443 135.875C247.318 135.875 248.173 135.969 249.006 136.156C249.86 136.344 250.652 136.625 251.381 137C252.131 137.354 252.798 137.792 253.381 138.312C253.985 138.833 254.464 139.427 254.818 140.094C254.381 139.969 254.006 139.906 253.693 139.906C253.402 139.906 253.11 139.979 252.818 140.125C252.548 140.25 252.298 140.427 252.068 140.656C251.839 140.885 251.652 141.156 251.506 141.469C251.381 141.76 251.318 142.073 251.318 142.406C251.318 142.76 251.381 143.135 251.506 143.531C251.652 143.906 251.86 144.25 252.131 144.562C252.423 144.875 252.777 145.135 253.193 145.344C253.631 145.552 254.131 145.656 254.693 145.656C255.36 145.656 255.923 145.531 256.381 145.281C256.839 145.01 257.204 144.688 257.475 144.312C257.745 143.938 257.933 143.531 258.037 143.094C258.162 142.656 258.225 142.25 258.225 141.875C258.225 140.333 257.923 139.073 257.318 138.094C256.714 137.094 255.975 136.281 255.1 135.656C254.245 135.01 253.339 134.49 252.381 134.094C251.443 133.698 250.62 133.323 249.912 132.969C251.245 132.594 252.423 132.188 253.443 131.75C254.485 131.312 255.36 130.76 256.068 130.094C256.777 129.427 257.308 128.583 257.662 127.562C258.037 126.542 258.225 125.26 258.225 123.719C258.225 123.344 258.162 122.938 258.037 122.5C257.933 122.062 257.745 121.656 257.475 121.281C257.204 120.885 256.839 120.562 256.381 120.312C255.923 120.062 255.36 119.938 254.693 119.938C254.131 119.938 253.631 120.042 253.193 120.25C252.777 120.458 252.423 120.719 252.131 121.031C251.86 121.344 251.652 121.698 251.506 122.094C251.381 122.469 251.318 122.833 251.318 123.188C251.318 123.521 251.381 123.844 251.506 124.156C251.652 124.448 251.839 124.708 252.068 124.938C252.298 125.167 252.548 125.354 252.818 125.5C253.11 125.625 253.402 125.688 253.693 125.688C254.006 125.688 254.381 125.625 254.818 125.5C254.464 126.167 253.985 126.771 253.381 127.312C252.798 127.833 252.131 128.271 251.381 128.625C250.652 128.979 249.86 129.25 249.006 129.438C248.173 129.625 247.318 129.719 246.443 129.719C245.318 129.719 244.256 129.562 243.256 129.25C242.277 128.938 241.412 128.469 240.662 127.844C239.933 127.198 239.36 126.406 238.943 125.469C238.527 124.51 238.318 123.385 238.318 122.094C238.318 120.365 238.641 118.688 239.287 117.062C239.954 115.438 240.954 113.99 242.287 112.719C243.62 111.448 245.287 110.438 247.287 109.688C249.287 108.917 251.631 108.531 254.318 108.531C257.381 108.531 260.037 108.938 262.287 109.75C264.558 110.562 266.433 111.646 267.912 113C269.412 114.354 270.527 115.906 271.256 117.656C272.006 119.406 272.381 121.208 272.381 123.062C272.381 124.417 272.152 125.667 271.693 126.812C271.256 127.938 270.673 128.927 269.943 129.781C269.214 130.635 268.391 131.333 267.475 131.875C266.558 132.417 265.631 132.781 264.693 132.969Z" fill="#FEFB54"/>
<path d="M159.795 177.762V176.559L163.764 172.566C165.264 171.066 165.6 170.473 165.6 169.598V169.582C165.592 168.512 164.779 167.746 163.639 167.746C162.318 167.746 161.373 168.637 161.357 169.777V169.824H159.701V169.777C159.701 167.762 161.412 166.301 163.615 166.301C165.779 166.301 167.326 167.66 167.326 169.48V169.496C167.326 170.785 166.725 171.699 164.701 173.699L162.139 176.215V176.285H167.506V177.762H159.795ZM173.162 177.949C170.467 177.949 168.857 175.707 168.857 172.129V172.113C168.857 168.535 170.467 166.301 173.162 166.301C175.85 166.301 177.467 168.535 177.467 172.113V172.129C177.467 175.707 175.85 177.949 173.162 177.949ZM173.162 176.488C174.764 176.488 175.701 174.832 175.701 172.129V172.113C175.701 169.41 174.764 167.77 173.162 167.77C171.553 167.77 170.623 169.41 170.623 172.113V172.129C170.623 174.832 171.553 176.488 173.162 176.488ZM178.904 177.762V176.559L182.873 172.566C184.373 171.066 184.709 170.473 184.709 169.598V169.582C184.701 168.512 183.889 167.746 182.748 167.746C181.428 167.746 180.482 168.637 180.467 169.777V169.824H178.811V169.777C178.811 167.762 180.521 166.301 182.725 166.301C184.889 166.301 186.436 167.66 186.436 169.48V169.496C186.436 170.785 185.834 171.699 183.811 173.699L181.248 176.215V176.285H186.615V177.762H178.904ZM192.201 177.949C189.943 177.949 188.373 176.582 188.217 174.723L188.209 174.629H189.881L189.889 174.691C190.037 175.707 190.959 176.488 192.217 176.488C193.639 176.488 194.631 175.504 194.631 174.105V174.09C194.623 172.707 193.631 171.73 192.232 171.73C191.537 171.73 190.936 171.934 190.482 172.34C190.271 172.52 190.092 172.738 189.943 172.988H188.412L188.967 166.488H195.686V167.965H190.381L190.037 171.535H190.076C190.584 170.777 191.521 170.348 192.631 170.348C194.787 170.348 196.342 171.902 196.342 174.059V174.074C196.342 176.363 194.631 177.949 192.201 177.949ZM201.498 166.488L198.451 180.496H196.889L199.943 166.488H201.498ZM205.225 177.762V168.223H205.186L202.24 170.254V168.598L205.209 166.488H206.936V177.762H205.225ZM212.537 177.762V168.223H212.498L209.553 170.254V168.598L212.521 166.488H214.248V177.762H212.537ZM220.732 166.488L217.686 180.496H216.123L219.178 166.488H220.732ZM225.639 177.949C223.381 177.949 221.811 176.582 221.654 174.723L221.646 174.629H223.318L223.326 174.691C223.475 175.707 224.396 176.488 225.654 176.488C227.076 176.488 228.068 175.504 228.068 174.105V174.09C228.061 172.707 227.068 171.73 225.67 171.73C224.975 171.73 224.373 171.934 223.92 172.34C223.709 172.52 223.529 172.738 223.381 172.988H221.85L222.404 166.488H229.123V167.965H223.818L223.475 171.535H223.514C224.021 170.777 224.959 170.348 226.068 170.348C228.225 170.348 229.779 171.902 229.779 174.059V174.074C229.779 176.363 228.068 177.949 225.639 177.949Z" fill="white" fill-opacity="0.4"/>
<rect x="128" y="831" width="134" height="5" rx="2.5" fill="black"/>
<g clip-path="url(#clip1_510_2365)">
<path d="M117.768 -2H272.184V13C272.184 22.3888 264.572 30 255.184 30H134.768C125.379 30 117.768 22.3888 117.768 13V-2Z" fill="black"/>
<path d="M118 -2H113C113 -2 113 -2 113 -2C115.651 -2 117.799 0.148747 117.799 2.79934C117.799 2.86656 117.798 2.93345 117.795 3H118V-2Z" fill="black"/>
<path d="M272 -2H277C277 -2 277 -2 277 -2C274.349 -2 272.201 0.148747 272.201 2.79934C272.201 2.86656 272.202 2.93345 272.205 3H272V-2Z" fill="black"/>
<path d="M40.8576 19.6982C43.9455 19.6982 46.0373 21.8896 46.0373 25.9487V25.9653C46.0373 29.9331 44.0451 32.3154 40.8908 32.3154C38.4172 32.3154 36.5744 30.8462 36.2175 28.9121L36.2092 28.8457H39.1642L39.1891 28.9121C39.4382 29.5264 40.0358 29.9663 40.8742 29.9663C42.3766 29.9663 43.0656 28.4888 43.1569 26.48C43.1569 26.397 43.1652 26.3057 43.1652 26.2144H42.9909C42.5593 27.1108 41.6296 27.916 39.9528 27.916C37.5788 27.916 36.0598 26.2808 36.0598 24.0312V24.0146C36.0598 21.541 38.0104 19.6982 40.8576 19.6982ZM40.8659 25.7827C41.9367 25.7827 42.7751 25.0356 42.7751 23.9648V23.9482C42.7751 22.8608 41.9367 22.0391 40.8742 22.0391C39.82 22.0391 38.965 22.8525 38.965 23.8984V23.915C38.965 25.0024 39.7702 25.7827 40.8659 25.7827ZM49.6386 24.7451C48.6508 24.7451 47.9784 24.0479 47.9784 23.1099C47.9784 22.1719 48.6508 21.4829 49.6386 21.4829C50.6347 21.4829 51.307 22.1719 51.307 23.1099C51.307 24.0479 50.6347 24.7451 49.6386 24.7451ZM49.6386 30.5308C48.6508 30.5308 47.9784 29.8418 47.9784 28.9038C47.9784 27.9658 48.6508 27.2686 49.6386 27.2686C50.6347 27.2686 51.307 27.9658 51.307 28.9038C51.307 29.8418 50.6347 30.5308 49.6386 30.5308ZM59.1666 32V29.958H53.2814V27.6587C54.7423 24.9775 56.2613 22.4624 57.8136 20.022H62.047V27.584H63.5411V29.958H62.047V32H59.1666ZM55.921 27.6919H59.2413V22.1968H59.0919C58.0211 23.8652 56.8839 25.7412 55.921 27.5425V27.6919ZM67.931 32V22.7695H67.7733L64.8846 24.7202V22.0972L67.931 20.022H70.9691V32H67.931Z" fill="white"/>
<path opacity="0.35" d="M340 19.5273H357C358.918 19.5273 360.473 21.0822 360.473 23V28C360.473 29.9178 358.918 31.4727 357 31.4727H340C338.082 31.4727 336.527 29.9178 336.527 28V23C336.527 21.0822 338.082 19.5273 340 19.5273Z" stroke="white" stroke-width="1.05509"/>
<path opacity="0.4" d="M362 24V28.2203C362.849 27.8629 363.401 27.0314 363.401 26.1102C363.401 25.1889 362.849 24.3574 362 24Z" fill="white"/>
<path d="M338 23C338 21.8954 338.895 21 340 21H357C358.105 21 359 21.8954 359 23V28C359 29.1046 358.105 30 357 30H340C338.895 30 338 29.1046 338 28V23Z" fill="white"/>
<path d="M318.115 29.085C319.535 27.8594 321.614 27.8595 323.034 29.085C323.106 29.1509 323.147 29.2445 323.149 29.3428C323.151 29.441 323.114 29.5357 323.045 29.6045L320.821 31.8945C320.756 31.9617 320.668 31.9999 320.575 32C320.482 32 320.393 31.9618 320.328 31.8945L318.104 29.6045C318.036 29.5356 317.998 29.441 318 29.3428C318.002 29.2445 318.044 29.1508 318.115 29.085ZM315.109 26.2617C318.168 23.3571 322.906 23.3571 325.965 26.2617C326.034 26.3298 326.073 26.4235 326.074 26.5215C326.075 26.6194 326.037 26.7138 325.97 26.7832L324.685 28.1084C324.552 28.2437 324.338 28.247 324.202 28.1152C323.198 27.1868 321.891 26.6718 320.536 26.6719C319.182 26.6724 317.876 27.1873 316.872 28.1152C316.736 28.247 316.522 28.2437 316.39 28.1084L315.104 26.7832C315.037 26.7139 314.999 26.6194 315 26.5215C315.001 26.4235 315.04 26.3298 315.109 26.2617ZM312.107 23.4424C316.799 18.8528 324.201 18.8528 328.893 23.4424C328.96 23.5106 328.999 23.6039 329 23.7012C329 23.7983 328.963 23.892 328.896 23.9609L327.609 25.2861C327.477 25.4221 327.262 25.4238 327.127 25.29C325.339 23.5553 322.967 22.588 320.5 22.5879C318.033 22.588 315.661 23.5553 313.873 25.29C313.738 25.4239 313.523 25.4223 313.391 25.2861L312.104 23.9609C312.037 23.892 312 23.7982 312 23.7012C312.001 23.6039 312.039 23.5105 312.107 23.4424Z" fill="white"/>
<path d="M296 23C296 22.4477 296.448 22 297 22H298C298.552 22 299 22.4477 299 23V31C299 31.5523 298.552 32 298 32H297C296.448 32 296 31.5523 296 31V23Z" fill="white"/>
<path d="M301 21C301 20.4477 301.448 20 302 20H303C303.552 20 304 20.4477 304 21V31C304 31.5523 303.552 32 303 32H302C301.448 32 301 31.5523 301 31V21Z" fill="white"/>
<path d="M291 26.5C291 25.9477 291.448 25.5 292 25.5H293C293.552 25.5 294 25.9477 294 26.5V31C294 31.5523 293.552 32 293 32H292C291.448 32 291 31.5523 291 31V26.5Z" fill="white"/>
<path d="M286 29C286 28.4477 286.448 28 287 28H288C288.552 28 289 28.4477 289 29V31C289 31.5523 288.552 32 288 32H287C286.448 32 286 31.5523 286 31V29Z" fill="white"/>
</g>
</g>
<defs>
<clipPath id="clip0_510_2365">
<rect width="390" height="844" rx="12" fill="white"/>
</clipPath>
<clipPath id="clip1_510_2365">
<rect width="390" height="47" fill="white"/>
</clipPath>
</defs>
</svg>
