<svg width="390" height="844" viewBox="0 0 390 844" fill="none" xmlns="http://www.w3.org/2000/svg">
<g clip-path="url(#clip0_324_10168)">
<rect width="390" height="844" rx="12" fill="#186051"/>
<circle cx="194.977" cy="350.285" r="141" fill="#236D5E"/>
<circle cx="195.283" cy="350.283" r="146" transform="rotate(0.115105 195.283 350.283)" stroke="white" stroke-opacity="0.4" stroke-width="10"/>
<path d="M127.4 284.207L109.902 266.708" stroke="white" stroke-opacity="0.5" stroke-width="5" stroke-linecap="round"/>
<path d="M277.486 434.293L259.988 416.794" stroke="white" stroke-opacity="0.5" stroke-width="5" stroke-linecap="round"/>
<path d="M127.398 416.797L109.9 434.296" stroke="white" stroke-opacity="0.5" stroke-width="5" stroke-linecap="round"/>
<path d="M277.484 266.711L259.986 284.21" stroke="white" stroke-opacity="0.5" stroke-width="5" stroke-linecap="round"/>
<path d="M193.693 256.75L193.693 232.003" stroke="white" stroke-opacity="0.5" stroke-width="5" stroke-linecap="round"/>
<path d="M193.693 469.004L193.693 444.257" stroke="white" stroke-opacity="0.5" stroke-width="5" stroke-linecap="round"/>
<path d="M99.9414 350.504L75.1944 350.504" stroke="white" stroke-opacity="0.5" stroke-width="5" stroke-linecap="round"/>
<path d="M312.193 350.504L287.446 350.504" stroke="white" stroke-opacity="0.5" stroke-width="5" stroke-linecap="round"/>
<circle cx="196" cy="351" r="13" stroke="white" stroke-width="10"/>
<path d="M31.2798 65.6806C33.8786 65.6806 35.9853 63.5739 35.9853 60.9751C35.9853 58.3763 33.8786 56.2695 31.2798 56.2695C28.681 56.2695 26.5742 58.3763 26.5742 60.9751C26.5742 63.5739 28.681 65.6806 31.2798 65.6806Z" stroke="white" stroke-width="1.6" stroke-linecap="round" stroke-linejoin="round"/>
<path d="M41.8683 79.7984C41.8683 73.9511 37.1281 69.2109 31.2808 69.2109C25.4335 69.2109 20.6934 73.9511 20.6934 79.7984" stroke="white" stroke-width="1.6" stroke-linecap="round" stroke-linejoin="round"/>
<path d="M359.211 70.9948V64.9336" stroke="white" stroke-width="1.6" stroke-linecap="round"/>
<path d="M353.256 56.2695H365.166" stroke="white" stroke-width="1.6" stroke-linecap="round"/>
<circle cx="359.211" cy="69.807" r="9.70619" stroke="white" stroke-width="1.6"/>
<path d="M84.2871 133.438C84.2871 135.271 84.1309 137.115 83.8184 138.969C83.5267 140.802 83.0684 142.573 82.4434 144.281C81.8392 145.969 81.0475 147.552 80.0684 149.031C79.11 150.49 77.9642 151.76 76.6309 152.844C75.3184 153.927 73.8079 154.781 72.0996 155.406C70.3913 156.031 68.485 156.344 66.3809 156.344C64.2767 156.344 62.3809 156.062 60.6934 155.5C59.0059 154.938 57.4954 154.156 56.1621 153.156C54.8288 152.135 53.6829 150.917 52.7246 149.5C51.7663 148.083 50.9746 146.531 50.3496 144.844C49.7246 143.135 49.2559 141.323 48.9434 139.406C48.6517 137.469 48.5059 135.479 48.5059 133.438C48.5059 129.75 48.9642 126.396 49.8809 123.375C50.8184 120.333 52.0892 117.729 53.6934 115.562C55.3184 113.396 57.2142 111.719 59.3809 110.531C61.5684 109.323 63.9017 108.719 66.3809 108.719C69.1517 108.719 71.6413 109.26 73.8496 110.344C76.0579 111.427 77.9329 113.021 79.4746 115.125C81.0163 117.208 82.2038 119.792 83.0371 122.875C83.8704 125.938 84.2871 129.458 84.2871 133.438ZM71.6309 132.031C71.6309 130.24 71.4954 128.635 71.2246 127.219C70.9746 125.802 70.61 124.604 70.1309 123.625C69.6725 122.625 69.0996 121.865 68.4121 121.344C67.7454 120.823 66.9954 120.562 66.1621 120.562C65.3704 120.562 64.6413 120.896 63.9746 121.562C63.3288 122.208 62.7663 123.073 62.2871 124.156C61.8288 125.219 61.4642 126.438 61.1934 127.812C60.9225 129.188 60.7871 130.594 60.7871 132.031C60.7871 133.698 60.8913 135.208 61.0996 136.562C61.3288 137.917 61.6621 139.073 62.0996 140.031C62.5371 140.99 63.0892 141.729 63.7559 142.25C64.4434 142.771 65.2454 143.031 66.1621 143.031C67.0996 143.031 67.9017 142.781 68.5684 142.281C69.2559 141.76 69.8288 141.031 70.2871 140.094C70.7454 139.135 71.0788 137.979 71.2871 136.625C71.5163 135.25 71.6309 133.719 71.6309 132.031ZM124.475 131.562C124.308 132.5 124.183 133.427 124.1 134.344C124.037 135.24 124.006 136.156 124.006 137.094C124.006 138.906 124.162 140.719 124.475 142.531C123.995 142.302 123.485 142.094 122.943 141.906C122.402 141.719 121.86 141.542 121.318 141.375C121.548 143.75 121.85 146.073 122.225 148.344C122.62 150.594 123.11 152.75 123.693 154.812C123.277 154.771 122.798 154.729 122.256 154.688C121.777 154.646 121.193 154.615 120.506 154.594C119.839 154.573 119.068 154.562 118.193 154.562C116.527 154.562 114.568 154.635 112.318 154.781C110.089 154.927 107.673 155.208 105.068 155.625C105.443 154.854 105.777 153.896 106.068 152.75C106.36 151.604 106.61 150.375 106.818 149.062C107.048 147.729 107.225 146.344 107.35 144.906C107.495 143.469 107.61 142.073 107.693 140.719C107.277 140.74 106.548 140.729 105.506 140.688C104.464 140.646 103.162 140.646 101.6 140.688C100.058 140.729 98.2975 140.844 96.3184 141.031C94.3392 141.219 92.2038 141.542 89.9121 142C90.9538 138.792 91.9225 135.823 92.8184 133.094C93.7142 130.365 94.5267 127.74 95.2559 125.219C95.985 122.698 96.61 120.208 97.1309 117.75C97.6517 115.292 98.0579 112.729 98.3496 110.062C102.37 110.417 106.37 110.573 110.35 110.531C114.329 110.469 118.329 110.271 122.35 109.938C121.87 112.292 121.485 115.115 121.193 118.406C120.902 121.677 120.756 125.188 120.756 128.938V132.719C121.464 132.552 122.131 132.385 122.756 132.219C123.381 132.052 123.954 131.833 124.475 131.562ZM108.006 133.625C108.006 133.083 107.995 132.365 107.975 131.469C107.975 130.573 107.954 129.562 107.912 128.438C107.891 127.312 107.86 126.104 107.818 124.812C107.777 123.5 107.714 122.167 107.631 120.812C106.693 122.625 105.943 124.615 105.381 126.781C104.818 128.948 104.308 131.167 103.85 133.438C104.329 133.479 104.756 133.51 105.131 133.531C105.506 133.552 105.85 133.573 106.162 133.594C106.475 133.594 106.777 133.604 107.068 133.625C107.36 133.625 107.673 133.625 108.006 133.625ZM132.225 150C132.225 149.104 132.391 148.26 132.725 147.469C133.079 146.656 133.548 145.948 134.131 145.344C134.735 144.74 135.433 144.271 136.225 143.938C137.016 143.583 137.87 143.406 138.787 143.406C139.704 143.406 140.558 143.583 141.35 143.938C142.162 144.271 142.86 144.74 143.443 145.344C144.048 145.948 144.516 146.656 144.85 147.469C145.204 148.26 145.381 149.104 145.381 150C145.381 150.917 145.204 151.781 144.85 152.594C144.516 153.385 144.048 154.083 143.443 154.688C142.86 155.271 142.162 155.729 141.35 156.062C140.558 156.417 139.704 156.594 138.787 156.594C137.87 156.594 137.016 156.417 136.225 156.062C135.433 155.729 134.735 155.271 134.131 154.688C133.548 154.083 133.079 153.385 132.725 152.594C132.391 151.781 132.225 150.917 132.225 150ZM132.225 127.75C132.225 126.833 132.391 125.979 132.725 125.188C133.079 124.375 133.548 123.677 134.131 123.094C134.735 122.49 135.433 122.021 136.225 121.688C137.016 121.333 137.87 121.156 138.787 121.156C139.704 121.156 140.558 121.333 141.35 121.688C142.162 122.021 142.86 122.49 143.443 123.094C144.048 123.677 144.516 124.375 144.85 125.188C145.204 125.979 145.381 126.833 145.381 127.75C145.381 128.667 145.204 129.521 144.85 130.312C144.516 131.104 144.048 131.802 143.443 132.406C142.86 132.99 142.162 133.458 141.35 133.812C140.558 134.146 139.704 134.312 138.787 134.312C137.87 134.312 137.016 134.146 136.225 133.812C135.433 133.458 134.735 132.99 134.131 132.406C133.548 131.802 133.079 131.104 132.725 130.312C132.391 129.521 132.225 128.667 132.225 127.75ZM188.912 133.438C188.912 135.271 188.756 137.115 188.443 138.969C188.152 140.802 187.693 142.573 187.068 144.281C186.464 145.969 185.673 147.552 184.693 149.031C183.735 150.49 182.589 151.76 181.256 152.844C179.943 153.927 178.433 154.781 176.725 155.406C175.016 156.031 173.11 156.344 171.006 156.344C168.902 156.344 167.006 156.062 165.318 155.5C163.631 154.938 162.12 154.156 160.787 153.156C159.454 152.135 158.308 150.917 157.35 149.5C156.391 148.083 155.6 146.531 154.975 144.844C154.35 143.135 153.881 141.323 153.568 139.406C153.277 137.469 153.131 135.479 153.131 133.438C153.131 129.75 153.589 126.396 154.506 123.375C155.443 120.333 156.714 117.729 158.318 115.562C159.943 113.396 161.839 111.719 164.006 110.531C166.193 109.323 168.527 108.719 171.006 108.719C173.777 108.719 176.266 109.26 178.475 110.344C180.683 111.427 182.558 113.021 184.1 115.125C185.641 117.208 186.829 119.792 187.662 122.875C188.495 125.938 188.912 129.458 188.912 133.438ZM176.256 132.031C176.256 130.24 176.12 128.635 175.85 127.219C175.6 125.802 175.235 124.604 174.756 123.625C174.298 122.625 173.725 121.865 173.037 121.344C172.37 120.823 171.62 120.562 170.787 120.562C169.995 120.562 169.266 120.896 168.6 121.562C167.954 122.208 167.391 123.073 166.912 124.156C166.454 125.219 166.089 126.438 165.818 127.812C165.548 129.188 165.412 130.594 165.412 132.031C165.412 133.698 165.516 135.208 165.725 136.562C165.954 137.917 166.287 139.073 166.725 140.031C167.162 140.99 167.714 141.729 168.381 142.25C169.068 142.771 169.87 143.031 170.787 143.031C171.725 143.031 172.527 142.781 173.193 142.281C173.881 141.76 174.454 141.031 174.912 140.094C175.37 139.135 175.704 137.979 175.912 136.625C176.141 135.25 176.256 133.719 176.256 132.031ZM232.1 133.438C232.1 135.271 231.943 137.115 231.631 138.969C231.339 140.802 230.881 142.573 230.256 144.281C229.652 145.969 228.86 147.552 227.881 149.031C226.923 150.49 225.777 151.76 224.443 152.844C223.131 153.927 221.62 154.781 219.912 155.406C218.204 156.031 216.298 156.344 214.193 156.344C212.089 156.344 210.193 156.062 208.506 155.5C206.818 154.938 205.308 154.156 203.975 153.156C202.641 152.135 201.495 150.917 200.537 149.5C199.579 148.083 198.787 146.531 198.162 144.844C197.537 143.135 197.068 141.323 196.756 139.406C196.464 137.469 196.318 135.479 196.318 133.438C196.318 129.75 196.777 126.396 197.693 123.375C198.631 120.333 199.902 117.729 201.506 115.562C203.131 113.396 205.027 111.719 207.193 110.531C209.381 109.323 211.714 108.719 214.193 108.719C216.964 108.719 219.454 109.26 221.662 110.344C223.87 111.427 225.745 113.021 227.287 115.125C228.829 117.208 230.016 119.792 230.85 122.875C231.683 125.938 232.1 129.458 232.1 133.438ZM219.443 132.031C219.443 130.24 219.308 128.635 219.037 127.219C218.787 125.802 218.423 124.604 217.943 123.625C217.485 122.625 216.912 121.865 216.225 121.344C215.558 120.823 214.808 120.562 213.975 120.562C213.183 120.562 212.454 120.896 211.787 121.562C211.141 122.208 210.579 123.073 210.1 124.156C209.641 125.219 209.277 126.438 209.006 127.812C208.735 129.188 208.6 130.594 208.6 132.031C208.6 133.698 208.704 135.208 208.912 136.562C209.141 137.917 209.475 139.073 209.912 140.031C210.35 140.99 210.902 141.729 211.568 142.25C212.256 142.771 213.058 143.031 213.975 143.031C214.912 143.031 215.714 142.781 216.381 142.281C217.068 141.76 217.641 141.031 218.1 140.094C218.558 139.135 218.891 137.979 219.1 136.625C219.329 135.25 219.443 133.719 219.443 132.031ZM239.912 150C239.912 149.104 240.079 148.26 240.412 147.469C240.766 146.656 241.235 145.948 241.818 145.344C242.423 144.74 243.12 144.271 243.912 143.938C244.704 143.583 245.558 143.406 246.475 143.406C247.391 143.406 248.245 143.583 249.037 143.938C249.85 144.271 250.548 144.74 251.131 145.344C251.735 145.948 252.204 146.656 252.537 147.469C252.891 148.26 253.068 149.104 253.068 150C253.068 150.917 252.891 151.781 252.537 152.594C252.204 153.385 251.735 154.083 251.131 154.688C250.548 155.271 249.85 155.729 249.037 156.062C248.245 156.417 247.391 156.594 246.475 156.594C245.558 156.594 244.704 156.417 243.912 156.062C243.12 155.729 242.423 155.271 241.818 154.688C241.235 154.083 240.766 153.385 240.412 152.594C240.079 151.781 239.912 150.917 239.912 150ZM239.912 127.75C239.912 126.833 240.079 125.979 240.412 125.188C240.766 124.375 241.235 123.677 241.818 123.094C242.423 122.49 243.12 122.021 243.912 121.688C244.704 121.333 245.558 121.156 246.475 121.156C247.391 121.156 248.245 121.333 249.037 121.688C249.85 122.021 250.548 122.49 251.131 123.094C251.735 123.677 252.204 124.375 252.537 125.188C252.891 125.979 253.068 126.833 253.068 127.75C253.068 128.667 252.891 129.521 252.537 130.312C252.204 131.104 251.735 131.802 251.131 132.406C250.548 132.99 249.85 133.458 249.037 133.812C248.245 134.146 247.391 134.312 246.475 134.312C245.558 134.312 244.704 134.146 243.912 133.812C243.12 133.458 242.423 132.99 241.818 132.406C241.235 131.802 240.766 131.104 240.412 130.312C240.079 129.521 239.912 128.667 239.912 127.75ZM296.6 133.438C296.6 135.271 296.443 137.115 296.131 138.969C295.839 140.802 295.381 142.573 294.756 144.281C294.152 145.969 293.36 147.552 292.381 149.031C291.423 150.49 290.277 151.76 288.943 152.844C287.631 153.927 286.12 154.781 284.412 155.406C282.704 156.031 280.798 156.344 278.693 156.344C276.589 156.344 274.693 156.062 273.006 155.5C271.318 154.938 269.808 154.156 268.475 153.156C267.141 152.135 265.995 150.917 265.037 149.5C264.079 148.083 263.287 146.531 262.662 144.844C262.037 143.135 261.568 141.323 261.256 139.406C260.964 137.469 260.818 135.479 260.818 133.438C260.818 129.75 261.277 126.396 262.193 123.375C263.131 120.333 264.402 117.729 266.006 115.562C267.631 113.396 269.527 111.719 271.693 110.531C273.881 109.323 276.214 108.719 278.693 108.719C281.464 108.719 283.954 109.26 286.162 110.344C288.37 111.427 290.245 113.021 291.787 115.125C293.329 117.208 294.516 119.792 295.35 122.875C296.183 125.938 296.6 129.458 296.6 133.438ZM283.943 132.031C283.943 130.24 283.808 128.635 283.537 127.219C283.287 125.802 282.923 124.604 282.443 123.625C281.985 122.625 281.412 121.865 280.725 121.344C280.058 120.823 279.308 120.562 278.475 120.562C277.683 120.562 276.954 120.896 276.287 121.562C275.641 122.208 275.079 123.073 274.6 124.156C274.141 125.219 273.777 126.438 273.506 127.812C273.235 129.188 273.1 130.594 273.1 132.031C273.1 133.698 273.204 135.208 273.412 136.562C273.641 137.917 273.975 139.073 274.412 140.031C274.85 140.99 275.402 141.729 276.068 142.25C276.756 142.771 277.558 143.031 278.475 143.031C279.412 143.031 280.214 142.781 280.881 142.281C281.568 141.76 282.141 141.031 282.6 140.094C283.058 139.135 283.391 137.979 283.6 136.625C283.829 135.25 283.943 133.719 283.943 132.031ZM339.787 133.438C339.787 135.271 339.631 137.115 339.318 138.969C339.027 140.802 338.568 142.573 337.943 144.281C337.339 145.969 336.548 147.552 335.568 149.031C334.61 150.49 333.464 151.76 332.131 152.844C330.818 153.927 329.308 154.781 327.6 155.406C325.891 156.031 323.985 156.344 321.881 156.344C319.777 156.344 317.881 156.062 316.193 155.5C314.506 154.938 312.995 154.156 311.662 153.156C310.329 152.135 309.183 150.917 308.225 149.5C307.266 148.083 306.475 146.531 305.85 144.844C305.225 143.135 304.756 141.323 304.443 139.406C304.152 137.469 304.006 135.479 304.006 133.438C304.006 129.75 304.464 126.396 305.381 123.375C306.318 120.333 307.589 117.729 309.193 115.562C310.818 113.396 312.714 111.719 314.881 110.531C317.068 109.323 319.402 108.719 321.881 108.719C324.652 108.719 327.141 109.26 329.35 110.344C331.558 111.427 333.433 113.021 334.975 115.125C336.516 117.208 337.704 119.792 338.537 122.875C339.37 125.938 339.787 129.458 339.787 133.438ZM327.131 132.031C327.131 130.24 326.995 128.635 326.725 127.219C326.475 125.802 326.11 124.604 325.631 123.625C325.173 122.625 324.6 121.865 323.912 121.344C323.245 120.823 322.495 120.562 321.662 120.562C320.87 120.562 320.141 120.896 319.475 121.562C318.829 122.208 318.266 123.073 317.787 124.156C317.329 125.219 316.964 126.438 316.693 127.812C316.423 129.188 316.287 130.594 316.287 132.031C316.287 133.698 316.391 135.208 316.6 136.562C316.829 137.917 317.162 139.073 317.6 140.031C318.037 140.99 318.589 141.729 319.256 142.25C319.943 142.771 320.745 143.031 321.662 143.031C322.6 143.031 323.402 142.781 324.068 142.281C324.756 141.76 325.329 141.031 325.787 140.094C326.245 139.135 326.579 137.979 326.787 136.625C327.016 135.25 327.131 133.719 327.131 132.031Z" fill="white" fill-opacity="0.8"/>
<path d="M152.059 600.255H156.859V601.407H152.059V600.255ZM157.931 602.303H163.019V603.423H157.931V602.303ZM160.379 602.959H161.499V611.823H160.379V602.959ZM148.987 598.127L149.675 597.279C149.974 597.418 150.283 597.583 150.603 597.775C150.923 597.956 151.227 598.148 151.515 598.351C151.803 598.543 152.032 598.73 152.203 598.911L151.483 599.871C151.312 599.69 151.088 599.492 150.811 599.279C150.534 599.066 150.235 598.858 149.915 598.655C149.595 598.452 149.286 598.276 148.987 598.127ZM148.251 602.463L148.907 601.567C149.227 601.684 149.558 601.828 149.899 601.999C150.24 602.17 150.555 602.346 150.843 602.527C151.142 602.708 151.387 602.884 151.579 603.055L150.891 604.031C150.71 603.86 150.47 603.679 150.171 603.487C149.883 603.295 149.568 603.108 149.227 602.927C148.896 602.746 148.571 602.591 148.251 602.463ZM148.555 611.039C148.747 610.602 148.955 610.09 149.179 609.503C149.403 608.916 149.627 608.298 149.851 607.647C150.086 606.986 150.294 606.351 150.475 605.743L151.467 606.319C151.307 606.895 151.126 607.498 150.923 608.127C150.72 608.746 150.512 609.354 150.299 609.951C150.086 610.548 149.878 611.103 149.675 611.615L148.555 611.039ZM157.467 598.463L158.891 598.895C158.88 599.002 158.774 599.071 158.571 599.103V603.967C158.571 604.554 158.55 605.183 158.507 605.855C158.464 606.516 158.374 607.199 158.235 607.903C158.107 608.596 157.915 609.279 157.659 609.951C157.414 610.612 157.083 611.231 156.667 611.807C156.614 611.722 156.534 611.626 156.427 611.519C156.331 611.423 156.224 611.327 156.107 611.231C155.99 611.146 155.883 611.082 155.787 611.039C156.299 610.335 156.672 609.578 156.907 608.767C157.142 607.956 157.291 607.135 157.355 606.303C157.43 605.471 157.467 604.687 157.467 603.951V598.463ZM161.643 597.103L162.747 597.935C162.331 598.18 161.862 598.42 161.339 598.655C160.827 598.89 160.294 599.114 159.739 599.327C159.195 599.53 158.667 599.716 158.155 599.887C158.112 599.759 158.048 599.61 157.963 599.439C157.878 599.258 157.792 599.114 157.707 599.007C158.187 598.826 158.672 598.634 159.163 598.431C159.654 598.218 160.118 597.999 160.555 597.775C160.992 597.54 161.355 597.316 161.643 597.103ZM151.707 605.599C152.358 605.418 153.136 605.178 154.043 604.879C154.96 604.58 155.883 604.271 156.811 603.951L157.003 605.039C156.171 605.348 155.328 605.658 154.475 605.967C153.632 606.266 152.87 606.532 152.187 606.767L151.707 605.599ZM153.963 597.119H155.067V610.303C155.067 610.644 155.024 610.911 154.939 611.103C154.864 611.295 154.726 611.444 154.523 611.551C154.32 611.647 154.048 611.706 153.707 611.727C153.366 611.759 152.939 611.775 152.427 611.775C152.406 611.626 152.358 611.434 152.283 611.199C152.219 610.964 152.144 610.756 152.059 610.575C152.432 610.586 152.768 610.591 153.067 610.591C153.366 610.602 153.568 610.607 153.675 610.607C153.782 610.596 153.856 610.57 153.899 610.527C153.942 610.484 153.963 610.404 153.963 610.287V597.119ZM164.339 598.623H178.179V599.727H164.339V598.623ZM170.563 597.103H171.795V599.247H170.563V597.103ZM165.011 601.423H177.091V602.479H166.163V611.807H165.011V601.423ZM176.451 601.423H177.619V610.335C177.619 610.687 177.571 610.964 177.475 611.167C177.379 611.37 177.203 611.519 176.947 611.615C176.68 611.711 176.323 611.77 175.875 611.791C175.427 611.812 174.872 611.823 174.211 611.823C174.19 611.716 174.158 611.594 174.115 611.455C174.072 611.316 174.024 611.172 173.971 611.023C173.918 610.884 173.859 610.762 173.795 610.655C174.318 610.666 174.798 610.671 175.235 610.671C175.672 610.682 175.96 610.682 176.099 610.671C176.238 610.66 176.328 610.628 176.371 610.575C176.424 610.532 176.451 610.452 176.451 610.335V601.423ZM169.043 602.191H170.147C170.094 602.895 169.966 603.492 169.763 603.983C169.56 604.474 169.224 604.879 168.755 605.199C168.296 605.519 167.656 605.775 166.835 605.967C166.792 605.839 166.712 605.69 166.595 605.519C166.478 605.348 166.366 605.215 166.259 605.119C166.974 604.97 167.523 604.772 167.907 604.527C168.302 604.282 168.579 603.972 168.739 603.599C168.899 603.226 169 602.756 169.043 602.191ZM172.019 602.207H173.091V604.063C173.091 604.212 173.118 604.308 173.171 604.351C173.224 604.394 173.352 604.415 173.555 604.415C173.598 604.415 173.683 604.415 173.811 604.415C173.939 604.415 174.078 604.415 174.227 604.415C174.387 604.415 174.531 604.415 174.659 604.415C174.798 604.415 174.899 604.415 174.963 604.415C175.07 604.415 175.15 604.394 175.203 604.351C175.267 604.308 175.315 604.212 175.347 604.063C175.379 603.903 175.4 603.668 175.411 603.359C175.518 603.434 175.662 603.508 175.843 603.583C176.024 603.647 176.19 603.695 176.339 603.727C176.286 604.367 176.168 604.799 175.987 605.023C175.816 605.236 175.518 605.343 175.091 605.343C175.038 605.343 174.931 605.343 174.771 605.343C174.622 605.343 174.451 605.343 174.259 605.343C174.078 605.343 173.907 605.343 173.747 605.343C173.598 605.343 173.491 605.343 173.427 605.343C173.054 605.343 172.766 605.306 172.563 605.231C172.36 605.156 172.216 605.028 172.131 604.847C172.056 604.666 172.019 604.41 172.019 604.079V602.207ZM168.259 606.159H169.347V611.087H168.259V606.159ZM168.915 606.159H174.355V610.095H168.915V609.151H173.251V607.103H168.915V606.159ZM167.411 599.711L168.563 599.487C168.755 599.786 168.931 600.116 169.091 600.479C169.262 600.842 169.39 601.162 169.475 601.439L168.243 601.727C168.179 601.45 168.067 601.124 167.907 600.751C167.747 600.367 167.582 600.02 167.411 599.711ZM173.843 599.439L175.155 599.679C174.974 600.052 174.782 600.42 174.579 600.783C174.387 601.146 174.206 601.455 174.035 601.711L172.867 601.471C173.038 601.194 173.214 600.863 173.395 600.479C173.576 600.084 173.726 599.738 173.843 599.439ZM179.819 601.695H193.899V602.927H179.819V601.695ZM187.611 602.191C187.974 603.482 188.448 604.687 189.035 605.807C189.632 606.916 190.358 607.887 191.211 608.719C192.075 609.551 193.056 610.202 194.155 610.671C194.059 610.756 193.952 610.863 193.835 610.991C193.728 611.13 193.622 611.268 193.515 611.407C193.408 611.546 193.323 611.674 193.259 611.791C192.107 611.236 191.088 610.506 190.203 609.599C189.328 608.692 188.582 607.636 187.963 606.431C187.344 605.226 186.832 603.908 186.427 602.479L187.611 602.191ZM186.203 597.119H187.499C187.499 597.812 187.478 598.586 187.435 599.439C187.403 600.282 187.323 601.162 187.195 602.079C187.067 602.986 186.854 603.903 186.555 604.831C186.267 605.748 185.862 606.639 185.339 607.503C184.827 608.356 184.171 609.151 183.371 609.887C182.571 610.623 181.59 611.258 180.427 611.791C180.331 611.631 180.192 611.455 180.011 611.263C179.84 611.082 179.675 610.927 179.515 610.799C180.646 610.308 181.595 609.722 182.363 609.039C183.142 608.356 183.776 607.61 184.267 606.799C184.758 605.988 185.136 605.151 185.403 604.287C185.67 603.423 185.856 602.564 185.963 601.711C186.07 600.847 186.134 600.026 186.155 599.247C186.187 598.468 186.203 597.759 186.203 597.119ZM199.443 598.655H209.699V599.711H199.443V598.655ZM203.907 597.167H205.107V599.151H203.907V597.167ZM201.843 601.455V602.927H207.267V601.455H201.843ZM200.691 600.591H208.467V603.807H200.691V600.591ZM199.187 604.719H209.859V607.471H208.739V605.695H200.259V607.487H199.187V604.719ZM201.011 606.767H208.147V607.775H201.011V606.767ZM203.907 606.991H205.107V610.527C205.107 610.858 205.064 611.108 204.979 611.279C204.894 611.45 204.723 611.578 204.467 611.663C204.211 611.748 203.875 611.796 203.459 611.807C203.043 611.828 202.531 611.839 201.923 611.839C201.902 611.679 201.854 611.498 201.779 611.295C201.715 611.092 201.64 610.911 201.555 610.751C201.875 610.762 202.174 610.767 202.451 610.767C202.728 610.778 202.968 610.778 203.171 610.767C203.374 610.767 203.518 610.767 203.603 610.767C203.731 610.756 203.811 610.735 203.843 610.703C203.886 610.671 203.907 610.607 203.907 610.511V606.991ZM198.643 597.167L199.779 597.503C199.438 598.41 199.032 599.306 198.563 600.191C198.094 601.066 197.587 601.892 197.043 602.671C196.499 603.45 195.934 604.138 195.347 604.735C195.315 604.639 195.256 604.516 195.171 604.367C195.096 604.218 195.011 604.068 194.915 603.919C194.83 603.759 194.75 603.636 194.675 603.551C195.208 603.028 195.72 602.426 196.211 601.743C196.702 601.06 197.155 600.33 197.571 599.551C197.987 598.762 198.344 597.967 198.643 597.167ZM196.979 601.279L198.115 600.143L198.131 600.159V611.791H196.979V601.279ZM211.243 599.423H224.795V600.591H211.243V599.423ZM210.987 607.599H225.083V608.783H210.987V607.599ZM218.123 601.583H219.387V611.823H218.123V601.583ZM212.699 605.407C212.678 605.311 212.64 605.188 212.587 605.039C212.534 604.89 212.475 604.735 212.411 604.575C212.358 604.415 212.304 604.276 212.251 604.159C212.422 604.116 212.598 603.983 212.779 603.759C212.96 603.535 213.158 603.247 213.371 602.895C213.488 602.714 213.654 602.431 213.867 602.047C214.091 601.652 214.336 601.183 214.603 600.639C214.88 600.095 215.152 599.514 215.419 598.895C215.686 598.266 215.926 597.642 216.139 597.023L217.499 597.391C217.136 598.287 216.736 599.178 216.299 600.063C215.862 600.938 215.414 601.77 214.955 602.559C214.496 603.338 214.032 604.036 213.563 604.655V604.703C213.563 604.703 213.52 604.73 213.435 604.783C213.35 604.826 213.248 604.884 213.131 604.959C213.014 605.023 212.912 605.098 212.827 605.183C212.742 605.258 212.699 605.332 212.699 605.407ZM212.699 605.407V604.447L213.467 604.031H223.739V605.167H214.427C214.107 605.167 213.824 605.178 213.579 605.199C213.344 605.22 213.152 605.247 213.003 605.279C212.854 605.311 212.752 605.354 212.699 605.407ZM226.403 601.007H231.267V602.143H226.403V601.007ZM228.371 597.295H229.507V608.015H228.371V597.295ZM226.179 608.479C226.606 608.34 227.091 608.175 227.635 607.983C228.179 607.78 228.76 607.567 229.379 607.343C229.998 607.108 230.611 606.879 231.219 606.655L231.443 607.759C230.6 608.1 229.752 608.442 228.899 608.783C228.046 609.114 227.272 609.418 226.579 609.695L226.179 608.479ZM231.603 597.855H238.307V598.991H231.603V597.855ZM239.443 602.271H240.643C240.643 602.271 240.638 602.308 240.627 602.383C240.627 602.458 240.627 602.543 240.627 602.639C240.627 602.724 240.622 602.799 240.611 602.863C240.526 604.26 240.44 605.45 240.355 606.431C240.27 607.412 240.179 608.223 240.083 608.863C239.987 609.492 239.88 609.983 239.763 610.335C239.656 610.687 239.528 610.948 239.379 611.119C239.23 611.311 239.07 611.444 238.899 611.519C238.728 611.604 238.526 611.658 238.291 611.679C238.099 611.7 237.848 611.711 237.539 611.711C237.24 611.711 236.92 611.7 236.579 611.679C236.568 611.508 236.531 611.311 236.467 611.087C236.414 610.874 236.339 610.692 236.243 610.543C236.574 610.575 236.878 610.591 237.155 610.591C237.443 610.602 237.656 610.607 237.795 610.607C237.923 610.618 238.024 610.607 238.099 610.575C238.184 610.543 238.27 610.479 238.355 610.383C238.504 610.223 238.643 609.871 238.771 609.327C238.899 608.772 239.016 607.946 239.123 606.847C239.24 605.748 239.347 604.303 239.443 602.511V602.271ZM232.179 603.599C232.147 603.503 232.099 603.386 232.035 603.247C231.982 603.108 231.923 602.97 231.859 602.831C231.795 602.682 231.731 602.559 231.667 602.463C231.87 602.431 232.11 602.346 232.387 602.207C232.675 602.058 232.974 601.882 233.283 601.679C233.443 601.572 233.688 601.407 234.019 601.183C234.36 600.948 234.739 600.671 235.155 600.351C235.582 600.02 236.014 599.663 236.451 599.279C236.899 598.884 237.315 598.484 237.699 598.079V597.983L238.291 597.759L239.187 598.431C238.11 599.391 237.048 600.26 236.003 601.039C234.968 601.807 233.971 602.458 233.011 602.991V603.023C233.011 603.023 232.968 603.044 232.883 603.087C232.798 603.119 232.702 603.167 232.595 603.231C232.488 603.284 232.392 603.343 232.307 603.407C232.222 603.471 232.179 603.535 232.179 603.599ZM232.179 603.599V602.591L232.851 602.271H239.875L239.859 603.407H233.571C233.198 603.407 232.888 603.423 232.643 603.455C232.408 603.487 232.254 603.535 232.179 603.599ZM237.331 602.911L238.387 603.119C237.843 605.071 237.086 606.778 236.115 608.239C235.155 609.69 233.982 610.879 232.595 611.807C232.531 611.732 232.44 611.652 232.323 611.567C232.216 611.482 232.104 611.396 231.987 611.311C231.87 611.236 231.763 611.172 231.667 611.119C233.086 610.266 234.259 609.14 235.187 607.743C236.126 606.346 236.84 604.735 237.331 602.911ZM234.867 602.927L235.939 603.135C235.587 604.234 235.086 605.22 234.435 606.095C233.795 606.97 233.075 607.7 232.275 608.287C232.222 608.223 232.136 608.148 232.019 608.063C231.912 607.967 231.8 607.876 231.683 607.791C231.566 607.706 231.464 607.642 231.379 607.599C232.19 607.076 232.894 606.415 233.491 605.615C234.099 604.815 234.558 603.919 234.867 602.927Z" fill="white" fill-opacity="0.4"/>
<path d="M117.381 587V547.543H133.131C140.131 547.543 144.725 551.453 144.725 557.414V557.469C144.725 561.625 141.581 565.48 137.424 566.082V566.191C143.03 566.766 146.666 570.621 146.666 575.816V575.871C146.666 582.789 141.608 587 133.213 587H117.381ZM131.655 552.547H123.506V564.359H130.288C135.702 564.359 138.627 562.172 138.627 558.207V558.152C138.627 554.543 136.084 552.547 131.655 552.547ZM131.545 569.09H123.506V581.996H131.956C137.452 581.996 140.405 579.781 140.405 575.57V575.516C140.405 571.277 137.397 569.09 131.545 569.09ZM160.942 587V553.613H160.805L150.497 560.723V554.926L160.887 547.543H166.93V587H160.942ZM200.896 587.656C192.474 587.656 186.978 583.062 186.431 576.637L186.403 576.281H192.282L192.31 576.582C192.692 580.082 196.001 582.543 200.896 582.543C205.708 582.543 208.962 579.863 208.962 576.035V575.98C208.962 571.523 205.735 569.035 200.458 569.035H195.673V564.277H200.294C204.806 564.277 207.868 561.625 207.868 557.961V557.906C207.868 554.105 205.298 551.891 200.841 551.891C196.466 551.891 193.403 554.188 193.021 557.852L192.993 558.098H187.251L187.278 557.824C187.88 551.234 193.13 546.887 200.841 546.887C208.689 546.887 213.829 551.043 213.829 557.113V557.168C213.829 562.062 210.329 565.344 205.517 566.355V566.492C211.314 567.012 215.196 570.512 215.196 576.035V576.09C215.196 582.844 209.263 587.656 200.896 587.656ZM230.593 587V553.613H230.456L220.148 560.723V554.926L230.538 547.543H236.581V587H230.593ZM259.58 587.656C251.158 587.656 245.662 583.062 245.115 576.637L245.087 576.281H250.966L250.994 576.582C251.376 580.082 254.685 582.543 259.58 582.543C264.392 582.543 267.646 579.863 267.646 576.035V575.98C267.646 571.523 264.419 569.035 259.142 569.035H254.357V564.277H258.978C263.49 564.277 266.552 561.625 266.552 557.961V557.906C266.552 554.105 263.982 551.891 259.525 551.891C255.15 551.891 252.087 554.188 251.705 557.852L251.677 558.098H245.935L245.962 557.824C246.564 551.234 251.814 546.887 259.525 546.887C267.373 546.887 272.513 551.043 272.513 557.113V557.168C272.513 562.062 269.013 565.344 264.201 566.355V566.492C269.998 567.012 273.88 570.512 273.88 576.035V576.09C273.88 582.844 267.947 587.656 259.58 587.656Z" fill="white" fill-opacity="0.8"/>
<rect x="20.6309" y="687.75" width="162.875" height="61.6758" rx="30.8379" stroke="white" stroke-width="1.5"/>
<path d="M69.5784 710.86H83.7264V712.138H69.5784V710.86ZM68.7504 710.86H70.1184V716.602C70.1184 717.334 70.1004 718.126 70.0644 718.978C70.0284 719.818 69.9504 720.682 69.8304 721.57C69.7224 722.458 69.5604 723.328 69.3444 724.18C69.1404 725.02 68.8584 725.788 68.4984 726.484C68.4264 726.412 68.3124 726.322 68.1564 726.214C68.0124 726.118 67.8624 726.022 67.7064 725.926C67.5504 725.842 67.4184 725.776 67.3104 725.728C67.6464 725.056 67.9104 724.336 68.1024 723.568C68.2944 722.788 68.4324 721.996 68.5164 721.192C68.6124 720.388 68.6724 719.596 68.6964 718.816C68.7324 718.024 68.7504 717.286 68.7504 716.602V710.86ZM71.2704 716.08H82.0164V717.358H71.2704V716.08ZM81.4584 716.08H82.8084C82.8084 716.08 82.8024 716.122 82.7904 716.206C82.7904 716.278 82.7904 716.368 82.7904 716.476C82.7904 716.572 82.7844 716.65 82.7724 716.71C82.7004 718.198 82.6224 719.47 82.5384 720.526C82.4664 721.57 82.3824 722.434 82.2864 723.118C82.1904 723.802 82.0764 724.342 81.9444 724.738C81.8244 725.122 81.6804 725.404 81.5124 725.584C81.3204 725.812 81.1164 725.968 80.9004 726.052C80.6964 726.148 80.4324 726.208 80.1084 726.232C79.8204 726.268 79.4244 726.28 78.9204 726.268C78.4284 726.256 77.9064 726.232 77.3544 726.196C77.3424 725.992 77.2944 725.764 77.2104 725.512C77.1384 725.26 77.0424 725.038 76.9224 724.846C77.4984 724.906 78.0324 724.942 78.5244 724.954C79.0284 724.966 79.3824 724.972 79.5864 724.972C79.7784 724.972 79.9284 724.96 80.0364 724.936C80.1444 724.9 80.2464 724.828 80.3424 724.72C80.4864 724.6 80.6124 724.36 80.7204 724C80.8284 723.64 80.9244 723.13 81.0084 722.47C81.0924 721.81 81.1704 720.976 81.2424 719.968C81.3144 718.96 81.3864 717.742 81.4584 716.314V716.08ZM75.5724 713.092H76.9584C76.9344 714.268 76.8804 715.402 76.7964 716.494C76.7244 717.574 76.5864 718.606 76.3824 719.59C76.1904 720.562 75.8964 721.474 75.5004 722.326C75.1044 723.166 74.5704 723.934 73.8984 724.63C73.2384 725.326 72.4044 725.932 71.3964 726.448C71.3124 726.292 71.1804 726.118 71.0004 725.926C70.8204 725.734 70.6524 725.578 70.4964 725.458C71.4564 724.99 72.2424 724.438 72.8544 723.802C73.4784 723.166 73.9644 722.458 74.3124 721.678C74.6724 720.886 74.9364 720.04 75.1044 719.14C75.2724 718.228 75.3864 717.268 75.4464 716.26C75.5064 715.24 75.5484 714.184 75.5724 713.092ZM92.6064 710.05H93.9924V717.61C93.9924 718.354 93.9384 719.086 93.8304 719.806C93.7344 720.514 93.5364 721.198 93.2364 721.858C92.9364 722.518 92.4864 723.136 91.8864 723.712C91.2984 724.288 90.5124 724.816 89.5284 725.296C88.5444 725.776 87.3204 726.19 85.8564 726.538C85.7964 726.43 85.7184 726.304 85.6224 726.16C85.5384 726.016 85.4424 725.866 85.3344 725.71C85.2384 725.554 85.1424 725.428 85.0464 725.332C86.4624 725.032 87.6324 724.678 88.5564 724.27C89.4924 723.862 90.2304 723.406 90.7704 722.902C91.3224 722.398 91.7244 721.864 91.9764 721.3C92.2404 720.724 92.4084 720.13 92.4804 719.518C92.5644 718.894 92.6064 718.258 92.6064 717.61V710.05ZM87.8004 714.136V717.484H98.8164V714.136H87.8004ZM86.4864 712.822H100.184V718.78H86.4864V712.822ZM88.5384 719.392C89.0904 720.508 89.7564 721.426 90.5364 722.146C91.3284 722.866 92.2524 723.43 93.3084 723.838C94.3764 724.246 95.5944 724.546 96.9624 724.738C98.3424 724.918 99.8964 725.044 101.624 725.116C101.492 725.284 101.366 725.494 101.246 725.746C101.126 726.01 101.042 726.262 100.994 726.502C99.2304 726.394 97.6344 726.214 96.2064 725.962C94.7784 725.722 93.5004 725.362 92.3724 724.882C91.2564 724.402 90.2784 723.76 89.4384 722.956C88.6104 722.14 87.9024 721.102 87.3144 719.842L88.5384 719.392ZM103.916 711.202L104.834 710.338C105.158 710.638 105.494 710.962 105.842 711.31C106.202 711.658 106.538 712 106.85 712.336C107.162 712.672 107.414 712.978 107.606 713.254L106.652 714.208C106.472 713.944 106.226 713.638 105.914 713.29C105.602 712.93 105.272 712.57 104.924 712.21C104.576 711.838 104.24 711.502 103.916 711.202ZM102.764 715.63H106.796V716.926H102.764V715.63ZM108.992 711.49H119.144V712.84H108.992V711.49ZM114.518 711.958H115.94V724.558C115.94 725.014 115.874 725.362 115.742 725.602C115.622 725.854 115.394 726.046 115.058 726.178C114.734 726.286 114.284 726.358 113.708 726.394C113.144 726.43 112.436 726.448 111.584 726.448C111.56 726.304 111.512 726.142 111.44 725.962C111.38 725.794 111.314 725.62 111.242 725.44C111.17 725.26 111.092 725.104 111.008 724.972C111.464 724.996 111.896 725.008 112.304 725.008C112.724 725.008 113.084 725.008 113.384 725.008C113.696 725.008 113.918 725.008 114.05 725.008C114.218 724.996 114.338 724.96 114.41 724.9C114.482 724.828 114.518 724.708 114.518 724.54V711.958ZM105.554 726.088L105.32 724.774L105.734 724.18L109.766 721.516C109.79 721.648 109.82 721.792 109.856 721.948C109.904 722.092 109.952 722.236 110 722.38C110.06 722.512 110.114 722.626 110.162 722.722C109.214 723.382 108.452 723.916 107.876 724.324C107.3 724.72 106.856 725.026 106.544 725.242C106.232 725.47 106.004 725.644 105.86 725.764C105.728 725.896 105.626 726.004 105.554 726.088ZM105.554 726.088C105.518 725.98 105.458 725.854 105.374 725.71C105.302 725.566 105.218 725.422 105.122 725.278C105.038 725.146 104.954 725.032 104.87 724.936C105.038 724.828 105.236 724.642 105.464 724.378C105.704 724.102 105.824 723.766 105.824 723.37V715.63H107.138V724.54C107.138 724.54 107.084 724.576 106.976 724.648C106.868 724.72 106.736 724.816 106.58 724.936C106.424 725.056 106.268 725.182 106.112 725.314C105.956 725.458 105.824 725.596 105.716 725.728C105.608 725.86 105.554 725.98 105.554 726.088ZM127.718 713.722H129.104V726.52H127.718V713.722ZM123.434 717.232V719.176H133.586V717.232H123.434ZM123.434 714.244V716.152H133.586V714.244H123.434ZM122.12 713.092H134.954V720.328H122.12V713.092ZM120.428 722.038H136.538V723.298H120.428V722.038ZM123.686 710.59L124.838 710.05C125.21 710.458 125.582 710.914 125.954 711.418C126.326 711.91 126.602 712.348 126.782 712.732L125.576 713.326C125.396 712.966 125.126 712.528 124.766 712.012C124.418 711.484 124.058 711.01 123.686 710.59ZM132.218 710.05L133.676 710.536C133.316 711.112 132.926 711.7 132.506 712.3C132.098 712.888 131.72 713.386 131.372 713.794L130.22 713.344C130.448 713.056 130.688 712.72 130.94 712.336C131.192 711.952 131.432 711.562 131.66 711.166C131.888 710.758 132.074 710.386 132.218 710.05Z" fill="white"/>
<path d="M265.095 710.654L266.121 709.934C266.469 710.234 266.829 710.564 267.201 710.924C267.573 711.284 267.921 711.644 268.245 712.004C268.569 712.352 268.827 712.67 269.019 712.958L267.921 713.75C267.741 713.462 267.495 713.138 267.183 712.778C266.871 712.406 266.529 712.034 266.157 711.662C265.797 711.29 265.443 710.954 265.095 710.654ZM253.431 714.794H269.451V716.072H253.431V714.794ZM253.161 720.068C253.869 719.936 254.697 719.774 255.645 719.582C256.605 719.39 257.613 719.186 258.669 718.97C259.737 718.742 260.799 718.514 261.855 718.286L261.963 719.492C260.979 719.72 259.983 719.954 258.975 720.194C257.979 720.422 257.013 720.644 256.077 720.86C255.153 721.064 254.313 721.256 253.557 721.436L253.161 720.068ZM257.283 711.302H258.633V724.28C258.633 724.724 258.573 725.06 258.453 725.288C258.345 725.516 258.141 725.684 257.841 725.792C257.565 725.9 257.175 725.966 256.671 725.99C256.179 726.026 255.561 726.044 254.817 726.044C254.793 725.912 254.757 725.762 254.709 725.594C254.661 725.438 254.601 725.276 254.529 725.108C254.457 724.94 254.391 724.796 254.331 724.676C254.907 724.688 255.435 724.694 255.915 724.694C256.395 724.706 256.713 724.706 256.869 724.694C257.025 724.682 257.133 724.646 257.193 724.586C257.253 724.538 257.283 724.436 257.283 724.28V711.302ZM260.703 709.682L261.657 710.816C260.961 711.056 260.175 711.278 259.299 711.482C258.435 711.674 257.541 711.854 256.617 712.022C255.705 712.19 254.817 712.334 253.953 712.454C253.917 712.298 253.857 712.112 253.773 711.896C253.701 711.668 253.623 711.476 253.539 711.32C254.379 711.188 255.243 711.038 256.131 710.87C257.019 710.69 257.859 710.498 258.651 710.294C259.443 710.09 260.127 709.886 260.703 709.682ZM262.503 709.61H263.925C263.913 711.254 263.967 712.832 264.087 714.344C264.219 715.844 264.405 717.23 264.645 718.502C264.885 719.762 265.167 720.86 265.491 721.796C265.827 722.72 266.193 723.44 266.589 723.956C266.985 724.46 267.399 724.712 267.831 724.712C268.083 724.712 268.269 724.466 268.389 723.974C268.521 723.47 268.611 722.636 268.659 721.472C268.803 721.616 268.983 721.76 269.199 721.904C269.415 722.036 269.613 722.138 269.793 722.21C269.721 723.206 269.607 723.986 269.451 724.55C269.295 725.114 269.079 725.51 268.803 725.738C268.527 725.966 268.161 726.08 267.705 726.08C267.129 726.08 266.595 725.876 266.103 725.468C265.623 725.06 265.191 724.484 264.807 723.74C264.435 722.984 264.105 722.096 263.817 721.076C263.541 720.056 263.307 718.934 263.115 717.71C262.923 716.474 262.779 715.172 262.683 713.804C262.587 712.436 262.527 711.038 262.503 709.61ZM267.399 716.9L268.587 717.404C268.011 718.508 267.303 719.558 266.463 720.554C265.635 721.538 264.717 722.438 263.709 723.254C262.713 724.07 261.657 724.766 260.541 725.342C260.433 725.186 260.289 725.006 260.109 724.802C259.941 724.598 259.773 724.424 259.605 724.28C260.685 723.764 261.717 723.128 262.701 722.372C263.685 721.604 264.579 720.752 265.383 719.816C266.187 718.88 266.859 717.908 267.399 716.9ZM272.373 712.364H277.845V724.136H272.373V722.912H276.603V713.57H272.373V712.364ZM271.581 712.364H272.823V725.558H271.581V712.364ZM272.283 717.368H277.251V718.556H272.283V717.368ZM274.335 709.43L275.793 709.682C275.613 710.246 275.415 710.816 275.199 711.392C274.995 711.968 274.803 712.46 274.623 712.868L273.525 712.598C273.633 712.298 273.735 711.962 273.831 711.59C273.939 711.218 274.035 710.84 274.119 710.456C274.215 710.072 274.287 709.73 274.335 709.43ZM280.419 712.31H285.945V713.552H280.419V712.31ZM285.459 712.31H286.737C286.737 712.31 286.737 712.352 286.737 712.436C286.737 712.52 286.737 712.622 286.737 712.742C286.737 712.85 286.731 712.934 286.719 712.994C286.647 715.058 286.575 716.804 286.503 718.232C286.443 719.66 286.365 720.83 286.269 721.742C286.173 722.642 286.059 723.344 285.927 723.848C285.807 724.352 285.657 724.712 285.477 724.928C285.273 725.192 285.057 725.372 284.829 725.468C284.613 725.576 284.343 725.648 284.019 725.684C283.719 725.708 283.323 725.714 282.831 725.702C282.351 725.702 281.853 725.684 281.337 725.648C281.325 725.456 281.277 725.234 281.193 724.982C281.121 724.73 281.019 724.52 280.887 724.352C281.487 724.4 282.027 724.43 282.507 724.442C282.999 724.454 283.353 724.46 283.569 724.46C283.749 724.46 283.893 724.442 284.001 724.406C284.121 724.358 284.235 724.274 284.343 724.154C284.487 723.998 284.613 723.68 284.721 723.2C284.841 722.708 284.943 722.012 285.027 721.112C285.111 720.212 285.189 719.066 285.261 717.674C285.333 716.27 285.399 714.578 285.459 712.598V712.31ZM280.779 709.394L282.075 709.682C281.859 710.582 281.595 711.464 281.283 712.328C280.983 713.18 280.647 713.984 280.275 714.74C279.915 715.496 279.531 716.162 279.123 716.738C279.039 716.666 278.925 716.582 278.781 716.486C278.649 716.378 278.511 716.282 278.367 716.198C278.223 716.102 278.097 716.024 277.989 715.964C278.409 715.424 278.793 714.806 279.141 714.11C279.489 713.402 279.801 712.646 280.077 711.842C280.353 711.038 280.587 710.222 280.779 709.394ZM279.951 716.972L281.013 716.378C281.349 716.798 281.697 717.26 282.057 717.764C282.429 718.268 282.771 718.754 283.083 719.222C283.407 719.69 283.665 720.104 283.857 720.464L282.705 721.184C282.525 720.812 282.279 720.386 281.967 719.906C281.667 719.414 281.337 718.916 280.977 718.412C280.629 717.896 280.287 717.416 279.951 716.972ZM288.993 712.076H304.239V713.39H288.993V712.076ZM288.705 721.274H304.563V722.606H288.705V721.274ZM296.733 714.506H298.155V726.026H296.733V714.506ZM290.631 718.808C290.607 718.7 290.565 718.562 290.505 718.394C290.445 718.226 290.379 718.052 290.307 717.872C290.247 717.692 290.187 717.536 290.127 717.404C290.319 717.356 290.517 717.206 290.721 716.954C290.925 716.702 291.147 716.378 291.387 715.982C291.519 715.778 291.705 715.46 291.945 715.028C292.197 714.584 292.473 714.056 292.773 713.444C293.085 712.832 293.391 712.178 293.691 711.482C293.991 710.774 294.261 710.072 294.501 709.376L296.031 709.79C295.623 710.798 295.173 711.8 294.681 712.796C294.189 713.78 293.685 714.716 293.169 715.604C292.653 716.48 292.131 717.266 291.603 717.962V718.016C291.603 718.016 291.555 718.046 291.459 718.106C291.363 718.154 291.249 718.22 291.117 718.304C290.985 718.376 290.871 718.46 290.775 718.556C290.679 718.64 290.631 718.724 290.631 718.808ZM290.631 718.808V717.728L291.495 717.26H303.051V718.538H292.575C292.215 718.538 291.897 718.55 291.621 718.574C291.357 718.598 291.141 718.628 290.973 718.664C290.805 718.7 290.691 718.748 290.631 718.808ZM312.201 710.618H322.299V711.896H312.201V710.618ZM312.561 714.524H321.165V715.712H313.767V725.99H312.561V714.524ZM320.661 714.524H321.813V724.496C321.813 724.82 321.771 725.072 321.687 725.252C321.615 725.444 321.459 725.588 321.219 725.684C320.991 725.78 320.679 725.834 320.283 725.846C319.899 725.87 319.425 725.882 318.861 725.882C318.849 725.726 318.801 725.54 318.717 725.324C318.645 725.12 318.573 724.94 318.501 724.784C318.933 724.796 319.323 724.802 319.671 724.802C320.019 724.802 320.253 724.796 320.373 724.784C320.493 724.784 320.571 724.76 320.607 724.712C320.643 724.676 320.661 724.598 320.661 724.478V714.524ZM315.459 718.07L316.161 717.584C316.425 718.04 316.677 718.538 316.917 719.078C317.169 719.606 317.349 720.05 317.457 720.41L316.719 721.004C316.611 720.62 316.437 720.152 316.197 719.6C315.969 719.048 315.723 718.538 315.459 718.07ZM315.369 711.608H316.413V714.83C316.413 715.394 316.395 716.018 316.359 716.702C316.323 717.386 316.245 718.094 316.125 718.826C316.005 719.558 315.825 720.278 315.585 720.986C315.345 721.694 315.021 722.354 314.613 722.966C314.529 722.858 314.409 722.732 314.253 722.588C314.097 722.444 313.959 722.324 313.839 722.228C314.199 721.688 314.481 721.1 314.685 720.464C314.901 719.816 315.057 719.156 315.153 718.484C315.249 717.8 315.309 717.146 315.333 716.522C315.357 715.898 315.369 715.334 315.369 714.83V711.608ZM318.123 717.944L318.843 717.476C319.095 717.92 319.347 718.4 319.599 718.916C319.851 719.42 320.073 719.906 320.265 720.374C320.469 720.842 320.625 721.25 320.733 721.598L319.941 722.192C319.845 721.82 319.695 721.394 319.491 720.914C319.299 720.422 319.083 719.918 318.843 719.402C318.615 718.874 318.375 718.388 318.123 717.944ZM318.015 711.59H319.059V715.118C319.059 715.694 319.041 716.33 319.005 717.026C318.969 717.722 318.897 718.436 318.789 719.168C318.681 719.9 318.519 720.62 318.303 721.328C318.087 722.024 317.799 722.678 317.439 723.29C317.355 723.17 317.235 723.038 317.079 722.894C316.923 722.75 316.785 722.636 316.665 722.552C316.989 722.024 317.241 721.436 317.421 720.788C317.601 720.14 317.733 719.48 317.817 718.808C317.913 718.124 317.967 717.464 317.979 716.828C318.003 716.192 318.015 715.616 318.015 715.1V711.59ZM306.045 711.626H311.751V712.814H306.045V711.626ZM309.141 714.416H310.311V725.954H309.141V714.416ZM305.919 721.58C306.675 721.424 307.575 721.226 308.619 720.986C309.675 720.734 310.749 720.482 311.841 720.23L311.949 721.382C310.941 721.646 309.939 721.91 308.943 722.174C307.947 722.426 307.041 722.654 306.225 722.858L305.919 721.58ZM306.477 718.646C306.453 718.562 306.417 718.448 306.369 718.304C306.321 718.16 306.267 718.016 306.207 717.872C306.159 717.728 306.111 717.608 306.063 717.512C306.207 717.464 306.339 717.308 306.459 717.044C306.579 716.768 306.693 716.426 306.801 716.018C306.873 715.814 306.963 715.49 307.071 715.046C307.191 714.59 307.317 714.062 307.449 713.462C307.581 712.862 307.701 712.22 307.809 711.536C307.929 710.84 308.013 710.156 308.061 709.484L309.321 709.682C309.201 710.63 309.039 711.596 308.835 712.58C308.631 713.564 308.403 714.512 308.151 715.424C307.911 716.336 307.653 717.158 307.377 717.89V717.926C307.377 717.926 307.329 717.95 307.233 717.998C307.137 718.046 307.029 718.112 306.909 718.196C306.801 718.268 306.699 718.346 306.603 718.43C306.519 718.502 306.477 718.574 306.477 718.646ZM306.477 718.646V717.512L307.179 717.152H311.769V718.394H307.719C307.431 718.394 307.167 718.418 306.927 718.466C306.699 718.514 306.549 718.574 306.477 718.646Z" fill="white"/>
<rect x="206.377" y="687.75" width="162.875" height="61.6758" rx="30.8379" stroke="white" stroke-width="1.5"/>
<circle cx="194.219" cy="202.219" r="12.2188" fill="#FEFB54"/>
<rect x="128" y="831" width="134" height="5" rx="2.5" fill="black"/>
<g clip-path="url(#clip1_324_10168)">
<path d="M117.768 -2H272.184V13C272.184 22.3888 264.572 30 255.184 30H134.768C125.379 30 117.768 22.3888 117.768 13V-2Z" fill="black"/>
<path d="M118 -2H113C113 -2 113 -2 113 -2C115.651 -2 117.799 0.148747 117.799 2.79934C117.799 2.86656 117.798 2.93345 117.795 3H118V-2Z" fill="black"/>
<path d="M272 -2H277C277 -2 277 -2 277 -2C274.349 -2 272.201 0.148747 272.201 2.79934C272.201 2.86656 272.202 2.93345 272.205 3H272V-2Z" fill="black"/>
<path d="M40.8576 19.6982C43.9455 19.6982 46.0373 21.8896 46.0373 25.9487V25.9653C46.0373 29.9331 44.0451 32.3154 40.8908 32.3154C38.4172 32.3154 36.5744 30.8462 36.2175 28.9121L36.2092 28.8457H39.1642L39.1891 28.9121C39.4382 29.5264 40.0358 29.9663 40.8742 29.9663C42.3766 29.9663 43.0656 28.4888 43.1569 26.48C43.1569 26.397 43.1652 26.3057 43.1652 26.2144H42.9909C42.5593 27.1108 41.6296 27.916 39.9528 27.916C37.5788 27.916 36.0598 26.2808 36.0598 24.0312V24.0146C36.0598 21.541 38.0104 19.6982 40.8576 19.6982ZM40.8659 25.7827C41.9367 25.7827 42.7751 25.0356 42.7751 23.9648V23.9482C42.7751 22.8608 41.9367 22.0391 40.8742 22.0391C39.82 22.0391 38.965 22.8525 38.965 23.8984V23.915C38.965 25.0024 39.7702 25.7827 40.8659 25.7827ZM49.6386 24.7451C48.6508 24.7451 47.9784 24.0479 47.9784 23.1099C47.9784 22.1719 48.6508 21.4829 49.6386 21.4829C50.6347 21.4829 51.307 22.1719 51.307 23.1099C51.307 24.0479 50.6347 24.7451 49.6386 24.7451ZM49.6386 30.5308C48.6508 30.5308 47.9784 29.8418 47.9784 28.9038C47.9784 27.9658 48.6508 27.2686 49.6386 27.2686C50.6347 27.2686 51.307 27.9658 51.307 28.9038C51.307 29.8418 50.6347 30.5308 49.6386 30.5308ZM59.1666 32V29.958H53.2814V27.6587C54.7423 24.9775 56.2613 22.4624 57.8136 20.022H62.047V27.584H63.5411V29.958H62.047V32H59.1666ZM55.921 27.6919H59.2413V22.1968H59.0919C58.0211 23.8652 56.8839 25.7412 55.921 27.5425V27.6919ZM67.931 32V22.7695H67.7733L64.8846 24.7202V22.0972L67.931 20.022H70.9691V32H67.931Z" fill="white"/>
<path opacity="0.35" d="M340 19.5273H357C358.918 19.5273 360.473 21.0822 360.473 23V28C360.473 29.9178 358.918 31.4727 357 31.4727H340C338.082 31.4727 336.527 29.9178 336.527 28V23C336.527 21.0822 338.082 19.5273 340 19.5273Z" stroke="white" stroke-width="1.05509"/>
<path opacity="0.4" d="M362 24V28.2203C362.849 27.8629 363.401 27.0314 363.401 26.1102C363.401 25.1889 362.849 24.3574 362 24Z" fill="white"/>
<path d="M338 23C338 21.8954 338.895 21 340 21H357C358.105 21 359 21.8954 359 23V28C359 29.1046 358.105 30 357 30H340C338.895 30 338 29.1046 338 28V23Z" fill="white"/>
<path d="M318.115 29.085C319.535 27.8594 321.614 27.8595 323.034 29.085C323.106 29.1509 323.147 29.2445 323.149 29.3428C323.151 29.441 323.114 29.5357 323.045 29.6045L320.821 31.8945C320.756 31.9617 320.668 31.9999 320.575 32C320.482 32 320.393 31.9618 320.328 31.8945L318.104 29.6045C318.036 29.5356 317.998 29.441 318 29.3428C318.002 29.2445 318.044 29.1508 318.115 29.085ZM315.109 26.2617C318.168 23.3571 322.906 23.3571 325.965 26.2617C326.034 26.3298 326.073 26.4235 326.074 26.5215C326.075 26.6194 326.037 26.7138 325.97 26.7832L324.685 28.1084C324.552 28.2437 324.338 28.247 324.202 28.1152C323.198 27.1868 321.891 26.6718 320.536 26.6719C319.182 26.6724 317.876 27.1873 316.872 28.1152C316.736 28.247 316.522 28.2437 316.39 28.1084L315.104 26.7832C315.037 26.7139 314.999 26.6194 315 26.5215C315.001 26.4235 315.04 26.3298 315.109 26.2617ZM312.107 23.4424C316.799 18.8528 324.201 18.8528 328.893 23.4424C328.96 23.5106 328.999 23.6039 329 23.7012C329 23.7983 328.963 23.892 328.896 23.9609L327.609 25.2861C327.477 25.4221 327.262 25.4238 327.127 25.29C325.339 23.5553 322.967 22.588 320.5 22.5879C318.033 22.588 315.661 23.5553 313.873 25.29C313.738 25.4239 313.523 25.4223 313.391 25.2861L312.104 23.9609C312.037 23.892 312 23.7982 312 23.7012C312.001 23.6039 312.039 23.5105 312.107 23.4424Z" fill="white"/>
<path d="M296 23C296 22.4477 296.448 22 297 22H298C298.552 22 299 22.4477 299 23V31C299 31.5523 298.552 32 298 32H297C296.448 32 296 31.5523 296 31V23Z" fill="white"/>
<path d="M301 21C301 20.4477 301.448 20 302 20H303C303.552 20 304 20.4477 304 21V31C304 31.5523 303.552 32 303 32H302C301.448 32 301 31.5523 301 31V21Z" fill="white"/>
<path d="M291 26.5C291 25.9477 291.448 25.5 292 25.5H293C293.552 25.5 294 25.9477 294 26.5V31C294 31.5523 293.552 32 293 32H292C291.448 32 291 31.5523 291 31V26.5Z" fill="white"/>
<path d="M286 29C286 28.4477 286.448 28 287 28H288C288.552 28 289 28.4477 289 29V31C289 31.5523 288.552 32 288 32H287C286.448 32 286 31.5523 286 31V29Z" fill="white"/>
</g>
</g>
<defs>
<clipPath id="clip0_324_10168">
<rect width="390" height="844" rx="12" fill="white"/>
</clipPath>
<clipPath id="clip1_324_10168">
<rect width="390" height="47" fill="white"/>
</clipPath>
</defs>
</svg>
