<svg width="390" height="844" viewBox="0 0 390 844" fill="none" xmlns="http://www.w3.org/2000/svg">
<g clip-path="url(#clip0_309_4459)">
<rect width="390" height="844" rx="16" fill="#186051"/>
<circle cx="194.93" cy="350.543" r="141" fill="#236D5E"/>
<path d="M187 431.902C187 436.321 190.582 439.902 195 439.902C199.418 439.902 203 436.321 203 431.902L195 431.902L187 431.902ZM200.657 276.902C197.533 273.778 192.467 273.778 189.343 276.902L138.431 327.813C135.307 330.938 135.307 336.003 138.431 339.127C141.556 342.251 146.621 342.251 149.745 339.127L195 293.872L240.255 339.127C243.379 342.251 248.444 342.251 251.569 339.127C254.693 336.003 254.693 330.938 251.569 327.813L200.657 276.902ZM195 431.902L203 431.902L203 282.559L195 282.559L187 282.559L187 431.902L195 431.902Z" fill="white"/>
<circle cx="194.929" cy="350.545" r="146" transform="rotate(0.115105 194.929 350.545)" stroke="#CFFFC8" stroke-opacity="0.6" stroke-width="10"/>
<circle cx="191.5" cy="203.219" r="12.2188" fill="#FEFB54"/>
<path d="M138.188 142.844C138.188 145.156 137.698 147.125 136.719 148.75C135.76 150.375 134.479 151.708 132.875 152.75C131.271 153.771 129.427 154.531 127.344 155.031C125.281 155.531 123.156 155.823 120.969 155.906C119.573 155.865 118.24 155.812 116.969 155.75C116.427 155.729 115.875 155.708 115.312 155.688C114.75 155.688 114.198 155.677 113.656 155.656C113.135 155.635 112.635 155.625 112.156 155.625C111.677 155.625 111.271 155.625 110.938 155.625C109.562 155.667 108.135 155.698 106.656 155.719C105.198 155.74 103.76 155.802 102.344 155.906C103.281 154.635 104.042 153.01 104.625 151.031C105.208 149.052 105.667 146.917 106 144.625C106.354 142.333 106.594 139.99 106.719 137.594C106.844 135.177 106.906 132.917 106.906 130.812C106.906 129.917 106.885 128.833 106.844 127.562C106.823 126.271 106.771 124.906 106.688 123.469C106.604 122.01 106.49 120.542 106.344 119.062C106.198 117.583 105.99 116.208 105.719 114.938C105.469 113.646 105.156 112.51 104.781 111.531C104.406 110.552 103.958 109.854 103.438 109.438C104.938 109.667 106.396 109.823 107.812 109.906C109.229 109.969 110.438 110 111.438 110C112.312 110 113.094 109.99 113.781 109.969C114.469 109.927 115.146 109.885 115.812 109.844C116.479 109.802 117.167 109.771 117.875 109.75C118.583 109.708 119.385 109.688 120.281 109.688C121.656 109.708 123.031 109.792 124.406 109.938C125.802 110.062 127.125 110.292 128.375 110.625C129.646 110.958 130.833 111.417 131.938 112C133.042 112.562 133.99 113.302 134.781 114.219C135.594 115.135 136.229 116.24 136.688 117.531C137.167 118.823 137.406 120.344 137.406 122.094C137.406 123.031 137.281 123.969 137.031 124.906C136.802 125.844 136.417 126.76 135.875 127.656C135.354 128.552 134.656 129.417 133.781 130.25C132.927 131.062 131.875 131.823 130.625 132.531C133.292 133.635 135.219 135.052 136.406 136.781C137.594 138.49 138.188 140.51 138.188 142.844ZM119.562 128.75C119.979 128.438 120.469 128.021 121.031 127.5C121.594 126.958 122.125 126.375 122.625 125.75C123.125 125.104 123.552 124.438 123.906 123.75C124.26 123.062 124.438 122.406 124.438 121.781C124.438 121.115 124.24 120.573 123.844 120.156C123.469 119.74 123.042 119.531 122.562 119.531C121.896 119.531 121.365 119.833 120.969 120.438C120.573 121.042 120.26 121.76 120.031 122.594C119.823 123.406 119.677 124.24 119.594 125.094C119.531 125.927 119.5 126.594 119.5 127.094C119.5 127.344 119.5 127.615 119.5 127.906C119.5 128.177 119.521 128.458 119.562 128.75ZM123.844 144.312C123.844 143.562 123.729 142.812 123.5 142.062C123.271 141.292 122.958 140.542 122.562 139.812C122.188 139.062 121.75 138.344 121.25 137.656C120.771 136.969 120.271 136.312 119.75 135.688C119.438 136.625 119.229 137.552 119.125 138.469C119.042 139.365 119 140.177 119 140.906C119 141.99 119.073 142.896 119.219 143.625C119.365 144.333 119.562 144.906 119.812 145.344C120.083 145.781 120.396 146.094 120.75 146.281C121.104 146.469 121.5 146.562 121.938 146.562C122.458 146.562 122.906 146.375 123.281 146C123.656 145.604 123.844 145.042 123.844 144.312ZM166.188 154.812C165.75 154.771 165.26 154.729 164.719 154.688C164.24 154.646 163.667 154.615 163 154.594C162.333 154.573 161.562 154.562 160.688 154.562C159 154.562 157.042 154.635 154.812 154.781C152.583 154.927 150.167 155.208 147.562 155.625C148.021 154.688 148.417 153.5 148.75 152.062C149.083 150.625 149.354 149.094 149.562 147.469C149.792 145.823 149.969 144.156 150.094 142.469C150.219 140.781 150.312 139.208 150.375 137.75C150.438 136.292 150.469 135.031 150.469 133.969C150.49 132.906 150.5 132.177 150.5 131.781C150.5 131.719 150.49 131.469 150.469 131.031C150.469 130.573 150.458 129.979 150.438 129.25C150.417 128.521 150.385 127.688 150.344 126.75C150.323 125.792 150.292 124.781 150.25 123.719C149.104 123.49 147.958 123.281 146.812 123.094C145.688 122.906 144.656 122.75 143.719 122.625C142.635 122.479 141.594 122.365 140.594 122.281C142.031 120.927 143.208 119.625 144.125 118.375C145.042 117.125 145.771 115.948 146.312 114.844C146.875 113.74 147.292 112.729 147.562 111.812C147.854 110.896 148.083 110.083 148.25 109.375C150.354 109.75 152.281 110 154.031 110.125C155.802 110.25 157.396 110.312 158.812 110.312C159.75 110.312 160.594 110.292 161.344 110.25C162.094 110.208 162.729 110.167 163.25 110.125C163.854 110.062 164.385 110 164.844 109.938C164.594 111.104 164.375 112.406 164.188 113.844C164 115.26 163.833 116.781 163.688 118.406C163.542 120.01 163.427 121.698 163.344 123.469C163.281 125.24 163.25 127.062 163.25 128.938C163.25 131.104 163.302 133.312 163.406 135.562C163.51 137.792 163.677 140.01 163.906 142.219C164.156 144.427 164.458 146.594 164.812 148.719C165.188 150.844 165.646 152.875 166.188 154.812ZM209.125 132.969C210.083 133.24 211.021 133.604 211.938 134.062C212.875 134.5 213.698 135.104 214.406 135.875C215.135 136.625 215.719 137.573 216.156 138.719C216.594 139.844 216.812 141.24 216.812 142.906C216.812 144.927 216.438 146.802 215.688 148.531C214.958 150.26 213.844 151.76 212.344 153.031C210.865 154.281 208.99 155.26 206.719 155.969C204.469 156.698 201.812 157.062 198.75 157.062C196.062 157.062 193.719 156.677 191.719 155.906C189.719 155.156 188.052 154.146 186.719 152.875C185.385 151.604 184.385 150.156 183.719 148.531C183.073 146.885 182.75 145.198 182.75 143.469C182.75 142.198 182.958 141.094 183.375 140.156C183.792 139.198 184.365 138.406 185.094 137.781C185.844 137.135 186.708 136.656 187.688 136.344C188.688 136.031 189.75 135.875 190.875 135.875C191.75 135.875 192.604 135.969 193.438 136.156C194.292 136.344 195.083 136.625 195.812 137C196.562 137.354 197.229 137.792 197.812 138.312C198.417 138.833 198.896 139.427 199.25 140.094C198.812 139.969 198.438 139.906 198.125 139.906C197.833 139.906 197.542 139.979 197.25 140.125C196.979 140.25 196.729 140.427 196.5 140.656C196.271 140.885 196.083 141.156 195.938 141.469C195.812 141.76 195.75 142.073 195.75 142.406C195.75 142.76 195.812 143.135 195.938 143.531C196.083 143.906 196.292 144.25 196.562 144.562C196.854 144.875 197.208 145.135 197.625 145.344C198.062 145.552 198.562 145.656 199.125 145.656C199.792 145.656 200.354 145.531 200.812 145.281C201.271 145.01 201.635 144.688 201.906 144.312C202.177 143.938 202.365 143.531 202.469 143.094C202.594 142.656 202.656 142.25 202.656 141.875C202.656 140.333 202.354 139.073 201.75 138.094C201.146 137.094 200.406 136.281 199.531 135.656C198.677 135.01 197.771 134.49 196.812 134.094C195.875 133.698 195.052 133.323 194.344 132.969C195.677 132.594 196.854 132.188 197.875 131.75C198.917 131.312 199.792 130.76 200.5 130.094C201.208 129.427 201.74 128.583 202.094 127.562C202.469 126.542 202.656 125.26 202.656 123.719C202.656 123.344 202.594 122.938 202.469 122.5C202.365 122.062 202.177 121.656 201.906 121.281C201.635 120.885 201.271 120.562 200.812 120.312C200.354 120.062 199.792 119.938 199.125 119.938C198.562 119.938 198.062 120.042 197.625 120.25C197.208 120.458 196.854 120.719 196.562 121.031C196.292 121.344 196.083 121.698 195.938 122.094C195.812 122.469 195.75 122.833 195.75 123.188C195.75 123.521 195.812 123.844 195.938 124.156C196.083 124.448 196.271 124.708 196.5 124.938C196.729 125.167 196.979 125.354 197.25 125.5C197.542 125.625 197.833 125.688 198.125 125.688C198.438 125.688 198.812 125.625 199.25 125.5C198.896 126.167 198.417 126.771 197.812 127.312C197.229 127.833 196.562 128.271 195.812 128.625C195.083 128.979 194.292 129.25 193.438 129.438C192.604 129.625 191.75 129.719 190.875 129.719C189.75 129.719 188.688 129.562 187.688 129.25C186.708 128.938 185.844 128.469 185.094 127.844C184.365 127.198 183.792 126.406 183.375 125.469C182.958 124.51 182.75 123.385 182.75 122.094C182.75 120.365 183.073 118.688 183.719 117.062C184.385 115.438 185.385 113.99 186.719 112.719C188.052 111.448 189.719 110.438 191.719 109.688C193.719 108.917 196.062 108.531 198.75 108.531C201.812 108.531 204.469 108.938 206.719 109.75C208.99 110.562 210.865 111.646 212.344 113C213.844 114.354 214.958 115.906 215.688 117.656C216.438 119.406 216.812 121.208 216.812 123.062C216.812 124.417 216.583 125.667 216.125 126.812C215.688 127.938 215.104 128.927 214.375 129.781C213.646 130.635 212.823 131.333 211.906 131.875C210.99 132.417 210.062 132.781 209.125 132.969ZM245.875 154.812C245.438 154.771 244.948 154.729 244.406 154.688C243.927 154.646 243.354 154.615 242.688 154.594C242.021 154.573 241.25 154.562 240.375 154.562C238.688 154.562 236.729 154.635 234.5 154.781C232.271 154.927 229.854 155.208 227.25 155.625C227.708 154.688 228.104 153.5 228.438 152.062C228.771 150.625 229.042 149.094 229.25 147.469C229.479 145.823 229.656 144.156 229.781 142.469C229.906 140.781 230 139.208 230.062 137.75C230.125 136.292 230.156 135.031 230.156 133.969C230.177 132.906 230.188 132.177 230.188 131.781C230.188 131.719 230.177 131.469 230.156 131.031C230.156 130.573 230.146 129.979 230.125 129.25C230.104 128.521 230.073 127.688 230.031 126.75C230.01 125.792 229.979 124.781 229.938 123.719C228.792 123.49 227.646 123.281 226.5 123.094C225.375 122.906 224.344 122.75 223.406 122.625C222.323 122.479 221.281 122.365 220.281 122.281C221.719 120.927 222.896 119.625 223.812 118.375C224.729 117.125 225.458 115.948 226 114.844C226.562 113.74 226.979 112.729 227.25 111.812C227.542 110.896 227.771 110.083 227.938 109.375C230.042 109.75 231.969 110 233.719 110.125C235.49 110.25 237.083 110.312 238.5 110.312C239.438 110.312 240.281 110.292 241.031 110.25C241.781 110.208 242.417 110.167 242.938 110.125C243.542 110.062 244.073 110 244.531 109.938C244.281 111.104 244.062 112.406 243.875 113.844C243.688 115.26 243.521 116.781 243.375 118.406C243.229 120.01 243.115 121.698 243.031 123.469C242.969 125.24 242.938 127.062 242.938 128.938C242.938 131.104 242.99 133.312 243.094 135.562C243.198 137.792 243.365 140.01 243.594 142.219C243.844 144.427 244.146 146.594 244.5 148.719C244.875 150.844 245.333 152.875 245.875 154.812ZM277.25 132.969C278.208 133.24 279.146 133.604 280.062 134.062C281 134.5 281.823 135.104 282.531 135.875C283.26 136.625 283.844 137.573 284.281 138.719C284.719 139.844 284.938 141.24 284.938 142.906C284.938 144.927 284.562 146.802 283.812 148.531C283.083 150.26 281.969 151.76 280.469 153.031C278.99 154.281 277.115 155.26 274.844 155.969C272.594 156.698 269.938 157.062 266.875 157.062C264.188 157.062 261.844 156.677 259.844 155.906C257.844 155.156 256.177 154.146 254.844 152.875C253.51 151.604 252.51 150.156 251.844 148.531C251.198 146.885 250.875 145.198 250.875 143.469C250.875 142.198 251.083 141.094 251.5 140.156C251.917 139.198 252.49 138.406 253.219 137.781C253.969 137.135 254.833 136.656 255.812 136.344C256.812 136.031 257.875 135.875 259 135.875C259.875 135.875 260.729 135.969 261.562 136.156C262.417 136.344 263.208 136.625 263.938 137C264.688 137.354 265.354 137.792 265.938 138.312C266.542 138.833 267.021 139.427 267.375 140.094C266.938 139.969 266.562 139.906 266.25 139.906C265.958 139.906 265.667 139.979 265.375 140.125C265.104 140.25 264.854 140.427 264.625 140.656C264.396 140.885 264.208 141.156 264.062 141.469C263.938 141.76 263.875 142.073 263.875 142.406C263.875 142.76 263.938 143.135 264.062 143.531C264.208 143.906 264.417 144.25 264.688 144.562C264.979 144.875 265.333 145.135 265.75 145.344C266.188 145.552 266.688 145.656 267.25 145.656C267.917 145.656 268.479 145.531 268.938 145.281C269.396 145.01 269.76 144.688 270.031 144.312C270.302 143.938 270.49 143.531 270.594 143.094C270.719 142.656 270.781 142.25 270.781 141.875C270.781 140.333 270.479 139.073 269.875 138.094C269.271 137.094 268.531 136.281 267.656 135.656C266.802 135.01 265.896 134.49 264.938 134.094C264 133.698 263.177 133.323 262.469 132.969C263.802 132.594 264.979 132.188 266 131.75C267.042 131.312 267.917 130.76 268.625 130.094C269.333 129.427 269.865 128.583 270.219 127.562C270.594 126.542 270.781 125.26 270.781 123.719C270.781 123.344 270.719 122.938 270.594 122.5C270.49 122.062 270.302 121.656 270.031 121.281C269.76 120.885 269.396 120.562 268.938 120.312C268.479 120.062 267.917 119.938 267.25 119.938C266.688 119.938 266.188 120.042 265.75 120.25C265.333 120.458 264.979 120.719 264.688 121.031C264.417 121.344 264.208 121.698 264.062 122.094C263.938 122.469 263.875 122.833 263.875 123.188C263.875 123.521 263.938 123.844 264.062 124.156C264.208 124.448 264.396 124.708 264.625 124.938C264.854 125.167 265.104 125.354 265.375 125.5C265.667 125.625 265.958 125.688 266.25 125.688C266.562 125.688 266.938 125.625 267.375 125.5C267.021 126.167 266.542 126.771 265.938 127.312C265.354 127.833 264.688 128.271 263.938 128.625C263.208 128.979 262.417 129.25 261.562 129.438C260.729 129.625 259.875 129.719 259 129.719C257.875 129.719 256.812 129.562 255.812 129.25C254.833 128.938 253.969 128.469 253.219 127.844C252.49 127.198 251.917 126.406 251.5 125.469C251.083 124.51 250.875 123.385 250.875 122.094C250.875 120.365 251.198 118.688 251.844 117.062C252.51 115.438 253.51 113.99 254.844 112.719C256.177 111.448 257.844 110.438 259.844 109.688C261.844 108.917 264.188 108.531 266.875 108.531C269.938 108.531 272.594 108.938 274.844 109.75C277.115 110.562 278.99 111.646 280.469 113C281.969 114.354 283.083 115.906 283.812 117.656C284.562 119.406 284.938 121.208 284.938 123.062C284.938 124.417 284.708 125.667 284.25 126.812C283.812 127.938 283.229 128.927 282.5 129.781C281.771 130.635 280.948 131.333 280.031 131.875C279.115 132.417 278.188 132.781 277.25 132.969Z" fill="#FEFB54"/>
<path d="M137.39 587V553.613H137.254L126.945 560.723V554.926L137.336 547.543H143.379V587H137.39ZM154.674 587.41C152.65 587.41 151.064 585.824 151.064 583.828C151.064 581.805 152.65 580.246 154.674 580.246C156.67 580.246 158.256 581.805 158.256 583.828C158.256 585.824 156.67 587.41 154.674 587.41ZM163.617 587V582.789L177.508 568.816C182.758 563.566 183.934 561.488 183.934 558.426V558.371C183.906 554.625 181.062 551.945 177.07 551.945C172.449 551.945 169.141 555.062 169.086 559.055V559.219H163.289V559.055C163.289 552 169.277 546.887 176.988 546.887C184.562 546.887 189.977 551.645 189.977 558.016V558.07C189.977 562.582 187.871 565.781 180.789 572.781L171.82 581.586V581.832H190.605V587H163.617ZM195.83 587V547.543H201.737V570.512H201.873L213.412 558.234H220.358L208.545 570.648L220.822 587H213.959L204.197 574.203L201.737 576.637V587H195.83ZM223.368 587V558.234H229.274V562.691H229.411C230.641 559.684 233.567 557.688 237.34 557.688C241.305 557.688 244.204 559.738 245.352 563.348H245.489C246.965 559.848 250.356 557.688 254.457 557.688C260.145 557.688 263.864 561.461 263.864 567.23V587H257.93V568.652C257.93 564.906 255.934 562.746 252.434 562.746C248.934 562.746 246.5 565.371 246.5 569.008V587H240.704V568.215C240.704 564.879 238.598 562.746 235.262 562.746C231.762 562.746 229.274 565.508 229.274 569.227V587H223.368Z" fill="white" fill-opacity="0.8"/>
<rect x="115.188" y="687.75" width="251.574" height="66.5" rx="33.25" stroke="white" stroke-width="1.5"/>
<circle cx="56.4883" cy="721" r="33.25" stroke="white" stroke-width="1.5"/>
<path d="M47.3535 710.867L65.6233 729.137" stroke="white" stroke-width="1.5" stroke-linecap="round"/>
<path d="M65.623 710.867L47.3532 729.137" stroke="white" stroke-width="1.5" stroke-linecap="round"/>
<path d="M210.877 712.04H227.337V727.86H225.777V713.48H212.397V728.02H210.877V712.04ZM211.677 725.14H226.617V726.6H211.677V725.14ZM220.237 713H221.697V719.36C221.697 719.773 221.75 720.007 221.857 720.06C221.977 720.113 222.157 720.14 222.397 720.14C222.49 720.14 222.63 720.14 222.817 720.14C223.017 720.14 223.184 720.14 223.317 720.14C223.45 720.14 223.577 720.133 223.697 720.12C223.83 720.107 223.93 720.093 223.997 720.08C224.064 720.04 224.124 719.987 224.177 719.92C224.23 719.84 224.27 719.727 224.297 719.58C224.337 719.433 224.357 719.2 224.357 718.88C224.37 718.56 224.384 718.18 224.397 717.74C224.544 717.86 224.724 717.98 224.937 718.1C225.164 718.207 225.37 718.293 225.557 718.36C225.544 718.773 225.517 719.187 225.477 719.6C225.45 720.013 225.404 720.313 225.337 720.5C225.27 720.673 225.177 720.82 225.057 720.94C224.95 721.047 224.817 721.14 224.657 721.22C224.51 721.287 224.317 721.333 224.077 721.36C223.85 721.387 223.63 721.4 223.417 721.4C223.324 721.4 223.184 721.4 222.997 721.4C222.824 721.4 222.644 721.4 222.457 721.4C222.284 721.4 222.15 721.4 222.057 721.4C221.83 721.4 221.59 721.373 221.337 721.32C221.097 721.267 220.897 721.173 220.737 721.04C220.55 720.92 220.417 720.74 220.337 720.5C220.27 720.26 220.237 719.84 220.237 719.24V713ZM216.157 712.94H217.617C217.55 714.433 217.41 715.8 217.197 717.04C216.997 718.267 216.624 719.353 216.077 720.3C215.53 721.247 214.717 722.033 213.637 722.66C213.557 722.487 213.417 722.293 213.217 722.08C213.03 721.867 212.857 721.693 212.697 721.56C213.657 721.013 214.377 720.327 214.857 719.5C215.337 718.66 215.657 717.693 215.817 716.6C215.99 715.493 216.104 714.273 216.157 712.94ZM231.109 711.42H236.829V723.36H231.109V721.96H235.429V712.8H231.109V711.42ZM231.109 716.62H236.049V717.98H231.109V716.62ZM239.569 711.06H246.309V712.46H239.569V711.06ZM239.569 715.92H246.309V717.28H239.569V715.92ZM239.429 720.82H246.269V722.18H239.429V720.82ZM230.269 711.42H231.689V725.24H230.269V711.42ZM245.749 711.06H247.229V726.62C247.229 727.087 247.162 727.447 247.029 727.7C246.909 727.967 246.689 728.16 246.369 728.28C246.036 728.4 245.589 728.473 245.029 728.5C244.469 728.54 243.756 728.56 242.889 728.56C242.876 728.427 242.836 728.267 242.769 728.08C242.716 727.907 242.649 727.727 242.569 727.54C242.502 727.367 242.429 727.213 242.349 727.08C242.789 727.093 243.202 727.1 243.589 727.1C243.989 727.113 244.336 727.113 244.629 727.1C244.936 727.1 245.142 727.1 245.249 727.1C245.436 727.1 245.562 727.067 245.629 727C245.709 726.92 245.749 726.793 245.749 726.62V711.06ZM238.689 711.06H240.149V718.2C240.149 719.04 240.102 719.933 240.009 720.88C239.916 721.813 239.729 722.753 239.449 723.7C239.182 724.633 238.776 725.533 238.229 726.4C237.682 727.267 236.956 728.047 236.049 728.74C235.982 728.633 235.882 728.513 235.749 728.38C235.616 728.247 235.476 728.113 235.329 727.98C235.182 727.86 235.056 727.767 234.949 727.7C235.802 727.06 236.476 726.353 236.969 725.58C237.462 724.793 237.836 723.98 238.089 723.14C238.342 722.3 238.502 721.46 238.569 720.62C238.649 719.78 238.689 718.967 238.689 718.18V711.06ZM250.181 713.78H266.301V723.18H264.761V715.24H251.681V723.28H250.181V713.78ZM250.981 720.56H265.661V722.04H250.981V720.56ZM257.421 710.2H259.001V728.58H257.421V710.2ZM278.453 726.5H285.053V727.82H278.453V726.5ZM279.433 712.24H284.713V713.56H279.433V712.24ZM277.873 721.34H285.733V728.5H284.313V722.64H279.273V728.56H277.873V721.34ZM284.173 712.24H284.453L284.733 712.18L285.673 712.6C285.3 713.827 284.8 714.953 284.173 715.98C283.546 716.993 282.833 717.913 282.033 718.74C281.233 719.553 280.373 720.267 279.453 720.88C278.546 721.493 277.62 722.007 276.673 722.42C276.58 722.247 276.446 722.047 276.273 721.82C276.113 721.58 275.953 721.393 275.793 721.26C276.686 720.927 277.56 720.48 278.413 719.92C279.266 719.36 280.073 718.707 280.833 717.96C281.593 717.2 282.26 716.367 282.833 715.46C283.406 714.54 283.853 713.553 284.173 712.5V712.24ZM279.793 710.18L281.213 710.54C280.92 711.433 280.56 712.307 280.133 713.16C279.72 714.013 279.26 714.807 278.753 715.54C278.26 716.26 277.74 716.9 277.193 717.46C277.113 717.367 277 717.26 276.853 717.14C276.706 717.02 276.553 716.9 276.393 716.78C276.246 716.647 276.12 716.547 276.013 716.48C276.84 715.747 277.58 714.827 278.233 713.72C278.886 712.6 279.406 711.42 279.793 710.18ZM279.393 713.08C279.673 713.8 280.053 714.54 280.533 715.3C281.026 716.047 281.6 716.78 282.253 717.5C282.92 718.207 283.673 718.86 284.513 719.46C285.366 720.047 286.3 720.533 287.313 720.92C287.22 721.013 287.113 721.133 286.993 721.28C286.873 721.427 286.76 721.58 286.653 721.74C286.546 721.9 286.453 722.047 286.373 722.18C285.346 721.727 284.406 721.18 283.553 720.54C282.713 719.9 281.966 719.207 281.313 718.46C280.66 717.7 280.086 716.933 279.593 716.16C279.113 715.373 278.72 714.62 278.413 713.9L279.393 713.08ZM269.633 719.08H270.913V726.32H269.633V719.08ZM270.973 712.36V715.88H274.753V712.36H270.973ZM269.633 711.04H276.133V717.2H269.633V711.04ZM272.473 716.54H273.833V725.68H272.473V716.54ZM268.613 726.16C269.266 726.04 270.02 725.887 270.873 725.7C271.726 725.5 272.633 725.287 273.593 725.06C274.553 724.833 275.513 724.607 276.473 724.38L276.613 725.72C275.24 726.067 273.873 726.407 272.513 726.74C271.153 727.073 269.94 727.367 268.873 727.62L268.613 726.16ZM272.953 720.08H276.333V721.42H272.953V720.08Z" fill="white"/>
<path d="M190.271 732.753C190.271 732.753 200.965 725.763 200.965 717.683C200.965 711.921 196.177 707.25 190.271 707.25C184.364 707.25 179.576 711.921 179.576 717.683C179.576 725.763 190.271 732.753 190.271 732.753Z" stroke="white" stroke-width="1.6" stroke-linejoin="round"/>
<path d="M190.273 722.063C192.545 722.063 194.387 720.221 194.387 717.949C194.387 715.678 192.545 713.836 190.273 713.836C188.002 713.836 186.16 715.678 186.16 717.949C186.16 720.221 188.002 722.063 190.273 722.063Z" stroke="white" stroke-width="1.6" stroke-linejoin="round"/>
<path d="M152.35 167.314H157.182V168.738H152.35V167.314ZM158.27 169.41H163.39V170.818H158.27V169.41ZM160.622 170.274H162.014V179.106H160.622V170.274ZM149.214 165.506L150.062 164.418C150.36 164.546 150.67 164.7 150.99 164.882C151.32 165.063 151.63 165.25 151.918 165.442C152.206 165.634 152.435 165.815 152.606 165.986L151.71 167.202C151.539 167.02 151.315 166.828 151.038 166.626C150.76 166.412 150.462 166.21 150.142 166.018C149.822 165.815 149.512 165.644 149.214 165.506ZM148.478 169.81L149.326 168.69C149.635 168.807 149.955 168.946 150.286 169.106C150.616 169.266 150.926 169.436 151.214 169.618C151.512 169.799 151.758 169.975 151.95 170.146L151.07 171.362C150.888 171.202 150.654 171.026 150.366 170.834C150.078 170.642 149.768 170.455 149.438 170.274C149.118 170.092 148.798 169.938 148.478 169.81ZM148.766 178.21C148.947 177.762 149.144 177.244 149.358 176.658C149.571 176.06 149.784 175.431 149.998 174.77C150.222 174.108 150.424 173.458 150.606 172.818L151.854 173.538C151.704 174.124 151.534 174.732 151.342 175.362C151.16 175.991 150.968 176.61 150.766 177.218C150.563 177.815 150.366 178.38 150.174 178.914L148.766 178.21ZM157.726 165.586L159.486 166.098C159.475 166.226 159.352 166.3 159.118 166.322V171.09C159.118 171.666 159.096 172.3 159.054 172.994C159.011 173.676 158.926 174.38 158.798 175.106C158.67 175.82 158.478 176.519 158.222 177.202C157.976 177.884 157.646 178.514 157.23 179.09C157.176 178.983 157.08 178.866 156.942 178.738C156.814 178.61 156.675 178.487 156.526 178.37C156.387 178.252 156.259 178.172 156.142 178.13C156.622 177.436 156.974 176.684 157.198 175.874C157.422 175.052 157.566 174.231 157.63 173.41C157.694 172.578 157.726 171.799 157.726 171.074V165.586ZM161.758 164.258L163.118 165.298C162.691 165.543 162.222 165.794 161.71 166.05C161.198 166.295 160.67 166.524 160.126 166.738C159.592 166.951 159.07 167.143 158.558 167.314C158.515 167.154 158.44 166.967 158.334 166.754C158.227 166.53 158.12 166.348 158.014 166.21C158.472 166.028 158.936 165.831 159.406 165.618C159.875 165.394 160.312 165.164 160.718 164.93C161.134 164.695 161.48 164.471 161.758 164.258ZM151.966 172.61C152.616 172.428 153.4 172.194 154.318 171.906C155.246 171.618 156.174 171.324 157.102 171.026L157.342 172.402C156.52 172.7 155.688 172.999 154.846 173.298C154.003 173.586 153.235 173.847 152.542 174.082L151.966 172.61ZM154.142 164.274H155.55V177.298C155.55 177.692 155.507 178.007 155.422 178.242C155.336 178.476 155.182 178.652 154.958 178.77C154.723 178.898 154.424 178.978 154.062 179.01C153.71 179.052 153.272 179.074 152.75 179.074C152.728 178.882 152.675 178.636 152.59 178.338C152.515 178.039 152.424 177.783 152.318 177.57C152.67 177.58 152.99 177.591 153.278 177.602C153.566 177.602 153.763 177.602 153.87 177.602C153.976 177.591 154.046 177.564 154.078 177.522C154.12 177.479 154.142 177.404 154.142 177.298V164.274ZM164.582 165.634H178.534V167.026H164.582V165.634ZM170.71 164.258H172.262V166.45H170.71V164.258ZM165.206 168.514H177.382V169.842H166.646V179.09H165.206V168.514ZM176.598 168.514H178.054V177.362C178.054 177.756 178 178.071 177.894 178.306C177.787 178.551 177.595 178.732 177.318 178.85C177.03 178.967 176.656 179.042 176.198 179.074C175.75 179.106 175.2 179.122 174.55 179.122C174.528 178.983 174.491 178.823 174.438 178.642C174.384 178.471 174.326 178.295 174.262 178.114C174.198 177.932 174.128 177.778 174.054 177.65C174.534 177.671 174.982 177.682 175.398 177.682C175.814 177.682 176.091 177.682 176.23 177.682C176.368 177.671 176.464 177.644 176.518 177.602C176.571 177.548 176.598 177.468 176.598 177.362V168.514ZM169.238 169.586H170.598C170.544 170.258 170.422 170.834 170.23 171.314C170.038 171.794 169.712 172.194 169.254 172.514C168.806 172.834 168.166 173.09 167.334 173.282C167.27 173.122 167.168 172.935 167.03 172.722C166.891 172.508 166.752 172.338 166.614 172.21C167.307 172.082 167.835 171.911 168.198 171.698C168.571 171.474 168.827 171.191 168.966 170.85C169.115 170.508 169.206 170.087 169.238 169.586ZM172.214 169.586H173.526V171.186C173.526 171.335 173.547 171.431 173.59 171.474C173.643 171.516 173.76 171.538 173.942 171.538C173.974 171.538 174.043 171.538 174.15 171.538C174.256 171.538 174.368 171.538 174.486 171.538C174.614 171.538 174.731 171.538 174.838 171.538C174.955 171.538 175.04 171.538 175.094 171.538C175.19 171.538 175.264 171.516 175.318 171.474C175.371 171.431 175.414 171.34 175.446 171.202C175.478 171.063 175.499 170.85 175.51 170.562C175.638 170.647 175.814 170.732 176.038 170.818C176.262 170.903 176.459 170.962 176.63 170.994C176.576 171.655 176.448 172.098 176.246 172.322C176.043 172.546 175.712 172.658 175.254 172.658C175.2 172.658 175.099 172.658 174.95 172.658C174.811 172.658 174.662 172.658 174.502 172.658C174.342 172.658 174.192 172.658 174.054 172.658C173.915 172.658 173.814 172.658 173.75 172.658C173.334 172.658 173.014 172.615 172.79 172.53C172.566 172.444 172.411 172.295 172.326 172.082C172.251 171.868 172.214 171.575 172.214 171.202V169.586ZM168.518 173.394H169.862V178.37H168.518V173.394ZM169.334 173.394H174.71V177.442H169.334V176.29H173.334V174.546H169.334V173.394ZM167.574 166.994L169.062 166.738C169.222 167.004 169.382 167.314 169.542 167.666C169.702 168.007 169.814 168.306 169.878 168.562L168.326 168.898C168.272 168.642 168.171 168.338 168.022 167.986C167.883 167.623 167.734 167.292 167.574 166.994ZM173.926 166.69L175.59 166.978C175.408 167.34 175.227 167.687 175.046 168.018C174.864 168.348 174.694 168.631 174.534 168.866L173.03 168.594C173.19 168.327 173.35 168.012 173.51 167.65C173.68 167.287 173.819 166.967 173.926 166.69ZM180.094 168.722H194.238V170.29H180.094V168.722ZM188.062 169.346C188.403 170.604 188.862 171.778 189.438 172.866C190.024 173.954 190.739 174.908 191.582 175.73C192.435 176.54 193.422 177.18 194.542 177.65C194.414 177.756 194.275 177.895 194.126 178.066C193.987 178.236 193.854 178.407 193.726 178.578C193.598 178.759 193.491 178.919 193.406 179.058C192.222 178.503 191.187 177.772 190.302 176.866C189.427 175.948 188.686 174.887 188.078 173.682C187.47 172.476 186.958 171.154 186.542 169.714L188.062 169.346ZM186.302 164.258H187.95C187.95 165.015 187.928 165.831 187.886 166.706C187.854 167.57 187.774 168.46 187.646 169.378C187.518 170.295 187.31 171.212 187.022 172.13C186.734 173.047 186.334 173.932 185.822 174.786C185.31 175.639 184.654 176.434 183.854 177.17C183.054 177.895 182.078 178.53 180.926 179.074C180.798 178.871 180.627 178.647 180.414 178.402C180.2 178.167 179.987 177.97 179.774 177.81C180.883 177.308 181.816 176.727 182.574 176.066C183.342 175.394 183.96 174.668 184.43 173.89C184.91 173.1 185.278 172.284 185.534 171.442C185.79 170.599 185.971 169.756 186.078 168.914C186.184 168.071 186.248 167.255 186.27 166.466C186.291 165.676 186.302 164.94 186.302 164.258ZM199.83 165.746H210.07V167.042H199.83V165.746ZM204.118 164.306H205.622V166.354H204.118V164.306ZM202.422 168.834V170.05H207.382V168.834H202.422ZM200.982 167.794H208.902V171.106H200.982V167.794ZM199.526 171.89H210.246V174.786H208.854V173.058H200.854V174.802H199.526V171.89ZM201.51 173.97H208.31V175.202H201.51V173.97ZM204.118 174.258H205.622V177.57C205.622 177.954 205.568 178.247 205.462 178.45C205.366 178.663 205.174 178.818 204.886 178.914C204.598 179.02 204.235 179.079 203.798 179.09C203.36 179.111 202.843 179.122 202.246 179.122C202.214 178.919 202.155 178.69 202.07 178.434C201.984 178.178 201.894 177.948 201.798 177.746C202.086 177.756 202.363 177.767 202.63 177.778C202.907 177.788 203.147 177.788 203.35 177.778C203.563 177.778 203.707 177.778 203.782 177.778C203.91 177.767 203.995 177.746 204.038 177.714C204.091 177.682 204.118 177.618 204.118 177.522V174.258ZM198.758 164.322L200.198 164.754C199.846 165.66 199.435 166.562 198.966 167.458C198.496 168.354 197.99 169.196 197.446 169.986C196.902 170.775 196.342 171.474 195.766 172.082C195.712 171.954 195.638 171.794 195.542 171.602C195.446 171.41 195.339 171.212 195.222 171.01C195.115 170.807 195.019 170.652 194.934 170.546C195.446 170.034 195.936 169.447 196.406 168.786C196.886 168.124 197.328 167.41 197.734 166.642C198.139 165.874 198.48 165.1 198.758 164.322ZM197.158 168.562L198.582 167.138L198.598 167.154V179.09H197.158V168.562ZM211.486 166.546H225.166V168.018H211.486V166.546ZM211.214 174.706H225.47V176.194H211.214V174.706ZM218.334 168.834H219.95V179.106H218.334V168.834ZM212.99 172.802C212.958 172.695 212.91 172.546 212.846 172.354C212.782 172.162 212.712 171.97 212.638 171.778C212.563 171.575 212.488 171.399 212.414 171.25C212.616 171.196 212.803 171.063 212.974 170.85C213.155 170.626 213.358 170.338 213.582 169.986C213.71 169.826 213.88 169.548 214.094 169.154C214.318 168.759 214.563 168.295 214.83 167.762C215.096 167.218 215.358 166.636 215.614 166.018C215.88 165.388 216.115 164.764 216.318 164.146L218.062 164.61C217.699 165.506 217.294 166.396 216.846 167.282C216.398 168.167 215.934 169.004 215.454 169.794C214.984 170.572 214.515 171.271 214.046 171.89V171.938C214.046 171.938 213.992 171.97 213.886 172.034C213.779 172.087 213.656 172.162 213.518 172.258C213.379 172.354 213.256 172.45 213.15 172.546C213.043 172.642 212.99 172.727 212.99 172.802ZM212.99 172.802V171.634L213.87 171.122H224.11V172.562H214.766C214.456 172.562 214.174 172.572 213.918 172.594C213.672 172.615 213.47 172.647 213.31 172.69C213.15 172.722 213.043 172.759 212.99 172.802ZM226.646 168.13H231.622V169.554H226.646V168.13ZM228.502 164.45H229.926V175.186H228.502V164.45ZM226.422 175.538C226.848 175.41 227.339 175.25 227.894 175.058C228.459 174.855 229.051 174.642 229.67 174.418C230.299 174.183 230.923 173.954 231.542 173.73L231.846 175.122C231.003 175.463 230.15 175.81 229.286 176.162C228.422 176.503 227.632 176.812 226.918 177.09L226.422 175.538ZM231.91 164.994H238.63V166.434H231.91V164.994ZM239.558 169.362H241.078C241.078 169.362 241.072 169.404 241.062 169.49C241.062 169.575 241.062 169.671 241.062 169.778C241.062 169.884 241.056 169.975 241.046 170.05C240.96 171.436 240.875 172.62 240.79 173.602C240.704 174.572 240.614 175.378 240.518 176.018C240.422 176.658 240.315 177.159 240.198 177.522C240.091 177.884 239.963 178.151 239.814 178.322C239.654 178.535 239.478 178.684 239.286 178.77C239.104 178.866 238.891 178.93 238.646 178.962C238.432 178.994 238.166 179.01 237.846 179.01C237.536 179.01 237.206 179.004 236.854 178.994C236.843 178.78 236.8 178.535 236.726 178.258C236.651 177.991 236.555 177.762 236.438 177.57C236.758 177.602 237.051 177.623 237.318 177.634C237.595 177.634 237.803 177.634 237.942 177.634C238.07 177.644 238.176 177.634 238.262 177.602C238.347 177.559 238.432 177.49 238.518 177.394C238.667 177.234 238.8 176.882 238.918 176.338C239.035 175.794 239.147 174.983 239.254 173.906C239.371 172.828 239.472 171.41 239.558 169.65V169.362ZM232.55 170.994C232.518 170.887 232.464 170.748 232.39 170.578C232.315 170.396 232.235 170.215 232.15 170.034C232.075 169.852 232 169.703 231.926 169.586C232.139 169.543 232.39 169.447 232.678 169.298C232.966 169.148 233.264 168.972 233.574 168.77C233.734 168.674 233.974 168.514 234.294 168.29C234.624 168.055 234.998 167.783 235.414 167.474C235.83 167.154 236.251 166.807 236.678 166.434C237.115 166.05 237.52 165.655 237.894 165.25V165.154L238.598 164.866L239.702 165.73C238.656 166.668 237.606 167.527 236.55 168.306C235.504 169.074 234.507 169.719 233.558 170.242V170.29C233.558 170.29 233.504 170.311 233.398 170.354C233.302 170.396 233.184 170.455 233.046 170.53C232.918 170.604 232.8 170.684 232.694 170.77C232.598 170.855 232.55 170.93 232.55 170.994ZM232.55 170.994V169.762L233.334 169.362H240.086V170.77H233.974C233.622 170.77 233.312 170.791 233.046 170.834C232.79 170.866 232.624 170.919 232.55 170.994ZM237.414 170.21L238.742 170.466C238.219 172.386 237.494 174.066 236.566 175.506C235.648 176.946 234.534 178.124 233.222 179.042C233.136 178.967 233.024 178.876 232.886 178.77C232.747 178.663 232.603 178.556 232.454 178.45C232.304 178.343 232.171 178.263 232.054 178.21C233.408 177.378 234.528 176.279 235.414 174.914C236.299 173.548 236.966 171.98 237.414 170.21ZM234.87 170.21L236.198 170.482C235.856 171.57 235.376 172.551 234.758 173.426C234.139 174.29 233.44 175.015 232.662 175.602C232.587 175.516 232.48 175.42 232.342 175.314C232.203 175.207 232.064 175.106 231.926 175.01C231.787 174.903 231.659 174.818 231.542 174.754C232.32 174.252 232.998 173.612 233.574 172.834C234.15 172.044 234.582 171.17 234.87 170.21Z" fill="white" fill-opacity="0.4"/>
<rect x="128" y="831" width="134" height="5" rx="2.5" fill="black"/>
<g clip-path="url(#clip1_309_4459)">
<path d="M117.768 -2H272.184V13C272.184 22.3888 264.572 30 255.184 30H134.768C125.379 30 117.768 22.3888 117.768 13V-2Z" fill="black"/>
<path d="M118 -2H113C113 -2 113 -2 113 -2C115.651 -2 117.799 0.148747 117.799 2.79934C117.799 2.86656 117.798 2.93345 117.795 3H118V-2Z" fill="black"/>
<path d="M272 -2H277C277 -2 277 -2 277 -2C274.349 -2 272.201 0.148747 272.201 2.79934C272.201 2.86656 272.202 2.93345 272.205 3H272V-2Z" fill="black"/>
<path d="M42.3849 19.8062C45.6472 19.8062 47.631 22.1055 47.631 25.9653V25.9819C47.631 29.8501 45.6306 32.2158 42.4099 32.2158C39.9362 32.2158 38.0851 30.7798 37.7448 28.8706L37.7282 28.8042H40.7082L40.7331 28.8623C40.9987 29.4434 41.5632 29.875 42.4099 29.875C43.9123 29.875 44.6096 28.4639 44.7175 26.563C44.7258 26.3721 44.7341 26.1729 44.7341 25.9985H44.676C44.2028 27.1357 43.0573 27.9243 41.4387 27.9243C39.1061 27.9243 37.5788 26.3057 37.5788 24.0811V24.0645C37.5788 21.5659 39.6208 19.8062 42.3849 19.8062ZM42.4099 25.791C43.4973 25.791 44.3439 25.0439 44.3439 23.9814V23.9731C44.3439 22.9355 43.5056 22.1553 42.4348 22.1553C41.3723 22.1553 40.509 22.9355 40.509 23.9482V23.9648C40.509 25.0439 41.3391 25.791 42.4099 25.791ZM50.0204 24.7451C49.1571 24.7451 48.4682 24.0645 48.4682 23.1929C48.4682 22.3296 49.1571 21.6406 50.0204 21.6406C50.892 21.6406 51.581 22.3296 51.581 23.1929C51.581 24.0645 50.892 24.7451 50.0204 24.7451ZM50.0204 30.3813C49.1571 30.3813 48.4682 29.6924 48.4682 28.8291C48.4682 27.9575 49.1571 27.2686 50.0204 27.2686C50.892 27.2686 51.581 27.9575 51.581 28.8291C51.581 29.6924 50.892 30.3813 50.0204 30.3813ZM58.2784 32V29.958H52.36V27.4761L56.9254 20.022H61.1588V27.5923H62.6778V29.958H61.1588V32H58.2784ZM54.9083 27.7002H58.3614V22.1221H58.295L54.9083 27.6172V27.7002ZM66.3787 32V22.6948H66.3206L63.324 24.7036V22.0972L66.3704 20.022H69.4085V32H66.3787Z" fill="#EBEDF0"/>
<path opacity="0.35" d="M340 19.5273H357C358.918 19.5273 360.473 21.0822 360.473 23V28C360.473 29.9178 358.918 31.4727 357 31.4727H340C338.082 31.4727 336.527 29.9178 336.527 28V23C336.527 21.0822 338.082 19.5273 340 19.5273Z" fill="white" stroke="white" stroke-width="1.05509"/>
<path opacity="0.4" d="M362 24V28.2203C362.849 27.8629 363.401 27.0314 363.401 26.1102C363.401 25.1889 362.849 24.3574 362 24Z" fill="white"/>
<path d="M338 23C338 21.8954 338.895 21 340 21H357C358.105 21 359 21.8954 359 23V28C359 29.1046 358.105 30 357 30H340C338.895 30 338 29.1046 338 28V23Z" fill="white"/>
<path fill-rule="evenodd" clip-rule="evenodd" d="M318.115 29.0848C319.535 27.8592 321.614 27.8593 323.034 29.0848C323.106 29.1507 323.147 29.2443 323.149 29.3426C323.151 29.4408 323.114 29.5355 323.045 29.6043L320.821 31.8943C320.756 31.9615 320.668 31.9997 320.575 31.9998C320.482 31.9998 320.393 31.9616 320.328 31.8943L318.104 29.6043C318.036 29.5354 317.998 29.4408 318 29.3426C318.002 29.2443 318.044 29.1506 318.115 29.0848ZM315.109 26.2615C318.168 23.3569 322.906 23.3569 325.965 26.2615C326.034 26.3296 326.073 26.4233 326.074 26.5213C326.075 26.6192 326.037 26.7136 325.97 26.783L324.685 28.1082C324.552 28.2435 324.338 28.2468 324.202 28.115C323.198 27.1866 321.891 26.6716 320.536 26.6717C319.182 26.6722 317.876 27.1871 316.872 28.115C316.736 28.2468 316.522 28.2435 316.39 28.1082L315.104 26.783C315.037 26.7137 314.999 26.6192 315 26.5213C315.001 26.4233 315.04 26.3296 315.109 26.2615ZM312.107 23.4422C316.799 18.8526 324.201 18.8526 328.893 23.4422C328.961 23.5104 328.999 23.6037 329 23.701C329 23.7981 328.963 23.8918 328.896 23.9607L327.609 25.2859C327.477 25.4219 327.262 25.4236 327.127 25.2898C325.339 23.5551 322.967 22.5878 320.5 22.5877C318.033 22.5878 315.661 23.5551 313.873 25.2898C313.739 25.4237 313.523 25.4221 313.391 25.2859L312.104 23.9607C312.037 23.8918 312 23.798 312 23.701C312.001 23.6037 312.039 23.5103 312.107 23.4422Z" fill="white"/>
<path d="M287 28.5H288C288.276 28.5 288.5 28.7239 288.5 29V31C288.5 31.2761 288.276 31.5 288 31.5H287C286.724 31.5 286.5 31.2761 286.5 31V29C286.5 28.7239 286.724 28.5 287 28.5ZM292 26H293C293.276 26 293.5 26.2239 293.5 26.5V31C293.5 31.2761 293.276 31.5 293 31.5H292C291.724 31.5 291.5 31.2761 291.5 31V26.5C291.5 26.2239 291.724 26 292 26ZM297 22.5H298C298.276 22.5 298.5 22.7239 298.5 23V31C298.5 31.2761 298.276 31.5 298 31.5H297C296.724 31.5 296.5 31.2761 296.5 31V23C296.5 22.7239 296.724 22.5 297 22.5ZM302 20.5H303C303.276 20.5 303.5 20.7239 303.5 21V31C303.5 31.2761 303.276 31.5 303 31.5H302C301.724 31.5 301.5 31.2761 301.5 31V21C301.5 20.7239 301.724 20.5 302 20.5Z" fill="white" stroke="white"/>
</g>
</g>
<defs>
<clipPath id="clip0_309_4459">
<rect width="390" height="844" rx="16" fill="white"/>
</clipPath>
<clipPath id="clip1_309_4459">
<rect width="390" height="47" fill="white"/>
</clipPath>
</defs>
</svg>
