<svg width="296" height="290" viewBox="0 0 296 290" fill="none" xmlns="http://www.w3.org/2000/svg">
<g filter="url(#filter0_d_63_1651)">
<ellipse cx="147.191" cy="144.41" rx="111.746" ry="108.615" fill="#236D5E"/>
<path d="M147.992 32.1069C211.759 32.2316 263.54 82.6064 263.412 144.854C263.283 207.101 211.294 257.274 147.527 257.149C83.7595 257.025 31.9789 206.65 32.1073 144.402C32.236 82.1546 84.2245 31.9824 147.992 32.1069Z" stroke="white" stroke-opacity="0.4" stroke-width="7.81341"/>
<path d="M120.246 95.1094V206.035" stroke="white" stroke-width="12.5015" stroke-linecap="round" stroke-linejoin="round"/>
<path d="M120.246 95.1094H163.042C178.799 95.1094 191.573 107.181 191.573 122.07C191.573 136.96 178.799 149.032 163.042 149.032H120.246V95.1094Z" stroke="white" stroke-width="12.5015" stroke-linejoin="round"/>
<path d="M176.911 71.1973C179.661 71.1973 181.89 73.426 181.89 76.1758V90.5898H196.967C199.659 90.5898 201.842 92.7725 201.842 95.4648C201.841 98.157 199.659 100.34 196.967 100.34H181.89V114.814C181.89 117.564 179.661 119.793 176.911 119.793C174.161 119.793 171.932 117.564 171.931 114.814V100.34H156.855C154.163 100.34 151.98 98.157 151.98 95.4648C151.98 92.7725 154.163 90.5898 156.855 90.5898H171.931V76.1758C171.932 73.426 174.161 71.1973 176.911 71.1973Z" fill="#FEFB54" stroke="#236D5E" stroke-width="4.68805"/>
<path d="M201.842 95.9199C201.841 98.9403 199.393 101.388 196.373 101.389L182.907 101.389L182.907 114.324C182.907 117.345 180.459 119.793 177.438 119.793L176.471 119.793C173.451 119.793 171.002 117.345 171.002 114.324L171.002 101.389L157.449 101.389C154.429 101.388 151.98 98.9403 151.98 95.9199L151.98 95.0703C151.98 92.0499 154.429 89.6018 157.449 89.6016L171.002 89.6016L171.002 76.666C171.002 73.6455 173.451 71.1973 176.471 71.1973L177.438 71.1973C180.459 71.1975 182.907 73.6457 182.907 76.666L182.907 89.6016L196.373 89.6016C199.393 89.6018 201.841 92.0499 201.842 95.0703L201.842 95.9199Z" fill="#FEFB54" stroke="#236D5E" stroke-width="4.68805"/>
</g>
<defs>
<filter id="filter0_d_63_1651" x="-4.95911e-05" y="-0.000782013" width="295.518" height="289.257" filterUnits="userSpaceOnUse" color-interpolation-filters="sRGB">
<feFlood flood-opacity="0" result="BackgroundImageFix"/>
<feColorMatrix in="SourceAlpha" type="matrix" values="0 0 0 0 0 0 0 0 0 0 0 0 0 0 0 0 0 0 127 0" result="hardAlpha"/>
<feOffset/>
<feGaussianBlur stdDeviation="14.1"/>
<feComposite in2="hardAlpha" operator="out"/>
<feColorMatrix type="matrix" values="0 0 0 0 0.137255 0 0 0 0 0.427451 0 0 0 0 0.368627 0 0 0 0.2 0"/>
<feBlend mode="normal" in2="BackgroundImageFix" result="effect1_dropShadow_63_1651"/>
<feBlend mode="normal" in="SourceGraphic" in2="effect1_dropShadow_63_1651" result="shape"/>
</filter>
</defs>
</svg>
