<svg width="390" height="844" viewBox="0 0 390 844" fill="none" xmlns="http://www.w3.org/2000/svg">
<g clip-path="url(#clip0_363_2218)">
<rect width="390" height="844" rx="12" fill="#186051"/>
<rect x="128" y="831" width="134" height="5" rx="2.5" fill="black"/>
<path d="M148.12 101.157H155.944V103.197H148.12V101.157ZM152.2 105.045H154.144V120.597H152.2V105.045ZM148 114.429C149.008 114.253 150.208 114.013 151.6 113.709C153.008 113.405 154.432 113.101 155.872 112.797L156.04 114.693C154.728 115.029 153.408 115.365 152.08 115.701C150.768 116.021 149.576 116.301 148.504 116.541L148 114.429ZM148.72 110.949C148.688 110.821 148.632 110.645 148.552 110.421C148.488 110.181 148.408 109.941 148.312 109.701C148.232 109.461 148.152 109.261 148.072 109.101C148.28 109.037 148.464 108.829 148.624 108.477C148.784 108.125 148.952 107.677 149.128 107.133C149.208 106.877 149.328 106.453 149.488 105.861C149.648 105.253 149.816 104.549 149.992 103.749C150.184 102.933 150.36 102.069 150.52 101.157C150.68 100.229 150.792 99.3089 150.856 98.3969L152.944 98.7089C152.752 100.005 152.504 101.325 152.2 102.669C151.896 103.997 151.552 105.277 151.168 106.509C150.784 107.725 150.392 108.821 149.992 109.797V109.821C149.992 109.821 149.928 109.861 149.8 109.941C149.672 110.021 149.52 110.125 149.344 110.253C149.184 110.365 149.04 110.485 148.912 110.613C148.784 110.741 148.72 110.853 148.72 110.949ZM148.72 110.949V109.077L149.776 108.549H155.872V110.589H150.448C150.064 110.589 149.704 110.621 149.368 110.685C149.032 110.749 148.816 110.837 148.72 110.949ZM158.392 104.181H167.632V106.005H158.392V104.181ZM156.952 107.397H162.184V109.149H158.776V120.549H156.952V107.397ZM161.656 107.397H163.48V118.437C163.48 118.885 163.432 119.245 163.336 119.517C163.256 119.805 163.072 120.029 162.784 120.189C162.512 120.333 162.176 120.421 161.776 120.453C161.392 120.485 160.928 120.501 160.384 120.501C160.368 120.245 160.304 119.941 160.192 119.589C160.096 119.237 159.984 118.933 159.856 118.677C160.192 118.693 160.504 118.701 160.792 118.701C161.08 118.701 161.28 118.701 161.392 118.701C161.568 118.701 161.656 118.605 161.656 118.413V107.397ZM158.32 110.757H163V112.437H158.32V110.757ZM158.296 114.069H162.976V115.749H158.296V114.069ZM164.608 107.925H166.336V116.661H164.608V107.925ZM167.656 107.037H169.456V118.245C169.456 118.741 169.4 119.133 169.288 119.421C169.176 119.709 168.944 119.933 168.592 120.093C168.272 120.237 167.856 120.325 167.344 120.357C166.832 120.405 166.208 120.429 165.472 120.429C165.44 120.173 165.368 119.869 165.256 119.517C165.16 119.165 165.048 118.861 164.92 118.605C165.448 118.621 165.936 118.629 166.384 118.629C166.832 118.629 167.136 118.621 167.296 118.605C167.536 118.605 167.656 118.485 167.656 118.245V107.037ZM162.904 98.2529L164.752 99.0689C164.128 100.013 163.384 100.917 162.52 101.781C161.672 102.645 160.76 103.437 159.784 104.157C158.808 104.861 157.808 105.469 156.784 105.981C156.624 105.709 156.408 105.413 156.136 105.093C155.88 104.773 155.616 104.501 155.344 104.277C156.304 103.845 157.264 103.317 158.224 102.693C159.184 102.069 160.064 101.381 160.864 100.629C161.68 99.8609 162.36 99.0689 162.904 98.2529ZM163.744 99.3089C164.688 100.413 165.744 101.341 166.912 102.093C168.08 102.829 169.32 103.477 170.632 104.037C170.376 104.261 170.112 104.541 169.84 104.877C169.584 105.197 169.384 105.509 169.24 105.813C167.848 105.077 166.552 104.261 165.352 103.365C164.168 102.453 163.048 101.333 161.992 100.005L163.744 99.3089ZM176.176 99.7649H182.992V102.069H176.176V99.7649ZM181.864 99.7649H184.192C184.192 100.501 184.216 101.357 184.264 102.333C184.328 103.293 184.464 104.325 184.672 105.429C184.88 106.517 185.2 107.645 185.632 108.813C186.064 109.981 186.632 111.141 187.336 112.293C188.056 113.445 188.96 114.565 190.048 115.653C191.136 116.725 192.448 117.717 193.984 118.629C193.824 118.757 193.624 118.933 193.384 119.157C193.144 119.397 192.912 119.645 192.688 119.901C192.464 120.157 192.288 120.381 192.16 120.573C190.592 119.613 189.248 118.557 188.128 117.405C187.008 116.237 186.064 115.005 185.296 113.709C184.544 112.413 183.936 111.109 183.472 109.797C183.008 108.485 182.656 107.213 182.416 105.981C182.192 104.749 182.04 103.605 181.96 102.549C181.896 101.477 181.864 100.549 181.864 99.7649ZM181.024 104.733L183.592 105.189C183.032 107.605 182.296 109.789 181.384 111.741C180.472 113.677 179.368 115.381 178.072 116.853C176.792 118.325 175.28 119.581 173.536 120.621C173.408 120.445 173.216 120.245 172.96 120.021C172.704 119.797 172.44 119.565 172.168 119.325C171.912 119.085 171.68 118.901 171.472 118.773C174.08 117.429 176.144 115.581 177.664 113.229C179.2 110.861 180.32 108.029 181.024 104.733ZM198.496 105.285L200.392 105.957C200.088 106.853 199.672 107.725 199.144 108.573C198.632 109.405 197.952 110.093 197.104 110.637L195.352 109.437C196.136 108.973 196.792 108.365 197.32 107.613C197.848 106.861 198.24 106.085 198.496 105.285ZM201.496 104.973H203.536V109.413C203.536 109.749 203.624 109.965 203.8 110.061C203.992 110.157 204.416 110.205 205.072 110.205C205.216 110.205 205.472 110.205 205.84 110.205C206.224 110.205 206.64 110.205 207.088 110.205C207.552 110.205 207.984 110.205 208.384 110.205C208.8 110.205 209.104 110.205 209.296 110.205C209.648 110.205 209.904 110.157 210.064 110.061C210.24 109.965 210.368 109.765 210.448 109.461C210.528 109.141 210.584 108.677 210.616 108.069C210.84 108.213 211.128 108.357 211.48 108.501C211.848 108.629 212.168 108.725 212.44 108.789C212.36 109.637 212.216 110.293 212.008 110.757C211.816 111.221 211.52 111.541 211.12 111.717C210.736 111.893 210.192 111.981 209.488 111.981C209.376 111.981 209.16 111.981 208.84 111.981C208.536 111.981 208.184 111.981 207.784 111.981C207.384 111.981 206.976 111.981 206.56 111.981C206.16 111.981 205.808 111.981 205.504 111.981C205.216 111.981 205.016 111.981 204.904 111.981C203.992 111.981 203.288 111.909 202.792 111.765C202.296 111.621 201.952 111.365 201.76 110.997C201.584 110.629 201.496 110.109 201.496 109.437V104.973ZM202.552 103.749L203.656 102.405C204.152 102.597 204.664 102.829 205.192 103.101C205.72 103.373 206.216 103.653 206.68 103.941C207.16 104.229 207.552 104.509 207.856 104.781L206.704 106.221C206.416 105.965 206.04 105.685 205.576 105.381C205.112 105.061 204.616 104.757 204.088 104.469C203.56 104.181 203.048 103.941 202.552 103.749ZM211.672 106.509L213.304 105.405C213.816 105.837 214.336 106.317 214.864 106.845C215.408 107.373 215.912 107.901 216.376 108.429C216.84 108.957 217.2 109.437 217.456 109.869L215.728 111.117C215.488 110.669 215.144 110.181 214.696 109.653C214.264 109.109 213.776 108.565 213.232 108.021C212.704 107.461 212.184 106.957 211.672 106.509ZM210.28 103.461L212.248 104.325C211.08 105.893 209.656 107.277 207.976 108.477C206.296 109.661 204.464 110.685 202.48 111.549C200.512 112.413 198.48 113.133 196.384 113.709C196.304 113.549 196.184 113.357 196.024 113.133C195.88 112.893 195.728 112.661 195.568 112.437C195.408 112.197 195.256 112.005 195.112 111.861C197.208 111.365 199.216 110.733 201.136 109.965C203.072 109.197 204.824 108.277 206.392 107.205C207.976 106.117 209.272 104.869 210.28 103.461ZM205.096 112.317H207.4V118.725H205.096V112.317ZM198.04 113.589H200.296V120.645H198.04V113.589ZM212.512 113.589H214.768V120.621H212.512V113.589ZM199.192 117.573H213.688V119.661H199.192V117.573ZM205.072 98.3729H207.4V101.637H205.072V98.3729ZM196.072 100.317H216.568V105.165H214.264V102.333H198.304V105.165H196.072V100.317ZM238.36 108.837H240.544C240.544 108.837 240.536 108.901 240.52 109.029C240.52 109.141 240.512 109.269 240.496 109.413C240.496 109.557 240.488 109.685 240.472 109.797C240.312 111.925 240.136 113.661 239.944 115.005C239.752 116.349 239.544 117.389 239.32 118.125C239.112 118.845 238.864 119.357 238.576 119.661C238.32 119.933 238.056 120.133 237.784 120.261C237.512 120.389 237.184 120.469 236.8 120.501C236.48 120.533 236.064 120.549 235.552 120.549C235.056 120.549 234.512 120.533 233.92 120.501C233.904 120.197 233.84 119.845 233.728 119.445C233.632 119.061 233.496 118.725 233.32 118.437C233.864 118.501 234.368 118.541 234.832 118.557C235.296 118.557 235.64 118.557 235.864 118.557C236.056 118.573 236.216 118.565 236.344 118.533C236.488 118.485 236.616 118.397 236.728 118.269C236.952 118.061 237.16 117.629 237.352 116.973C237.544 116.317 237.72 115.365 237.88 114.117C238.056 112.853 238.216 111.221 238.36 109.221V108.837ZM228.472 99.6929H237.352V101.757H228.472V99.6929ZM229.624 103.005L231.76 103.149C231.696 103.981 231.616 104.869 231.52 105.813C231.424 106.741 231.328 107.637 231.232 108.501C231.136 109.365 231.032 110.125 230.92 110.781H228.808C228.92 110.109 229.024 109.325 229.12 108.429C229.232 107.533 229.328 106.613 229.408 105.669C229.504 104.709 229.576 103.821 229.624 103.005ZM229.408 108.837H239.008V110.781H229.408V108.837ZM227.824 113.589H236.728V115.605H227.824V113.589ZM236.464 99.6929H236.68L237.04 99.5969L238.648 99.7649C238.6 100.517 238.528 101.333 238.432 102.213C238.352 103.093 238.264 103.997 238.168 104.925C238.072 105.853 237.968 106.773 237.856 107.685C237.744 108.597 237.632 109.461 237.52 110.277L235.384 110.109C235.496 109.277 235.608 108.397 235.72 107.469C235.832 106.541 235.936 105.613 236.032 104.685C236.128 103.757 236.208 102.885 236.272 102.069C236.352 101.237 236.416 100.533 236.464 99.9569V99.6929ZM219.016 99.5489H227.44V101.613H219.016V99.5489ZM221.512 106.989H226.84V117.669H221.512V115.653H224.848V108.981H221.512V106.989ZM221.968 100.605L224.056 101.061C223.768 102.565 223.408 104.053 222.976 105.525C222.56 106.997 222.056 108.373 221.464 109.653C220.872 110.933 220.184 112.053 219.4 113.013C219.368 112.821 219.296 112.565 219.184 112.245C219.088 111.909 218.976 111.581 218.848 111.261C218.736 110.925 218.616 110.653 218.488 110.445C219.384 109.245 220.112 107.789 220.672 106.077C221.232 104.349 221.664 102.525 221.968 100.605ZM220.552 106.989H222.496V119.541H220.552V106.989Z" fill="#FAFAFA"/>
<path d="M26.5 62.5L20 69L26.5 75.5" stroke="white" stroke-opacity="0.8" stroke-width="2" stroke-linecap="round" stroke-linejoin="round"/>
<rect x="65" y="137.629" width="57.7222" height="57.7222" rx="7" stroke="#FEFB54" stroke-width="2"/>
<circle cx="94" cy="166.629" r="5" fill="white"/>
<rect x="132.723" y="137.629" width="57.7222" height="57.7222" rx="7" stroke="white" stroke-width="2"/>
<rect x="200.445" y="137.629" width="57.7222" height="57.7222" rx="7" stroke="white" stroke-width="2"/>
<rect x="268.168" y="137.629" width="57.7222" height="57.7222" rx="7" stroke="white" stroke-width="2"/>
<circle cx="87.0515" cy="659.884" r="42.0515" fill="#236D5E"/>
<circle cx="195.155" cy="659.884" r="42.0515" fill="#236D5E"/>
<circle cx="303.259" cy="659.884" r="42.0515" fill="#236D5E"/>
<circle cx="87.0515" cy="767.68" r="42.0515" fill="#236D5E"/>
<path d="M78 758.629L96.2698 776.899" stroke="white" stroke-width="4" stroke-linecap="round"/>
<path d="M96.2695 758.629L77.9997 776.899" stroke="white" stroke-width="4" stroke-linecap="round"/>
<circle cx="195.155" cy="767.68" r="42.0515" fill="#236D5E"/>
<circle cx="303.052" cy="767.68" r="42.0515" fill="#236D5E"/>
<path d="M291 765.629C289.895 765.629 289 766.524 289 767.629C289 768.733 289.895 769.629 291 769.629L291 767.629L291 765.629ZM316.414 769.043C317.195 768.262 317.195 766.996 316.414 766.215L303.686 753.487C302.905 752.706 301.639 752.706 300.858 753.487C300.077 754.268 300.077 755.534 300.858 756.315L312.172 767.629L300.858 778.943C300.077 779.724 300.077 780.99 300.858 781.771C301.639 782.552 302.905 782.552 303.686 781.771L316.414 769.043ZM291 767.629L291 769.629L315 769.629L315 767.629L315 765.629L291 765.629L291 767.629Z" fill="white"/>
<circle cx="87.0515" cy="551.782" r="42.0515" fill="#236D5E"/>
<circle cx="195.155" cy="551.782" r="42.0515" fill="#236D5E"/>
<circle cx="303.259" cy="551.782" r="42.0515" fill="#236D5E"/>
<circle cx="87.0515" cy="443.68" r="42.0515" fill="#236D5E"/>
<path d="M87.5449 455.629V433.621H87.4746L80.7598 438.297V435.115L87.5098 430.264H90.6035V455.629H87.5449Z" fill="white"/>
<path d="M90.2344 563.629V558.355H77.4902V555.49L88.6172 538.264H93.293V555.578H96.8789V558.355H93.293V563.629H90.2344ZM80.6191 555.578H90.2344V540.971H90.1289L80.6191 555.508V555.578Z" fill="white"/>
<path d="M80.6719 671.629L92.1504 649.146V649.076H78.4922V646.264H95.2793V649.199L83.9941 671.629H80.6719Z" fill="white"/>
<circle cx="195.155" cy="443.68" r="42.0515" fill="#236D5E"/>
<circle cx="303.259" cy="443.68" r="42.0515" fill="#236D5E"/>
<path d="M187.361 455.629V453.449L196.291 444.133C199.719 440.564 200.51 439.193 200.51 437.084V437.049C200.492 434.465 198.541 432.602 195.781 432.602C192.617 432.602 190.262 434.781 190.262 437.506V437.594H187.203V437.488C187.203 433.094 191 429.842 195.729 429.842C200.316 429.842 203.674 432.918 203.674 436.891V436.926C203.674 439.703 202.391 441.795 197.732 446.559L191.703 452.746V452.816H204.096V455.629H187.361Z" fill="white"/>
<path d="M195.246 564.051C190.395 564.051 186.932 561.027 186.562 556.896L186.545 556.703H189.656L189.674 556.844C189.99 559.357 192.24 561.273 195.281 561.273C198.727 561.273 201.117 558.883 201.117 555.473V555.438C201.1 552.098 198.691 549.707 195.334 549.707C193.611 549.707 192.135 550.217 191.01 551.236C190.553 551.658 190.148 552.15 189.814 552.73H187.02L188.32 538.264H202.84V541.076H190.922L190.061 549.602H190.131C191.326 547.896 193.436 546.982 195.896 546.982C200.766 546.982 204.281 550.516 204.281 555.385V555.42C204.264 560.5 200.52 564.051 195.246 564.051Z" fill="white"/>
<path d="M195 672.051C189.621 672.051 185.789 669.027 185.789 664.773V664.738C185.789 661.609 187.986 659.008 191.238 658.252V658.182C188.461 657.32 186.703 655.211 186.703 652.539V652.504C186.703 648.672 190.201 645.842 195 645.842C199.799 645.842 203.297 648.672 203.297 652.504V652.539C203.297 655.211 201.539 657.32 198.762 658.182V658.252C202.014 659.008 204.211 661.609 204.211 664.738V664.773C204.211 669.027 200.379 672.051 195 672.051ZM195 657.004C198.059 657.004 200.15 655.264 200.15 652.803V652.768C200.15 650.307 198.059 648.566 195 648.566C191.941 648.566 189.85 650.307 189.85 652.768V652.803C189.85 655.264 191.941 657.004 195 657.004ZM195 669.291C198.498 669.291 200.994 667.322 200.994 664.58V664.545C200.994 661.768 198.516 659.781 195 659.781C191.484 659.781 189.006 661.768 189.006 664.545V664.58C189.006 667.322 191.502 669.291 195 669.291Z" fill="white"/>
<path d="M194.982 780.051C189.146 780.051 185.684 775.006 185.684 766.955V766.92C185.684 758.869 189.146 753.842 194.982 753.842C200.818 753.842 204.316 758.869 204.316 766.92V766.955C204.316 775.006 200.818 780.051 194.982 780.051ZM194.982 777.291C198.85 777.291 201.135 773.318 201.135 766.955V766.92C201.135 760.557 198.85 756.619 194.982 756.619C191.115 756.619 188.865 760.557 188.865 766.92V766.955C188.865 773.318 191.115 777.291 194.982 777.291Z" fill="white"/>
<path d="M303.947 456.051C298.709 456.051 295.316 453.133 294.982 449.125L294.965 448.914H298.006L298.023 449.09C298.287 451.586 300.572 453.309 303.947 453.309C307.27 453.309 309.537 451.445 309.537 448.756V448.721C309.537 445.609 307.305 443.869 303.754 443.869H300.572V441.197H303.613C306.637 441.197 308.746 439.334 308.746 436.803V436.768C308.746 434.113 307.006 432.584 303.912 432.584C300.924 432.584 298.797 434.166 298.533 436.732L298.516 436.908H295.475L295.492 436.732C295.896 432.602 299.166 429.842 303.912 429.842C308.746 429.842 311.928 432.531 311.928 436.381V436.416C311.928 439.545 309.713 441.689 306.549 442.357V442.428C310.24 442.744 312.754 445.047 312.754 448.65V448.686C312.754 452.922 309.027 456.051 303.947 456.051Z" fill="white"/>
<path d="M304.623 564.051C299.947 564.051 294.99 560.816 294.99 551.412V551.377C294.99 542.834 298.629 537.842 304.834 537.842C309.141 537.842 312.357 540.303 313.201 543.994L313.254 544.223H310.037L309.967 544.029C309.211 541.938 307.4 540.637 304.799 540.637C300.07 540.637 298.207 545.225 298.066 550.551C298.049 550.727 298.049 550.902 298.049 551.096H298.119C299.139 548.846 301.74 547.018 305.186 547.018C310.02 547.018 313.605 550.586 313.605 555.402V555.438C313.605 560.43 309.809 564.051 304.623 564.051ZM298.805 555.402C298.805 558.654 301.336 561.238 304.588 561.238C307.822 561.238 310.389 558.707 310.389 555.508V555.473C310.389 552.168 307.98 549.795 304.641 549.795C301.318 549.795 298.805 552.15 298.805 555.385V555.402Z" fill="white"/>
<path d="M304.377 645.842C309.053 645.842 314.01 649.076 314.01 658.48V658.516C314.01 667.059 310.371 672.051 304.166 672.051C299.859 672.051 296.643 669.59 295.799 665.898L295.746 665.67H298.963L299.033 665.863C299.789 667.955 301.6 669.256 304.201 669.256C308.93 669.256 310.793 664.668 310.934 659.342C310.951 659.166 310.951 658.99 310.951 658.797H310.881C309.861 661.047 307.26 662.875 303.814 662.875C298.98 662.875 295.395 659.307 295.395 654.49V654.455C295.395 649.463 299.191 645.842 304.377 645.842ZM304.359 660.098C307.682 660.098 310.195 657.742 310.195 654.508V654.49C310.195 651.238 307.664 648.654 304.412 648.654C301.178 648.654 298.611 651.186 298.611 654.385V654.42C298.611 657.725 301.02 660.098 304.359 660.098Z" fill="white"/>
<g clip-path="url(#clip1_363_2218)">
<path d="M117.768 -2.37109H272.184V12.6289C272.184 22.0177 264.572 29.6289 255.184 29.6289H134.768C125.379 29.6289 117.768 22.0177 117.768 12.6289V-2.37109Z" fill="black"/>
<path d="M118 -2.37109H113C113 -2.37109 113 -2.37109 113 -2.37109C115.651 -2.37109 117.799 -0.222347 117.799 2.42825C117.799 2.49547 117.798 2.56236 117.795 2.62891H118V-2.37109Z" fill="black"/>
<path d="M272 -2.37109H277C277 -2.37109 277 -2.37109 277 -2.37109C274.349 -2.37109 272.201 -0.222347 272.201 2.42825C272.201 2.49547 272.202 2.56236 272.205 2.62891H272V-2.37109Z" fill="black"/>
<path d="M40.8576 19.3271C43.9455 19.3271 46.0373 21.5186 46.0373 25.5776V25.5942C46.0373 29.562 44.0451 31.9443 40.8908 31.9443C38.4172 31.9443 36.5744 30.4751 36.2175 28.541L36.2092 28.4746H39.1642L39.1891 28.541C39.4382 29.1553 40.0358 29.5952 40.8742 29.5952C42.3766 29.5952 43.0656 28.1177 43.1569 26.1089C43.1569 26.0259 43.1652 25.9346 43.1652 25.8433H42.9909C42.5593 26.7397 41.6296 27.5449 39.9528 27.5449C37.5788 27.5449 36.0598 25.9097 36.0598 23.6602V23.6436C36.0598 21.1699 38.0104 19.3271 40.8576 19.3271ZM40.8659 25.4116C41.9367 25.4116 42.7751 24.6646 42.7751 23.5938V23.5771C42.7751 22.4897 41.9367 21.668 40.8742 21.668C39.82 21.668 38.965 22.4814 38.965 23.5273V23.5439C38.965 24.6313 39.7702 25.4116 40.8659 25.4116ZM49.6386 24.374C48.6508 24.374 47.9784 23.6768 47.9784 22.7388C47.9784 21.8008 48.6508 21.1118 49.6386 21.1118C50.6347 21.1118 51.307 21.8008 51.307 22.7388C51.307 23.6768 50.6347 24.374 49.6386 24.374ZM49.6386 30.1597C48.6508 30.1597 47.9784 29.4707 47.9784 28.5327C47.9784 27.5947 48.6508 26.8975 49.6386 26.8975C50.6347 26.8975 51.307 27.5947 51.307 28.5327C51.307 29.4707 50.6347 30.1597 49.6386 30.1597ZM59.1666 31.6289V29.5869H53.2814V27.2876C54.7423 24.6064 56.2613 22.0913 57.8136 19.6509H62.047V27.2129H63.5411V29.5869H62.047V31.6289H59.1666ZM55.921 27.3208H59.2413V21.8257H59.0919C58.0211 23.4941 56.8839 25.3701 55.921 27.1714V27.3208ZM67.931 31.6289V22.3984H67.7733L64.8846 24.3491V21.7261L67.931 19.6509H70.9691V31.6289H67.931Z" fill="white"/>
<path opacity="0.35" d="M340 19.1562H357C358.918 19.1562 360.473 20.7111 360.473 22.6289V27.6289C360.473 29.5467 358.918 31.1016 357 31.1016H340C338.082 31.1016 336.527 29.5467 336.527 27.6289V22.6289C336.527 20.7111 338.082 19.1562 340 19.1562Z" stroke="white" stroke-width="1.05509"/>
<path opacity="0.4" d="M362 23.6289V27.8493C362.849 27.4918 363.401 26.6603 363.401 25.7391C363.401 24.8178 362.849 23.9863 362 23.6289Z" fill="white"/>
<path d="M338 22.6289C338 21.5243 338.895 20.6289 340 20.6289H357C358.105 20.6289 359 21.5243 359 22.6289V27.6289C359 28.7335 358.105 29.6289 357 29.6289H340C338.895 29.6289 338 28.7335 338 27.6289V22.6289Z" fill="white"/>
<path fill-rule="evenodd" clip-rule="evenodd" d="M318.115 28.7137C319.535 27.4881 321.614 27.4882 323.034 28.7137C323.106 28.7796 323.147 28.8732 323.149 28.9715C323.151 29.0697 323.114 29.1644 323.045 29.2332L320.821 31.5232C320.756 31.5905 320.668 31.6286 320.575 31.6287C320.482 31.6287 320.393 31.5905 320.328 31.5232L318.104 29.2332C318.036 29.1643 317.998 29.0697 318 28.9715C318.002 28.8732 318.044 28.7796 318.115 28.7137ZM315.109 25.8904C318.168 22.9858 322.906 22.9858 325.965 25.8904C326.034 25.9585 326.073 26.0522 326.074 26.1502C326.075 26.2481 326.037 26.3425 325.97 26.4119L324.685 27.7371C324.552 27.8724 324.338 27.8757 324.202 27.7439C323.198 26.8155 321.891 26.3006 320.536 26.3006C319.182 26.3012 317.876 26.816 316.872 27.7439C316.736 27.8757 316.522 27.8725 316.39 27.7371L315.104 26.4119C315.037 26.3426 314.999 26.2481 315 26.1502C315.001 26.0522 315.04 25.9585 315.109 25.8904ZM312.107 23.0711C316.799 18.4815 324.201 18.4815 328.893 23.0711C328.961 23.1393 328.999 23.2326 329 23.3299C329 23.427 328.963 23.5207 328.896 23.5896L327.609 24.9148C327.477 25.0508 327.262 25.0525 327.127 24.9187C325.339 23.184 322.967 22.2167 320.5 22.2166C318.033 22.2167 315.661 23.184 313.873 24.9187C313.739 25.0526 313.523 25.051 313.391 24.9148L312.104 23.5896C312.037 23.5207 312 23.4269 312 23.3299C312.001 23.2326 312.039 23.1392 312.107 23.0711Z" fill="white"/>
<path d="M296 22.6289C296 22.0766 296.448 21.6289 297 21.6289H298C298.552 21.6289 299 22.0766 299 22.6289V30.6289C299 31.1812 298.552 31.6289 298 31.6289H297C296.448 31.6289 296 31.1812 296 30.6289V22.6289Z" fill="white"/>
<path d="M301 20.6289C301 20.0766 301.448 19.6289 302 19.6289H303C303.552 19.6289 304 20.0766 304 20.6289V30.6289C304 31.1812 303.552 31.6289 303 31.6289H302C301.448 31.6289 301 31.1812 301 30.6289V20.6289Z" fill="white"/>
<path d="M291 26.1289C291 25.5766 291.448 25.1289 292 25.1289H293C293.552 25.1289 294 25.5766 294 26.1289V30.6289C294 31.1812 293.552 31.6289 293 31.6289H292C291.448 31.6289 291 31.1812 291 30.6289V26.1289Z" fill="white"/>
<path d="M286 28.6289C286 28.0766 286.448 27.6289 287 27.6289H288C288.552 27.6289 289 28.0766 289 28.6289V30.6289C289 31.1812 288.552 31.6289 288 31.6289H287C286.448 31.6289 286 31.1812 286 30.6289V28.6289Z" fill="white"/>
</g>
</g>
<defs>
<clipPath id="clip0_363_2218">
<rect width="390" height="844" rx="12" fill="white"/>
</clipPath>
<clipPath id="clip1_363_2218">
<rect width="390" height="47" fill="white" transform="translate(0 -0.371094)"/>
</clipPath>
</defs>
</svg>
