<svg width="390" height="844" viewBox="0 0 390 844" fill="none" xmlns="http://www.w3.org/2000/svg">
<g clip-path="url(#clip0_340_2288)">
<rect width="390" height="844" rx="12" fill="#186051"/>
<g clip-path="url(#clip1_340_2288)">
<path d="M117.768 -2H272.184V13C272.184 22.3888 264.572 30 255.184 30H134.768C125.379 30 117.768 22.3888 117.768 13V-2Z" fill="black"/>
<path d="M118 -2H113C113 -2 113 -2 113 -2C115.651 -2 117.799 0.148747 117.799 2.79934C117.799 2.86656 117.798 2.93345 117.795 3H118V-2Z" fill="black"/>
<path d="M272 -2H277C277 -2 277 -2 277 -2C274.349 -2 272.201 0.148747 272.201 2.79934C272.201 2.86656 272.202 2.93345 272.205 3H272V-2Z" fill="black"/>
<path d="M40.8576 19.6982C43.9455 19.6982 46.0373 21.8896 46.0373 25.9487V25.9653C46.0373 29.9331 44.0451 32.3154 40.8908 32.3154C38.4172 32.3154 36.5744 30.8462 36.2175 28.9121L36.2092 28.8457H39.1642L39.1891 28.9121C39.4382 29.5264 40.0358 29.9663 40.8742 29.9663C42.3766 29.9663 43.0656 28.4888 43.1569 26.48C43.1569 26.397 43.1652 26.3057 43.1652 26.2144H42.9909C42.5593 27.1108 41.6296 27.916 39.9528 27.916C37.5788 27.916 36.0598 26.2808 36.0598 24.0312V24.0146C36.0598 21.541 38.0104 19.6982 40.8576 19.6982ZM40.8659 25.7827C41.9367 25.7827 42.7751 25.0356 42.7751 23.9648V23.9482C42.7751 22.8608 41.9367 22.0391 40.8742 22.0391C39.82 22.0391 38.965 22.8525 38.965 23.8984V23.915C38.965 25.0024 39.7702 25.7827 40.8659 25.7827ZM49.6386 24.7451C48.6508 24.7451 47.9784 24.0479 47.9784 23.1099C47.9784 22.1719 48.6508 21.4829 49.6386 21.4829C50.6347 21.4829 51.307 22.1719 51.307 23.1099C51.307 24.0479 50.6347 24.7451 49.6386 24.7451ZM49.6386 30.5308C48.6508 30.5308 47.9784 29.8418 47.9784 28.9038C47.9784 27.9658 48.6508 27.2686 49.6386 27.2686C50.6347 27.2686 51.307 27.9658 51.307 28.9038C51.307 29.8418 50.6347 30.5308 49.6386 30.5308ZM59.1666 32V29.958H53.2814V27.6587C54.7423 24.9775 56.2613 22.4624 57.8136 20.022H62.047V27.584H63.5411V29.958H62.047V32H59.1666ZM55.921 27.6919H59.2413V22.1968H59.0919C58.0211 23.8652 56.8839 25.7412 55.921 27.5425V27.6919ZM67.931 32V22.7695H67.7733L64.8846 24.7202V22.0972L67.931 20.022H70.9691V32H67.931Z" fill="#010101"/>
<path opacity="0.35" d="M340 19.5273H357C358.918 19.5273 360.473 21.0822 360.473 23V28C360.473 29.9178 358.918 31.4727 357 31.4727H340C338.082 31.4727 336.527 29.9178 336.527 28V23C336.527 21.0822 338.082 19.5273 340 19.5273Z" stroke="black" stroke-width="1.05509"/>
<path opacity="0.4" d="M362 24V28.2203C362.849 27.8629 363.401 27.0314 363.401 26.1102C363.401 25.1889 362.849 24.3574 362 24Z" fill="black"/>
<path d="M338 23C338 21.8954 338.895 21 340 21H357C358.105 21 359 21.8954 359 23V28C359 29.1046 358.105 30 357 30H340C338.895 30 338 29.1046 338 28V23Z" fill="black"/>
<path fill-rule="evenodd" clip-rule="evenodd" d="M318.115 29.0848C319.535 27.8592 321.614 27.8593 323.034 29.0848C323.106 29.1507 323.147 29.2443 323.149 29.3426C323.151 29.4408 323.114 29.5355 323.045 29.6043L320.821 31.8943C320.756 31.9615 320.668 31.9997 320.575 31.9998C320.482 31.9998 320.393 31.9616 320.328 31.8943L318.104 29.6043C318.036 29.5354 317.998 29.4408 318 29.3426C318.002 29.2443 318.044 29.1506 318.115 29.0848ZM315.109 26.2615C318.168 23.3569 322.906 23.3569 325.965 26.2615C326.034 26.3296 326.073 26.4233 326.074 26.5213C326.075 26.6192 326.037 26.7136 325.97 26.783L324.685 28.1082C324.552 28.2435 324.338 28.2468 324.202 28.115C323.198 27.1866 321.891 26.6716 320.536 26.6717C319.182 26.6722 317.876 27.1871 316.872 28.115C316.736 28.2468 316.522 28.2435 316.39 28.1082L315.104 26.783C315.037 26.7137 314.999 26.6192 315 26.5213C315.001 26.4233 315.04 26.3296 315.109 26.2615ZM312.107 23.4422C316.799 18.8526 324.201 18.8526 328.893 23.4422C328.961 23.5104 328.999 23.6037 329 23.701C329 23.7981 328.963 23.8918 328.896 23.9607L327.609 25.2859C327.477 25.4219 327.262 25.4236 327.127 25.2898C325.339 23.5551 322.967 22.5878 320.5 22.5877C318.033 22.5878 315.661 23.5551 313.873 25.2898C313.739 25.4237 313.523 25.4221 313.391 25.2859L312.104 23.9607C312.037 23.8918 312 23.798 312 23.701C312.001 23.6037 312.039 23.5103 312.107 23.4422Z" fill="black"/>
<path d="M296 23C296 22.4477 296.448 22 297 22H298C298.552 22 299 22.4477 299 23V31C299 31.5523 298.552 32 298 32H297C296.448 32 296 31.5523 296 31V23Z" fill="black"/>
<path d="M301 21C301 20.4477 301.448 20 302 20H303C303.552 20 304 20.4477 304 21V31C304 31.5523 303.552 32 303 32H302C301.448 32 301 31.5523 301 31V21Z" fill="black"/>
<path d="M291 26.5C291 25.9477 291.448 25.5 292 25.5H293C293.552 25.5 294 25.9477 294 26.5V31C294 31.5523 293.552 32 293 32H292C291.448 32 291 31.5523 291 31V26.5Z" fill="black"/>
<path d="M286 29C286 28.4477 286.448 28 287 28H288C288.552 28 289 28.4477 289 29V31C289 31.5523 288.552 32 288 32H287C286.448 32 286 31.5523 286 31V29Z" fill="black"/>
</g>
<rect x="128" y="831" width="134" height="5" rx="2.5" fill="black"/>
<path d="M29.8291 132V112.922H29.7509L23.8603 116.984V113.672L29.7978 109.453H33.2509V132H29.8291ZM46.5773 132.375C41.1867 132.375 37.9679 127.891 37.9679 120.734V120.703C37.9679 113.547 41.1867 109.078 46.5773 109.078C51.9523 109.078 55.1867 113.547 55.1867 120.703V120.734C55.1867 127.891 51.9523 132.375 46.5773 132.375ZM46.5773 129.453C49.7804 129.453 51.6554 126.141 51.6554 120.734V120.703C51.6554 115.297 49.7804 112.016 46.5773 112.016C43.3586 112.016 41.4992 115.297 41.4992 120.703V120.734C41.4992 126.141 43.3586 129.453 46.5773 129.453ZM59.0599 132.234C57.9037 132.234 56.9974 131.328 56.9974 130.188C56.9974 129.031 57.9037 128.141 59.0599 128.141C60.2006 128.141 61.1068 129.031 61.1068 130.188C61.1068 131.328 60.2006 132.234 59.0599 132.234ZM63.9957 132V129.594L71.9332 121.609C74.9332 118.609 75.6051 117.422 75.6051 115.672V115.641C75.5894 113.5 73.9644 111.969 71.6832 111.969C69.0426 111.969 67.1519 113.75 67.1207 116.031V116.125H63.8082V116.031C63.8082 112 67.2301 109.078 71.6363 109.078C75.9644 109.078 79.0582 111.797 79.0582 115.438V115.469C79.0582 118.047 77.8551 119.875 73.8082 123.875L68.6832 128.906V129.047H79.4176V132H63.9957ZM82.1189 132V129.594L90.0564 121.609C93.0564 118.609 93.7283 117.422 93.7283 115.672V115.641C93.7127 113.5 92.0877 111.969 89.8064 111.969C87.1658 111.969 85.2752 113.75 85.2439 116.031V116.125H81.9314V116.031C81.9314 112 85.3533 109.078 89.7596 109.078C94.0877 109.078 97.1814 111.797 97.1814 115.438V115.469C97.1814 118.047 95.9783 119.875 91.9314 123.875L86.8064 128.906V129.047H97.5408V132H82.1189ZM100.398 124.375V121.328H110.445V124.375H100.398ZM118.537 132V112.922H118.459L112.569 116.984V113.672L118.506 109.453H121.959V132H118.537ZM135.286 132.375C129.895 132.375 126.676 127.891 126.676 120.734V120.703C126.676 113.547 129.895 109.078 135.286 109.078C140.661 109.078 143.895 113.547 143.895 120.703V120.734C143.895 127.891 140.661 132.375 135.286 132.375ZM135.286 129.453C138.489 129.453 140.364 126.141 140.364 120.734V120.703C140.364 115.297 138.489 112.016 135.286 112.016C132.067 112.016 130.207 115.297 130.207 120.703V120.734C130.207 126.141 132.067 129.453 135.286 129.453ZM147.768 132.234C146.612 132.234 145.706 131.328 145.706 130.188C145.706 129.031 146.612 128.141 147.768 128.141C148.909 128.141 149.815 129.031 149.815 130.188C149.815 131.328 148.909 132.234 147.768 132.234ZM152.704 132V129.594L160.641 121.609C163.641 118.609 164.313 117.422 164.313 115.672V115.641C164.298 113.5 162.673 111.969 160.391 111.969C157.751 111.969 155.86 113.75 155.829 116.031V116.125H152.516V116.031C152.516 112 155.938 109.078 160.345 109.078C164.673 109.078 167.766 111.797 167.766 115.438V115.469C167.766 118.047 166.563 119.875 162.516 123.875L157.391 128.906V129.047H168.126V132H152.704ZM178.702 132.375C173.89 132.375 170.749 129.75 170.437 126.078L170.421 125.875H173.78L173.796 126.047C174.015 128.047 175.905 129.453 178.702 129.453C181.452 129.453 183.312 127.922 183.312 125.734V125.703C183.312 123.156 181.468 121.734 178.452 121.734H175.718V119.016H178.358C180.937 119.016 182.687 117.5 182.687 115.406V115.375C182.687 113.203 181.218 111.938 178.671 111.938C176.171 111.938 174.421 113.25 174.202 115.344L174.187 115.484H170.905L170.921 115.328C171.265 111.562 174.265 109.078 178.671 109.078C183.155 109.078 186.093 111.453 186.093 114.922V114.953C186.093 117.75 184.093 119.625 181.343 120.203V120.281C184.655 120.578 186.874 122.578 186.874 125.734V125.766C186.874 129.625 183.483 132.375 178.702 132.375Z" fill="white"/>
<path d="M262.598 75.6992C268.144 75.6992 272.641 71.2028 272.641 65.6563C272.641 60.1097 268.144 55.6133 262.598 55.6133C257.051 55.6133 252.555 60.1097 252.555 65.6563C252.555 71.2028 257.051 75.6992 262.598 75.6992Z" stroke="white" stroke-width="1.6" stroke-linejoin="round"/>
<path d="M271.455 74.5195L276.768 79.8323" stroke="white" stroke-width="1.6" stroke-linecap="round" stroke-linejoin="round"/>
<path d="M27.5 61.2227L21 67.7227L27.5 74.2227" stroke="white" stroke-opacity="0.8" stroke-width="2" stroke-linecap="round" stroke-linejoin="round"/>
<path d="M324.156 57.828H321.495C321.305 57.186 320.913 56.6229 320.376 56.2235C319.839 55.8241 319.186 55.6099 318.517 55.6133C317.848 55.6096 317.195 55.8236 316.658 56.2231C316.121 56.6225 315.728 57.1858 315.538 57.828H301.598C301.49 57.8267 301.383 57.8468 301.283 57.887C301.182 57.9272 301.091 57.9867 301.014 58.0622C300.937 58.1377 300.876 58.2276 300.833 58.3269C300.791 58.4261 300.769 58.5328 300.768 58.6407C300.769 58.7486 300.791 58.8552 300.833 58.9545C300.876 59.0537 300.937 59.1437 301.014 59.2191C301.091 59.2946 301.182 59.3542 301.283 59.3943C301.383 59.4345 301.49 59.4546 301.598 59.4533H315.537C315.726 60.096 316.12 60.6595 316.658 61.059C317.195 61.4585 317.849 61.6723 318.519 61.668C319.188 61.6714 319.84 61.4573 320.377 61.0578C320.914 60.6584 321.307 60.0953 321.496 59.4533H324.157C324.265 59.4544 324.372 59.4342 324.472 59.394C324.572 59.3537 324.663 59.2941 324.74 59.2187C324.817 59.1432 324.878 59.0533 324.921 58.9541C324.963 58.855 324.985 58.7484 324.986 58.6407C324.985 58.5328 324.963 58.4261 324.921 58.3269C324.878 58.2276 324.817 58.1377 324.74 58.0622C324.663 57.9867 324.571 57.9272 324.471 57.887C324.371 57.8468 324.264 57.8267 324.156 57.828ZM318.517 60.0427C318.141 60.0462 317.78 59.9007 317.511 59.6379C317.242 59.375 317.089 59.0164 317.084 58.6407C317.084 57.867 317.727 57.2387 318.517 57.2387C319.306 57.2387 319.949 57.867 319.949 58.6407C319.949 59.413 319.306 60.0427 318.517 60.0427ZM324.155 66.3045C324.263 66.3031 324.37 66.323 324.47 66.3631C324.571 66.4032 324.662 66.4627 324.739 66.5382C324.816 66.6137 324.878 66.7037 324.92 66.8031C324.963 66.9024 324.985 67.0092 324.986 67.1172C324.985 67.2251 324.963 67.3317 324.921 67.431C324.878 67.5302 324.817 67.6202 324.74 67.6957C324.663 67.7712 324.571 67.8307 324.471 67.8709C324.371 67.9111 324.264 67.9311 324.156 67.9299H310.217C310.028 68.5723 309.634 69.1357 309.097 69.5352C308.559 69.9346 307.906 70.1485 307.237 70.1445C306.567 70.1482 305.915 69.9342 305.377 69.5348C304.84 69.1353 304.447 68.572 304.258 67.9299H301.598C301.49 67.9311 301.383 67.9111 301.283 67.8709C301.182 67.8307 301.091 67.7712 301.014 67.6957C300.937 67.6202 300.876 67.5302 300.833 67.431C300.791 67.3317 300.769 67.2251 300.768 67.1172C300.769 67.0093 300.791 66.9027 300.833 66.8034C300.876 66.7041 300.937 66.6142 301.014 66.5387C301.091 66.4632 301.182 66.4037 301.283 66.3635C301.383 66.3233 301.49 66.3033 301.598 66.3045H304.259C304.448 65.6623 304.841 65.0991 305.379 64.6996C305.916 64.3002 306.568 64.0862 307.238 64.0899C308.655 64.0899 309.852 65.029 310.216 66.3045H324.155ZM307.239 68.5192C308.028 68.5192 308.671 67.8908 308.671 67.1172C308.671 66.3435 308.028 65.7152 307.239 65.7152C306.45 65.7152 305.806 66.3435 305.806 67.1172C305.806 67.8908 306.45 68.5192 307.239 68.5192ZM324.157 75.992C324.265 75.9907 324.372 76.0108 324.473 76.051C324.573 76.0912 324.664 76.1507 324.741 76.2262C324.818 76.3017 324.88 76.3916 324.922 76.4909C324.964 76.5901 324.987 76.6968 324.988 76.8047C324.987 76.9125 324.964 77.0192 324.922 77.1184C324.88 77.2177 324.818 77.3077 324.741 77.3831C324.664 77.4586 324.573 77.5182 324.473 77.5583C324.372 77.5985 324.265 77.6186 324.157 77.6173H321.496C321.307 78.2595 320.914 78.8228 320.377 79.2222C319.839 79.6217 319.187 79.8357 318.517 79.832C317.848 79.8357 317.195 79.6217 316.658 79.2222C316.121 78.8228 315.728 78.2595 315.538 77.6173H301.598C301.49 77.6186 301.383 77.5985 301.283 77.5583C301.182 77.5182 301.091 77.4586 301.014 77.3831C300.937 77.3077 300.876 77.2177 300.833 77.1184C300.791 77.0192 300.769 76.9125 300.768 76.8047C300.769 76.6968 300.791 76.5901 300.833 76.4909C300.876 76.3916 300.937 76.3017 301.014 76.2262C301.091 76.1507 301.182 76.0912 301.283 76.051C301.383 76.0108 301.49 75.9907 301.598 75.992H315.537C315.726 75.3496 316.119 74.7861 316.657 74.3867C317.195 73.9872 317.847 73.7733 318.517 73.7773C319.934 73.7773 321.131 74.7165 321.495 75.992H324.156H324.157ZM318.519 78.2066C319.307 78.2066 319.95 77.5783 319.95 76.8047C319.95 76.031 319.307 75.4027 318.519 75.4027C317.729 75.4027 317.086 76.031 317.086 76.8047C317.086 77.5783 317.729 78.2066 318.519 78.2066Z" fill="white"/>
<path d="M359.494 70.9948V64.9336" stroke="white" stroke-width="1.6" stroke-linecap="round"/>
<path d="M353.539 56.2695H365.449" stroke="white" stroke-width="1.6" stroke-linecap="round"/>
<circle cx="359.494" cy="69.807" r="9.70619" stroke="white" stroke-width="1.6"/>
<path d="M461.851 775.089C461.921 740.045 455.088 705.331 441.743 672.928C428.397 640.525 408.8 611.068 384.07 586.239C359.341 561.409 329.963 541.694 297.613 528.218C265.264 514.743 230.578 507.771 195.534 507.7C160.491 507.63 125.776 514.462 93.3733 527.808C60.9703 541.154 31.5133 560.751 6.68392 585.48C-18.1454 610.21 -37.8607 639.588 -51.3364 671.937C-64.812 704.287 -71.7841 738.973 -71.8545 774.017" stroke="white" stroke-opacity="0.8" stroke-width="26" stroke-dasharray="1 23.52"/>
<path d="M461.851 775.089C461.921 740.045 455.088 705.331 441.743 672.928C428.397 640.525 408.8 611.068 384.07 586.239C359.341 561.409 329.963 541.694 297.613 528.218C265.264 514.743 230.578 507.771 195.534 507.7C160.491 507.63 125.776 514.462 93.3733 527.808C60.9703 541.154 31.5133 560.751 6.68392 585.48C-18.1454 610.21 -37.8607 639.588 -51.3364 671.937C-64.812 704.287 -71.7841 738.973 -71.8545 774.017" stroke="white" stroke-width="69" stroke-dasharray="1 94.08"/>
<path d="M525.845 775.219C525.932 731.771 517.461 688.732 500.915 648.559C484.369 608.385 460.072 571.864 429.412 541.08C398.752 510.297 362.329 485.853 322.222 469.146C282.115 452.439 239.11 443.795 195.663 443.708C152.216 443.62 109.176 452.092 69.0028 468.637C28.8293 485.183 -7.69192 509.48 -38.4756 540.14C-69.2592 570.801 -93.7025 607.224 -110.41 647.331C-127.117 687.437 -135.761 730.442 -135.848 773.89" stroke="white" stroke-opacity="0.6" stroke-width="12" stroke-linecap="round"/>
<path d="M195.663 443.708C147.273 443.61 99.4515 454.129 55.5689 474.522C11.6862 494.915 -27.1889 524.686 -58.3158 561.735" stroke="#FEFB54" stroke-width="12" stroke-linecap="round"/>
<path d="M45.2723 625.503C43.4354 627.34 40.2175 628.016 36.5232 624.322L36.5094 624.308C33.1534 620.952 32.6217 617.562 35.0593 615.124C36.7511 613.432 38.9815 613.135 40.7631 614.254L40.8736 614.323L39.6099 615.587L39.5063 615.538C38.3876 615.014 37.1654 615.214 36.1434 616.236C34.2859 618.093 35.3562 620.628 37.3933 622.775C37.4554 622.851 37.5245 622.92 37.6004 622.996L37.628 622.968C37.1447 621.684 37.4485 619.944 38.802 618.59C40.7009 616.692 43.5114 616.685 45.4035 618.577L45.4173 618.59C47.3784 620.552 47.3093 623.466 45.2723 625.503ZM39.5892 624.391C40.8666 625.668 42.8761 625.689 44.1536 624.412C45.4242 623.141 45.438 621.139 44.1812 619.882L44.1674 619.868C42.8692 618.57 40.9909 618.584 39.6789 619.896C38.3738 621.201 38.3117 623.113 39.5823 624.384L39.5892 624.391Z" fill="white"/>
<path d="M111.331 577.079L112.446 563.099L112.431 563.063L105.42 565.965L104.822 564.522L113.439 560.954L114.063 562.461L113.037 576.373L111.331 577.079Z" fill="white"/>
<path d="M282.154 565.108C284.539 566.137 286.356 568.878 284.286 573.675L284.278 573.693C282.398 578.051 279.443 579.796 276.278 578.431C274.081 577.483 272.982 575.519 273.364 573.451L273.387 573.323L275.028 574.031L275.021 574.145C274.947 575.378 275.584 576.44 276.911 577.013C279.323 578.053 281.283 576.123 282.527 573.437C282.575 573.352 282.613 573.262 282.656 573.163L282.62 573.148C281.605 574.071 279.875 574.431 278.118 573.673C275.652 572.609 274.608 569.999 275.668 567.542L275.676 567.525C276.775 564.978 279.509 563.967 282.154 565.108ZM279.007 572.376C280.702 573.107 282.503 572.459 283.214 570.809L283.218 570.8C283.934 569.141 283.211 567.266 281.553 566.55C279.903 565.838 278.037 566.565 277.332 568.197L277.325 568.215C276.597 569.9 277.304 571.641 279.007 572.376Z" fill="white"/>
<path d="M341.384 622.16L350.03 613.514L350.002 613.487L345.527 612.686L346.777 611.436L351.335 612.182L352.55 613.397L342.586 623.361L341.384 622.16ZM348.132 629.239C345.84 626.947 346.461 623.605 349.624 620.442L349.638 620.428C352.8 617.265 356.136 616.651 358.428 618.943C360.721 621.236 360.12 624.585 356.957 627.748L356.944 627.762C353.781 630.924 350.425 631.532 348.132 629.239ZM349.216 628.155C350.736 629.674 353.194 629.011 355.694 626.512L355.707 626.498C358.207 623.998 358.856 621.554 357.337 620.035C355.818 618.515 353.387 619.178 350.888 621.678L350.874 621.692C348.374 624.192 347.697 626.636 349.216 628.155Z" fill="white"/>
<path d="M194.724 545.723C195.109 545.056 196.071 545.056 196.456 545.723L203.115 557.257C203.5 557.924 203.019 558.757 202.249 558.757H188.931C188.161 558.757 187.68 557.924 188.065 557.257L194.724 545.723Z" fill="#FEFB54"/>
<path d="M135.987 360.301V358.848L141.94 352.637C144.226 350.258 144.753 349.344 144.753 347.938V347.914C144.741 346.191 143.44 344.949 141.601 344.949C139.491 344.949 137.921 346.402 137.921 348.219V348.277H135.882V348.207C135.882 345.277 138.413 343.109 141.565 343.109C144.624 343.109 146.862 345.16 146.862 347.809V347.832C146.862 349.684 146.007 351.078 142.901 354.254L138.882 358.379V358.426H147.144V360.301H135.987ZM149.173 360.301V358.848L155.126 352.637C157.411 350.258 157.939 349.344 157.939 347.938V347.914C157.927 346.191 156.626 344.949 154.786 344.949C152.677 344.949 151.107 346.402 151.107 348.219V348.277H149.068V348.207C149.068 345.277 151.599 343.109 154.751 343.109C157.81 343.109 160.048 345.16 160.048 347.809V347.832C160.048 349.684 159.193 351.078 156.087 354.254L152.068 358.379V358.426H160.329V360.301H149.173ZM163.566 348.641C162.816 348.641 162.23 348.055 162.23 347.305C162.23 346.555 162.816 345.969 163.566 345.969C164.316 345.969 164.902 346.555 164.902 347.305C164.902 348.055 164.316 348.641 163.566 348.641ZM163.566 357.711C162.816 357.711 162.23 357.125 162.23 356.375C162.23 355.625 162.816 355.039 163.566 355.039C164.316 355.039 164.902 355.625 164.902 356.375C164.902 357.125 164.316 357.711 163.566 357.711ZM173.002 360.582C169.111 360.582 166.802 357.219 166.802 351.852V351.828C166.802 346.461 169.111 343.109 173.002 343.109C176.892 343.109 179.224 346.461 179.224 351.828V351.852C179.224 357.219 176.892 360.582 173.002 360.582ZM173.002 358.742C175.58 358.742 177.103 356.094 177.103 351.852V351.828C177.103 347.586 175.58 344.961 173.002 344.961C170.423 344.961 168.923 347.586 168.923 351.828V351.852C168.923 356.094 170.423 358.742 173.002 358.742ZM187.148 360.582C183.258 360.582 180.949 357.219 180.949 351.852V351.828C180.949 346.461 183.258 343.109 187.148 343.109C191.039 343.109 193.371 346.461 193.371 351.828V351.852C193.371 357.219 191.039 360.582 187.148 360.582ZM187.148 358.742C189.726 358.742 191.25 356.094 191.25 351.852V351.828C191.25 347.586 189.726 344.961 187.148 344.961C184.57 344.961 183.07 347.586 183.07 351.828V351.852C183.07 356.094 184.57 358.742 187.148 358.742ZM195.424 354.395V352.496H202.924V354.395H195.424ZM208.891 360.301V345.629H208.844L204.367 348.746V346.625L208.867 343.391H210.93V360.301H208.891ZM214.811 360.301V358.848L220.764 352.637C223.049 350.258 223.577 349.344 223.577 347.938V347.914C223.565 346.191 222.264 344.949 220.424 344.949C218.315 344.949 216.745 346.402 216.745 348.219V348.277H214.705V348.207C214.705 345.277 217.237 343.109 220.389 343.109C223.448 343.109 225.686 345.16 225.686 347.809V347.832C225.686 349.684 224.83 351.078 221.725 354.254L217.705 358.379V358.426H225.967V360.301H214.811ZM229.204 348.641C228.454 348.641 227.868 348.055 227.868 347.305C227.868 346.555 228.454 345.969 229.204 345.969C229.954 345.969 230.54 346.555 230.54 347.305C230.54 348.055 229.954 348.641 229.204 348.641ZM229.204 357.711C228.454 357.711 227.868 357.125 227.868 356.375C227.868 355.625 228.454 355.039 229.204 355.039C229.954 355.039 230.54 355.625 230.54 356.375C230.54 357.125 229.954 357.711 229.204 357.711ZM238.639 360.582C234.749 360.582 232.44 357.219 232.44 351.852V351.828C232.44 346.461 234.749 343.109 238.639 343.109C242.53 343.109 244.862 346.461 244.862 351.828V351.852C244.862 357.219 242.53 360.582 238.639 360.582ZM238.639 358.742C241.218 358.742 242.741 356.094 242.741 351.852V351.828C242.741 347.586 241.218 344.961 238.639 344.961C236.061 344.961 234.561 347.586 234.561 351.828V351.852C234.561 356.094 236.061 358.742 238.639 358.742ZM252.786 360.582C248.896 360.582 246.587 357.219 246.587 351.852V351.828C246.587 346.461 248.896 343.109 252.786 343.109C256.677 343.109 259.009 346.461 259.009 351.828V351.852C259.009 357.219 256.677 360.582 252.786 360.582ZM252.786 358.742C255.364 358.742 256.888 356.094 256.888 351.852V351.828C256.888 347.586 255.364 344.961 252.786 344.961C250.208 344.961 248.708 347.586 248.708 351.828V351.852C248.708 356.094 250.208 358.742 252.786 358.742Z" fill="white" fill-opacity="0.6"/>
<path d="M159.776 327.066C159.229 327.014 158.617 326.962 157.94 326.91C157.341 326.858 156.625 326.819 155.792 326.793C154.958 326.767 153.995 326.754 152.901 326.754C150.792 326.754 148.344 326.845 145.557 327.027C142.771 327.21 139.75 327.561 136.495 328.082C137.068 326.91 137.563 325.426 137.979 323.629C138.396 321.832 138.734 319.918 138.995 317.887C139.281 315.829 139.503 313.746 139.659 311.637C139.815 309.527 139.932 307.561 140.01 305.738C140.089 303.915 140.128 302.34 140.128 301.012C140.154 299.684 140.167 298.772 140.167 298.277C140.167 298.199 140.154 297.887 140.128 297.34C140.128 296.767 140.115 296.025 140.089 295.113C140.063 294.202 140.023 293.16 139.971 291.988C139.945 290.79 139.906 289.527 139.854 288.199C138.422 287.913 136.99 287.652 135.557 287.418C134.151 287.184 132.862 286.988 131.69 286.832C130.336 286.65 129.034 286.507 127.784 286.402C129.581 284.71 131.052 283.082 132.198 281.52C133.344 279.957 134.255 278.486 134.932 277.105C135.635 275.725 136.156 274.462 136.495 273.316C136.859 272.171 137.146 271.155 137.354 270.27C139.984 270.738 142.393 271.051 144.581 271.207C146.794 271.363 148.786 271.441 150.557 271.441C151.729 271.441 152.784 271.415 153.721 271.363C154.659 271.311 155.453 271.259 156.104 271.207C156.859 271.129 157.523 271.051 158.096 270.973C157.784 272.431 157.51 274.059 157.276 275.855C157.042 277.626 156.833 279.527 156.651 281.559C156.469 283.564 156.326 285.673 156.221 287.887C156.143 290.1 156.104 292.379 156.104 294.723C156.104 297.431 156.169 300.191 156.299 303.004C156.43 305.79 156.638 308.564 156.924 311.324C157.237 314.085 157.615 316.793 158.057 319.449C158.526 322.105 159.099 324.645 159.776 327.066ZM163.118 328.082C163.118 324.462 163.47 321.35 164.173 318.746C164.876 316.116 165.8 313.837 166.946 311.91C168.118 309.983 169.446 308.342 170.931 306.988C172.415 305.634 173.925 304.41 175.462 303.316C177.024 302.223 178.548 301.194 180.032 300.23C181.516 299.267 182.832 298.225 183.977 297.105C185.149 295.986 186.087 294.723 186.79 293.316C187.493 291.91 187.845 290.204 187.845 288.199C187.845 287.73 187.766 287.223 187.61 286.676C187.48 286.129 187.246 285.621 186.907 285.152C186.569 284.658 186.113 284.254 185.54 283.941C184.967 283.629 184.264 283.473 183.431 283.473C182.727 283.473 182.102 283.603 181.556 283.863C181.035 284.124 180.592 284.449 180.227 284.84C179.889 285.23 179.628 285.673 179.446 286.168C179.29 286.637 179.212 287.092 179.212 287.535C179.212 287.952 179.29 288.355 179.446 288.746C179.628 289.111 179.863 289.436 180.149 289.723C180.436 290.009 180.748 290.243 181.087 290.426C181.451 290.582 181.816 290.66 182.181 290.66C182.571 290.66 183.04 290.582 183.587 290.426C183.144 291.259 182.545 292.014 181.79 292.691C181.061 293.342 180.227 293.889 179.29 294.332C178.378 294.775 177.389 295.113 176.321 295.348C175.28 295.582 174.212 295.699 173.118 295.699C171.712 295.699 170.384 295.504 169.134 295.113C167.91 294.723 166.829 294.137 165.891 293.355C164.98 292.548 164.264 291.559 163.743 290.387C163.222 289.189 162.962 287.783 162.962 286.168C162.962 284.007 163.365 281.91 164.173 279.879C165.006 277.848 166.256 276.038 167.923 274.449C169.589 272.861 171.673 271.598 174.173 270.66C176.673 269.697 179.602 269.215 182.962 269.215C186.79 269.215 190.11 269.762 192.923 270.855C195.761 271.949 198.105 273.46 199.954 275.387C201.829 277.314 203.222 279.592 204.134 282.223C205.071 284.853 205.54 287.691 205.54 290.738C205.54 292.9 205.266 294.775 204.72 296.363C204.173 297.952 203.431 299.332 202.493 300.504C201.556 301.676 200.462 302.691 199.212 303.551C197.988 304.41 196.673 305.204 195.266 305.934C193.886 306.637 192.467 307.314 191.009 307.965C189.55 308.616 188.131 309.332 186.751 310.113C185.397 310.868 184.121 311.728 182.923 312.691C181.725 313.655 180.696 314.814 179.837 316.168C185.097 315.803 189.759 314.84 193.821 313.277C197.884 311.689 201.308 309.645 204.095 307.145C203.912 308.525 203.782 309.892 203.704 311.246C203.626 312.574 203.587 313.902 203.587 315.23C203.587 317.392 203.691 319.553 203.899 321.715C204.134 323.85 204.485 325.973 204.954 328.082C201.699 327.613 198.326 327.262 194.837 327.027C191.347 326.793 187.819 326.676 184.251 326.676C180.605 326.676 177.011 326.793 173.47 327.027C169.954 327.262 166.503 327.613 163.118 328.082ZM260.661 328.902C259.255 328.694 257.693 328.538 255.974 328.434C254.255 328.329 252.536 328.277 250.818 328.277C249.177 328.277 247.589 328.329 246.052 328.434C244.542 328.538 243.227 328.668 242.107 328.824C242.654 326.949 243.083 325.009 243.396 323.004C243.734 320.999 243.982 318.915 244.138 316.754C244.32 314.566 244.437 312.288 244.49 309.918C244.542 307.548 244.568 305.048 244.568 302.418C244.568 302.027 244.542 301.507 244.49 300.855C244.464 300.204 244.398 299.501 244.294 298.746C244.19 297.991 244.034 297.236 243.826 296.48C243.643 295.699 243.396 294.996 243.083 294.371C242.771 293.746 242.38 293.238 241.911 292.848C241.469 292.457 240.948 292.262 240.349 292.262C239.958 292.262 239.568 292.47 239.177 292.887C238.812 293.277 238.435 293.811 238.044 294.488C237.654 295.139 237.276 295.908 236.911 296.793C236.547 297.652 236.195 298.564 235.857 299.527C235.909 302.184 236 304.814 236.13 307.418C236.286 309.996 236.482 312.483 236.716 314.879C236.977 317.249 237.276 319.488 237.615 321.598C237.953 323.681 238.357 325.53 238.826 327.145C238.383 327.118 237.862 327.079 237.263 327.027C236.742 327.001 236.117 326.975 235.388 326.949C234.685 326.923 233.878 326.91 232.966 326.91C231.273 326.91 229.32 326.988 227.107 327.145C224.919 327.275 222.536 327.535 219.958 327.926C220.323 327.197 220.648 326.194 220.935 324.918C221.221 323.616 221.469 322.158 221.677 320.543C221.885 318.902 222.055 317.171 222.185 315.348C222.341 313.499 222.458 311.65 222.536 309.801C222.641 307.952 222.706 306.168 222.732 304.449C222.784 302.704 222.823 301.142 222.849 299.762C222.875 298.355 222.888 297.171 222.888 296.207C222.888 295.243 222.888 294.618 222.888 294.332C222.836 289.983 222.719 285.947 222.536 282.223C222.458 280.66 222.367 279.085 222.263 277.496C222.159 275.908 222.029 274.423 221.872 273.043C221.716 271.663 221.534 270.452 221.326 269.41C221.143 268.368 220.922 267.587 220.661 267.066C222.771 267.431 224.724 267.678 226.521 267.809C228.318 267.939 229.932 268.004 231.365 268.004C232.302 268.004 233.148 267.991 233.904 267.965C234.659 267.913 235.297 267.861 235.818 267.809C236.443 267.757 236.99 267.691 237.458 267.613C237.25 268.525 237.068 269.618 236.911 270.895C236.755 272.171 236.612 273.603 236.482 275.191C236.352 276.78 236.234 278.486 236.13 280.309C236.052 282.132 235.987 284.033 235.935 286.012C237.419 283.694 239.021 282.066 240.74 281.129C242.458 280.165 244.242 279.684 246.091 279.684C247.94 279.684 249.633 280.1 251.169 280.934C252.732 281.741 254.073 283.004 255.193 284.723C256.339 286.415 257.224 288.564 257.849 291.168C258.5 293.772 258.826 296.858 258.826 300.426C258.826 302.874 258.826 305.413 258.826 308.043C258.852 310.647 258.917 313.212 259.021 315.738C259.125 318.238 259.307 320.621 259.568 322.887C259.828 325.152 260.193 327.158 260.661 328.902Z" fill="#FEFB54"/>
<rect x="123.375" y="690.312" width="143.25" height="63.8203" rx="31.9102" stroke="white"/>
<path d="M175.998 720.223C174.893 720.223 173.998 721.118 173.998 722.223C173.998 723.327 174.893 724.223 175.998 724.223L175.998 722.223L175.998 720.223ZM215.418 723.637C216.199 722.856 216.199 721.589 215.418 720.808L202.69 708.081C201.909 707.299 200.643 707.299 199.862 708.081C199.081 708.862 199.081 710.128 199.862 710.909L211.175 722.223L199.862 733.536C199.081 734.317 199.081 735.584 199.862 736.365C200.643 737.146 201.909 737.146 202.69 736.365L215.418 723.637ZM175.998 722.223L175.998 724.223L214.004 724.223L214.004 722.223L214.004 720.223L175.998 720.223L175.998 722.223Z" fill="#FEFB54"/>
</g>
<defs>
<clipPath id="clip0_340_2288">
<rect width="390" height="844" rx="12" fill="white"/>
</clipPath>
<clipPath id="clip1_340_2288">
<rect width="390" height="47" fill="white"/>
</clipPath>
</defs>
</svg>
