<svg width="390" height="844" viewBox="0 0 390 844" fill="none" xmlns="http://www.w3.org/2000/svg">
<g clip-path="url(#clip0_511_2717)">
<rect width="390" height="844" rx="12" fill="#186051"/>
<g clip-path="url(#clip1_511_2717)">
<path d="M117.768 -2H272.184V13C272.184 22.3888 264.572 30 255.184 30H134.768C125.379 30 117.768 22.3888 117.768 13V-2Z" fill="black"/>
<path d="M118 -2H113C113 -2 113 -2 113 -2C115.651 -2 117.799 0.148747 117.799 2.79934C117.799 2.86656 117.798 2.93345 117.795 3H118V-2Z" fill="black"/>
<path d="M272 -2H277C277 -2 277 -2 277 -2C274.349 -2 272.201 0.148747 272.201 2.79934C272.201 2.86656 272.202 2.93345 272.205 3H272V-2Z" fill="black"/>
<path d="M40.8576 19.6982C43.9455 19.6982 46.0373 21.8896 46.0373 25.9487V25.9653C46.0373 29.9331 44.0451 32.3154 40.8908 32.3154C38.4172 32.3154 36.5744 30.8462 36.2175 28.9121L36.2092 28.8457H39.1642L39.1891 28.9121C39.4382 29.5264 40.0358 29.9663 40.8742 29.9663C42.3766 29.9663 43.0656 28.4888 43.1569 26.48C43.1569 26.397 43.1652 26.3057 43.1652 26.2144H42.9909C42.5593 27.1108 41.6296 27.916 39.9528 27.916C37.5788 27.916 36.0598 26.2808 36.0598 24.0312V24.0146C36.0598 21.541 38.0104 19.6982 40.8576 19.6982ZM40.8659 25.7827C41.9367 25.7827 42.7751 25.0356 42.7751 23.9648V23.9482C42.7751 22.8608 41.9367 22.0391 40.8742 22.0391C39.82 22.0391 38.965 22.8525 38.965 23.8984V23.915C38.965 25.0024 39.7702 25.7827 40.8659 25.7827ZM49.6386 24.7451C48.6508 24.7451 47.9784 24.0479 47.9784 23.1099C47.9784 22.1719 48.6508 21.4829 49.6386 21.4829C50.6347 21.4829 51.307 22.1719 51.307 23.1099C51.307 24.0479 50.6347 24.7451 49.6386 24.7451ZM49.6386 30.5308C48.6508 30.5308 47.9784 29.8418 47.9784 28.9038C47.9784 27.9658 48.6508 27.2686 49.6386 27.2686C50.6347 27.2686 51.307 27.9658 51.307 28.9038C51.307 29.8418 50.6347 30.5308 49.6386 30.5308ZM59.1666 32V29.958H53.2814V27.6587C54.7423 24.9775 56.2613 22.4624 57.8136 20.022H62.047V27.584H63.5411V29.958H62.047V32H59.1666ZM55.921 27.6919H59.2413V22.1968H59.0919C58.0211 23.8652 56.8839 25.7412 55.921 27.5425V27.6919ZM67.931 32V22.7695H67.7733L64.8846 24.7202V22.0972L67.931 20.022H70.9691V32H67.931Z" fill="#010101"/>
<path opacity="0.35" d="M340 19.5273H357C358.918 19.5273 360.473 21.0822 360.473 23V28C360.473 29.9178 358.918 31.4727 357 31.4727H340C338.082 31.4727 336.527 29.9178 336.527 28V23C336.527 21.0822 338.082 19.5273 340 19.5273Z" stroke="black" stroke-width="1.05509"/>
<path opacity="0.4" d="M362 24V28.2203C362.849 27.8629 363.401 27.0314 363.401 26.1102C363.401 25.1889 362.849 24.3574 362 24Z" fill="black"/>
<path d="M338 23C338 21.8954 338.895 21 340 21H357C358.105 21 359 21.8954 359 23V28C359 29.1046 358.105 30 357 30H340C338.895 30 338 29.1046 338 28V23Z" fill="black"/>
<path d="M318.115 29.085C319.535 27.8594 321.614 27.8595 323.034 29.085C323.106 29.1509 323.147 29.2445 323.149 29.3428C323.151 29.441 323.114 29.5357 323.045 29.6045L320.821 31.8945C320.756 31.9617 320.668 31.9999 320.575 32C320.482 32 320.393 31.9618 320.328 31.8945L318.104 29.6045C318.036 29.5356 317.998 29.441 318 29.3428C318.002 29.2445 318.044 29.1508 318.115 29.085ZM315.109 26.2617C318.168 23.3571 322.906 23.3571 325.965 26.2617C326.034 26.3298 326.073 26.4235 326.074 26.5215C326.075 26.6194 326.037 26.7138 325.97 26.7832L324.685 28.1084C324.552 28.2437 324.338 28.247 324.202 28.1152C323.198 27.1868 321.891 26.6718 320.536 26.6719C319.182 26.6724 317.876 27.1873 316.872 28.1152C316.736 28.247 316.522 28.2437 316.39 28.1084L315.104 26.7832C315.037 26.7139 314.999 26.6194 315 26.5215C315.001 26.4235 315.04 26.3298 315.109 26.2617ZM312.107 23.4424C316.799 18.8528 324.201 18.8528 328.893 23.4424C328.96 23.5106 328.999 23.6039 329 23.7012C329 23.7983 328.963 23.892 328.896 23.9609L327.609 25.2861C327.477 25.4221 327.262 25.4238 327.127 25.29C325.339 23.5553 322.967 22.588 320.5 22.5879C318.033 22.588 315.661 23.5553 313.873 25.29C313.738 25.4239 313.523 25.4223 313.391 25.2861L312.104 23.9609C312.037 23.892 312 23.7982 312 23.7012C312.001 23.6039 312.039 23.5105 312.107 23.4424Z" fill="black"/>
<path d="M296 23C296 22.4477 296.448 22 297 22H298C298.552 22 299 22.4477 299 23V31C299 31.5523 298.552 32 298 32H297C296.448 32 296 31.5523 296 31V23Z" fill="black"/>
<path d="M301 21C301 20.4477 301.448 20 302 20H303C303.552 20 304 20.4477 304 21V31C304 31.5523 303.552 32 303 32H302C301.448 32 301 31.5523 301 31V21Z" fill="black"/>
<path d="M291 26.5C291 25.9477 291.448 25.5 292 25.5H293C293.552 25.5 294 25.9477 294 26.5V31C294 31.5523 293.552 32 293 32H292C291.448 32 291 31.5523 291 31V26.5Z" fill="black"/>
<path d="M286 29C286 28.4477 286.448 28 287 28H288C288.552 28 289 28.4477 289 29V31C289 31.5523 288.552 32 288 32H287C286.448 32 286 31.5523 286 31V29Z" fill="black"/>
</g>
<rect x="128" y="831" width="134" height="5" rx="2.5" fill="black"/>
<path d="M28.2124 116.096H48.5324V118.752H28.2124V116.096ZM31.9564 109.248H47.2204V111.808H31.9564V109.248ZM37.1404 105.12H40.1484V117.184H37.1404V105.12ZM31.9564 105.952L34.8044 106.592C34.3564 108.192 33.759 109.749 33.0124 111.264C32.2657 112.757 31.4657 114.016 30.6124 115.04C30.4417 114.869 30.1964 114.688 29.8764 114.496C29.5564 114.283 29.2364 114.08 28.9164 113.888C28.6177 113.696 28.351 113.547 28.1164 113.44C28.9697 112.523 29.727 111.403 30.3884 110.08C31.0497 108.736 31.5724 107.36 31.9564 105.952ZM39.5724 117.568H42.5484V125.376C42.5484 125.781 42.591 126.037 42.6764 126.144C42.7617 126.251 42.975 126.304 43.3164 126.304C43.4017 126.304 43.5297 126.304 43.7004 126.304C43.8924 126.304 44.095 126.304 44.3084 126.304C44.5217 126.304 44.7244 126.304 44.9164 126.304C45.1084 126.304 45.2577 126.304 45.3644 126.304C45.5777 126.304 45.7377 126.229 45.8444 126.08C45.9724 125.931 46.0577 125.6 46.1004 125.088C46.1644 124.576 46.207 123.787 46.2284 122.72C46.4204 122.891 46.6764 123.061 46.9964 123.232C47.3164 123.381 47.647 123.509 47.9884 123.616C48.3297 123.723 48.639 123.819 48.9164 123.904C48.8097 125.291 48.639 126.357 48.4044 127.104C48.191 127.851 47.8604 128.373 47.4124 128.672C46.9857 128.971 46.4097 129.12 45.6844 129.12C45.5564 129.12 45.3537 129.12 45.0764 129.12C44.8204 129.12 44.543 129.12 44.2444 129.12C43.9457 129.12 43.6684 129.12 43.4124 129.12C43.1777 129.12 42.9857 129.12 42.8364 129.12C41.9404 129.12 41.2577 129.013 40.7884 128.8C40.319 128.565 39.999 128.181 39.8284 127.648C39.6577 127.093 39.5724 126.336 39.5724 125.376V117.568ZM33.8764 117.536H36.9164C36.7884 118.901 36.5857 120.181 36.3084 121.376C36.0524 122.549 35.647 123.637 35.0924 124.64C34.5377 125.621 33.791 126.517 32.8524 127.328C31.9137 128.117 30.719 128.811 29.2684 129.408C29.1617 129.131 29.0017 128.843 28.7884 128.544C28.575 128.245 28.351 127.947 28.1164 127.648C27.8817 127.349 27.647 127.104 27.4124 126.912C28.6924 126.464 29.727 125.931 30.5164 125.312C31.327 124.693 31.9564 123.989 32.4044 123.2C32.8737 122.389 33.215 121.515 33.4284 120.576C33.6417 119.637 33.791 118.624 33.8764 117.536ZM19.7004 107.68L22.0044 105.984C22.6444 106.475 23.2844 107.029 23.9244 107.648C24.5857 108.245 25.1937 108.853 25.7484 109.472C26.303 110.069 26.751 110.624 27.0924 111.136L24.6284 113.024C24.3297 112.512 23.903 111.936 23.3484 111.296C22.815 110.656 22.2284 110.027 21.5884 109.408C20.9484 108.768 20.319 108.192 19.7004 107.68ZM26.3244 117.28V129.568H23.4124V120.096H19.6364V117.28H26.3244ZM26.0364 128.384C26.5484 128.384 27.039 128.565 27.5084 128.928C27.9777 129.269 28.6177 129.685 29.4284 130.176C30.431 130.773 31.6044 131.157 32.9484 131.328C34.3137 131.477 35.8284 131.552 37.4924 131.552C38.6444 131.552 39.9137 131.531 41.3004 131.488C42.687 131.424 44.0524 131.349 45.3964 131.264C46.7617 131.157 47.967 131.04 49.0124 130.912C48.9057 131.168 48.7884 131.499 48.6604 131.904C48.5324 132.288 48.4257 132.672 48.3404 133.056C48.255 133.44 48.2017 133.771 48.1804 134.048C47.5617 134.091 46.8044 134.133 45.9084 134.176C45.0337 134.219 44.0844 134.251 43.0604 134.272C42.0577 134.315 41.0657 134.347 40.0844 134.368C39.103 134.389 38.2284 134.4 37.4604 134.4C35.583 134.4 33.9617 134.283 32.5964 134.048C31.231 133.813 30.0257 133.397 28.9804 132.8C28.3404 132.416 27.775 132.043 27.2844 131.68C26.7937 131.296 26.367 131.104 26.0044 131.104C25.599 131.104 25.1404 131.275 24.6284 131.616C24.1377 131.957 23.6044 132.405 23.0284 132.96C22.4524 133.536 21.8764 134.165 21.3004 134.848L19.2844 132.192C20.0524 131.488 20.831 130.848 21.6204 130.272C22.431 129.696 23.2097 129.237 23.9564 128.896C24.7244 128.555 25.4177 128.384 26.0364 128.384ZM50.5884 121.504C51.911 121.163 53.5004 120.736 55.3564 120.224C57.2337 119.691 59.1217 119.136 61.0204 118.56L61.4044 121.312C59.6764 121.867 57.927 122.421 56.1564 122.976C54.3857 123.509 52.775 123.989 51.3244 124.416L50.5884 121.504ZM50.9724 111.232H61.5004V114.048H50.9724V111.232ZM54.9404 105.024H57.8524V131.232C57.8524 132 57.767 132.597 57.5964 133.024C57.4257 133.472 57.1164 133.813 56.6684 134.048C56.2417 134.304 55.6764 134.464 54.9724 134.528C54.2684 134.592 53.4044 134.624 52.3804 134.624C52.3377 134.24 52.231 133.771 52.0604 133.216C51.911 132.661 51.7404 132.181 51.5484 131.776C52.167 131.797 52.743 131.808 53.2764 131.808C53.831 131.808 54.1937 131.808 54.3644 131.808C54.7484 131.787 54.9404 131.595 54.9404 131.232V105.024ZM62.3324 106.528H76.6364V109.216H62.3324V106.528ZM76.0604 106.528H76.5724L77.0524 106.4L78.8764 107.36C78.1297 108.96 77.159 110.432 75.9644 111.776C74.791 113.099 73.4684 114.283 71.9964 115.328C70.5457 116.373 68.999 117.291 67.3564 118.08C65.7137 118.848 64.0497 119.488 62.3644 120C62.215 119.637 61.9804 119.221 61.6604 118.752C61.3617 118.261 61.0737 117.877 60.7964 117.6C62.375 117.173 63.943 116.629 65.5004 115.968C67.0577 115.285 68.519 114.496 69.8844 113.6C71.2497 112.683 72.4657 111.669 73.5324 110.56C74.599 109.451 75.4417 108.256 76.0604 106.976V106.528ZM66.3644 107.808C67.2177 109.387 68.3697 110.827 69.8204 112.128C71.271 113.408 72.935 114.507 74.8124 115.424C76.711 116.341 78.759 117.035 80.9564 117.504C80.743 117.696 80.519 117.952 80.2844 118.272C80.0497 118.571 79.8257 118.88 79.6124 119.2C79.399 119.499 79.2284 119.776 79.1004 120.032C76.8604 119.435 74.7804 118.603 72.8604 117.536C70.9404 116.469 69.2337 115.189 67.7404 113.696C66.247 112.203 65.0097 110.517 64.0284 108.64L66.3644 107.808ZM62.8764 121.44H78.1084V124.128H62.8764V121.44ZM61.2764 126.976H80.2844V129.664H61.2764V126.976ZM69.1484 118.752H72.1884V134.72H69.1484V118.752ZM83.9084 106.976H110.692V109.856H83.9084V106.976ZM82.7564 118.432H111.684V121.312H82.7564V118.432ZM101.604 108.576H104.772V134.72H101.604V108.576ZM90.2764 108.576H93.3804V117.248C93.3804 118.784 93.295 120.352 93.1244 121.952C92.9537 123.531 92.591 125.088 92.0364 126.624C91.503 128.16 90.6817 129.621 89.5724 131.008C88.4844 132.395 87.023 133.664 85.1884 134.816C85.0177 134.581 84.783 134.325 84.4844 134.048C84.207 133.771 83.919 133.493 83.6204 133.216C83.3217 132.939 83.0337 132.725 82.7564 132.576C84.463 131.531 85.8177 130.4 86.8204 129.184C87.823 127.968 88.5697 126.699 89.0604 125.376C89.551 124.053 89.871 122.699 90.0204 121.312C90.191 119.925 90.2764 118.56 90.2764 117.216V108.576ZM129.964 130.592H140.716V133.344H129.964V130.592ZM128.428 121.504H142.316V134.592H139.308V124.288H131.308V134.72H128.428V121.504ZM126.284 115.84C127.564 115.776 129.036 115.701 130.7 115.616C132.364 115.531 134.124 115.435 135.98 115.328C137.858 115.2 139.724 115.083 141.58 114.976L141.548 117.696C139.778 117.824 137.996 117.963 136.204 118.112C134.434 118.24 132.727 118.368 131.084 118.496C129.442 118.603 127.959 118.699 126.636 118.784L126.284 115.84ZM136.684 111.168L139.084 109.952C139.788 110.848 140.471 111.819 141.132 112.864C141.815 113.888 142.423 114.901 142.956 115.904C143.511 116.907 143.916 117.803 144.172 118.592L141.516 120.032C141.282 119.221 140.908 118.304 140.396 117.28C139.884 116.256 139.308 115.211 138.668 114.144C138.028 113.077 137.367 112.085 136.684 111.168ZM132.236 104.96L135.596 105.632C135.17 106.955 134.69 108.331 134.156 109.76C133.644 111.189 133.111 112.576 132.556 113.92C132.023 115.243 131.511 116.416 131.02 117.44L128.46 116.768C128.802 115.979 129.154 115.093 129.516 114.112C129.879 113.131 130.231 112.107 130.572 111.04C130.914 109.973 131.223 108.928 131.5 107.904C131.799 106.859 132.044 105.877 132.236 104.96ZM114.124 111.488H124.588V114.336H114.124V111.488ZM118.732 104.96L121.58 105.28C121.26 106.923 120.898 108.672 120.492 110.528C120.087 112.363 119.66 114.208 119.212 116.064C118.786 117.899 118.359 119.669 117.932 121.376C117.506 123.083 117.1 124.619 116.716 125.984L114.252 124.672C114.615 123.435 114.999 122.016 115.404 120.416C115.81 118.795 116.204 117.088 116.588 115.296C116.994 113.483 117.378 111.691 117.74 109.92C118.124 108.149 118.455 106.496 118.732 104.96ZM115.788 123.904L117.452 121.76C118.626 122.443 119.831 123.221 121.068 124.096C122.306 124.949 123.458 125.835 124.524 126.752C125.612 127.648 126.466 128.491 127.084 129.28L125.26 131.744C124.642 130.933 123.81 130.059 122.764 129.12C121.719 128.181 120.588 127.253 119.372 126.336C118.156 125.419 116.962 124.608 115.788 123.904ZM123.436 111.488H123.98L124.492 111.424L126.284 111.744C126.028 115.883 125.484 119.445 124.652 122.432C123.82 125.419 122.69 127.925 121.26 129.952C119.852 131.957 118.135 133.579 116.108 134.816C115.874 134.432 115.575 133.995 115.212 133.504C114.871 133.035 114.54 132.661 114.22 132.384C116.012 131.424 117.548 130.027 118.828 128.192C120.13 126.357 121.164 124.096 121.932 121.408C122.7 118.699 123.202 115.595 123.436 112.096V111.488ZM148.212 107.584H157.236V128.768H148.212V126.048H154.388V110.304H148.212V107.584ZM148.372 116.704H155.284V119.36H148.372V116.704ZM146.772 107.584H149.62V131.328H146.772V107.584ZM158.548 111.168H175.284V114.176H158.548V111.168ZM168.596 105.184H171.668V130.432C171.668 131.413 171.53 132.149 171.252 132.64C170.996 133.131 170.548 133.504 169.908 133.76C169.268 133.995 168.404 134.144 167.316 134.208C166.228 134.272 164.884 134.304 163.284 134.304C163.22 133.877 163.082 133.365 162.868 132.768C162.655 132.171 162.431 131.659 162.196 131.232C163.007 131.253 163.786 131.275 164.532 131.296C165.279 131.296 165.93 131.296 166.484 131.296C167.039 131.296 167.434 131.296 167.668 131.296C168.01 131.275 168.244 131.211 168.372 131.104C168.522 130.976 168.596 130.741 168.596 130.4V105.184ZM159.316 117.856L161.812 116.544C162.367 117.312 162.954 118.155 163.572 119.072C164.212 119.968 164.81 120.843 165.364 121.696C165.94 122.549 166.399 123.296 166.74 123.936L164.084 125.504C163.743 124.843 163.306 124.075 162.772 123.2C162.239 122.325 161.663 121.419 161.044 120.48C160.447 119.541 159.871 118.667 159.316 117.856ZM178.588 112.416H181.724V134.688H178.588V112.416ZM179.068 106.752L181.436 105.312C181.927 105.76 182.428 106.261 182.94 106.816C183.474 107.371 183.954 107.925 184.38 108.48C184.828 109.035 185.18 109.536 185.436 109.984L182.876 111.648C182.663 111.179 182.343 110.667 181.916 110.112C181.511 109.536 181.052 108.96 180.54 108.384C180.05 107.787 179.559 107.243 179.068 106.752ZM187.036 106.688H204.092V109.536H187.036V106.688ZM202.396 106.688H205.532V131.232C205.532 132 205.436 132.587 205.244 132.992C205.074 133.419 204.764 133.76 204.316 134.016C203.826 134.251 203.218 134.389 202.492 134.432C201.767 134.496 200.914 134.528 199.932 134.528C199.847 134.144 199.719 133.675 199.548 133.12C199.399 132.587 199.218 132.139 199.004 131.776C199.623 131.797 200.199 131.808 200.732 131.808C201.287 131.808 201.66 131.808 201.852 131.808C202.087 131.787 202.236 131.733 202.3 131.648C202.364 131.563 202.396 131.424 202.396 131.232V106.688ZM188.444 122.752V126.528H195.484V122.752H188.444ZM188.444 116.544V120.256H195.484V116.544H188.444ZM185.724 114.08H198.3V128.992H185.724V114.08Z" fill="white"/>
<path d="M262.598 75.6992C268.144 75.6992 272.641 71.2028 272.641 65.6563C272.641 60.1097 268.144 55.6133 262.598 55.6133C257.051 55.6133 252.555 60.1097 252.555 65.6563C252.555 71.2028 257.051 75.6992 262.598 75.6992Z" stroke="white" stroke-width="1.6" stroke-linejoin="round"/>
<path d="M271.455 74.5195L276.768 79.8323" stroke="white" stroke-width="1.6" stroke-linecap="round" stroke-linejoin="round"/>
<path d="M27.5 61.2227L21 67.7227L27.5 74.2227" stroke="white" stroke-opacity="0.8" stroke-width="2" stroke-linecap="round" stroke-linejoin="round"/>
<path d="M324.156 57.828H321.495C321.305 57.186 320.913 56.6229 320.376 56.2235C319.839 55.8241 319.186 55.6099 318.517 55.6133C317.848 55.6096 317.195 55.8236 316.658 56.2231C316.121 56.6225 315.728 57.1858 315.538 57.828H301.598C301.49 57.8267 301.383 57.8468 301.283 57.887C301.182 57.9272 301.091 57.9867 301.014 58.0622C300.937 58.1377 300.876 58.2276 300.833 58.3269C300.791 58.4261 300.769 58.5328 300.768 58.6407C300.769 58.7486 300.791 58.8552 300.833 58.9545C300.876 59.0537 300.937 59.1437 301.014 59.2191C301.091 59.2946 301.182 59.3542 301.283 59.3943C301.383 59.4345 301.49 59.4546 301.598 59.4533H315.537C315.726 60.096 316.12 60.6595 316.658 61.059C317.195 61.4585 317.849 61.6723 318.519 61.668C319.188 61.6714 319.84 61.4573 320.377 61.0578C320.914 60.6584 321.307 60.0953 321.496 59.4533H324.157C324.265 59.4544 324.372 59.4342 324.472 59.394C324.572 59.3537 324.663 59.2941 324.74 59.2187C324.817 59.1432 324.878 59.0533 324.921 58.9541C324.963 58.855 324.985 58.7484 324.986 58.6407C324.985 58.5328 324.963 58.4261 324.921 58.3269C324.878 58.2276 324.817 58.1377 324.74 58.0622C324.663 57.9867 324.571 57.9272 324.471 57.887C324.371 57.8468 324.264 57.8267 324.156 57.828ZM318.517 60.0427C318.141 60.0462 317.78 59.9007 317.511 59.6379C317.242 59.375 317.089 59.0164 317.084 58.6407C317.084 57.867 317.727 57.2387 318.517 57.2387C319.306 57.2387 319.949 57.867 319.949 58.6407C319.949 59.413 319.306 60.0427 318.517 60.0427ZM324.155 66.3045C324.263 66.3031 324.37 66.323 324.47 66.3631C324.571 66.4032 324.662 66.4627 324.739 66.5382C324.816 66.6137 324.878 66.7037 324.92 66.8031C324.963 66.9024 324.985 67.0092 324.986 67.1172C324.985 67.2251 324.963 67.3317 324.921 67.431C324.878 67.5302 324.817 67.6202 324.74 67.6957C324.663 67.7712 324.571 67.8307 324.471 67.8709C324.371 67.9111 324.264 67.9311 324.156 67.9299H310.217C310.028 68.5723 309.634 69.1357 309.097 69.5352C308.559 69.9346 307.906 70.1485 307.237 70.1445C306.567 70.1482 305.915 69.9342 305.377 69.5348C304.84 69.1353 304.447 68.572 304.258 67.9299H301.598C301.49 67.9311 301.383 67.9111 301.283 67.8709C301.182 67.8307 301.091 67.7712 301.014 67.6957C300.937 67.6202 300.876 67.5302 300.833 67.431C300.791 67.3317 300.769 67.2251 300.768 67.1172C300.769 67.0093 300.791 66.9027 300.833 66.8034C300.876 66.7041 300.937 66.6142 301.014 66.5387C301.091 66.4632 301.182 66.4037 301.283 66.3635C301.383 66.3233 301.49 66.3033 301.598 66.3045H304.259C304.448 65.6623 304.841 65.0991 305.379 64.6996C305.916 64.3002 306.568 64.0862 307.238 64.0899C308.655 64.0899 309.852 65.029 310.216 66.3045H324.155ZM307.239 68.5192C308.028 68.5192 308.671 67.8908 308.671 67.1172C308.671 66.3435 308.028 65.7152 307.239 65.7152C306.45 65.7152 305.806 66.3435 305.806 67.1172C305.806 67.8908 306.45 68.5192 307.239 68.5192ZM324.157 75.992C324.265 75.9907 324.372 76.0108 324.473 76.051C324.573 76.0912 324.664 76.1507 324.741 76.2262C324.818 76.3017 324.88 76.3916 324.922 76.4909C324.964 76.5901 324.987 76.6968 324.988 76.8047C324.987 76.9125 324.964 77.0192 324.922 77.1184C324.88 77.2177 324.818 77.3077 324.741 77.3831C324.664 77.4586 324.573 77.5182 324.473 77.5583C324.372 77.5985 324.265 77.6186 324.157 77.6173H321.496C321.307 78.2595 320.914 78.8228 320.377 79.2222C319.839 79.6217 319.187 79.8357 318.517 79.832C317.848 79.8357 317.195 79.6217 316.658 79.2222C316.121 78.8228 315.728 78.2595 315.538 77.6173H301.598C301.49 77.6186 301.383 77.5985 301.283 77.5583C301.182 77.5182 301.091 77.4586 301.014 77.3831C300.937 77.3077 300.876 77.2177 300.833 77.1184C300.791 77.0192 300.769 76.9125 300.768 76.8047C300.769 76.6968 300.791 76.5901 300.833 76.4909C300.876 76.3916 300.937 76.3017 301.014 76.2262C301.091 76.1507 301.182 76.0912 301.283 76.051C301.383 76.0108 301.49 75.9907 301.598 75.992H315.537C315.726 75.3496 316.119 74.7861 316.657 74.3867C317.195 73.9872 317.847 73.7733 318.517 73.7773C319.934 73.7773 321.131 74.7165 321.495 75.992H324.156H324.157ZM318.519 78.2066C319.307 78.2066 319.95 77.5783 319.95 76.8047C319.95 76.031 319.307 75.4027 318.519 75.4027C317.729 75.4027 317.086 76.031 317.086 76.8047C317.086 77.5783 317.729 78.2066 318.519 78.2066Z" fill="white"/>
<path d="M359.494 70.9948V64.9336" stroke="white" stroke-width="1.6" stroke-linecap="round"/>
<path d="M353.539 56.2695H365.449" stroke="white" stroke-width="1.6" stroke-linecap="round"/>
<circle cx="359.494" cy="69.807" r="9.70619" stroke="white" stroke-width="1.6"/>
<path d="M461.851 775.089C461.921 740.045 455.088 705.331 441.743 672.928C428.397 640.525 408.8 611.068 384.07 586.239C359.341 561.409 329.963 541.694 297.613 528.218C265.264 514.743 230.578 507.771 195.534 507.7C160.491 507.63 125.776 514.462 93.3733 527.808C60.9703 541.154 31.5133 560.751 6.68392 585.48C-18.1454 610.21 -37.8607 639.588 -51.3364 671.937C-64.812 704.287 -71.7841 738.973 -71.8545 774.017" stroke="white" stroke-opacity="0.8" stroke-width="26" stroke-dasharray="1 23.52"/>
<path d="M461.851 775.089C461.921 740.045 455.088 705.331 441.743 672.928C428.397 640.525 408.8 611.068 384.07 586.239C359.341 561.409 329.963 541.694 297.613 528.218C265.264 514.743 230.578 507.771 195.534 507.7C160.491 507.63 125.776 514.462 93.3733 527.808C60.9703 541.154 31.5133 560.751 6.68392 585.48C-18.1454 610.21 -37.8607 639.588 -51.3364 671.937C-64.812 704.287 -71.7841 738.973 -71.8545 774.017" stroke="white" stroke-width="69" stroke-dasharray="1 94.08"/>
<path d="M525.845 775.219C525.932 731.771 517.461 688.732 500.915 648.559C484.369 608.385 460.072 571.864 429.412 541.08C398.752 510.297 362.329 485.853 322.222 469.146C282.115 452.439 239.11 443.795 195.663 443.708C152.216 443.62 109.176 452.092 69.0028 468.637C28.8293 485.183 -7.69192 509.48 -38.4756 540.14C-69.2592 570.801 -93.7025 607.224 -110.41 647.331C-127.117 687.437 -135.761 730.442 -135.848 773.89" stroke="white" stroke-opacity="0.6" stroke-width="12" stroke-linecap="round"/>
<path d="M195.663 443.708C147.273 443.61 99.4515 454.129 55.5689 474.522C11.6862 494.915 -27.1889 524.686 -58.3158 561.735" stroke="#FEFB54" stroke-width="12" stroke-linecap="round"/>
<path d="M45.2703 625.503C43.4335 627.34 40.2156 628.016 36.5212 624.322L36.5074 624.308C33.1514 620.952 32.6197 617.562 35.0573 615.124C36.7491 613.432 38.9795 613.135 40.7611 614.254L40.8716 614.323L39.6079 615.587L39.5043 615.538C38.3857 615.014 37.1634 615.214 36.1414 616.236C34.2839 618.093 35.3542 620.628 37.3913 622.775C37.4535 622.851 37.5225 622.92 37.5985 622.996L37.6261 622.968C37.1427 621.684 37.4466 619.944 38.8 618.59C40.699 616.692 43.5094 616.685 45.4015 618.577L45.4153 618.59C47.3764 620.552 47.3074 623.466 45.2703 625.503ZM39.5872 624.391C40.8647 625.668 42.8741 625.689 44.1516 624.412C45.4222 623.141 45.436 621.139 44.1793 619.882L44.1654 619.868C42.8672 618.57 40.989 618.584 39.677 619.896C38.3719 621.201 38.3097 623.113 39.5803 624.384L39.5872 624.391Z" fill="white"/>
<path d="M111.329 577.079L112.444 563.099L112.429 563.063L105.418 565.965L104.82 564.522L113.437 560.954L114.061 562.461L113.035 576.373L111.329 577.079Z" fill="white"/>
<path d="M282.154 565.108C284.539 566.137 286.356 568.878 284.286 573.675L284.278 573.693C282.398 578.051 279.443 579.796 276.278 578.431C274.081 577.483 272.982 575.519 273.364 573.451L273.387 573.323L275.028 574.031L275.021 574.145C274.947 575.378 275.584 576.44 276.911 577.013C279.323 578.053 281.283 576.123 282.527 573.437C282.575 573.352 282.613 573.262 282.656 573.163L282.62 573.148C281.605 574.071 279.875 574.431 278.118 573.673C275.652 572.609 274.608 569.999 275.668 567.542L275.676 567.525C276.775 564.978 279.509 563.967 282.154 565.108ZM279.007 572.376C280.702 573.107 282.503 572.459 283.214 570.809L283.218 570.8C283.934 569.141 283.211 567.266 281.553 566.55C279.903 565.838 278.037 566.565 277.332 568.197L277.325 568.215C276.597 569.9 277.304 571.641 279.007 572.376Z" fill="white"/>
<path d="M341.382 622.16L350.028 613.514L350 613.487L345.526 612.686L346.775 611.436L351.333 612.182L352.548 613.397L342.584 623.361L341.382 622.16ZM348.13 629.239C345.838 626.947 346.459 623.605 349.622 620.442L349.636 620.428C352.798 617.265 356.134 616.651 358.426 618.943C360.719 621.236 360.118 624.585 356.955 627.748L356.942 627.762C353.779 630.924 350.423 631.532 348.13 629.239ZM349.215 628.155C350.734 629.674 353.192 629.011 355.692 626.512L355.706 626.498C358.205 623.998 358.854 621.554 357.335 620.035C355.816 618.515 353.385 619.178 350.886 621.678L350.872 621.692C348.372 624.192 347.695 626.636 349.215 628.155Z" fill="white"/>
<path d="M194.724 545.723C195.109 545.056 196.071 545.056 196.456 545.723L203.115 557.257C203.5 557.924 203.019 558.757 202.249 558.757H188.931C188.161 558.757 187.68 557.924 188.065 557.257L194.724 545.723Z" fill="#FEFB54"/>
<path d="M175.31 360.301V345.629H175.263L170.787 348.746V346.625L175.287 343.391H177.349V360.301H175.31ZM187.125 360.582C183.234 360.582 180.926 357.219 180.926 351.852V351.828C180.926 346.461 183.234 343.109 187.125 343.109C191.015 343.109 193.347 346.461 193.347 351.828V351.852C193.347 357.219 191.015 360.582 187.125 360.582ZM187.125 358.742C189.703 358.742 191.226 356.094 191.226 351.852V351.828C191.226 347.586 189.703 344.961 187.125 344.961C184.547 344.961 183.047 347.586 183.047 351.828V351.852C183.047 356.094 184.547 358.742 187.125 358.742ZM196.115 360.465C195.365 360.465 194.779 359.879 194.779 359.129C194.779 358.379 195.365 357.793 196.115 357.793C196.865 357.793 197.451 358.379 197.451 359.129C197.451 359.879 196.865 360.465 196.115 360.465ZM199.656 360.301V358.848L205.61 352.637C207.895 350.258 208.422 349.344 208.422 347.938V347.914C208.41 346.191 207.11 344.949 205.27 344.949C203.16 344.949 201.59 346.402 201.59 348.219V348.277H199.551V348.207C199.551 345.277 202.082 343.109 205.235 343.109C208.293 343.109 210.531 345.16 210.531 347.809V347.832C210.531 349.684 209.676 351.078 206.571 354.254L202.551 358.379V358.426H210.813V360.301H199.656ZM212.842 360.301V358.848L218.795 352.637C221.08 350.258 221.608 349.344 221.608 347.938V347.914C221.596 346.191 220.295 344.949 218.455 344.949C216.346 344.949 214.776 346.402 214.776 348.219V348.277H212.737V348.207C212.737 345.277 215.268 343.109 218.42 343.109C221.479 343.109 223.717 345.16 223.717 347.809V347.832C223.717 349.684 222.862 351.078 219.756 354.254L215.737 358.379V358.426H223.998V360.301H212.842Z" fill="white" fill-opacity="0.6"/>
<path d="M147.971 298.199C149.169 298.538 150.341 299.072 151.487 299.801C152.659 300.504 153.688 301.428 154.573 302.574C155.484 303.72 156.214 305.087 156.76 306.676C157.307 308.264 157.581 310.1 157.581 312.184C157.581 314.579 157.164 316.845 156.331 318.98C155.497 321.116 154.208 322.991 152.464 324.605C150.745 326.22 148.544 327.496 145.862 328.434C143.18 329.397 139.99 329.879 136.292 329.879C132.594 329.879 129.404 329.397 126.721 328.434C124.039 327.496 121.826 326.22 120.081 324.605C118.362 322.991 117.086 321.116 116.253 318.98C115.419 316.845 115.003 314.579 115.003 312.184C115.003 310.1 115.276 308.264 115.823 306.676C116.37 305.087 117.086 303.72 117.971 302.574C118.883 301.428 119.911 300.504 121.057 299.801C122.229 299.072 123.414 298.538 124.612 298.199C123.701 298.147 122.776 297.73 121.839 296.949C120.901 296.142 120.042 295.165 119.26 294.02C118.479 292.848 117.841 291.598 117.346 290.27C116.852 288.941 116.604 287.717 116.604 286.598C116.604 284.41 117.008 282.275 117.815 280.191C118.648 278.108 119.885 276.259 121.526 274.645C123.167 273.004 125.211 271.689 127.659 270.699C130.133 269.71 133.01 269.215 136.292 269.215C139.729 269.215 142.685 269.71 145.159 270.699C147.633 271.689 149.664 273.004 151.253 274.645C152.867 276.259 154.052 278.108 154.807 280.191C155.589 282.275 155.979 284.41 155.979 286.598C155.979 287.822 155.719 289.098 155.198 290.426C154.703 291.728 154.052 292.952 153.245 294.098C152.464 295.217 151.604 296.168 150.667 296.949C149.729 297.704 148.831 298.121 147.971 298.199ZM132.698 287.379C132.698 288.108 132.802 288.837 133.01 289.566C133.245 290.27 133.531 290.96 133.87 291.637C134.208 292.314 134.586 292.978 135.003 293.629C135.445 294.254 135.875 294.84 136.292 295.387C137.49 294.059 138.388 292.704 138.987 291.324C139.586 289.944 139.885 288.629 139.885 287.379C139.885 286.962 139.82 286.493 139.69 285.973C139.586 285.426 139.391 284.918 139.104 284.449C138.844 283.954 138.479 283.551 138.01 283.238C137.542 282.9 136.969 282.73 136.292 282.73C135.615 282.73 135.042 282.9 134.573 283.238C134.104 283.551 133.727 283.954 133.44 284.449C133.18 284.918 132.984 285.426 132.854 285.973C132.75 286.493 132.698 286.962 132.698 287.379ZM132.698 310.895C132.698 311.311 132.75 311.793 132.854 312.34C132.984 312.887 133.18 313.408 133.44 313.902C133.727 314.371 134.104 314.775 134.573 315.113C135.042 315.452 135.615 315.621 136.292 315.621C136.969 315.621 137.542 315.452 138.01 315.113C138.479 314.775 138.844 314.371 139.104 313.902C139.391 313.408 139.586 312.887 139.69 312.34C139.82 311.793 139.885 311.311 139.885 310.895C139.885 310.165 139.794 309.436 139.612 308.707C139.43 307.952 139.169 307.249 138.831 306.598C138.518 305.921 138.141 305.309 137.698 304.762C137.255 304.189 136.786 303.707 136.292 303.316C135.771 303.707 135.289 304.202 134.846 304.801C134.404 305.374 134.026 305.999 133.714 306.676C133.401 307.327 133.154 308.017 132.971 308.746C132.789 309.475 132.698 310.191 132.698 310.895ZM161.665 321.051C161.665 319.931 161.873 318.876 162.29 317.887C162.733 316.871 163.319 315.986 164.048 315.23C164.803 314.475 165.675 313.889 166.665 313.473C167.655 313.03 168.722 312.809 169.868 312.809C171.014 312.809 172.082 313.03 173.071 313.473C174.087 313.889 174.959 314.475 175.688 315.23C176.444 315.986 177.03 316.871 177.446 317.887C177.889 318.876 178.11 319.931 178.11 321.051C178.11 322.197 177.889 323.277 177.446 324.293C177.03 325.283 176.444 326.155 175.688 326.91C174.959 327.639 174.087 328.212 173.071 328.629C172.082 329.072 171.014 329.293 169.868 329.293C168.722 329.293 167.655 329.072 166.665 328.629C165.675 328.212 164.803 327.639 164.048 326.91C163.319 326.155 162.733 325.283 162.29 324.293C161.873 323.277 161.665 322.197 161.665 321.051ZM161.665 293.238C161.665 292.092 161.873 291.025 162.29 290.035C162.733 289.02 163.319 288.147 164.048 287.418C164.803 286.663 165.675 286.077 166.665 285.66C167.655 285.217 168.722 284.996 169.868 284.996C171.014 284.996 172.082 285.217 173.071 285.66C174.087 286.077 174.959 286.663 175.688 287.418C176.444 288.147 177.03 289.02 177.446 290.035C177.889 291.025 178.11 292.092 178.11 293.238C178.11 294.384 177.889 295.452 177.446 296.441C177.03 297.431 176.444 298.303 175.688 299.059C174.959 299.788 174.087 300.374 173.071 300.816C172.082 301.233 171.014 301.441 169.868 301.441C168.722 301.441 167.655 301.233 166.665 300.816C165.675 300.374 164.803 299.788 164.048 299.059C163.319 298.303 162.733 297.431 162.29 296.441C161.873 295.452 161.665 294.384 161.665 293.238ZM227.116 300.348C227.116 302.639 226.921 304.944 226.53 307.262C226.166 309.553 225.593 311.767 224.812 313.902C224.056 316.012 223.067 317.991 221.843 319.84C220.645 321.663 219.213 323.251 217.546 324.605C215.905 325.96 214.017 327.027 211.882 327.809C209.747 328.59 207.364 328.98 204.733 328.98C202.103 328.98 199.733 328.629 197.624 327.926C195.515 327.223 193.627 326.246 191.96 324.996C190.293 323.72 188.861 322.197 187.663 320.426C186.465 318.655 185.476 316.715 184.694 314.605C183.913 312.47 183.327 310.204 182.937 307.809C182.572 305.387 182.39 302.9 182.39 300.348C182.39 295.738 182.963 291.546 184.108 287.77C185.28 283.967 186.869 280.712 188.874 278.004C190.905 275.296 193.275 273.199 195.983 271.715C198.718 270.204 201.635 269.449 204.733 269.449C208.197 269.449 211.309 270.126 214.069 271.48C216.83 272.835 219.174 274.827 221.101 277.457C223.028 280.061 224.512 283.29 225.554 287.145C226.595 290.973 227.116 295.374 227.116 300.348ZM211.296 298.59C211.296 296.35 211.127 294.345 210.788 292.574C210.476 290.803 210.02 289.306 209.421 288.082C208.848 286.832 208.132 285.882 207.273 285.23C206.439 284.579 205.502 284.254 204.46 284.254C203.47 284.254 202.559 284.671 201.726 285.504C200.918 286.311 200.215 287.392 199.616 288.746C199.043 290.074 198.588 291.598 198.249 293.316C197.911 295.035 197.741 296.793 197.741 298.59C197.741 300.673 197.872 302.561 198.132 304.254C198.418 305.947 198.835 307.392 199.382 308.59C199.929 309.788 200.619 310.712 201.452 311.363C202.312 312.014 203.314 312.34 204.46 312.34C205.632 312.34 206.635 312.027 207.468 311.402C208.327 310.751 209.043 309.84 209.616 308.668C210.189 307.47 210.606 306.025 210.866 304.332C211.153 302.613 211.296 300.699 211.296 298.59ZM275.693 300.348C275.693 302.639 275.497 304.944 275.107 307.262C274.742 309.553 274.169 311.767 273.388 313.902C272.633 316.012 271.643 317.991 270.419 319.84C269.221 321.663 267.789 323.251 266.122 324.605C264.482 325.96 262.594 327.027 260.458 327.809C258.323 328.59 255.94 328.98 253.31 328.98C250.68 328.98 248.31 328.629 246.201 327.926C244.091 327.223 242.203 326.246 240.536 324.996C238.87 323.72 237.437 322.197 236.24 320.426C235.042 318.655 234.052 316.715 233.271 314.605C232.49 312.47 231.904 310.204 231.513 307.809C231.148 305.387 230.966 302.9 230.966 300.348C230.966 295.738 231.539 291.546 232.685 287.77C233.857 283.967 235.445 280.712 237.451 278.004C239.482 275.296 241.852 273.199 244.56 271.715C247.294 270.204 250.211 269.449 253.31 269.449C256.773 269.449 259.885 270.126 262.646 271.48C265.406 272.835 267.75 274.827 269.677 277.457C271.604 280.061 273.089 283.29 274.13 287.145C275.172 290.973 275.693 295.374 275.693 300.348ZM259.872 298.59C259.872 296.35 259.703 294.345 259.365 292.574C259.052 290.803 258.596 289.306 257.997 288.082C257.424 286.832 256.708 285.882 255.849 285.23C255.016 284.579 254.078 284.254 253.036 284.254C252.047 284.254 251.135 284.671 250.302 285.504C249.495 286.311 248.792 287.392 248.193 288.746C247.62 290.074 247.164 291.598 246.826 293.316C246.487 295.035 246.318 296.793 246.318 298.59C246.318 300.673 246.448 302.561 246.708 304.254C246.995 305.947 247.411 307.392 247.958 308.59C248.505 309.788 249.195 310.712 250.029 311.363C250.888 312.014 251.891 312.34 253.036 312.34C254.208 312.34 255.211 312.027 256.044 311.402C256.904 310.751 257.62 309.84 258.193 308.668C258.766 307.47 259.182 306.025 259.443 304.332C259.729 302.613 259.872 300.699 259.872 298.59Z" fill="#FEFB54"/>
<rect x="123.375" y="690.312" width="143.25" height="63.8203" rx="31.9102" stroke="white"/>
<path d="M175.998 720.223C174.893 720.223 173.998 721.118 173.998 722.223C173.998 723.327 174.893 724.223 175.998 724.223L175.998 722.223L175.998 720.223ZM215.418 723.637C216.199 722.856 216.199 721.589 215.418 720.808L202.69 708.081C201.909 707.299 200.643 707.299 199.862 708.081C199.081 708.862 199.081 710.128 199.862 710.909L211.175 722.223L199.862 733.536C199.081 734.317 199.081 735.584 199.862 736.365C200.643 737.146 201.909 737.146 202.69 736.365L215.418 723.637ZM175.998 722.223L175.998 724.223L214.004 724.223L214.004 722.223L214.004 720.223L175.998 720.223L175.998 722.223Z" fill="#FEFB54"/>
</g>
<defs>
<clipPath id="clip0_511_2717">
<rect width="390" height="844" rx="12" fill="white"/>
</clipPath>
<clipPath id="clip1_511_2717">
<rect width="390" height="47" fill="white"/>
</clipPath>
</defs>
</svg>
