<svg width="390" height="844" viewBox="0 0 390 844" fill="none" xmlns="http://www.w3.org/2000/svg">
<g clip-path="url(#clip0_337_2079)">
<rect width="390" height="844" rx="16" fill="#186051"/>
<g clip-path="url(#clip1_337_2079)">
<path d="M117.768 -2H272.184V13C272.184 22.3888 264.572 30 255.184 30H134.768C125.379 30 117.768 22.3888 117.768 13V-2Z" fill="black"/>
<path d="M118 -2H113C113 -2 113 -2 113 -2C115.651 -2 117.799 0.148747 117.799 2.79934C117.799 2.86656 117.798 2.93345 117.795 3H118V-2Z" fill="black"/>
<path d="M272 -2H277C277 -2 277 -2 277 -2C274.349 -2 272.201 0.148747 272.201 2.79934C272.201 2.86656 272.202 2.93345 272.205 3H272V-2Z" fill="black"/>
<path d="M40.8576 19.6982C43.9455 19.6982 46.0373 21.8896 46.0373 25.9487V25.9653C46.0373 29.9331 44.0451 32.3154 40.8908 32.3154C38.4172 32.3154 36.5744 30.8462 36.2175 28.9121L36.2092 28.8457H39.1642L39.1891 28.9121C39.4382 29.5264 40.0358 29.9663 40.8742 29.9663C42.3766 29.9663 43.0656 28.4888 43.1569 26.48C43.1569 26.397 43.1652 26.3057 43.1652 26.2144H42.9909C42.5593 27.1108 41.6296 27.916 39.9528 27.916C37.5788 27.916 36.0598 26.2808 36.0598 24.0312V24.0146C36.0598 21.541 38.0104 19.6982 40.8576 19.6982ZM40.8659 25.7827C41.9367 25.7827 42.7751 25.0356 42.7751 23.9648V23.9482C42.7751 22.8608 41.9367 22.0391 40.8742 22.0391C39.82 22.0391 38.965 22.8525 38.965 23.8984V23.915C38.965 25.0024 39.7702 25.7827 40.8659 25.7827ZM49.6386 24.7451C48.6508 24.7451 47.9784 24.0479 47.9784 23.1099C47.9784 22.1719 48.6508 21.4829 49.6386 21.4829C50.6347 21.4829 51.307 22.1719 51.307 23.1099C51.307 24.0479 50.6347 24.7451 49.6386 24.7451ZM49.6386 30.5308C48.6508 30.5308 47.9784 29.8418 47.9784 28.9038C47.9784 27.9658 48.6508 27.2686 49.6386 27.2686C50.6347 27.2686 51.307 27.9658 51.307 28.9038C51.307 29.8418 50.6347 30.5308 49.6386 30.5308ZM59.1666 32V29.958H53.2814V27.6587C54.7423 24.9775 56.2613 22.4624 57.8136 20.022H62.047V27.584H63.5411V29.958H62.047V32H59.1666ZM55.921 27.6919H59.2413V22.1968H59.0919C58.0211 23.8652 56.8839 25.7412 55.921 27.5425V27.6919ZM67.931 32V22.7695H67.7733L64.8846 24.7202V22.0972L67.931 20.022H70.9691V32H67.931Z" fill="white"/>
<path opacity="0.35" d="M340 19.5273H357C358.918 19.5273 360.473 21.0822 360.473 23V28C360.473 29.9178 358.918 31.4727 357 31.4727H340C338.082 31.4727 336.527 29.9178 336.527 28V23C336.527 21.0822 338.082 19.5273 340 19.5273Z" stroke="white" stroke-width="1.05509"/>
<path opacity="0.4" d="M362 24V28.2203C362.849 27.8629 363.401 27.0314 363.401 26.1102C363.401 25.1889 362.849 24.3574 362 24Z" fill="white"/>
<path d="M338 23C338 21.8954 338.895 21 340 21H357C358.105 21 359 21.8954 359 23V28C359 29.1046 358.105 30 357 30H340C338.895 30 338 29.1046 338 28V23Z" fill="white"/>
<path fill-rule="evenodd" clip-rule="evenodd" d="M318.115 29.0848C319.535 27.8592 321.614 27.8593 323.034 29.0848C323.106 29.1507 323.147 29.2443 323.149 29.3426C323.151 29.4408 323.114 29.5355 323.045 29.6043L320.821 31.8943C320.756 31.9615 320.668 31.9997 320.575 31.9998C320.482 31.9998 320.393 31.9616 320.328 31.8943L318.104 29.6043C318.036 29.5354 317.998 29.4408 318 29.3426C318.002 29.2443 318.044 29.1506 318.115 29.0848ZM315.109 26.2615C318.168 23.3569 322.906 23.3569 325.965 26.2615C326.034 26.3296 326.073 26.4233 326.074 26.5213C326.075 26.6192 326.037 26.7136 325.97 26.783L324.685 28.1082C324.552 28.2435 324.338 28.2468 324.202 28.115C323.198 27.1866 321.891 26.6716 320.536 26.6717C319.182 26.6722 317.876 27.1871 316.872 28.115C316.736 28.2468 316.522 28.2435 316.39 28.1082L315.104 26.783C315.037 26.7137 314.999 26.6192 315 26.5213C315.001 26.4233 315.04 26.3296 315.109 26.2615ZM312.107 23.4422C316.799 18.8526 324.201 18.8526 328.893 23.4422C328.961 23.5104 328.999 23.6037 329 23.701C329 23.7981 328.963 23.8918 328.896 23.9607L327.609 25.2859C327.477 25.4219 327.262 25.4236 327.127 25.2898C325.339 23.5551 322.967 22.5878 320.5 22.5877C318.033 22.5878 315.661 23.5551 313.873 25.2898C313.739 25.4237 313.523 25.4221 313.391 25.2859L312.104 23.9607C312.037 23.8918 312 23.798 312 23.701C312.001 23.6037 312.039 23.5103 312.107 23.4422Z" fill="white"/>
<path d="M296 23C296 22.4477 296.448 22 297 22H298C298.552 22 299 22.4477 299 23V31C299 31.5523 298.552 32 298 32H297C296.448 32 296 31.5523 296 31V23Z" fill="white"/>
<path d="M301 21C301 20.4477 301.448 20 302 20H303C303.552 20 304 20.4477 304 21V31C304 31.5523 303.552 32 303 32H302C301.448 32 301 31.5523 301 31V21Z" fill="white"/>
<path d="M291 26.5C291 25.9477 291.448 25.5 292 25.5H293C293.552 25.5 294 25.9477 294 26.5V31C294 31.5523 293.552 32 293 32H292C291.448 32 291 31.5523 291 31V26.5Z" fill="white"/>
<path d="M286 29C286 28.4477 286.448 28 287 28H288C288.552 28 289 28.4477 289 29V31C289 31.5523 288.552 32 288 32H287C286.448 32 286 31.5523 286 31V29Z" fill="white"/>
</g>
<rect x="128" y="831" width="134" height="5" rx="2.5" fill="black"/>
<path d="M27.5 61.2227L21 67.7227L27.5 74.2227" stroke="white" stroke-opacity="0.8" stroke-width="2" stroke-linecap="round" stroke-linejoin="round"/>
<rect x="20" y="119.707" width="350" height="136.41" rx="20" fill="#236D5E"/>
<path d="M69.1021 193.844C69.1021 195.068 68.9978 196.298 68.7893 197.535C68.5946 198.759 68.2887 199.941 67.8716 201.081C67.4684 202.207 66.9401 203.264 66.2866 204.251C65.647 205.224 64.8823 206.072 63.9925 206.795C63.1166 207.518 62.1085 208.088 60.9684 208.505C59.8283 208.923 58.5562 209.131 57.1519 209.131C55.7476 209.131 54.4824 208.943 53.3562 208.568C52.23 208.193 51.222 207.671 50.3321 207.004C49.4423 206.323 48.6776 205.509 48.038 204.564C47.3985 203.618 46.8701 202.583 46.453 201.456C46.0359 200.316 45.7231 199.107 45.5145 197.827C45.3199 196.534 45.2225 195.207 45.2225 193.844C45.2225 191.383 45.5284 189.145 46.1402 187.129C46.7658 185.099 47.614 183.361 48.6845 181.915C49.769 180.469 51.0343 179.349 52.4803 178.557C53.9401 177.751 55.4973 177.347 57.1519 177.347C59.0011 177.347 60.6626 177.709 62.1364 178.432C63.6101 179.155 64.8615 180.218 65.8903 181.623C66.9192 183.013 67.7117 184.737 68.2679 186.795C68.824 188.839 69.1021 191.188 69.1021 193.844ZM60.6556 192.906C60.6556 191.71 60.5652 190.639 60.3845 189.694C60.2176 188.748 59.9743 187.949 59.6545 187.295C59.3487 186.628 58.9663 186.121 58.5075 185.773C58.0626 185.425 57.562 185.252 57.0059 185.252C56.4776 185.252 55.9909 185.474 55.546 185.919C55.115 186.35 54.7396 186.927 54.4198 187.65C54.1139 188.359 53.8706 189.172 53.6899 190.09C53.5091 191.008 53.4187 191.946 53.4187 192.906C53.4187 194.018 53.4883 195.026 53.6273 195.93C53.7802 196.833 54.0027 197.605 54.2947 198.245C54.5867 198.884 54.9551 199.378 55.4 199.725C55.8588 200.073 56.3941 200.247 57.0059 200.247C57.6316 200.247 58.1669 200.08 58.6118 199.746C59.0706 199.399 59.4529 198.912 59.7588 198.286C60.0647 197.647 60.2872 196.875 60.4262 195.971C60.5791 195.054 60.6556 194.032 60.6556 192.906ZM70.0653 204.897C70.0653 204.3 70.1765 203.737 70.399 203.208C70.6353 202.666 70.9482 202.193 71.3375 201.79C71.7407 201.387 72.2065 201.074 72.7348 200.852C73.277 200.615 73.854 200.497 74.4658 200.497C75.0637 200.497 75.6268 200.615 76.1551 200.852C76.6973 201.074 77.1701 201.387 77.5733 201.79C77.9765 202.193 78.2893 202.666 78.5118 203.208C78.7481 203.737 78.8663 204.3 78.8663 204.897C78.8663 205.509 78.7481 206.086 78.5118 206.629C78.2893 207.157 77.9765 207.623 77.5733 208.026C77.1701 208.415 76.6973 208.721 76.1551 208.943C75.6268 209.18 75.0637 209.298 74.4658 209.298C73.854 209.298 73.277 209.18 72.7348 208.943C72.2065 208.721 71.7407 208.415 71.3375 208.026C70.9482 207.623 70.6353 207.157 70.399 206.629C70.1765 206.086 70.0653 205.509 70.0653 204.897ZM88.8599 188.255C88.8599 189.437 89.0616 190.368 89.4648 191.049C89.868 191.717 90.5075 192.05 91.3835 192.05C91.7311 192.05 92.0578 191.967 92.3637 191.8C92.6696 191.619 92.9337 191.362 93.1562 191.029C93.3786 190.695 93.5524 190.299 93.6776 189.84C93.8166 189.367 93.8931 188.839 93.907 188.255C93.9209 187.726 93.8653 187.226 93.7401 186.753C93.6289 186.267 93.4621 185.843 93.2396 185.481C93.0311 185.106 92.7669 184.814 92.4471 184.605C92.1273 184.383 91.7728 184.271 91.3835 184.271C90.9803 184.271 90.6188 184.376 90.299 184.584C89.9931 184.793 89.7289 185.078 89.5065 185.439C89.2979 185.801 89.138 186.225 89.0268 186.711C88.9156 187.198 88.8599 187.713 88.8599 188.255ZM93.8653 197.264C93.7401 197.39 93.5594 197.522 93.323 197.661C93.0867 197.8 92.8155 197.932 92.5097 198.057C92.2038 198.168 91.8631 198.265 91.4877 198.349C91.1123 198.418 90.723 198.453 90.3198 198.453C89.4995 198.453 88.6653 198.384 87.8172 198.245C86.983 198.092 86.1765 197.855 85.3979 197.535C84.6193 197.202 83.8824 196.778 83.1872 196.263C82.506 195.749 81.9081 195.123 81.3937 194.386C80.8931 193.636 80.4969 192.767 80.2049 191.779C79.9129 190.792 79.7669 189.673 79.7669 188.422C79.7669 186.586 80.052 184.967 80.622 183.562C81.1921 182.158 81.9846 180.983 82.9995 180.038C84.0284 179.092 85.245 178.383 86.6493 177.91C88.0674 177.424 89.6177 177.181 91.3 177.181C93.0797 177.181 94.6786 177.479 96.0968 178.077C97.515 178.661 98.7177 179.544 99.7048 180.726C100.706 181.908 101.471 183.382 101.999 185.147C102.527 186.913 102.791 188.971 102.791 191.321C102.791 192.669 102.729 194.053 102.604 195.471C102.493 196.889 102.27 198.279 101.936 199.642C101.603 200.991 101.13 202.27 100.518 203.479C99.9203 204.675 99.1278 205.725 98.1407 206.629C97.1674 207.518 95.9856 208.227 94.5952 208.756C93.2048 209.284 91.5503 209.548 89.6316 209.548C88.5193 209.548 87.4557 209.402 86.4407 209.11C85.4257 208.818 84.529 208.415 83.7503 207.901C82.9856 207.372 82.3739 206.747 81.9151 206.024C81.4562 205.287 81.2268 204.473 81.2268 203.584C81.2268 202.916 81.3659 202.291 81.6439 201.707C81.922 201.123 82.2905 200.622 82.7493 200.205C83.222 199.774 83.7573 199.44 84.3552 199.204C84.953 198.954 85.5717 198.829 86.2113 198.829C87.0316 198.829 87.8241 199.044 88.5888 199.475C89.3535 199.906 90.0279 200.608 90.6118 201.581C90.292 201.512 90.007 201.477 89.7567 201.477C89.4787 201.477 89.2701 201.568 89.1311 201.748C89.0059 201.929 88.9434 202.124 88.9434 202.332C88.9434 202.555 89.0546 202.77 89.2771 202.979C89.4995 203.173 89.8471 203.271 90.3198 203.271C91.0706 203.271 91.6754 203.083 92.1343 202.708C92.607 202.332 92.9685 201.853 93.2188 201.269C93.4829 200.685 93.6567 200.038 93.7401 199.329C93.8236 198.62 93.8653 197.932 93.8653 197.264Z" fill="#FEFB54"/>
<path d="M109.9 204.682L113.032 202.03C113.096 201.974 113.16 201.934 113.224 201.91C113.288 201.878 113.36 201.862 113.44 201.862H113.764C113.868 201.862 113.944 201.886 113.992 201.934C114.04 201.974 114.056 202.026 114.04 202.09C114.032 202.154 113.988 202.218 113.908 202.282L110.284 205.318L109.9 204.682ZM114.376 207.826C114.448 207.89 114.488 207.954 114.496 208.018C114.512 208.082 114.496 208.138 114.448 208.186C114.408 208.226 114.348 208.246 114.268 208.246H113.92C113.84 208.246 113.768 208.234 113.704 208.21C113.64 208.178 113.572 208.134 113.5 208.078L109.888 205.018L110.392 204.442L114.376 207.826ZM110.416 207.922C110.416 208.026 110.388 208.106 110.332 208.162C110.276 208.218 110.2 208.246 110.104 208.246H109.936C109.832 208.246 109.752 208.218 109.696 208.162C109.64 208.106 109.612 208.026 109.612 207.922V199.45C109.612 199.346 109.64 199.266 109.696 199.21C109.752 199.154 109.832 199.126 109.936 199.126H110.104C110.2 199.126 110.276 199.154 110.332 199.21C110.388 199.266 110.416 199.346 110.416 199.45V207.922ZM115.456 207.922C115.456 208.026 115.428 208.106 115.372 208.162C115.316 208.218 115.24 208.246 115.144 208.246H114.976C114.872 208.246 114.792 208.218 114.736 208.162C114.68 208.106 114.652 208.026 114.652 207.922V202.186C114.652 202.082 114.68 202.002 114.736 201.946C114.792 201.89 114.872 201.862 114.976 201.862H115.144C115.24 201.862 115.316 201.89 115.372 201.946C115.428 202.002 115.456 202.082 115.456 202.186V207.922ZM114.652 205.45C114.652 204.802 114.768 204.194 115 203.626C115.232 203.058 115.564 202.602 115.996 202.258C116.436 201.906 116.952 201.73 117.544 201.73C117.936 201.73 118.296 201.85 118.624 202.09C118.96 202.322 119.224 202.65 119.416 203.074C119.608 203.49 119.704 203.962 119.704 204.49V207.922C119.704 208.026 119.676 208.106 119.62 208.162C119.564 208.218 119.488 208.246 119.392 208.246H119.224C119.12 208.246 119.04 208.218 118.984 208.162C118.928 208.106 118.9 208.026 118.9 207.922V204.49C118.9 204.09 118.832 203.742 118.696 203.446C118.56 203.142 118.376 202.91 118.144 202.75C117.912 202.582 117.66 202.498 117.388 202.498C116.972 202.498 116.62 202.606 116.332 202.822C116.044 203.03 115.824 203.322 115.672 203.698C115.528 204.074 115.456 204.514 115.456 205.018L114.652 205.45ZM118.9 205.462C118.9 204.814 119.016 204.206 119.248 203.638C119.48 203.07 119.816 202.614 120.256 202.27C120.696 201.918 121.212 201.742 121.804 201.742C122.196 201.742 122.556 201.854 122.884 202.078C123.212 202.294 123.472 202.606 123.664 203.014C123.864 203.414 123.964 203.878 123.964 204.406V207.922C123.964 208.026 123.936 208.106 123.88 208.162C123.832 208.218 123.756 208.246 123.652 208.246H123.484C123.38 208.246 123.3 208.218 123.244 208.162C123.196 208.106 123.172 208.026 123.172 207.922V204.406C123.172 204.006 123.1 203.666 122.956 203.386C122.82 203.098 122.636 202.882 122.404 202.738C122.172 202.586 121.92 202.51 121.648 202.51C121.232 202.51 120.88 202.614 120.592 202.822C120.304 203.03 120.084 203.326 119.932 203.71C119.78 204.094 119.704 204.534 119.704 205.03L118.9 205.462Z" fill="white"/>
<path d="M179.154 208.109C178.862 208.081 178.535 208.054 178.174 208.026C177.854 207.998 177.472 207.977 177.027 207.963C176.582 207.949 176.067 207.942 175.483 207.942C174.357 207.942 173.05 207.991 171.563 208.088C170.075 208.186 168.462 208.373 166.724 208.651C167.03 208.026 167.294 207.233 167.517 206.274C167.739 205.315 167.92 204.293 168.059 203.208C168.212 202.11 168.33 200.998 168.413 199.871C168.497 198.745 168.559 197.695 168.601 196.722C168.643 195.749 168.664 194.908 168.664 194.199C168.678 193.49 168.684 193.003 168.684 192.739C168.684 192.697 168.678 192.53 168.664 192.238C168.664 191.932 168.657 191.536 168.643 191.049C168.629 190.563 168.608 190.007 168.58 189.381C168.566 188.741 168.545 188.067 168.518 187.358C167.753 187.205 166.988 187.066 166.224 186.941C165.473 186.816 164.784 186.711 164.159 186.628C163.436 186.531 162.741 186.454 162.073 186.399C163.033 185.495 163.818 184.626 164.43 183.792C165.042 182.957 165.528 182.172 165.89 181.435C166.265 180.698 166.543 180.024 166.724 179.412C166.919 178.8 167.072 178.258 167.183 177.785C168.587 178.036 169.873 178.202 171.041 178.286C172.223 178.369 173.287 178.411 174.232 178.411C174.858 178.411 175.421 178.397 175.921 178.369C176.422 178.341 176.846 178.314 177.194 178.286C177.597 178.244 177.951 178.202 178.257 178.161C178.09 178.939 177.944 179.808 177.819 180.768C177.694 181.713 177.583 182.728 177.485 183.813C177.388 184.883 177.312 186.009 177.256 187.191C177.214 188.373 177.194 189.59 177.194 190.841C177.194 192.287 177.228 193.761 177.298 195.262C177.367 196.75 177.479 198.231 177.631 199.704C177.798 201.178 178 202.624 178.236 204.042C178.487 205.461 178.792 206.816 179.154 208.109ZM194.57 198.495C194.57 197.313 194.368 196.388 193.965 195.721C193.562 195.04 192.922 194.699 192.046 194.699C191.337 194.699 190.746 195.04 190.274 195.721C189.801 196.388 189.551 197.313 189.523 198.495C189.509 199.023 189.558 199.531 189.669 200.017C189.78 200.49 189.947 200.907 190.169 201.269C190.392 201.63 190.656 201.922 190.962 202.145C191.282 202.367 191.643 202.478 192.046 202.478C192.45 202.478 192.804 202.374 193.11 202.165C193.43 201.957 193.694 201.672 193.903 201.31C194.125 200.949 194.292 200.525 194.403 200.038C194.514 199.552 194.57 199.037 194.57 198.495ZM189.565 189.485C189.69 189.36 189.871 189.228 190.107 189.089C190.343 188.936 190.614 188.804 190.92 188.693C191.24 188.582 191.581 188.491 191.942 188.422C192.318 188.338 192.707 188.296 193.11 188.296C193.93 188.296 194.758 188.373 195.592 188.526C196.44 188.665 197.253 188.894 198.032 189.214C198.811 189.534 199.541 189.958 200.222 190.486C200.917 191.001 201.515 191.626 202.015 192.363C202.53 193.1 202.933 193.962 203.225 194.949C203.517 195.937 203.663 197.063 203.663 198.328C203.663 200.163 203.378 201.783 202.808 203.187C202.238 204.578 201.438 205.746 200.41 206.691C199.395 207.637 198.178 208.346 196.76 208.818C195.356 209.305 193.812 209.548 192.13 209.548C190.35 209.548 188.744 209.249 187.312 208.651C185.894 208.068 184.691 207.192 183.704 206.024C182.717 204.842 181.959 203.368 181.431 201.602C180.903 199.837 180.639 197.779 180.639 195.429C180.639 194.08 180.694 192.697 180.805 191.279C180.93 189.847 181.16 188.456 181.494 187.108C181.827 185.759 182.293 184.487 182.891 183.291C183.503 182.082 184.295 181.025 185.268 180.121C186.256 179.217 187.444 178.501 188.835 177.973C190.225 177.445 191.88 177.181 193.798 177.181C194.911 177.181 195.974 177.326 196.989 177.618C198.004 177.91 198.901 178.321 199.68 178.849C200.458 179.377 201.077 180.01 201.536 180.747C201.995 181.47 202.224 182.276 202.224 183.166C202.224 183.833 202.085 184.459 201.807 185.043C201.529 185.613 201.153 186.114 200.681 186.545C200.222 186.962 199.687 187.295 199.075 187.546C198.477 187.782 197.858 187.9 197.219 187.9C196.398 187.9 195.606 187.685 194.841 187.254C194.076 186.823 193.402 186.128 192.818 185.168C192.971 185.196 193.117 185.217 193.256 185.231C193.409 185.245 193.548 185.252 193.673 185.252C193.951 185.252 194.153 185.168 194.278 185.001C194.417 184.821 194.487 184.619 194.487 184.397C194.487 184.188 194.375 183.979 194.153 183.771C193.93 183.562 193.583 183.458 193.11 183.458C192.359 183.458 191.748 183.653 191.275 184.042C190.816 184.417 190.455 184.897 190.19 185.481C189.94 186.065 189.773 186.711 189.69 187.421C189.606 188.13 189.565 188.818 189.565 189.485Z" fill="#FEFB54"/>
<path d="M211.037 207.922C211.037 208.026 211.009 208.106 210.953 208.162C210.897 208.218 210.821 208.246 210.725 208.246H210.557C210.453 208.246 210.373 208.218 210.317 208.162C210.261 208.106 210.233 208.026 210.233 207.922V202.186C210.233 202.082 210.261 202.002 210.317 201.946C210.373 201.89 210.453 201.862 210.557 201.862H210.725C210.821 201.862 210.897 201.89 210.953 201.946C211.009 202.002 211.037 202.082 211.037 202.186V207.922ZM210.233 205.45C210.233 204.842 210.353 204.266 210.593 203.722C210.833 203.178 211.161 202.73 211.577 202.378C212.001 202.026 212.465 201.822 212.969 201.766C213.065 201.75 213.141 201.77 213.197 201.826C213.261 201.874 213.293 201.946 213.293 202.042V202.21C213.293 202.298 213.269 202.37 213.221 202.426C213.173 202.474 213.105 202.506 213.017 202.522C212.641 202.554 212.301 202.682 211.997 202.906C211.693 203.122 211.457 203.414 211.289 203.782C211.121 204.15 211.037 204.562 211.037 205.018L210.233 205.45ZM214.642 208.99C214.586 209.166 214.466 209.254 214.282 209.254H214.09C213.978 209.254 213.898 209.218 213.85 209.146C213.802 209.082 213.798 208.994 213.838 208.882L217.378 199.282C217.434 199.106 217.554 199.018 217.738 199.018H217.93C218.042 199.018 218.122 199.054 218.17 199.126C218.218 199.19 218.222 199.278 218.182 199.39L214.642 208.99ZM219.223 205.45C219.223 204.81 219.347 204.206 219.595 203.638C219.851 203.062 220.207 202.602 220.663 202.258C221.127 201.906 221.659 201.73 222.259 201.73C222.667 201.73 223.055 201.854 223.423 202.102C223.799 202.342 224.103 202.674 224.335 203.098C224.567 203.514 224.683 203.978 224.683 204.49V207.922C224.683 208.026 224.655 208.106 224.599 208.162C224.543 208.218 224.467 208.246 224.371 208.246H224.191C224.095 208.246 224.019 208.218 223.963 208.162C223.907 208.106 223.879 208.026 223.879 207.922V204.49C223.879 204.114 223.791 203.774 223.615 203.47C223.447 203.166 223.227 202.93 222.955 202.762C222.683 202.586 222.395 202.498 222.091 202.498C221.675 202.498 221.311 202.606 220.999 202.822C220.687 203.03 220.447 203.326 220.279 203.71C220.111 204.094 220.027 204.53 220.027 205.018L219.223 205.45ZM220.027 207.922C220.027 208.026 219.999 208.106 219.943 208.162C219.887 208.218 219.811 208.246 219.715 208.246H219.547C219.443 208.246 219.363 208.218 219.307 208.162C219.251 208.106 219.223 208.026 219.223 207.922V199.45C219.223 199.346 219.251 199.266 219.307 199.21C219.363 199.154 219.443 199.126 219.547 199.126H219.715C219.811 199.126 219.887 199.154 219.943 199.21C219.999 199.266 220.027 199.346 220.027 199.45V207.922Z" fill="white"/>
<path d="M44.9819 145.047H59.2859V146.071H44.9819V145.047ZM48.7419 149.863H55.5899V150.775H48.7419V149.863ZM48.7419 152.439H55.5899V153.415H48.7419V152.439ZM46.3579 142.791H57.8939V143.799H46.3579V142.791ZM45.8459 140.583H58.4059V141.591H45.8459V140.583ZM53.9419 143.111C54.2832 144.018 54.7312 144.866 55.2859 145.655C55.8512 146.445 56.5019 147.143 57.2379 147.751C57.9845 148.349 58.7952 148.818 59.6699 149.159C59.5845 149.234 59.4885 149.33 59.3819 149.447C59.2752 149.565 59.1739 149.687 59.0779 149.815C58.9925 149.933 58.9179 150.045 58.8539 150.151C57.9472 149.746 57.1099 149.213 56.3419 148.551C55.5845 147.89 54.9125 147.127 54.3259 146.263C53.7392 145.399 53.2592 144.461 52.8859 143.447L53.9419 143.111ZM48.0699 147.335H56.3099V153.895H55.0619V148.311H49.2379V153.959H48.0699V147.335ZM51.2699 139.255L52.4699 139.351C52.3739 140.386 52.1712 141.431 51.8619 142.487C51.5525 143.533 51.1152 144.546 50.5499 145.527C49.9952 146.509 49.2912 147.415 48.4379 148.247C47.5952 149.079 46.5872 149.794 45.4139 150.391C45.3712 150.285 45.3019 150.178 45.2059 150.071C45.1205 149.954 45.0245 149.842 44.9179 149.735C44.8219 149.618 44.7259 149.527 44.6299 149.463C45.7605 148.919 46.7312 148.258 47.5419 147.479C48.3525 146.701 49.0192 145.858 49.5419 144.951C50.0645 144.045 50.4645 143.106 50.7419 142.135C51.0192 141.165 51.1952 140.205 51.2699 139.255ZM66.3659 143.591H73.9499V144.599H66.3659V143.591ZM69.9179 145.319H71.0699V153.911H69.9179V145.319ZM66.5899 148.423C66.5792 148.338 66.5525 148.231 66.5099 148.103C66.4672 147.965 66.4192 147.831 66.3659 147.703C66.3125 147.565 66.2699 147.447 66.2379 147.351C66.3552 147.309 66.4779 147.202 66.6059 147.031C66.7339 146.85 66.8672 146.621 67.0059 146.343C67.0805 146.205 67.1872 145.986 67.3259 145.687C67.4752 145.389 67.6352 145.031 67.8059 144.615C67.9765 144.199 68.1419 143.757 68.3019 143.287C68.4725 142.807 68.6219 142.327 68.7499 141.847L69.9339 142.135C69.7099 142.807 69.4592 143.485 69.1819 144.167C68.9152 144.85 68.6325 145.501 68.3339 146.119C68.0352 146.727 67.7365 147.277 67.4379 147.767C67.4379 147.767 67.3952 147.789 67.3099 147.831C67.2245 147.874 67.1232 147.933 67.0059 148.007C66.8992 148.071 66.8032 148.141 66.7179 148.215C66.6325 148.29 66.5899 148.359 66.5899 148.423ZM66.5899 148.423V147.447L67.2779 147.111H74.3819V148.199H67.9979C67.6352 148.199 67.3259 148.221 67.0699 148.263C66.8245 148.295 66.6645 148.349 66.5899 148.423ZM65.6299 140.103H74.6859V143.159H73.5339V141.191H66.7499V143.159H65.6299V140.103ZM65.3899 150.087H75.0059V151.191H65.3899V150.087ZM61.5499 140.359H64.7979V150.823H61.5499V149.735H63.7899V141.447H61.5499V140.359ZM61.5339 144.999H64.2699V146.071H61.5339V144.999ZM60.8939 140.359H61.8859V152.119H60.8939V140.359ZM82.7259 139.479H84.0219V152.311C84.0219 152.749 83.9579 153.074 83.8299 153.287C83.7019 153.501 83.4939 153.655 83.2059 153.751C82.9072 153.847 82.5019 153.911 81.9899 153.943C81.4885 153.975 80.8645 153.986 80.1179 153.975C80.0965 153.869 80.0539 153.735 79.9899 153.575C79.9365 153.426 79.8779 153.277 79.8139 153.127C79.7499 152.978 79.6859 152.845 79.6219 152.727C80.0165 152.738 80.3952 152.743 80.7579 152.743C81.1205 152.754 81.4352 152.754 81.7019 152.743C81.9792 152.743 82.1712 152.743 82.2779 152.743C82.4379 152.733 82.5499 152.701 82.6139 152.647C82.6885 152.583 82.7259 152.471 82.7259 152.311V139.479ZM86.5819 143.559L87.7339 143.127C88.2139 143.874 88.6672 144.674 89.0939 145.527C89.5205 146.381 89.8939 147.218 90.2139 148.039C90.5445 148.861 90.7792 149.591 90.9179 150.231L89.6219 150.759C89.5045 150.119 89.2912 149.389 88.9819 148.567C88.6832 147.735 88.3205 146.887 87.8939 146.023C87.4779 145.149 87.0405 144.327 86.5819 143.559ZM78.5339 143.239L79.8779 143.463C79.6965 144.242 79.4725 145.063 79.2059 145.927C78.9392 146.781 78.6192 147.607 78.2459 148.407C77.8725 149.197 77.4405 149.89 76.9499 150.487C76.8539 150.413 76.7365 150.338 76.5979 150.263C76.4699 150.178 76.3312 150.098 76.1819 150.023C76.0432 149.949 75.9205 149.89 75.8139 149.847C76.2939 149.282 76.7099 148.621 77.0619 147.863C77.4139 147.106 77.7125 146.327 77.9579 145.527C78.2139 144.717 78.4059 143.954 78.5339 143.239ZM102.238 141.943L103.406 142.343C102.766 143.559 102.025 144.717 101.182 145.815C100.35 146.903 99.4539 147.906 98.4939 148.823C97.5445 149.73 96.5579 150.53 95.5339 151.223C95.4592 151.138 95.3632 151.037 95.2459 150.919C95.1392 150.802 95.0219 150.685 94.8939 150.567C94.7765 150.45 94.6699 150.359 94.5739 150.295C95.6085 149.666 96.6005 148.919 97.5499 148.055C98.4992 147.191 99.3685 146.242 100.158 145.207C100.958 144.162 101.651 143.074 102.238 141.943ZM95.2299 143.895L96.0779 143.143C96.8032 143.591 97.5499 144.093 98.3179 144.647C99.0965 145.202 99.8539 145.773 100.59 146.359C101.326 146.946 101.998 147.527 102.606 148.103C103.214 148.669 103.726 149.202 104.142 149.703L103.182 150.615C102.787 150.114 102.291 149.575 101.694 148.999C101.107 148.413 100.457 147.821 99.7419 147.223C99.0272 146.615 98.2805 146.029 97.5019 145.463C96.7339 144.898 95.9765 144.375 95.2299 143.895ZM92.3979 140.231H105.758V141.399H93.5979V154.007H92.3979V140.231ZM93.1659 151.927H106.126V153.079H93.1659V151.927Z" fill="white"/>
<line x1="48.1172" y1="224.773" x2="341.881" y2="224.773" stroke="white" stroke-opacity="0.6" stroke-width="8" stroke-linecap="round"/>
<line x1="48.1172" y1="224.773" x2="277.906" y2="224.773" stroke="#CFFFC8" stroke-opacity="0.6" stroke-width="8" stroke-linecap="round"/>
<circle cx="277" cy="223.621" r="8.17578" fill="#FEFB54"/>
<path d="M324.156 57.828H321.495C321.305 57.186 320.913 56.6229 320.376 56.2235C319.839 55.8241 319.186 55.6099 318.517 55.6133C317.848 55.6096 317.195 55.8236 316.658 56.2231C316.121 56.6225 315.728 57.1858 315.538 57.828H301.598C301.49 57.8267 301.383 57.8468 301.283 57.887C301.182 57.9272 301.091 57.9867 301.014 58.0622C300.937 58.1377 300.876 58.2276 300.833 58.3269C300.791 58.4261 300.769 58.5328 300.768 58.6407C300.769 58.7486 300.791 58.8552 300.833 58.9545C300.876 59.0537 300.937 59.1437 301.014 59.2191C301.091 59.2946 301.182 59.3542 301.283 59.3943C301.383 59.4345 301.49 59.4546 301.598 59.4533H315.537C315.726 60.096 316.12 60.6595 316.658 61.059C317.195 61.4585 317.849 61.6723 318.519 61.668C319.188 61.6714 319.84 61.4573 320.377 61.0578C320.914 60.6584 321.307 60.0953 321.496 59.4533H324.157C324.265 59.4544 324.372 59.4342 324.472 59.394C324.572 59.3537 324.663 59.2941 324.74 59.2187C324.817 59.1432 324.878 59.0533 324.921 58.9541C324.963 58.855 324.985 58.7484 324.986 58.6407C324.985 58.5328 324.963 58.4261 324.921 58.3269C324.878 58.2276 324.817 58.1377 324.74 58.0622C324.663 57.9867 324.571 57.9272 324.471 57.887C324.371 57.8468 324.264 57.8267 324.156 57.828ZM318.517 60.0427C318.141 60.0462 317.78 59.9007 317.511 59.6379C317.242 59.375 317.089 59.0164 317.084 58.6407C317.084 57.867 317.727 57.2387 318.517 57.2387C319.306 57.2387 319.949 57.867 319.949 58.6407C319.949 59.413 319.306 60.0427 318.517 60.0427ZM324.155 66.3045C324.263 66.3031 324.37 66.323 324.47 66.3631C324.571 66.4032 324.662 66.4627 324.739 66.5382C324.816 66.6137 324.878 66.7037 324.92 66.8031C324.963 66.9024 324.985 67.0092 324.986 67.1172C324.985 67.2251 324.963 67.3317 324.921 67.431C324.878 67.5302 324.817 67.6202 324.74 67.6957C324.663 67.7712 324.571 67.8307 324.471 67.8709C324.371 67.9111 324.264 67.9311 324.156 67.9299H310.217C310.028 68.5723 309.634 69.1357 309.097 69.5352C308.559 69.9346 307.906 70.1485 307.237 70.1445C306.567 70.1482 305.915 69.9342 305.377 69.5348C304.84 69.1353 304.447 68.572 304.258 67.9299H301.598C301.49 67.9311 301.383 67.9111 301.283 67.8709C301.182 67.8307 301.091 67.7712 301.014 67.6957C300.937 67.6202 300.876 67.5302 300.833 67.431C300.791 67.3317 300.769 67.2251 300.768 67.1172C300.769 67.0093 300.791 66.9027 300.833 66.8034C300.876 66.7041 300.937 66.6142 301.014 66.5387C301.091 66.4632 301.182 66.4037 301.283 66.3635C301.383 66.3233 301.49 66.3033 301.598 66.3045H304.259C304.448 65.6623 304.841 65.0991 305.379 64.6996C305.916 64.3002 306.568 64.0862 307.238 64.0899C308.655 64.0899 309.852 65.029 310.216 66.3045H324.155ZM307.239 68.5192C308.028 68.5192 308.671 67.8908 308.671 67.1172C308.671 66.3435 308.028 65.7152 307.239 65.7152C306.45 65.7152 305.806 66.3435 305.806 67.1172C305.806 67.8908 306.45 68.5192 307.239 68.5192ZM324.157 75.992C324.265 75.9907 324.372 76.0108 324.473 76.051C324.573 76.0912 324.664 76.1507 324.741 76.2262C324.818 76.3017 324.88 76.3916 324.922 76.4909C324.964 76.5901 324.987 76.6968 324.988 76.8047C324.987 76.9125 324.964 77.0192 324.922 77.1184C324.88 77.2177 324.818 77.3077 324.741 77.3831C324.664 77.4586 324.573 77.5182 324.473 77.5583C324.372 77.5985 324.265 77.6186 324.157 77.6173H321.496C321.307 78.2595 320.914 78.8228 320.377 79.2222C319.839 79.6217 319.187 79.8357 318.517 79.832C317.848 79.8357 317.195 79.6217 316.658 79.2222C316.121 78.8228 315.728 78.2595 315.538 77.6173H301.598C301.49 77.6186 301.383 77.5985 301.283 77.5583C301.182 77.5182 301.091 77.4586 301.014 77.3831C300.937 77.3077 300.876 77.2177 300.833 77.1184C300.791 77.0192 300.769 76.9125 300.768 76.8047C300.769 76.6968 300.791 76.5901 300.833 76.4909C300.876 76.3916 300.937 76.3017 301.014 76.2262C301.091 76.1507 301.182 76.0912 301.283 76.051C301.383 76.0108 301.49 75.9907 301.598 75.992H315.537C315.726 75.3496 316.119 74.7861 316.657 74.3867C317.195 73.9872 317.847 73.7733 318.517 73.7773C319.934 73.7773 321.131 74.7165 321.495 75.992H324.156H324.157ZM318.519 78.2066C319.307 78.2066 319.95 77.5783 319.95 76.8047C319.95 76.031 319.307 75.4027 318.519 75.4027C317.729 75.4027 317.086 76.031 317.086 76.8047C317.086 77.5783 317.729 78.2066 318.519 78.2066Z" fill="white"/>
<path d="M359.494 70.9948V64.9336" stroke="white" stroke-width="1.6" stroke-linecap="round"/>
<path d="M353.539 56.2695H365.449" stroke="white" stroke-width="1.6" stroke-linecap="round"/>
<circle cx="359.494" cy="69.807" r="9.70619" stroke="white" stroke-width="1.6"/>
<rect x="123.375" y="690.684" width="143.25" height="63.8203" rx="31.9102" stroke="white"/>
<path d="M183.842 720.82H206.16" stroke="#FEFB54" stroke-width="4" stroke-linecap="round"/>
<path d="M195.002 709.656V731.975" stroke="#FEFB54" stroke-width="4" stroke-linecap="round"/>
</g>
<defs>
<clipPath id="clip0_337_2079">
<rect width="390" height="844" rx="16" fill="white"/>
</clipPath>
<clipPath id="clip1_337_2079">
<rect width="390" height="47" fill="white"/>
</clipPath>
</defs>
</svg>
