<svg width="390" height="844" viewBox="0 0 390 844" fill="none" xmlns="http://www.w3.org/2000/svg">
<g clip-path="url(#clip0_324_10121)">
<rect width="390" height="844" rx="12" fill="#186051"/>
<rect x="128" y="831" width="134" height="5" rx="2.5" fill="black"/>
<path d="M69.1662 198.635C68.3142 198.554 67.3608 198.473 66.306 198.391C65.3729 198.31 64.2572 198.249 62.959 198.209C61.6607 198.168 60.1596 198.148 58.4557 198.148C55.1695 198.148 51.356 198.29 47.015 198.574C42.674 198.858 37.9679 199.406 32.8966 200.217C33.7892 198.391 34.56 196.079 35.2091 193.28C35.8582 190.48 36.3857 187.498 36.7914 184.334C37.2376 181.129 37.5825 177.883 37.8259 174.597C38.0693 171.311 38.2519 168.248 38.3736 165.408C38.4953 162.568 38.5561 160.114 38.5561 158.045C38.5967 155.976 38.617 154.556 38.617 153.785C38.617 153.663 38.5967 153.176 38.5561 152.324C38.5561 151.432 38.5359 150.276 38.4953 148.856C38.4547 147.436 38.3939 145.813 38.3127 143.987C38.2722 142.121 38.2113 140.153 38.1302 138.084C35.8988 137.638 33.6675 137.232 31.4361 136.867C29.2454 136.502 27.2371 136.198 25.4115 135.954C23.3019 135.67 21.2734 135.447 19.326 135.285C22.1253 132.648 24.4175 130.112 26.2026 127.678C27.9877 125.244 29.4076 122.952 30.4624 120.801C31.5578 118.651 32.3692 116.684 32.8966 114.899C33.4646 113.113 33.9109 111.531 34.2355 110.152C38.333 110.882 42.0857 111.369 45.4936 111.612C48.942 111.856 52.0456 111.978 54.8044 111.978C56.63 111.978 58.2731 111.937 59.7336 111.856C61.1942 111.775 62.4315 111.694 63.4458 111.612C64.6223 111.491 65.6569 111.369 66.5494 111.247C66.0626 113.519 65.6366 116.055 65.2714 118.854C64.9063 121.613 64.5818 124.574 64.2978 127.739C64.0138 130.863 63.7906 134.149 63.6284 137.597C63.5067 141.046 63.4458 144.596 63.4458 148.247C63.4458 152.466 63.5472 156.767 63.7501 161.148C63.9529 165.489 64.2775 169.81 64.7237 174.11C65.2106 178.411 65.7989 182.63 66.4885 186.768C67.2188 190.906 68.1113 194.862 69.1662 198.635ZM144.414 157.01C144.414 160.58 144.11 164.171 143.501 167.781C142.933 171.352 142.041 174.8 140.824 178.127C139.647 181.413 138.106 184.496 136.199 187.377C134.333 190.217 132.101 192.691 129.505 194.801C126.949 196.911 124.007 198.574 120.681 199.791C117.354 201.008 113.642 201.617 109.544 201.617C105.447 201.617 101.755 201.069 98.4687 199.974C95.1826 198.878 92.2412 197.357 89.6448 195.41C87.0483 193.422 84.8169 191.048 82.9507 188.29C81.0845 185.531 79.5429 182.508 78.3258 179.222C77.1087 175.895 76.1958 172.366 75.5873 168.633C75.0193 164.86 74.7353 160.986 74.7353 157.01C74.7353 149.829 75.6279 143.297 77.4129 137.415C79.2386 131.492 81.7133 126.42 84.8372 122.201C88.0017 117.982 91.6935 114.716 95.9128 112.404C100.173 110.05 104.716 108.874 109.544 108.874C114.94 108.874 119.788 109.929 124.089 112.038C128.389 114.148 132.04 117.252 135.043 121.349C138.045 125.406 140.357 130.437 141.98 136.441C143.603 142.405 144.414 149.261 144.414 157.01ZM119.768 154.272C119.768 150.783 119.504 147.659 118.977 144.9C118.49 142.141 117.78 139.808 116.847 137.902C115.954 135.954 114.839 134.474 113.5 133.459C112.202 132.445 110.741 131.938 109.118 131.938C107.577 131.938 106.157 132.587 104.858 133.885C103.601 135.143 102.505 136.827 101.572 138.936C100.68 141.005 99.9698 143.379 99.4424 146.056C98.915 148.734 98.6513 151.472 98.6513 154.272C98.6513 157.517 98.8541 160.459 99.2598 163.096C99.7061 165.733 100.355 167.984 101.207 169.851C102.059 171.717 103.134 173.157 104.433 174.171C105.771 175.185 107.333 175.693 109.118 175.693C110.944 175.693 112.506 175.206 113.804 174.232C115.143 173.218 116.259 171.798 117.151 169.972C118.044 168.106 118.693 165.854 119.099 163.217C119.545 160.54 119.768 157.558 119.768 154.272Z" fill="#FEFB54"/>
<path d="M24.4597 255V253.336L38.6859 238.278C44.8145 231.844 46.4784 229.127 46.4784 225.411V225.355C46.4507 220.253 42.291 216.37 36.6892 216.37C30.8934 216.37 26.7337 220.28 26.4841 225.438L26.4564 225.771H24.3211L24.3488 225.411C24.6261 219.06 29.701 214.401 36.6615 214.401C43.5666 214.401 48.6692 219.199 48.6692 225.3V225.355C48.6415 229.543 46.6725 232.787 39.9338 239.859L27.5934 252.865V253.003H50.1667V255H24.4597ZM69.1072 255.582C60.2886 255.582 54.9642 247.651 54.9642 235.033V234.95C54.9642 222.305 60.2886 214.401 69.1072 214.401C77.9257 214.401 83.2779 222.36 83.2779 234.95V235.033C83.2779 247.734 77.9257 255.582 69.1072 255.582ZM69.1072 253.613C76.5946 253.613 81.0594 246.431 81.0594 235.033V234.95C81.0594 223.497 76.5946 216.37 69.1072 216.37C61.6197 216.37 57.155 223.58 57.155 234.95V235.033C57.155 246.431 61.6197 253.613 69.1072 253.613ZM89.0737 255V253.336L103.3 238.278C109.429 231.844 111.092 229.127 111.092 225.411V225.355C111.065 220.253 106.905 216.37 101.303 216.37C95.5074 216.37 91.3477 220.28 91.0981 225.438L91.0704 225.771H88.9351L88.9628 225.411C89.2401 219.06 94.315 214.401 101.276 214.401C108.181 214.401 113.283 219.199 113.283 225.3V225.355C113.255 229.543 111.287 232.787 104.548 239.859L92.2074 252.865V253.003H114.781V255H89.0737ZM132.667 255.582C125.762 255.582 120.299 251.145 119.634 245.46L119.606 245.211H121.797L121.824 245.405C122.462 249.981 127.038 253.613 132.695 253.613C139.323 253.613 144.231 248.816 144.231 242.299V242.244C144.231 235.838 139.378 230.929 132.972 230.929C129.201 230.929 125.846 232.51 123.599 235.311C123.156 235.782 122.767 236.337 122.435 236.919H120.299L122.629 214.984H143.843V216.98H124.514L122.601 234.146H122.712C124.847 230.957 128.868 228.988 133.222 228.988C140.765 228.988 146.422 234.645 146.422 242.188V242.244C146.422 249.953 140.599 255.582 132.667 255.582Z" fill="#CFFFC8" fill-opacity="0.6"/>
<path d="M255.869 255V240.328H255.822L251.346 243.445V241.324L255.846 238.09H257.908V255H255.869ZM268.092 255.281C264.201 255.281 261.893 251.918 261.893 246.551V246.527C261.893 241.16 264.201 237.809 268.092 237.809C271.982 237.809 274.314 241.16 274.314 246.527V246.551C274.314 251.918 271.982 255.281 268.092 255.281ZM268.092 253.441C270.67 253.441 272.193 250.793 272.193 246.551V246.527C272.193 242.285 270.67 239.66 268.092 239.66C265.514 239.66 264.014 242.285 264.014 246.527V246.551C264.014 250.793 265.514 253.441 268.092 253.441ZM277.49 255.164C276.74 255.164 276.154 254.578 276.154 253.828C276.154 253.078 276.74 252.492 277.49 252.492C278.24 252.492 278.826 253.078 278.826 253.828C278.826 254.578 278.24 255.164 277.49 255.164ZM287.334 255.281C283.443 255.281 281.135 251.918 281.135 246.551V246.527C281.135 241.16 283.443 237.809 287.334 237.809C291.225 237.809 293.557 241.16 293.557 246.527V246.551C293.557 251.918 291.225 255.281 287.334 255.281ZM287.334 253.441C289.912 253.441 291.436 250.793 291.436 246.551V246.527C291.436 242.285 289.912 239.66 287.334 239.66C284.756 239.66 283.256 242.285 283.256 246.527V246.551C283.256 250.793 284.756 253.441 287.334 253.441ZM301.689 255.281C298.197 255.281 295.936 253.336 295.713 250.664L295.701 250.523H297.729L297.74 250.641C297.916 252.305 299.439 253.453 301.689 253.453C303.904 253.453 305.416 252.211 305.416 250.418V250.395C305.416 248.32 303.928 247.16 301.561 247.16H299.439V245.379H301.467C303.482 245.379 304.889 244.137 304.889 242.449V242.426C304.889 240.656 303.729 239.637 301.666 239.637C299.674 239.637 298.256 240.691 298.08 242.402L298.068 242.52H296.041L296.053 242.402C296.322 239.648 298.502 237.809 301.666 237.809C304.889 237.809 307.01 239.602 307.01 242.168V242.191C307.01 244.277 305.533 245.707 303.424 246.152V246.199C305.885 246.41 307.561 247.945 307.561 250.348V250.371C307.561 253.195 305.076 255.281 301.689 255.281ZM310.221 249.094V247.195H317.721V249.094H310.221ZM324.096 255V240.328H324.049L319.572 243.445V241.324L324.072 238.09H326.135V255H324.096ZM336.318 255.281C332.428 255.281 330.119 251.918 330.119 246.551V246.527C330.119 241.16 332.428 237.809 336.318 237.809C340.209 237.809 342.541 241.16 342.541 246.527V246.551C342.541 251.918 340.209 255.281 336.318 255.281ZM336.318 253.441C338.896 253.441 340.42 250.793 340.42 246.551V246.527C340.42 242.285 338.896 239.66 336.318 239.66C333.74 239.66 332.24 242.285 332.24 246.527V246.551C332.24 250.793 333.74 253.441 336.318 253.441ZM345.717 255.164C344.967 255.164 344.381 254.578 344.381 253.828C344.381 253.078 344.967 252.492 345.717 252.492C346.467 252.492 347.053 253.078 347.053 253.828C347.053 254.578 346.467 255.164 345.717 255.164ZM349.666 255V253.547L355.619 247.336C357.904 244.957 358.432 244.043 358.432 242.637V242.613C358.42 240.891 357.119 239.648 355.279 239.648C353.17 239.648 351.6 241.102 351.6 242.918V242.977H349.561V242.906C349.561 239.977 352.092 237.809 355.244 237.809C358.303 237.809 360.541 239.859 360.541 242.508V242.531C360.541 244.383 359.686 245.777 356.58 248.953L352.561 253.078V253.125H360.822V255H349.666ZM367.572 255V240.328H367.525L363.049 243.445V241.324L367.549 238.09H369.611V255H367.572Z" fill="white"/>
<path d="M262.598 75.6992C268.144 75.6992 272.641 71.2028 272.641 65.6563C272.641 60.1097 268.144 55.6133 262.598 55.6133C257.051 55.6133 252.555 60.1097 252.555 65.6563C252.555 71.2028 257.051 75.6992 262.598 75.6992Z" stroke="white" stroke-width="1.6" stroke-linejoin="round"/>
<path d="M271.455 74.5195L276.768 79.8323" stroke="white" stroke-width="1.6" stroke-linecap="round" stroke-linejoin="round"/>
<path d="M27.5 61.2227L21 67.7227L27.5 74.2227" stroke="white" stroke-opacity="0.8" stroke-width="2" stroke-linecap="round" stroke-linejoin="round"/>
<path d="M324.156 57.828H321.495C321.305 57.186 320.913 56.6229 320.376 56.2235C319.839 55.8241 319.186 55.6099 318.517 55.6133C317.848 55.6096 317.195 55.8236 316.658 56.2231C316.121 56.6225 315.728 57.1858 315.538 57.828H301.598C301.49 57.8267 301.383 57.8468 301.283 57.887C301.182 57.9272 301.091 57.9867 301.014 58.0622C300.937 58.1377 300.876 58.2276 300.833 58.3269C300.791 58.4261 300.769 58.5328 300.768 58.6407C300.769 58.7486 300.791 58.8552 300.833 58.9545C300.876 59.0537 300.937 59.1437 301.014 59.2191C301.091 59.2946 301.182 59.3542 301.283 59.3943C301.383 59.4345 301.49 59.4546 301.598 59.4533H315.537C315.726 60.096 316.12 60.6595 316.658 61.059C317.195 61.4585 317.849 61.6723 318.519 61.668C319.188 61.6714 319.84 61.4573 320.377 61.0578C320.914 60.6584 321.307 60.0953 321.496 59.4533H324.157C324.265 59.4544 324.372 59.4342 324.472 59.394C324.572 59.3537 324.663 59.2941 324.74 59.2187C324.817 59.1432 324.878 59.0533 324.921 58.9541C324.963 58.855 324.985 58.7484 324.986 58.6407C324.985 58.5328 324.963 58.4261 324.921 58.3269C324.878 58.2276 324.817 58.1377 324.74 58.0622C324.663 57.9867 324.571 57.9272 324.471 57.887C324.371 57.8468 324.264 57.8267 324.156 57.828ZM318.517 60.0427C318.141 60.0462 317.78 59.9007 317.511 59.6379C317.242 59.375 317.089 59.0164 317.084 58.6407C317.084 57.867 317.727 57.2387 318.517 57.2387C319.306 57.2387 319.949 57.867 319.949 58.6407C319.949 59.413 319.306 60.0427 318.517 60.0427ZM324.155 66.3045C324.263 66.3031 324.37 66.323 324.47 66.3631C324.571 66.4032 324.662 66.4627 324.739 66.5382C324.816 66.6137 324.878 66.7037 324.92 66.8031C324.963 66.9024 324.985 67.0092 324.986 67.1172C324.985 67.2251 324.963 67.3317 324.921 67.431C324.878 67.5302 324.817 67.6202 324.74 67.6957C324.663 67.7712 324.571 67.8307 324.471 67.8709C324.371 67.9111 324.264 67.9311 324.156 67.9299H310.217C310.028 68.5723 309.634 69.1357 309.097 69.5352C308.559 69.9346 307.906 70.1485 307.237 70.1445C306.567 70.1482 305.915 69.9342 305.377 69.5348C304.84 69.1353 304.447 68.572 304.258 67.9299H301.598C301.49 67.9311 301.383 67.9111 301.283 67.8709C301.182 67.8307 301.091 67.7712 301.014 67.6957C300.937 67.6202 300.876 67.5302 300.833 67.431C300.791 67.3317 300.769 67.2251 300.768 67.1172C300.769 67.0093 300.791 66.9027 300.833 66.8034C300.876 66.7041 300.937 66.6142 301.014 66.5387C301.091 66.4632 301.182 66.4037 301.283 66.3635C301.383 66.3233 301.49 66.3033 301.598 66.3045H304.259C304.448 65.6623 304.841 65.0991 305.379 64.6996C305.916 64.3002 306.568 64.0862 307.238 64.0899C308.655 64.0899 309.852 65.029 310.216 66.3045H324.155ZM307.239 68.5192C308.028 68.5192 308.671 67.8908 308.671 67.1172C308.671 66.3435 308.028 65.7152 307.239 65.7152C306.45 65.7152 305.806 66.3435 305.806 67.1172C305.806 67.8908 306.45 68.5192 307.239 68.5192ZM324.157 75.992C324.265 75.9907 324.372 76.0108 324.473 76.051C324.573 76.0912 324.664 76.1507 324.741 76.2262C324.818 76.3017 324.88 76.3916 324.922 76.4909C324.964 76.5901 324.987 76.6968 324.988 76.8047C324.987 76.9125 324.964 77.0192 324.922 77.1184C324.88 77.2177 324.818 77.3077 324.741 77.3831C324.664 77.4586 324.573 77.5182 324.473 77.5583C324.372 77.5985 324.265 77.6186 324.157 77.6173H321.496C321.307 78.2595 320.914 78.8228 320.377 79.2222C319.839 79.6217 319.187 79.8357 318.517 79.832C317.848 79.8357 317.195 79.6217 316.658 79.2222C316.121 78.8228 315.728 78.2595 315.538 77.6173H301.598C301.49 77.6186 301.383 77.5985 301.283 77.5583C301.182 77.5182 301.091 77.4586 301.014 77.3831C300.937 77.3077 300.876 77.2177 300.833 77.1184C300.791 77.0192 300.769 76.9125 300.768 76.8047C300.769 76.6968 300.791 76.5901 300.833 76.4909C300.876 76.3916 300.937 76.3017 301.014 76.2262C301.091 76.1507 301.182 76.0912 301.283 76.051C301.383 76.0108 301.49 75.9907 301.598 75.992H315.537C315.726 75.3496 316.119 74.7861 316.657 74.3867C317.195 73.9872 317.847 73.7733 318.517 73.7773C319.934 73.7773 321.131 74.7165 321.495 75.992H324.156H324.157ZM318.519 78.2066C319.307 78.2066 319.95 77.5783 319.95 76.8047C319.95 76.031 319.307 75.4027 318.519 75.4027C317.729 75.4027 317.086 76.031 317.086 76.8047C317.086 77.5783 317.729 78.2066 318.519 78.2066Z" fill="white"/>
<path d="M359.494 70.9948V64.9336" stroke="white" stroke-width="1.6" stroke-linecap="round"/>
<path d="M353.539 56.2695H365.449" stroke="white" stroke-width="1.6" stroke-linecap="round"/>
<circle cx="359.494" cy="69.807" r="9.70619" stroke="white" stroke-width="1.6"/>
<circle cx="43.2656" cy="347.172" r="22.7656" stroke="white"/>
<circle cx="43.2656" cy="448.234" r="23.2656" fill="#FEFB54"/>
<circle cx="43.2656" cy="549.297" r="23.2656" fill="#CFFFC8" fill-opacity="0.6"/>
<circle cx="43.2656" cy="397.703" r="23.2656" fill="#FEFB54"/>
<circle cx="43.2656" cy="498.766" r="23.2656" fill="#CFFFC8" fill-opacity="0.6"/>
<circle cx="93.7968" cy="347.172" r="22.7656" stroke="white"/>
<circle cx="93.7968" cy="448.234" r="23.2656" fill="#FEFB54"/>
<circle cx="93.7968" cy="549.297" r="23.2656" fill="#CFFFC8" fill-opacity="0.6"/>
<circle cx="93.7968" cy="397.703" r="23.2656" fill="#FEFB54"/>
<circle cx="93.7968" cy="498.766" r="23.2656" fill="#CFFFC8" fill-opacity="0.6"/>
<circle cx="144.328" cy="347.172" r="22.7656" stroke="white"/>
<circle cx="144.328" cy="448.234" r="23.2656" fill="#CFFFC8" fill-opacity="0.6"/>
<circle cx="144.328" cy="549.297" r="23.2656" fill="#CFFFC8" fill-opacity="0.6"/>
<circle cx="144.328" cy="397.703" r="23.2656" fill="#FEFB54"/>
<circle cx="144.328" cy="498.766" r="23.2656" fill="#CFFFC8" fill-opacity="0.6"/>
<circle cx="194.859" cy="347.172" r="23.2656" fill="#CFFFC8" fill-opacity="0.6"/>
<circle cx="194.859" cy="448.234" r="23.2656" fill="#CFFFC8" fill-opacity="0.6"/>
<circle cx="194.859" cy="549.297" r="23.2656" fill="#CFFFC8" fill-opacity="0.6"/>
<circle cx="194.859" cy="397.703" r="23.2656" fill="#FEFB54"/>
<circle cx="194.859" cy="498.766" r="23.2656" fill="#CFFFC8" fill-opacity="0.6"/>
<circle cx="245.391" cy="347.172" r="22.7656" fill="#CFFFC8" fill-opacity="0.6" stroke="#FEFB54"/>
<circle cx="245.391" cy="448.234" r="23.2656" fill="#CFFFC8" fill-opacity="0.6"/>
<circle cx="245.391" cy="549.297" r="23.2656" fill="#CFFFC8" fill-opacity="0.6"/>
<circle cx="245.391" cy="397.703" r="23.2656" fill="#FEFB54"/>
<circle cx="245.391" cy="498.766" r="23.2656" fill="#CFFFC8" fill-opacity="0.6"/>
<circle cx="295.922" cy="347.172" r="23.2656" fill="#FEFB54"/>
<circle cx="295.922" cy="448.234" r="23.2656" fill="#CFFFC8" fill-opacity="0.6"/>
<circle cx="295.922" cy="549.297" r="22.7656" stroke="white"/>
<circle cx="295.922" cy="397.703" r="23.2656" fill="#FEFB54"/>
<circle cx="295.922" cy="498.766" r="23.2656" fill="#CFFFC8" fill-opacity="0.6"/>
<circle cx="346.453" cy="347.172" r="23.2656" fill="#FEFB54"/>
<circle cx="346.453" cy="448.234" r="23.2656" fill="#CFFFC8" fill-opacity="0.6"/>
<circle cx="346.453" cy="549.297" r="22.7656" stroke="white"/>
<circle cx="346.453" cy="397.703" r="23.2656" fill="#FEFB54"/>
<circle cx="346.453" cy="498.766" r="23.2656" fill="#CFFFC8" fill-opacity="0.6"/>
<path d="M88.9082 315.586V304.312H90.5332L94.4395 313.812H94.4863L98.3926 304.312H100.018V315.586H98.7051V306.875H98.6582L95.0566 315.586H93.8691L90.2676 306.875H90.2207V315.586H88.9082Z" fill="white"/>
<path d="M144.957 315.586V305.578H141.402V304.312H149.918V305.578H146.363V315.586H144.957Z" fill="white"/>
<path d="M193.389 315.586L190.318 304.312H191.787L194.061 313.57H194.092L196.646 304.312H198.068L200.623 313.57H200.654L202.928 304.312H204.396L201.326 315.586H199.998L197.373 306.555H197.342L194.717 315.586H193.389Z" fill="white"/>
<path d="M248.352 315.586V305.578H244.797V304.312H253.312V305.578H249.758V315.586H248.352Z" fill="white"/>
<path d="M294.619 315.586V304.312H301.463V305.578H296.025V309.453H301.018V310.703H296.025V315.586H294.619Z" fill="white"/>
<path d="M346.48 315.773C344.043 315.773 342.395 314.578 342.254 312.648L342.246 312.539H343.652L343.668 312.648C343.832 313.781 344.926 314.477 346.559 314.477C348.184 314.477 349.207 313.742 349.207 312.578V312.57C349.207 311.578 348.559 311.023 347.012 310.68L345.762 310.406C343.559 309.922 342.527 308.93 342.527 307.281V307.273C342.535 305.422 344.176 304.125 346.496 304.125C348.699 304.125 350.309 305.398 350.434 307.242L350.441 307.359H349.035L349.02 307.25C348.848 306.102 347.887 305.422 346.457 305.422C344.949 305.43 343.965 306.148 343.965 307.234V307.242C343.965 308.164 344.645 308.742 346.113 309.062L347.363 309.336C349.676 309.844 350.645 310.781 350.645 312.5V312.508C350.645 314.508 349.059 315.773 346.48 315.773Z" fill="white"/>
<path d="M43.2969 315.773C40.8594 315.773 39.2109 314.578 39.0703 312.648L39.0625 312.539H40.4688L40.4844 312.648C40.6484 313.781 41.7422 314.477 43.375 314.477C45 314.477 46.0234 313.742 46.0234 312.578V312.57C46.0234 311.578 45.375 311.023 43.8281 310.68L42.5781 310.406C40.375 309.922 39.3438 308.93 39.3438 307.281V307.273C39.3516 305.422 40.9922 304.125 43.3125 304.125C45.5156 304.125 47.125 305.398 47.25 307.242L47.2578 307.359H45.8516L45.8359 307.25C45.6641 306.102 44.7031 305.422 43.2734 305.422C41.7656 305.43 40.7812 306.148 40.7812 307.234V307.242C40.7812 308.164 41.4609 308.742 42.9297 309.062L44.1797 309.336C46.4922 309.844 47.4609 310.781 47.4609 312.5V312.508C47.4609 314.508 45.875 315.773 43.2969 315.773Z" fill="white"/>
<rect x="123.375" y="690.461" width="143.25" height="63.8203" rx="31.9102" stroke="white"/>
<path d="M175.998 720.371C174.893 720.371 173.998 721.267 173.998 722.371C173.998 723.476 174.893 724.371 175.998 724.371L175.998 722.371L175.998 720.371ZM215.418 723.785C216.199 723.004 216.199 721.738 215.418 720.957L202.69 708.229C201.909 707.448 200.643 707.448 199.862 708.229C199.081 709.01 199.081 710.276 199.862 711.057L211.175 722.371L199.862 733.685C199.081 734.466 199.081 735.732 199.862 736.513C200.643 737.294 201.909 737.294 202.69 736.513L215.418 723.785ZM175.998 722.371L175.998 724.371L214.004 724.371L214.004 722.371L214.004 720.371L175.998 720.371L175.998 722.371Z" fill="#FEFB54"/>
<g clip-path="url(#clip1_324_10121)">
<path d="M117.768 -2H272.184V13C272.184 22.3888 264.572 30 255.184 30H134.768C125.379 30 117.768 22.3888 117.768 13V-2Z" fill="black"/>
<path d="M118 -2H113C113 -2 113 -2 113 -2C115.651 -2 117.799 0.148747 117.799 2.79934C117.799 2.86656 117.798 2.93345 117.795 3H118V-2Z" fill="black"/>
<path d="M272 -2H277C277 -2 277 -2 277 -2C274.349 -2 272.201 0.148747 272.201 2.79934C272.201 2.86656 272.202 2.93345 272.205 3H272V-2Z" fill="black"/>
<path d="M41.8786 19.7231C44.4352 19.7231 46.6599 21.541 46.6599 25.8574V25.874C46.6599 29.9082 44.842 32.2988 41.8288 32.2988C39.6291 32.2988 37.9855 30.9956 37.6037 29.1611L37.5871 29.0698H39.6955L39.7204 29.1528C40.0358 29.9912 40.7746 30.5391 41.8288 30.5391C43.7297 30.5391 44.5349 28.6797 44.6262 26.3887C44.6262 26.2974 44.6345 26.2061 44.6345 26.1147H44.4684C44.0285 27.061 42.9826 27.8994 41.3391 27.8994C39.0397 27.8994 37.4294 26.2227 37.4294 23.9482V23.9316C37.4294 21.4995 39.2805 19.7231 41.8786 19.7231ZM41.8703 26.2559C43.2233 26.2559 44.2609 25.2764 44.2609 23.9233V23.9067C44.2609 22.5371 43.2233 21.4663 41.8952 21.4663C40.5754 21.4663 39.5212 22.5205 39.5212 23.8569V23.8735C39.5212 25.2598 40.509 26.2559 41.8703 26.2559ZM50.0204 24.2388C49.265 24.2388 48.7006 23.6577 48.7006 22.9272C48.7006 22.1885 49.265 21.6157 50.0204 21.6157C50.7841 21.6157 51.3402 22.1885 51.3402 22.9272C51.3402 23.6577 50.7841 24.2388 50.0204 24.2388ZM50.0204 30.3979C49.265 30.3979 48.7006 29.8252 48.7006 29.0864C48.7006 28.3477 49.265 27.7749 50.0204 27.7749C50.7841 27.7749 51.3402 28.3477 51.3402 29.0864C51.3402 29.8252 50.7841 30.3979 50.0204 30.3979ZM59.1915 32V29.7007H53.3312V27.9492C54.8834 25.2515 56.5851 22.4956 58.212 20.022H61.2418V27.9326H62.8522V29.7007H61.2418V32H59.1915ZM55.3233 27.9824H59.2247V21.7319H59.1002C57.8717 23.6079 56.4855 25.8242 55.3233 27.8579V27.9824ZM67.408 32V22.1304H67.2669L64.2869 24.2388V22.2217L67.4163 20.022H69.5496V32H67.408Z" fill="white"/>
<path opacity="0.35" d="M340 19.5273H357C358.918 19.5273 360.473 21.0822 360.473 23V28C360.473 29.9178 358.918 31.4727 357 31.4727H340C338.082 31.4727 336.527 29.9178 336.527 28V23C336.527 21.0822 338.082 19.5273 340 19.5273Z" stroke="white" stroke-width="1.05509"/>
<path opacity="0.4" d="M362 24V28.2203C362.849 27.8629 363.401 27.0314 363.401 26.1102C363.401 25.1889 362.849 24.3574 362 24Z" fill="white"/>
<path d="M338 23C338 21.8954 338.895 21 340 21H357C358.105 21 359 21.8954 359 23V28C359 29.1046 358.105 30 357 30H340C338.895 30 338 29.1046 338 28V23Z" fill="white"/>
<path fill-rule="evenodd" clip-rule="evenodd" d="M318.115 29.0848C319.535 27.8592 321.614 27.8593 323.034 29.0848C323.106 29.1507 323.147 29.2443 323.149 29.3426C323.151 29.4408 323.114 29.5355 323.045 29.6043L320.821 31.8943C320.756 31.9615 320.668 31.9997 320.575 31.9998C320.482 31.9998 320.393 31.9616 320.328 31.8943L318.104 29.6043C318.036 29.5354 317.998 29.4408 318 29.3426C318.002 29.2443 318.044 29.1506 318.115 29.0848ZM315.109 26.2615C318.168 23.3569 322.906 23.3569 325.965 26.2615C326.034 26.3296 326.073 26.4233 326.074 26.5213C326.075 26.6192 326.037 26.7136 325.97 26.783L324.685 28.1082C324.552 28.2435 324.338 28.2468 324.202 28.115C323.198 27.1866 321.891 26.6716 320.536 26.6717C319.182 26.6722 317.876 27.1871 316.872 28.115C316.736 28.2468 316.522 28.2435 316.39 28.1082L315.104 26.783C315.037 26.7137 314.999 26.6192 315 26.5213C315.001 26.4233 315.04 26.3296 315.109 26.2615ZM312.107 23.4422C316.799 18.8526 324.201 18.8526 328.893 23.4422C328.961 23.5104 328.999 23.6037 329 23.701C329 23.7981 328.963 23.8918 328.896 23.9607L327.609 25.2859C327.477 25.4219 327.262 25.4236 327.127 25.2898C325.339 23.5551 322.967 22.5878 320.5 22.5877C318.033 22.5878 315.661 23.5551 313.873 25.2898C313.739 25.4237 313.523 25.4221 313.391 25.2859L312.104 23.9607C312.037 23.8918 312 23.798 312 23.701C312.001 23.6037 312.039 23.5103 312.107 23.4422Z" fill="white"/>
<path d="M296 23C296 22.4477 296.448 22 297 22H298C298.552 22 299 22.4477 299 23V31C299 31.5523 298.552 32 298 32H297C296.448 32 296 31.5523 296 31V23Z" fill="white"/>
<path d="M301 21C301 20.4477 301.448 20 302 20H303C303.552 20 304 20.4477 304 21V31C304 31.5523 303.552 32 303 32H302C301.448 32 301 31.5523 301 31V21Z" fill="white"/>
<path d="M291 26.5C291 25.9477 291.448 25.5 292 25.5H293C293.552 25.5 294 25.9477 294 26.5V31C294 31.5523 293.552 32 293 32H292C291.448 32 291 31.5523 291 31V26.5Z" fill="white"/>
<path d="M286 29C286 28.4477 286.448 28 287 28H288C288.552 28 289 28.4477 289 29V31C289 31.5523 288.552 32 288 32H287C286.448 32 286 31.5523 286 31V29Z" fill="white"/>
<circle cx="294.998" cy="11" r="3" fill="#34C759"/>
</g>
</g>
<defs>
<clipPath id="clip0_324_10121">
<rect width="390" height="844" rx="12" fill="white"/>
</clipPath>
<clipPath id="clip1_324_10121">
<rect width="390" height="47" fill="white"/>
</clipPath>
</defs>
</svg>
